<svg xmlns="http://www.w3.org/2000/svg" xmlns:xlink="http://www.w3.org/1999/xlink" version="1.1" width="289.83pt" height="149.91pt" viewBox="0 0 289.83 149.91">
<defs>
<path id="font_0_4" d="M.33399964 .30233766C.33999635 .32835389 .36299134 .42037965 .43299867 .42037965 .43798829 .42037965 .46199037 .42037965 .48298646 .40734864 .45498658 .402359 .43499757 .37734986 .43499757 .35334779 .43499757 .33735658 .44599916 .31835938 .47299195 .31835938 .49499513 .31835938 .5269928 .3363495 .5269928 .37635804 .5269928 .42837525 .46798707 .4423828 .43399049 .4423828 .37599183 .4423828 .34098817 .38935853 .32899476 .36634828 .3039856 .43237306 .25 .4423828 .22099304 .4423828 .116989139 .4423828 .05999756 .3133545 .05999756 .28834535 .05999756 .27833558 .069992069 .27833558 .07199097 .27833558 .07998657 .27833558 .08299255 .28033448 .084991458 .28933717 .11898804 .39535523 .18499756 .42037965 .21899414 .42037965 .23799134 .42037965 .272995 .4113617 .272995 .35334779 .272995 .32235719 .2559967 .25532533 .21899414 .11528015 .20298767 .053268434 .16799927 .011245728 .12399292 .011245728 .117996219 .011245728 .09498596 .011245728 .07398987 .024276734 .09899902 .029266358 .12098694 .05027771 .12098694 .07827759 .12098694 .105270389 .09899902 .11328125 .083999637 .11328125 .053985597 .11328125 .0289917 .08728027 .0289917 .055267335 .0289917 .009246826 .07899475-.0107421879 .12298584-.0107421879 .18899536-.0107421879 .22499085 .059280397 .22799683 .0652771 .23999024 .028274537 .27598573-.0107421879 .33599855-.0107421879 .43899537-.0107421879 .49598695 .118270877 .49598695 .14328003 .49598695 .1532898 .4869995 .1532898 .48399354 .1532898 .47499085 .1532898 .47299195 .14929199 .47099305 .14228821 .43798829 .03527832 .36999513 .011245728 .33799745 .011245728 .29899598 .011245728 .2829895 .043273927 .2829895 .07727051 .2829895 .09927368 .2889862 .121276859 .2999878 .16529846L.33399964 .30233766Z"/>
<path id="font_0_3" d="M.20599365 .3996582H.2999878C.31999208 .3996582 .32998658 .3996582 .32998658 .41966249 .32998658 .43066407 .31999208 .43066407 .3019867 .43066407H.21398926C.25 .5724945 .25498963 .59246829 .25498963 .59846499 .25498963 .61546328 .24299622 .62545779 .22599793 .62545779 .22299195 .62545779 .19499207 .62446597 .18598938 .58947756L.14698792 .43066407H.052993776C.032989503 .43066407 .022994996 .43066407 .022994996 .4116516 .022994996 .3996582 .0309906 .3996582 .050994874 .3996582H.13899231C.066986087 .11608887 .06298828 .099121097 .06298828 .08114624 .06298828 .02722168 .100997928-.0107421879 .15499878-.0107421879 .25698854-.0107421879 .31399537 .13505554 .31399537 .14305115 .31399537 .1530304 .30599977 .1530304 .3019867 .1530304 .29299928 .1530304 .2919922 .15003968 .2869873 .13905335 .24398804 .035217287 .19099427 .011245728 .15699768 .011245728 .13598633 .011245728 .12599182 .024230957 .12599182 .057174684 .12599182 .08114624 .12799073 .088134769 .13198853 .10510254L.20599365 .3996582Z"/>
<path id="font_0_1" d="M.35699464 .29231263C.397995 .18730164 .44599916 .034301759 .46199037 .011291504 .47799684-.010696411 .48799134-.010696411 .5149994-.010696411H.5369873C.5469971-.00970459 .5479889-.0037078858 .5479889-.0007019043 .5479889 .0023040772 .54599 .0043029787 .54299929 .008300781 .5329895 .019302369 .5269928 .034301759 .519989 .05430603L.31599427 .62332156C.29499818 .68133547 .24099732 .69433596 .19400025 .69433596 .18899536 .69433596 .17599488 .69433596 .17599488 .68333438 .17599488 .6753235 .18399048 .6733246 .18499756 .6733246 .21798706 .6673279 .22499085 .6613312 .25 .59332278L.34700013 .32130433 .070999149 .047302247C.05899048 .03529358 .052993776 .029296875 .052993776 .016296387 .052993776-.0007019043 .066986087-.0126953129 .08299255-.0126953129 .09899902-.0126953129 .10798645-.0017089844 .115997318 .008300781L.35699464 .29231263Z"/>
<path id="font_1_1" d="M.74398806 .2263794C.7599945 .2263794 .7839966 .2263794 .7839966 .25038148 .7839966 .27539063 .7609863 .27539063 .74398806 .27539063H.147995C.13198853 .27539063 .10798645 .27539063 .10798645 .25138856 .10798645 .2263794 .1309967 .2263794 .147995 .2263794H.74398806Z"/>
<path id="font_2_1" d="M.68699648 .32714845C.70199587 .32714845 .72099307 .32714845 .72099307 .34713746 .72099307 .36714173 .70199587 .36714173 .6879883 .36714173H.08898926C.07499695 .36714173 .055999757 .36714173 .055999757 .34713746 .055999757 .32714845 .07499695 .32714845 .08999634 .32714845H.68699648M.6879883 .13284302C.70199587 .13284302 .72099307 .13284302 .72099307 .15284729 .72099307 .17285156 .70199587 .17285156 .68699648 .17285156H.08999634C.07499695 .17285156 .055999757 .17285156 .055999757 .15284729 .055999757 .13284302 .07499695 .13284302 .08898926 .13284302H.6879883Z"/>
<path id="font_0_2" d="M.3909912 .37405396C.36299134 .37304688 .34298707 .3510437 .34298707 .32904054 .34298707 .31503297 .35198976 .30003358 .37399293 .30003358 .3959961 .30003358 .41999818 .31703187 .41999818 .35603334 .41999818 .40124513 .3769989 .4423828 .30099488 .4423828 .16899109 .4423828 .13198853 .3400421 .13198853 .29605104 .13198853 .21820069 .20599365 .20323181 .23498535 .19725037 .2869873 .18727112 .33898927 .17628479 .33898927 .12133789 .33898927 .095336917 .31599427 .011245728 .19599915 .011245728 .18199158 .011245728 .10499573 .011245728 .08198547 .064331058 .11999512 .059326173 .14498902 .08934021 .14498902 .11734009 .14498902 .14033509 .1289978 .15234375 .10798645 .15234375 .08198547 .15234375 .051986696 .1313324 .051986696 .08633423 .051986696 .029281617 .10899353-.0107421879 .19499207-.0107421879 .35699464-.0107421879 .3959961 .1103363 .3959961 .15533448 .3959961 .19125366 .3769989 .21620178 .36499024 .22817993 .33799745 .25613404 .30899049 .26112367 .2649994 .27009584 .22898865 .27807618 .18899536 .2850647 .18899536 .33003236 .18899536 .3590393 .21299744 .42037965 .30099488 .42037965 .32598878 .42037965 .37599183 .41333009 .3909912 .37405396Z"/>
<path id="font_3_1" d="M.46299745 .2263794H.7689972C.7819977 .2263794 .80599978 .2263794 .80599978 .25038148 .80599978 .27539063 .7829895 .27539063 .7689972 .27539063H.46299745V.5821533C.46299745 .59513857 .46299745 .6191406 .43899537 .6191406 .4139862 .6191406 .4139862 .5961304 .4139862 .5821533V.27539063H.10699463C.09399414 .27539063 .069992069 .27539063 .069992069 .25138856 .069992069 .2263794 .09298706 .2263794 .10699463 .2263794H.4139862V-.08114624C.4139862-.09416199 .4139862-.11816406 .43798829-.11816406 .46299745-.11816406 .46299745-.09516907 .46299745-.08114624V.2263794Z"/>
</defs>
<path transform="matrix(1,0,0,-1,141.931,148.117)" stroke-width=".3985" stroke-linecap="butt" stroke-miterlimit="10" stroke-linejoin="miter" fill="none" stroke="#929292" d="M-141.73404 0H0"/>
<path transform="matrix(1,0,0,-1,141.931,148.117)" stroke-width=".3985" stroke-linecap="butt" stroke-miterlimit="10" stroke-linejoin="miter" fill="none" stroke="#929292" d="M0 0H138.67014"/>
<path transform="matrix(1,0,0,-1,278.88294,148.117)" d="M4.21463 0 .64343 1.34572 1.8178 0 .64343-1.34572Z" fill="#929292"/>
<path transform="matrix(1,0,0,-1,278.88294,148.117)" stroke-width=".3985" stroke-linecap="butt" stroke-miterlimit="10" stroke-linejoin="miter" fill="none" stroke="#929292" d="M4.21463 0 .64343 1.34572 1.8178 0 .64343-1.34572Z"/>
<use data-text="x" xlink:href="#font_0_4" transform="matrix(9.9626,0,0,-9.9626,280.818,144.59702)" fill="#929292"/>
<path transform="matrix(1,0,0,-1,141.931,148.117)" stroke-width=".3985" stroke-linecap="butt" stroke-miterlimit="10" stroke-linejoin="miter" fill="none" stroke="#929292" d="M0 0V138.67014"/>
<path transform="matrix(0,-1,-1,-0,141.931,11.16507)" d="M4.21463 0 .64343 1.34572 1.8178 0 .64343-1.34572Z" fill="#929292"/>
<path transform="matrix(0,-1,-1,-0,141.931,11.16507)" stroke-width=".3985" stroke-linecap="butt" stroke-miterlimit="10" stroke-linejoin="miter" fill="none" stroke="#929292" d="M4.21463 0 .64343 1.34572 1.8178 0 .64343-1.34572Z"/>
<use data-text="t" xlink:href="#font_0_3" transform="matrix(9.9626,0,0,-9.9626,134.814,9.447006)" fill="#929292"/>
<path transform="matrix(1,0,0,-1,141.931,148.117)" stroke-width=".3985" stroke-linecap="butt" stroke-miterlimit="10" stroke-linejoin="miter" fill="none" stroke="#000000" d="M-127.56062 0-99.95683 110.41483"/>
<path transform="matrix(.24251,-.97014,-.97014,-.24251,41.557504,39.369066)" d="M4.21463 0 .64343 1.34572 1.8178 0 .64343-1.34572Z"/>
<path transform="matrix(.24251,-.97014,-.97014,-.24251,41.557504,39.369066)" stroke-width=".3985" stroke-linecap="butt" stroke-miterlimit="10" stroke-linejoin="miter" fill="none" stroke="#000000" d="M4.21463 0 .64343 1.34572 1.8178 0 .64343-1.34572Z"/>
<path transform="matrix(1,0,0,-1,141.931,148.117)" stroke-width=".3985" stroke-linecap="butt" stroke-miterlimit="10" stroke-linejoin="miter" fill="none" stroke="#000000" d="M-102.04868 0-74.44487 110.41483"/>
<path transform="matrix(.24251,-.97014,-.97014,-.24251,67.06946,39.369066)" d="M4.21463 0 .64343 1.34572 1.8178 0 .64343-1.34572Z"/>
<path transform="matrix(.24251,-.97014,-.97014,-.24251,67.06946,39.369066)" stroke-width=".3985" stroke-linecap="butt" stroke-miterlimit="10" stroke-linejoin="miter" fill="none" stroke="#000000" d="M4.21463 0 .64343 1.34572 1.8178 0 .64343-1.34572Z"/>
<path transform="matrix(1,0,0,-1,141.931,148.117)" stroke-width=".3985" stroke-linecap="butt" stroke-miterlimit="10" stroke-linejoin="miter" fill="none" stroke="#000000" d="M-76.53673 0-48.93292 110.41483"/>
<path transform="matrix(.24251,-.97014,-.97014,-.24251,92.5814,39.369066)" d="M4.21463 0 .64343 1.34572 1.8178 0 .64343-1.34572Z"/>
<path transform="matrix(.24251,-.97014,-.97014,-.24251,92.5814,39.369066)" stroke-width=".3985" stroke-linecap="butt" stroke-miterlimit="10" stroke-linejoin="miter" fill="none" stroke="#000000" d="M4.21463 0 .64343 1.34572 1.8178 0 .64343-1.34572Z"/>
<path transform="matrix(1,0,0,-1,141.931,148.117)" stroke-width=".3985" stroke-linecap="butt" stroke-miterlimit="10" stroke-linejoin="miter" fill="none" stroke="#000000" d="M-51.02477 0-23.42096 110.41483"/>
<path transform="matrix(.24251,-.97014,-.97014,-.24251,118.09337,39.369066)" d="M4.21463 0 .64343 1.34572 1.8178 0 .64343-1.34572Z"/>
<path transform="matrix(.24251,-.97014,-.97014,-.24251,118.09337,39.369066)" stroke-width=".3985" stroke-linecap="butt" stroke-miterlimit="10" stroke-linejoin="miter" fill="none" stroke="#000000" d="M4.21463 0 .64343 1.34572 1.8178 0 .64343-1.34572Z"/>
<path transform="matrix(1,0,0,-1,141.931,148.117)" stroke-width=".3985" stroke-linecap="butt" stroke-miterlimit="10" stroke-linejoin="miter" fill="none" stroke="#000000" d="M-25.5128 0 2.09096 110.41483"/>
<path transform="matrix(.24251,-.97014,-.97014,-.24251,143.60529,39.369066)" d="M4.21463 0 .64343 1.34572 1.8178 0 .64343-1.34572Z"/>
<path transform="matrix(.24251,-.97014,-.97014,-.24251,143.60529,39.369066)" stroke-width=".3985" stroke-linecap="butt" stroke-miterlimit="10" stroke-linejoin="miter" fill="none" stroke="#000000" d="M4.21463 0 .64343 1.34572 1.8178 0 .64343-1.34572Z"/>
<path transform="matrix(1,0,0,-1,141.931,148.117)" stroke-width=".3985" stroke-linecap="butt" stroke-miterlimit="10" stroke-linejoin="miter" fill="none" stroke="#000000" d="M-.00084 0 27.60292 110.41483"/>
<path transform="matrix(.24251,-.97014,-.97014,-.24251,169.11725,39.369066)" d="M4.21463 0 .64343 1.34572 1.8178 0 .64343-1.34572Z"/>
<path transform="matrix(.24251,-.97014,-.97014,-.24251,169.11725,39.369066)" stroke-width=".3985" stroke-linecap="butt" stroke-miterlimit="10" stroke-linejoin="miter" fill="none" stroke="#000000" d="M4.21463 0 .64343 1.34572 1.8178 0 .64343-1.34572Z"/>
<path transform="matrix(1,0,0,-1,141.931,148.117)" stroke-width=".3985" stroke-linecap="butt" stroke-miterlimit="10" stroke-linejoin="miter" fill="none" stroke="#000000" d="M25.51108 0 53.11487 110.41483"/>
<path transform="matrix(.24251,-.97014,-.97014,-.24251,194.6292,39.369066)" d="M4.21463 0 .64343 1.34572 1.8178 0 .64343-1.34572Z"/>
<path transform="matrix(.24251,-.97014,-.97014,-.24251,194.6292,39.369066)" stroke-width=".3985" stroke-linecap="butt" stroke-miterlimit="10" stroke-linejoin="miter" fill="none" stroke="#000000" d="M4.21463 0 .64343 1.34572 1.8178 0 .64343-1.34572Z"/>
<path transform="matrix(1,0,0,-1,141.931,148.117)" stroke-width=".3985" stroke-linecap="butt" stroke-miterlimit="10" stroke-linejoin="miter" fill="none" stroke="#000000" d="M51.02303 0 78.62683 110.41483"/>
<path transform="matrix(.24251,-.97014,-.97014,-.24251,220.14116,39.369066)" d="M4.21463 0 .64343 1.34572 1.8178 0 .64343-1.34572Z"/>
<path transform="matrix(.24251,-.97014,-.97014,-.24251,220.14116,39.369066)" stroke-width=".3985" stroke-linecap="butt" stroke-miterlimit="10" stroke-linejoin="miter" fill="none" stroke="#000000" d="M4.21463 0 .64343 1.34572 1.8178 0 .64343-1.34572Z"/>
<path transform="matrix(1,0,0,-1,141.931,148.117)" stroke-width=".3985" stroke-linecap="butt" stroke-miterlimit="10" stroke-linejoin="miter" fill="none" stroke="#000000" d="M76.53499 0 104.1388 110.41483"/>
<path transform="matrix(.24251,-.97014,-.97014,-.24251,245.65312,39.369066)" d="M4.21463 0 .64343 1.34572 1.8178 0 .64343-1.34572Z"/>
<path transform="matrix(.24251,-.97014,-.97014,-.24251,245.65312,39.369066)" stroke-width=".3985" stroke-linecap="butt" stroke-miterlimit="10" stroke-linejoin="miter" fill="none" stroke="#000000" d="M4.21463 0 .64343 1.34572 1.8178 0 .64343-1.34572Z"/>
<path transform="matrix(1,0,0,-1,141.931,148.117)" stroke-width=".3985" stroke-linecap="butt" stroke-miterlimit="10" stroke-linejoin="miter" fill="none" stroke="#000000" d="M102.04694 0 129.65073 110.41483"/>
<path transform="matrix(.24251,-.97014,-.97014,-.24251,271.16508,39.369066)" d="M4.21463 0 .64343 1.34572 1.8178 0 .64343-1.34572Z"/>
<path transform="matrix(.24251,-.97014,-.97014,-.24251,271.16508,39.369066)" stroke-width=".3985" stroke-linecap="butt" stroke-miterlimit="10" stroke-linejoin="miter" fill="none" stroke="#000000" d="M4.21463 0 .64343 1.34572 1.8178 0 .64343-1.34572Z"/>
<path transform="matrix(1,0,0,-1,141.931,148.117)" stroke-width="1.19553" stroke-linecap="butt" stroke-miterlimit="10" stroke-linejoin="miter" fill="none" stroke="#000000" d="M0 0 27.09625 108.38446"/>
<path transform="matrix(.24251,-.97014,-.97014,-.24251,168.24834,42.84857)" d="M6.66628 0 1.93044 1.79556 3.5108 0 1.93044-1.79556Z"/>
<path transform="matrix(.24251,-.97014,-.97014,-.24251,168.24834,42.84857)" stroke-width="1.19553" stroke-linecap="butt" stroke-miterlimit="10" stroke-linejoin="miter" fill="none" stroke="#000000" d="M6.66628 0 1.93044 1.79556 3.5108 0 1.93044-1.79556Z"/>
<use data-text="&#x03bb;" xlink:href="#font_0_1" transform="matrix(9.9626,0,0,-9.9626,142.17801,28.487008)"/>
<use data-text="&#x2212;" xlink:href="#font_1_1" transform="matrix(6.9738,0,0,-6.9738,147.98999,29.98101)"/>
<use data-text="=" xlink:href="#font_2_1" transform="matrix(9.9626,0,0,-9.9626,157.482,28.487008)"/>
<use data-text="s" xlink:href="#font_0_2" transform="matrix(9.9626,0,0,-9.9626,167.99799,28.487008)"/>
<use data-text="=" xlink:href="#font_2_1" transform="matrix(9.9626,0,0,-9.9626,175.436,28.487008)"/>
<use data-text="&#x03bb;" xlink:href="#font_0_1" transform="matrix(9.9626,0,0,-9.9626,185.952,28.487008)"/>
<use data-text="+" xlink:href="#font_3_1" transform="matrix(6.9738,0,0,-6.9738,191.763,29.98101)"/>
</svg>
