<svg xmlns="http://www.w3.org/2000/svg" xmlns:xlink="http://www.w3.org/1999/xlink" version="1.1" width="432pt" height="216pt" viewBox="0 0 432 216">
<defs>
<clipPath id="clip_0">
<path transform="matrix(1,0,0,-1,0,216)" d="M46.7525 43.535H421.2V205.2H46.7525Z"/>
</clipPath>
<g id="font_1_49">
<path transform="matrix(.001,0,0,.001,0,0)" d="M385 57C367 57 345 58 319 59 293 59 266 60 238 60 210 60 182 59 156 59 130 58 108 57 91 57V86L153 95C176 100 188 113 188 134V600L69 523 52 554C63 561 77 570 95 581 112 591 130 603 150 616 169 628 188 641 208 655 227 668 245 681 261 695H294V134C294 110 305 97 329 94L385 86V57Z"/>
</g>
<g id="font_1_46">
<path transform="matrix(.001,0,0,.001,0,0)" d="M110 46C92 46 78 52 66 64 54 76 48 90 48 108 48 125 54 140 66 152 78 164 92 170 110 170 127 170 142 164 154 152 166 140 172 125 172 108 172 90 166 76 154 64 142 52 127 46 110 46Z"/>
</g>
<g id="font_1_57">
<path transform="matrix(.001,0,0,.001,0,0)" d="M259 316C241 307 222 303 203 303 179 303 156 306 135 314 113 321 95 332 79 347 63 361 50 380 41 403 32 425 28 452 28 483 28 513 33 542 44 568 54 594 69 616 87 635 105 654 127 669 151 679 175 689 201 695 229 695 258 695 285 689 310 678 334 666 355 650 373 628 391 606 405 580 415 550 425 519 430 485 430 447 430 396 421 348 403 302 385 256 361 214 331 178 300 142 263 111 221 87 179 63 133 47 85 41L81 63C122 73 157 91 185 116 213 140 236 170 254 204 272 238 284 277 292 320 300 363 304 408 304 456 304 484 303 512 301 538 299 564 296 588 291 608 286 628 279 643 269 655 259 667 245 673 229 673 213 673 200 667 190 657 180 646 171 632 165 615 159 598 154 579 152 558 149 536 148 515 148 494 148 476 149 457 153 438 157 419 162 402 170 387 177 371 186 359 197 349 207 339 220 334 234 334 243 334 250 335 256 337L259 316Z"/>
</g>
<g id="font_1_48">
<path transform="matrix(.001,0,0,.001,0,0)" d="M237 695C265 695 293 686 319 669 345 652 368 629 388 600 408 570 423 536 435 496 447 456 453 414 453 369 453 324 447 282 436 243 424 203 409 169 389 139 369 109 347 86 321 69 295 52 267 44 238 44 209 44 181 52 155 69 129 85 106 108 86 137 66 166 50 200 38 240 26 280 21 322 21 368 21 414 26 457 38 497 50 537 65 571 85 601 105 630 128 653 154 670 180 686 207 695 237 695ZM237 81C273 81 298 104 312 151 325 197 332 270 332 369 332 467 325 540 311 587 297 634 273 658 237 658 201 658 176 634 162 588 148 541 142 468 142 369 142 177 173 81 237 81Z"/>
</g>
<clipPath id="clip_2">
<path transform="matrix(1,0,0,-1,0,216)" d="M46.7525 43.535H421.2V205.2H46.7525Z"/>
</clipPath>
<g id="font_1_50">
<path transform="matrix(.001,0,0,.001,0,0)" d="M426 57C402 57 376 58 348 59 320 59 284 60 241 60 197 60 157 59 121 59 85 59 56 58 33 57 35 73 37 88 41 103 44 117 50 133 59 149 67 165 79 183 94 203 109 222 129 245 155 271L192 309C218 335 238 357 254 377 269 396 281 413 289 429 297 445 302 460 304 474 306 488 307 503 307 519 307 550 297 575 278 594 258 612 232 622 200 622 166 622 138 611 116 589 94 567 80 535 72 494L41 506C50 567 72 614 108 646 144 678 188 695 242 695 266 695 288 691 310 685 331 678 350 668 366 655 382 642 394 626 404 607 414 588 419 566 419 542 419 516 414 492 405 470 395 448 383 427 367 407 351 387 332 369 311 351 290 333 268 315 246 298L216 274C198 260 180 243 161 223 141 203 123 179 107 153H324C340 153 353 154 362 158 370 161 377 166 382 174 387 182 391 191 395 203 399 215 404 229 410 245H441L426 57Z"/>
</g>
<g id="font_1_53">
<path transform="matrix(.001,0,0,.001,0,0)" d="M389 588H240C214 588 191 587 171 587 151 587 139 586 137 585L128 450C142 457 159 462 179 466 198 469 215 471 231 471 265 471 294 465 320 454 346 443 367 428 385 410 402 392 415 371 424 347 432 323 437 298 437 272 437 238 430 207 416 179 402 151 383 127 361 107 338 87 312 71 284 60 255 49 226 44 196 44 180 44 164 45 146 48 128 51 111 55 95 61 79 67 66 74 56 82 46 90 41 100 41 112 41 120 43 127 49 133 54 139 60 144 68 148 75 152 83 154 91 154 99 154 105 151 111 147 127 133 140 122 150 113 160 103 170 96 178 90 186 84 193 79 201 77 208 74 217 73 227 73 245 73 262 77 276 86 290 94 301 106 311 121 321 136 328 154 333 174 338 194 341 215 341 238 341 259 337 278 331 296 324 314 315 329 303 342 291 355 276 365 260 373 244 380 226 384 206 384 183 384 164 381 149 376 134 371 122 364 113 355H96L115 685H241C267 685 288 685 305 685 321 685 334 685 344 687 354 689 361 691 365 695 369 699 371 704 373 712H398L389 588Z"/>
</g>
<clipPath id="clip_3">
<path transform="matrix(1,0,0,-1,0,216)" d="M46.7525 43.535H421.2V205.2H46.7525Z"/>
</clipPath>
<clipPath id="clip_4">
<path transform="matrix(1,0,0,-1,0,216)" d="M46.7525 43.535H421.2V205.2H46.7525Z"/>
</clipPath>
<g id="font_1_55">
<path transform="matrix(.001,0,0,.001,0,0)" d="M56 685H441V668C429 648 414 612 394 562 374 511 349 444 319 361 261 197 229 96 223 60H163C171 94 180 130 191 166 201 202 214 242 228 284 242 326 259 371 278 420 296 469 318 523 342 583H99C81 583 72 578 72 570L64 528H42L56 685Z"/>
</g>
<clipPath id="clip_5">
<path transform="matrix(1,0,0,-1,0,216)" d="M46.7525 43.535H421.2V205.2H46.7525Z"/>
</clipPath>
<clipPath id="clip_6">
<path transform="matrix(1,0,0,-1,0,216)" d="M46.7525 43.535H421.2V205.2H46.7525Z"/>
</clipPath>
<clipPath id="clip_7">
<path transform="matrix(1,0,0,-1,0,216)" d="M46.7525 43.535H421.2V205.2H46.7525Z"/>
</clipPath>
<clipPath id="clip_8">
<path transform="matrix(1,0,0,-1,0,216)" d="M46.7525 43.535H421.2V205.2H46.7525Z"/>
</clipPath>
<clipPath id="clip_9">
<path transform="matrix(1,0,0,-1,0,216)" d="M46.7525 43.535H421.2V205.2H46.7525Z"/>
</clipPath>
<g id="font_1_32">
</g>
<g id="font_10_88">
<path transform="matrix(.001,0,0,.001,0,0)" d="M137 729H237L362 466 588 729H703L403 381 584 0H485L338 307 72 0H-42L298 392 137 729Z"/>
</g>
<clipPath id="clip_11">
<path transform="matrix(.01,0,0,-.01,203.97626,200.4025)" d="M-99-150H1032V860H-99Z"/>
</clipPath>
<clipPath id="clip_12">
<path transform="matrix(.01,0,0,-.01,213.97624,200.4025)" d="M-99-150H1032V860H-99Z"/>
</clipPath>
<clipPath id="clip_13">
<path transform="matrix(.01,0,0,-.01,223.97623,200.4025)" d="M-99-150H1032V860H-99Z"/>
</clipPath>
<clipPath id="clip_14">
<path transform="matrix(.01,0,0,-.01,233.97621,200.4025)" d="M-99-150H1032V860H-99Z"/>
</clipPath>
<clipPath id="clip_15">
<path transform="matrix(.01,0,0,-.01,243.9762,200.4025)" d="M-99-150H1032V860H-99Z"/>
</clipPath>
<clipPath id="clip_16">
<path transform="matrix(1,0,0,-1,0,216)" d="M46.7525 43.535H421.2V205.2H46.7525Z"/>
</clipPath>
<g id="font_1_45">
<path transform="matrix(.001,0,0,.001,0,0)" d="M38 277H275V234H38V277Z"/>
</g>
<clipPath id="clip_17">
<path transform="matrix(1,0,0,-1,0,216)" d="M46.7525 43.535H421.2V205.2H46.7525Z"/>
</clipPath>
<clipPath id="clip_18">
<path transform="matrix(1,0,0,-1,0,216)" d="M46.7525 43.535H421.2V205.2H46.7525Z"/>
</clipPath>
<clipPath id="clip_19">
<path transform="matrix(1,0,0,-1,0,216)" d="M46.7525 43.535H421.2V205.2H46.7525Z"/>
</clipPath>
<clipPath id="clip_20">
<path transform="matrix(1,0,0,-1,0,216)" d="M46.7525 43.535H421.2V205.2H46.7525Z"/>
</clipPath>
<clipPath id="clip_21">
<path transform="matrix(1,0,0,-1,0,216)" d="M46.7525 43.535H421.2V205.2H46.7525Z"/>
</clipPath>
<clipPath id="clip_22">
<path transform="matrix(1,0,0,-1,0,216)" d="M46.7525 43.535H421.2V205.2H46.7525Z"/>
</clipPath>
<g id="font_10_85">
<path transform="matrix(.001,0,0,.001,0,0)" d="M155 729H254L168 286C164 266 162 249 160 237 158 224 158 213 158 203 158 158 170 124 195 101 220 77 257 66 306 66 368 66 417 83 452 117 487 151 512 208 528 286L614 729H713L625 274C605 175 569 102 515 56 461 10 388-13 295-13 222-13 164 5 122 41 79 77 58 127 58 190 58 201 58 214 60 228 62 242 64 258 68 274L155 729Z"/>
</g>
<clipPath id="clip_23">
<path transform="matrix(0,-.01,-.01,-0,20.59625,126.6325)" d="M-99-150H1032V860H-99Z"/>
</clipPath>
<clipPath id="clip_24">
<path transform="matrix(0,-.01,-.01,-0,20.59625,116.632518)" d="M-99-150H1032V860H-99Z"/>
</clipPath>
<clipPath id="clip_25">
<path transform="matrix(0,-.01,-.01,-0,20.59625,106.63253)" d="M-99-150H1032V860H-99Z"/>
</clipPath>
<clipPath id="clip_26">
<path transform="matrix(0,-.01,-.01,-0,20.59625,96.632549)" d="M-99-150H1032V860H-99Z"/>
</clipPath>
<clipPath id="clip_27">
<path transform="matrix(0,-.01,-.01,-0,20.59625,86.63256)" d="M-99-150H1032V860H-99Z"/>
</clipPath>
<clipPath id="clip_28">
<path transform="matrix(0,-.01,-.01,-0,20.59625,76.632579)" d="M-99-150H1032V860H-99Z"/>
</clipPath>
<clipPath id="clip_29">
<path transform="matrix(1,0,0,-1,0,216)" d="M46.7525 43.535H421.2V205.2H46.7525Z"/>
</clipPath>
<clipPath id="clip_30">
<path transform="matrix(1,0,0,-1,0,216)" d="M46.7525 43.535H421.2V205.2H46.7525Z"/>
</clipPath>
<clipPath id="clip_31">
<path transform="matrix(1,0,0,-1,0,216)" d="M46.7525 43.535H421.2V205.2H46.7525Z"/>
</clipPath>
<clipPath id="clip_32">
<path transform="matrix(1,0,0,-1,0,216)" d="M46.7525 43.535H421.2V205.2H46.7525Z"/>
</clipPath>
<clipPath id="clip_33">
<path transform="matrix(.01,0,0,-.01,83.7525,27.909379)" d="M-99-150H1032V860H-99Z"/>
</clipPath>
<clipPath id="clip_34">
<path transform="matrix(.01,0,0,-.01,93.75249,27.909379)" d="M-99-150H1032V860H-99Z"/>
</clipPath>
<clipPath id="clip_35">
<path transform="matrix(.01,0,0,-.01,103.75247,27.909379)" d="M-99-150H1032V860H-99Z"/>
</clipPath>
<g id="font_10_104">
<path transform="matrix(.001,0,0,.001,0,0)" d="M557 330 493 0H403L467 327C469 342 471 355 473 367 475 379 476 388 476 395 476 422 467 443 450 459 432 474 408 482 378 482 330 482 288 465 253 433 217 400 194 357 184 303L125 0H35L183 760H273L215 461C237 491 266 515 302 533 337 551 374 560 414 560 462 560 499 547 526 521 552 495 566 458 566 411 566 399 565 387 564 374 562 360 560 346 557 330Z"/>
</g>
<g id="font_36_49">
<path transform="matrix(.001,0,0,.001,0,0)" d="M124 83H285V639L110 604V694L284 729H383V83H544V0H124V83Z"/>
</g>
<g id="font_36_47">
<path transform="matrix(.001,0,0,.001,0,0)" d="M254 729H337L83-92H0L254 729Z"/>
</g>
<g id="font_36_56">
<path transform="matrix(.001,0,0,.001,0,0)" d="M318 346C271 346 234 333 207 308 180 283 167 249 167 205 167 161 180 126 207 101 234 76 271 64 318 64 364 64 401 76 428 102 455 127 469 161 469 205 469 249 455 283 429 308 402 333 365 346 318 346ZM219 388C177 398 144 418 120 447 96 476 85 511 85 553 85 611 105 657 147 691 188 725 245 742 318 742 390 742 447 725 489 691 530 657 551 611 551 553 551 511 539 476 515 447 491 418 459 398 417 388 464 377 501 355 528 323 554 291 568 251 568 205 568 134 546 80 503 43 459 5 397-13 317-13 237-13 175 5 132 43 89 80 68 134 68 205 68 251 81 291 108 323 134 355 171 377 219 388ZM183 544C183 506 194 476 218 455 242 434 275 424 318 424 360 424 393 434 417 455 441 476 453 506 453 544 453 582 441 611 417 632 393 653 360 664 318 664 275 664 242 653 218 632 194 611 183 582 183 544Z"/>
</g>
<clipPath id="clip_37">
<path transform="matrix(.01,0,0,-.01,92.038639,41.503129)" d="M-1021-463H1794V1233H-1021Z"/>
</clipPath>
<g id="font_36_54">
<path transform="matrix(.001,0,0,.001,0,0)" d="M330 404C286 404 251 388 225 358 199 328 186 286 186 234 186 181 199 139 225 109 251 79 286 64 330 64 374 64 409 79 435 109 461 139 474 181 474 234 474 286 461 328 435 358 409 388 374 404 330 404ZM526 713V623C501 635 476 644 451 650 425 656 400 659 376 659 310 659 260 637 226 593 192 549 172 482 168 394 187 422 211 444 240 459 269 474 301 482 336 482 409 482 467 459 509 415 551 371 573 310 573 234 573 159 550 99 506 54 462 9 403-13 330-13 246-13 181 19 137 83 92 147 70 241 70 364 70 479 97 571 152 639 206 707 280 742 372 742 396 742 421 739 447 735 472 730 498 723 526 713Z"/>
</g>
<clipPath id="clip_38">
<path transform="matrix(.01,0,0,-.01,92.038639,55.503129)" d="M-1021-463H1794V1233H-1021Z"/>
</clipPath>
<g id="font_36_51">
<path transform="matrix(.001,0,0,.001,0,0)" d="M406 393C453 383 490 362 516 330 542 298 556 258 556 212 556 140 531 84 482 45 432 6 362-13 271-13 240-13 208-10 176-4 144 1 110 10 76 22V117C103 101 133 89 166 81 198 73 232 69 268 69 330 69 377 81 409 105 441 129 458 165 458 212 458 254 443 288 413 312 383 336 341 349 287 349H202V430H291C339 430 376 439 402 459 428 478 441 506 441 543 441 580 427 609 401 629 374 649 336 659 287 659 260 659 231 656 200 650 169 644 135 635 98 623V711C135 721 170 729 203 734 235 739 266 742 296 742 370 742 429 725 473 691 517 657 539 611 539 553 539 513 527 479 504 451 481 423 448 403 406 393Z"/>
</g>
<g id="font_36_50">
<path transform="matrix(.001,0,0,.001,0,0)" d="M192 83H536V0H73V83C110 121 161 173 226 239 290 304 331 346 348 365 380 400 402 430 414 455 426 479 433 504 433 528 433 566 419 598 392 622 365 646 330 659 286 659 255 659 222 653 188 643 154 632 117 616 78 594V694C118 710 155 722 189 730 223 738 255 742 284 742 359 742 419 723 464 685 509 647 532 597 532 534 532 504 526 475 515 449 504 422 484 390 454 354 446 344 420 317 376 272 332 227 271 164 192 83Z"/>
</g>
<clipPath id="clip_39">
<path transform="matrix(.01,0,0,-.01,92.038639,69.50313)" d="M-1021-463H1794V1233H-1021Z"/>
</clipPath>
</defs>
<g>
<path transform="matrix(1,0,0,-1,0,216)" d="M0 0H432V216H0Z" fill="#ffffff"/>
<path transform="matrix(1,0,0,-1,0,216)" d="M46.7525 43.535H421.2V205.2H46.7525Z" fill="#ffffff"/>
<g clip-path="url(#clip_0)">
<path transform="matrix(1,0,0,-1,0,216)" stroke-width=".8" stroke-linecap="square" stroke-linejoin="round" fill="none" stroke="#bebebe" d="M63.772844 43.535V205.2"/>
</g>
<path transform="matrix(1,0,0,-1,0,216)" d="M63.772844 43.535V40.035"/>
<path transform="matrix(1,0,0,-1,0,216)" stroke-width=".8" stroke-linecap="butt" stroke-linejoin="round" fill="none" stroke="#000000" d="M63.772844 43.535V40.035"/>
<use data-text="1" xlink:href="#font_1_49" transform="matrix(10,0,0,-10,53.304094,186.66812)"/>
<use data-text="." xlink:href="#font_1_46" transform="matrix(10,0,0,-10,57.99409,186.66812)"/>
<use data-text="9" xlink:href="#font_1_57" transform="matrix(10,0,0,-10,60.184095,186.66812)"/>
<use data-text="0" xlink:href="#font_1_48" transform="matrix(10,0,0,-10,64.87409,186.66812)"/>
<use data-text="0" xlink:href="#font_1_48" transform="matrix(10,0,0,-10,69.564098,186.66812)"/>
<g clip-path="url(#clip_2)">
<path transform="matrix(1,0,0,-1,0,216)" stroke-width=".8" stroke-linecap="square" stroke-linejoin="round" fill="none" stroke="#bebebe" d="M106.32369 43.535V205.2"/>
</g>
<path transform="matrix(1,0,0,-1,0,216)" d="M106.32369 43.535V40.035"/>
<path transform="matrix(1,0,0,-1,0,216)" stroke-width=".8" stroke-linecap="butt" stroke-linejoin="round" fill="none" stroke="#000000" d="M106.32369 43.535V40.035"/>
<use data-text="1" xlink:href="#font_1_49" transform="matrix(10,0,0,-10,95.85494,186.66812)"/>
<use data-text="." xlink:href="#font_1_46" transform="matrix(10,0,0,-10,100.544948,186.66812)"/>
<use data-text="9" xlink:href="#font_1_57" transform="matrix(10,0,0,-10,102.73494,186.66812)"/>
<use data-text="2" xlink:href="#font_1_50" transform="matrix(10,0,0,-10,107.42494,186.66812)"/>
<use data-text="5" xlink:href="#font_1_53" transform="matrix(10,0,0,-10,112.114948,186.66812)"/>
<g clip-path="url(#clip_3)">
<path transform="matrix(1,0,0,-1,0,216)" stroke-width=".8" stroke-linecap="square" stroke-linejoin="round" fill="none" stroke="#bebebe" d="M148.87454 43.535V205.2"/>
</g>
<path transform="matrix(1,0,0,-1,0,216)" d="M148.87454 43.535V40.035"/>
<path transform="matrix(1,0,0,-1,0,216)" stroke-width=".8" stroke-linecap="butt" stroke-linejoin="round" fill="none" stroke="#000000" d="M148.87454 43.535V40.035"/>
<use data-text="1" xlink:href="#font_1_49" transform="matrix(10,0,0,-10,138.40579,186.66812)"/>
<use data-text="." xlink:href="#font_1_46" transform="matrix(10,0,0,-10,143.0958,186.66812)"/>
<use data-text="9" xlink:href="#font_1_57" transform="matrix(10,0,0,-10,145.2858,186.66812)"/>
<use data-text="5" xlink:href="#font_1_53" transform="matrix(10,0,0,-10,149.9758,186.66812)"/>
<use data-text="0" xlink:href="#font_1_48" transform="matrix(10,0,0,-10,154.66579,186.66812)"/>
<g clip-path="url(#clip_4)">
<path transform="matrix(1,0,0,-1,0,216)" stroke-width=".8" stroke-linecap="square" stroke-linejoin="round" fill="none" stroke="#bebebe" d="M191.4254 43.535V205.2"/>
</g>
<path transform="matrix(1,0,0,-1,0,216)" d="M191.4254 43.535V40.035"/>
<path transform="matrix(1,0,0,-1,0,216)" stroke-width=".8" stroke-linecap="butt" stroke-linejoin="round" fill="none" stroke="#000000" d="M191.4254 43.535V40.035"/>
<use data-text="1" xlink:href="#font_1_49" transform="matrix(10,0,0,-10,180.95665,186.66812)"/>
<use data-text="." xlink:href="#font_1_46" transform="matrix(10,0,0,-10,185.64665,186.66812)"/>
<use data-text="9" xlink:href="#font_1_57" transform="matrix(10,0,0,-10,187.83666,186.66812)"/>
<use data-text="7" xlink:href="#font_1_55" transform="matrix(10,0,0,-10,192.52664,186.66812)"/>
<use data-text="5" xlink:href="#font_1_53" transform="matrix(10,0,0,-10,197.21665,186.66812)"/>
<g clip-path="url(#clip_5)">
<path transform="matrix(1,0,0,-1,0,216)" stroke-width=".8" stroke-linecap="square" stroke-linejoin="round" fill="none" stroke="#bebebe" d="M233.97626 43.535V205.2"/>
</g>
<path transform="matrix(1,0,0,-1,0,216)" d="M233.97626 43.535V40.035"/>
<path transform="matrix(1,0,0,-1,0,216)" stroke-width=".8" stroke-linecap="butt" stroke-linejoin="round" fill="none" stroke="#000000" d="M233.97626 43.535V40.035"/>
<use data-text="2" xlink:href="#font_1_50" transform="matrix(10,0,0,-10,223.5075,186.66812)"/>
<use data-text="." xlink:href="#font_1_46" transform="matrix(10,0,0,-10,228.19751,186.66812)"/>
<use data-text="0" xlink:href="#font_1_48" transform="matrix(10,0,0,-10,230.38751,186.66812)"/>
<use data-text="0" xlink:href="#font_1_48" transform="matrix(10,0,0,-10,235.07752,186.66812)"/>
<use data-text="0" xlink:href="#font_1_48" transform="matrix(10,0,0,-10,239.7675,186.66812)"/>
<g clip-path="url(#clip_6)">
<path transform="matrix(1,0,0,-1,0,216)" stroke-width=".8" stroke-linecap="square" stroke-linejoin="round" fill="none" stroke="#bebebe" d="M276.5271 43.535V205.2"/>
</g>
<path transform="matrix(1,0,0,-1,0,216)" d="M276.5271 43.535V40.035"/>
<path transform="matrix(1,0,0,-1,0,216)" stroke-width=".8" stroke-linecap="butt" stroke-linejoin="round" fill="none" stroke="#000000" d="M276.5271 43.535V40.035"/>
<use data-text="2" xlink:href="#font_1_50" transform="matrix(10,0,0,-10,266.05836,186.66812)"/>
<use data-text="." xlink:href="#font_1_46" transform="matrix(10,0,0,-10,270.74836,186.66812)"/>
<use data-text="0" xlink:href="#font_1_48" transform="matrix(10,0,0,-10,272.93836,186.66812)"/>
<use data-text="2" xlink:href="#font_1_50" transform="matrix(10,0,0,-10,277.62837,186.66812)"/>
<use data-text="5" xlink:href="#font_1_53" transform="matrix(10,0,0,-10,282.31837,186.66812)"/>
<g clip-path="url(#clip_7)">
<path transform="matrix(1,0,0,-1,0,216)" stroke-width=".8" stroke-linecap="square" stroke-linejoin="round" fill="none" stroke="#bebebe" d="M319.07795 43.535V205.2"/>
</g>
<path transform="matrix(1,0,0,-1,0,216)" d="M319.07795 43.535V40.035"/>
<path transform="matrix(1,0,0,-1,0,216)" stroke-width=".8" stroke-linecap="butt" stroke-linejoin="round" fill="none" stroke="#000000" d="M319.07795 43.535V40.035"/>
<use data-text="2" xlink:href="#font_1_50" transform="matrix(10,0,0,-10,308.6092,186.66812)"/>
<use data-text="." xlink:href="#font_1_46" transform="matrix(10,0,0,-10,313.2992,186.66812)"/>
<use data-text="0" xlink:href="#font_1_48" transform="matrix(10,0,0,-10,315.4892,186.66812)"/>
<use data-text="5" xlink:href="#font_1_53" transform="matrix(10,0,0,-10,320.1792,186.66812)"/>
<use data-text="0" xlink:href="#font_1_48" transform="matrix(10,0,0,-10,324.8692,186.66812)"/>
<g clip-path="url(#clip_8)">
<path transform="matrix(1,0,0,-1,0,216)" stroke-width=".8" stroke-linecap="square" stroke-linejoin="round" fill="none" stroke="#bebebe" d="M361.6288 43.535V205.2"/>
</g>
<path transform="matrix(1,0,0,-1,0,216)" d="M361.6288 43.535V40.035"/>
<path transform="matrix(1,0,0,-1,0,216)" stroke-width=".8" stroke-linecap="butt" stroke-linejoin="round" fill="none" stroke="#000000" d="M361.6288 43.535V40.035"/>
<use data-text="2" xlink:href="#font_1_50" transform="matrix(10,0,0,-10,351.16007,186.66812)"/>
<use data-text="." xlink:href="#font_1_46" transform="matrix(10,0,0,-10,355.85008,186.66812)"/>
<use data-text="0" xlink:href="#font_1_48" transform="matrix(10,0,0,-10,358.04008,186.66812)"/>
<use data-text="7" xlink:href="#font_1_55" transform="matrix(10,0,0,-10,362.73008,186.66812)"/>
<use data-text="5" xlink:href="#font_1_53" transform="matrix(10,0,0,-10,367.42008,186.66812)"/>
<g clip-path="url(#clip_9)">
<path transform="matrix(1,0,0,-1,0,216)" stroke-width=".8" stroke-linecap="square" stroke-linejoin="round" fill="none" stroke="#bebebe" d="M404.17967 43.535V205.2"/>
</g>
<path transform="matrix(1,0,0,-1,0,216)" d="M404.17967 43.535V40.035"/>
<path transform="matrix(1,0,0,-1,0,216)" stroke-width=".8" stroke-linecap="butt" stroke-linejoin="round" fill="none" stroke="#000000" d="M404.17967 43.535V40.035"/>
<use data-text="2" xlink:href="#font_1_50" transform="matrix(10,0,0,-10,393.7109,186.66812)"/>
<use data-text="." xlink:href="#font_1_46" transform="matrix(10,0,0,-10,398.4009,186.66812)"/>
<use data-text="1" xlink:href="#font_1_49" transform="matrix(10,0,0,-10,400.5909,186.66812)"/>
<use data-text="0" xlink:href="#font_1_48" transform="matrix(10,0,0,-10,405.2809,186.66812)"/>
<use data-text="0" xlink:href="#font_1_48" transform="matrix(10,0,0,-10,409.97093,186.66812)"/>
<use data-text=" " xlink:href="#font_1_32" transform="matrix(10,0,0,-10,253.97618,200.4025)"/>
<use data-text="X" xlink:href="#font_10_88" transform="matrix(10,0,0,-10,256.47618,200.4025)"/>
<g clip-path="url(#clip_11)">
<path transform="matrix(.01,0,0,-.01,203.97626,200.4025)" d="M394 674H179C165 674 153 670 143 663L117 710C133 708 149 707 167 707H699C709 726 720 744 731 762 742 779 749 790 753 794 757 798 761 800 765 800 773 800 796 784 833 753 869 721 888 700 888 690 888 679 879 674 861 674H551C543 659 539 643 539 625 529 531 522 468 517 436H743C751 451 761 469 774 489 786 509 795 521 799 525 803 529 808 531 813 531 823 531 846 514 883 482 920 450 939 428 939 418 939 408 930 403 912 403H647C645 399 641 395 634 389V79C634 63 639 52 650 44 661 36 688 32 732 32 776 32 806 36 822 44 838 52 850 67 860 90 870 112 883 157 901 223 903 231 906 236 908 236 910 236 912 232 912 225L910 171C910 142 913 117 919 97 925 77 942 58 968 41 980 33 986 25 986 17 986 9 979-4 967-23 954-42 931-56 898-65 864-74 815-79 749-79 653-79 588-70 552-53 516-36 498-3 498 46V338C472 230 434 147 382 90 330 33 262-12 177-48 91-84 43-102 33-102 31-102 30-101 30-101 30-98 35-93 46-87 122-41 181 0 224 40 266 80 300 128 324 184 348 240 365 313 376 403H124C110 403 98 399 88 392L62 439C78 437 94 436 112 436H380C386 494 390 574 394 674Z"/>
</g>
<g clip-path="url(#clip_12)">
<path transform="matrix(.01,0,0,-.01,213.97624,200.4025)" d="M310 781H678C689 799 698 812 706 821 714 830 720 835 726 835 734 835 756 822 792 798 827 773 845 756 845 748 845 739 832 729 808 719V651L810 559C810 549 807 541 801 535 795 529 784 523 767 517 750 511 730 509 707 509 694 509 687 516 687 531H308C308 525 299 519 281 512 263 504 239 501 208 501 198 501 194 504 194 512L196 557C197 577 198 595 198 612V732C198 761 197 790 195 819 239 807 278 794 310 781ZM687 677V748H328C325 740 319 734 309 730V677H687ZM687 564V644H309V564H687ZM740 454H99C85 454 73 450 63 443L37 490C53 488 69 487 87 487H797C806 504 815 520 825 536 835 551 841 561 845 565 848 569 852 571 858 571 863 571 876 562 897 545L954 499C970 485 978 474 978 466 978 458 968 454 949 454H778C838 415 869 390 869 380 869 369 858 360 837 353V253C837 233 837 216 838 202 839 187 840 178 840 175 840 171 838 168 835 164 831 160 819 154 798 146 854 100 883 71 883 59 883 52 875 49 861 49H555V-28H796C812 0 825 17 833 26 841 35 847 40 852 40 856 40 870 32 892 18 914 4 932-9 947-21 961-33 969-43 969-50 969-57 961-61 945-61H134C120-61 108-64 98-72L72-25C88-27 104-28 122-28H443V49H209C195 49 183 45 173 38L147 85C163 83 179 82 197 82H443V150H280C280 142 278 136 274 132 270 128 260 123 243 119 225 115 205 113 182 113 172 113 167 119 168 132 169 145 170 172 170 213V358C170 386 169 414 167 443 203 434 239 423 273 411H714C723 429 732 443 740 454ZM443 378H303C299 366 292 358 280 354V296H443V378ZM718 296V378H574C570 368 564 361 555 357V296H718ZM443 263H280V183H443V263ZM718 183V263H555V183H718ZM770 139C756 137 744 137 734 137 724 137 719 141 718 150H555V82H735C743 98 755 117 770 139Z"/>
</g>
<g clip-path="url(#clip_13)">
<path transform="matrix(.01,0,0,-.01,223.97623,200.4025)" d="M237 462C191 445 146 424 103 400 96 396 91 394 88 394 84 394 81 396 79 401 77 405 70 423 58 453 46 483 41 500 41 504 41 508 44 511 51 513 71 517 85 524 94 535 103 545 119 579 141 637 163 695 183 755 199 819 237 805 269 791 295 779 321 767 337 759 343 756 348 752 351 748 351 744 351 739 345 735 335 731 325 727 315 720 305 708L241 632C207 592 172 549 135 502H256C273 542 290 587 308 637 356 611 397 585 431 560V696C431 729 430 759 429 785 489 764 531 749 555 740H796C812 768 823 785 828 792 832 798 838 802 846 802 854 802 873 791 904 770 934 749 954 735 963 727 971 719 976 713 976 707 976 696 963 687 939 679V4C939-38 928-66 907-81 886-96 854-104 810-104 800-104 794-102 790-99 786-95 783-88 783-78 782-56 774-39 758-27 742-15 717-5 684 1 671 3 665 6 665 10 665 13 672 15 687 15 738 15 770 16 784 18 798 20 807 24 811 29 815 33 817 40 817 50V571C809 569 803 566 799 562 795 557 790 546 785 530 768 476 750 427 731 384 757 348 776 316 790 288 804 260 811 236 811 217 811 198 804 181 792 165 779 149 764 142 747 142 730 142 718 148 711 160 703 172 699 190 698 214 696 238 691 265 682 294 645 238 598 184 540 133V-66C540-72 538-77 535-80 532-83 517-89 491-97 464-105 445-109 433-109 429-109 427-106 427-101L429-54C430-21 431 8 431 34V129C362 101 298 72 240 43 181 14 141-7 120-23 116-26 112-28 109-28 105-28 102-25 100-21 97-16 90-1 80 24 69 49 59 76 50 106 166 111 293 125 431 148V285C270 232 167 194 123 171 117 168 113 167 109 167 105 167 103 169 102 173 101 177 94 195 80 229 66 263 59 282 59 287 59 292 63 295 73 296 95 297 112 300 124 304 135 308 144 313 152 321 160 329 172 346 188 372 204 398 220 428 237 462ZM664 463C676 522 682 581 683 639 718 628 763 613 817 594V707H556C552 703 547 699 540 697V581C588 539 629 499 664 463ZM540 165C582 220 617 294 645 387 618 439 583 494 540 553V165ZM431 307V534C418 533 402 523 383 504 363 485 302 414 200 292 273 292 350 297 431 307Z"/>
</g>
<g clip-path="url(#clip_14)">
<path transform="matrix(.01,0,0,-.01,233.97621,200.4025)" d="M563 241H694C719 282 733 304 736 308 739 311 742 313 746 313 753 313 775 299 813 271 850 243 869 225 869 218 869 211 863 208 851 208H563V5H787C818 55 836 83 840 88 844 93 849 96 855 96 861 96 874 86 896 66 918 46 936 29 952 15 968 0 976-10 976-17 976-23 971-27 961-27H117C103-27 91-30 81-38L55 8C71 6 87 5 105 5H443V208H228C214 208 202 204 192 197L166 244C182 242 198 241 216 241H443V726C443 759 442 789 441 815 472 812 502 809 530 805 558 801 575 797 580 794 584 791 587 788 587 784 587 775 579 767 563 761V319C625 427 667 568 690 743 725 733 757 721 787 709 816 696 833 688 837 685 841 681 843 678 843 675 843 668 838 664 829 663 819 661 810 652 801 636L733 525C795 505 843 483 877 458 911 433 929 408 929 383 929 357 921 337 906 321 890 305 869 298 843 298 812 298 797 317 797 357 797 377 789 401 775 428 761 455 741 479 717 500 654 400 603 331 563 293V241ZM257 472C214 414 171 364 128 321 85 277 60 256 52 256 50 256 49 257 49 260 49 262 52 268 59 277 101 333 139 403 174 489 209 574 232 659 244 743L333 706C363 693 381 685 385 681 389 677 392 672 392 668 392 663 388 660 380 659 376 657 371 653 365 645 359 637 348 618 332 589 316 559 299 532 281 506 329 486 363 467 383 449 403 431 414 410 414 387 414 364 405 345 389 330 373 315 355 308 336 308 326 308 317 311 310 317 302 323 298 329 296 335 294 341 293 351 293 365 293 401 281 436 257 472Z"/>
</g>
<g clip-path="url(#clip_15)">
<path transform="matrix(.01,0,0,-.01,243.9762,200.4025)" d="M314 579H363L405 647C409 654 414 658 420 658 425 658 443 642 474 612 505 582 521 563 521 556 521 549 514 546 502 546H314V475C358 463 392 446 416 424 439 402 451 376 451 348 451 332 444 317 431 305 418 293 405 287 392 287 379 287 369 289 362 294 354 299 349 305 347 313 344 321 343 334 343 352 343 409 333 444 314 458V-62C314-76 302-87 279-93 255-99 232-102 210-102 202-102 198-97 198-88L200-47C200-19 201 11 201 45V321C183 285 153 242 110 192 66 142 42 117 36 117 30 117 27 120 27 127 27 133 28 139 32 145 74 211 105 275 125 339 145 403 160 472 169 546H95C81 546 69 542 59 535L33 582C49 580 65 579 83 579H201V695C201 739 200 777 198 809 256 803 294 799 312 795 330 791 339 786 339 780 339 774 330 767 314 759V579ZM745 722C749 730 757 743 770 763 783 782 792 794 796 798 800 802 806 805 812 805 818 805 830 795 849 777 867 758 884 742 899 728 914 714 922 704 922 698 922 692 915 689 902 689H545C531 689 519 685 509 678L483 725C499 723 515 722 533 722H745ZM627 466H478C464 466 452 462 442 455L416 502C432 500 448 499 466 499H811C818 511 827 527 839 545 850 563 857 573 860 576 863 578 866 580 870 580 878 580 892 570 914 551L966 503C979 491 986 481 986 475 986 469 979 466 966 466H771C767 457 758 451 746 449V383C828 351 887 317 923 279 959 241 977 199 977 154 977 126 969 104 953 87 937 70 919 62 898 62 884 62 871 69 858 83 844 97 838 121 838 155 838 241 807 310 746 360V41C746 8 741-16 731-33 721-49 704-62 680-70 656-78 632-82 609-82 589-82 579-74 579-59 579-34 570-15 554-3 538 9 512 19 476 25 468 26 464 28 464 32 464 36 473 37 491 35 509 33 529 33 553 33 576 33 594 36 607 43 620 50 627 65 627 87V348C625 346 620 345 612 344 604 343 596 339 590 332 584 324 575 311 565 291 532 231 488 171 434 111 380 51 348 22 338 22 336 22 336 23 336 26 336 28 339 34 345 43 384 98 413 154 433 211 453 267 468 335 479 413 512 405 544 395 575 383 606 371 623 364 627 361V466Z"/>
</g>
<g clip-path="url(#clip_16)">
<path transform="matrix(1,0,0,-1,0,216)" stroke-width=".8" stroke-linecap="square" stroke-linejoin="round" fill="none" stroke="#bebebe" d="M46.7525 44.674806H421.2"/>
</g>
<path transform="matrix(1,0,0,-1,0,216)" d="M46.7525 44.674806H43.2525"/>
<path transform="matrix(1,0,0,-1,0,216)" stroke-width=".8" stroke-linecap="butt" stroke-linejoin="round" fill="none" stroke="#000000" d="M46.7525 44.674806H43.2525"/>
<use data-text="-" xlink:href="#font_1_45" transform="matrix(10,0,0,-10,27.2525,174.92676)"/>
<use data-text="1" xlink:href="#font_1_49" transform="matrix(10,0,0,-10,30.3825,174.92676)"/>
<use data-text="5" xlink:href="#font_1_53" transform="matrix(10,0,0,-10,35.072504,174.92676)"/>
<g clip-path="url(#clip_17)">
<path transform="matrix(1,0,0,-1,0,216)" stroke-width=".8" stroke-linecap="square" stroke-linejoin="round" fill="none" stroke="#bebebe" d="M46.7525 69.29259H421.2"/>
</g>
<path transform="matrix(1,0,0,-1,0,216)" d="M46.7525 69.29259H43.2525"/>
<path transform="matrix(1,0,0,-1,0,216)" stroke-width=".8" stroke-linecap="butt" stroke-linejoin="round" fill="none" stroke="#000000" d="M46.7525 69.29259H43.2525"/>
<use data-text="-" xlink:href="#font_1_45" transform="matrix(10,0,0,-10,27.2525,150.30898)"/>
<use data-text="1" xlink:href="#font_1_49" transform="matrix(10,0,0,-10,30.3825,150.30898)"/>
<use data-text="0" xlink:href="#font_1_48" transform="matrix(10,0,0,-10,35.072504,150.30898)"/>
<g clip-path="url(#clip_18)">
<path transform="matrix(1,0,0,-1,0,216)" stroke-width=".8" stroke-linecap="square" stroke-linejoin="round" fill="none" stroke="#bebebe" d="M46.7525 93.91038H421.2"/>
</g>
<path transform="matrix(1,0,0,-1,0,216)" d="M46.7525 93.91038H43.2525"/>
<path transform="matrix(1,0,0,-1,0,216)" stroke-width=".8" stroke-linecap="butt" stroke-linejoin="round" fill="none" stroke="#000000" d="M46.7525 93.91038H43.2525"/>
<use data-text="-" xlink:href="#font_1_45" transform="matrix(10,0,0,-10,31.94,125.691188)"/>
<use data-text="5" xlink:href="#font_1_53" transform="matrix(10,0,0,-10,35.07,125.691188)"/>
<g clip-path="url(#clip_19)">
<path transform="matrix(1,0,0,-1,0,216)" stroke-width=".8" stroke-linecap="square" stroke-linejoin="round" fill="none" stroke="#bebebe" d="M46.7525 118.52816H421.2"/>
</g>
<path transform="matrix(1,0,0,-1,0,216)" d="M46.7525 118.52816H43.2525"/>
<path transform="matrix(1,0,0,-1,0,216)" stroke-width=".8" stroke-linecap="butt" stroke-linejoin="round" fill="none" stroke="#000000" d="M46.7525 118.52816H43.2525"/>
<use data-text="0" xlink:href="#font_1_48" transform="matrix(10,0,0,-10,35.065,101.0734)"/>
<g clip-path="url(#clip_20)">
<path transform="matrix(1,0,0,-1,0,216)" stroke-width=".8" stroke-linecap="square" stroke-linejoin="round" fill="none" stroke="#bebebe" d="M46.7525 143.14595H421.2"/>
</g>
<path transform="matrix(1,0,0,-1,0,216)" d="M46.7525 143.14595H43.2525"/>
<path transform="matrix(1,0,0,-1,0,216)" stroke-width=".8" stroke-linecap="butt" stroke-linejoin="round" fill="none" stroke="#000000" d="M46.7525 143.14595H43.2525"/>
<use data-text="5" xlink:href="#font_1_53" transform="matrix(10,0,0,-10,35.065,76.45561)"/>
<g clip-path="url(#clip_21)">
<path transform="matrix(1,0,0,-1,0,216)" stroke-width=".8" stroke-linecap="square" stroke-linejoin="round" fill="none" stroke="#bebebe" d="M46.7525 167.76374H421.2"/>
</g>
<path transform="matrix(1,0,0,-1,0,216)" d="M46.7525 167.76374H43.2525"/>
<path transform="matrix(1,0,0,-1,0,216)" stroke-width=".8" stroke-linecap="butt" stroke-linejoin="round" fill="none" stroke="#000000" d="M46.7525 167.76374H43.2525"/>
<use data-text="1" xlink:href="#font_1_49" transform="matrix(10,0,0,-10,30.3775,51.83783)"/>
<use data-text="0" xlink:href="#font_1_48" transform="matrix(10,0,0,-10,35.0675,51.83783)"/>
<g clip-path="url(#clip_22)">
<path transform="matrix(1,0,0,-1,0,216)" stroke-width=".8" stroke-linecap="square" stroke-linejoin="round" fill="none" stroke="#bebebe" d="M46.7525 192.38152H421.2"/>
</g>
<path transform="matrix(1,0,0,-1,0,216)" d="M46.7525 192.38152H43.2525"/>
<path transform="matrix(1,0,0,-1,0,216)" stroke-width=".8" stroke-linecap="butt" stroke-linejoin="round" fill="none" stroke="#000000" d="M46.7525 192.38152H43.2525"/>
<use data-text="1" xlink:href="#font_1_49" transform="matrix(10,0,0,-10,30.3775,27.220047)"/>
<use data-text="5" xlink:href="#font_1_53" transform="matrix(10,0,0,-10,35.0675,27.220047)"/>
<use data-text=" " xlink:href="#font_1_32" transform="matrix(0,-10,-10,-0,20.59625,66.63259)"/>
<use data-text="U" xlink:href="#font_10_85" transform="matrix(0,-10,-10,-0,20.59625,64.13261)"/>
<g clip-path="url(#clip_23)">
<path transform="matrix(0,-.01,-.01,-0,20.59625,126.6325)" d="M394 674H179C165 674 153 670 143 663L117 710C133 708 149 707 167 707H699C709 726 720 744 731 762 742 779 749 790 753 794 757 798 761 800 765 800 773 800 796 784 833 753 869 721 888 700 888 690 888 679 879 674 861 674H551C543 659 539 643 539 625 529 531 522 468 517 436H743C751 451 761 469 774 489 786 509 795 521 799 525 803 529 808 531 813 531 823 531 846 514 883 482 920 450 939 428 939 418 939 408 930 403 912 403H647C645 399 641 395 634 389V79C634 63 639 52 650 44 661 36 688 32 732 32 776 32 806 36 822 44 838 52 850 67 860 90 870 112 883 157 901 223 903 231 906 236 908 236 910 236 912 232 912 225L910 171C910 142 913 117 919 97 925 77 942 58 968 41 980 33 986 25 986 17 986 9 979-4 967-23 954-42 931-56 898-65 864-74 815-79 749-79 653-79 588-70 552-53 516-36 498-3 498 46V338C472 230 434 147 382 90 330 33 262-12 177-48 91-84 43-102 33-102 31-102 30-101 30-101 30-98 35-93 46-87 122-41 181 0 224 40 266 80 300 128 324 184 348 240 365 313 376 403H124C110 403 98 399 88 392L62 439C78 437 94 436 112 436H380C386 494 390 574 394 674Z"/>
</g>
<g clip-path="url(#clip_24)">
<path transform="matrix(0,-.01,-.01,-0,20.59625,116.632518)" d="M310 781H678C689 799 698 812 706 821 714 830 720 835 726 835 734 835 756 822 792 798 827 773 845 756 845 748 845 739 832 729 808 719V651L810 559C810 549 807 541 801 535 795 529 784 523 767 517 750 511 730 509 707 509 694 509 687 516 687 531H308C308 525 299 519 281 512 263 504 239 501 208 501 198 501 194 504 194 512L196 557C197 577 198 595 198 612V732C198 761 197 790 195 819 239 807 278 794 310 781ZM687 677V748H328C325 740 319 734 309 730V677H687ZM687 564V644H309V564H687ZM740 454H99C85 454 73 450 63 443L37 490C53 488 69 487 87 487H797C806 504 815 520 825 536 835 551 841 561 845 565 848 569 852 571 858 571 863 571 876 562 897 545L954 499C970 485 978 474 978 466 978 458 968 454 949 454H778C838 415 869 390 869 380 869 369 858 360 837 353V253C837 233 837 216 838 202 839 187 840 178 840 175 840 171 838 168 835 164 831 160 819 154 798 146 854 100 883 71 883 59 883 52 875 49 861 49H555V-28H796C812 0 825 17 833 26 841 35 847 40 852 40 856 40 870 32 892 18 914 4 932-9 947-21 961-33 969-43 969-50 969-57 961-61 945-61H134C120-61 108-64 98-72L72-25C88-27 104-28 122-28H443V49H209C195 49 183 45 173 38L147 85C163 83 179 82 197 82H443V150H280C280 142 278 136 274 132 270 128 260 123 243 119 225 115 205 113 182 113 172 113 167 119 168 132 169 145 170 172 170 213V358C170 386 169 414 167 443 203 434 239 423 273 411H714C723 429 732 443 740 454ZM443 378H303C299 366 292 358 280 354V296H443V378ZM718 296V378H574C570 368 564 361 555 357V296H718ZM443 263H280V183H443V263ZM718 183V263H555V183H718ZM770 139C756 137 744 137 734 137 724 137 719 141 718 150H555V82H735C743 98 755 117 770 139Z"/>
</g>
<g clip-path="url(#clip_25)">
<path transform="matrix(0,-.01,-.01,-0,20.59625,106.63253)" d="M237 462C191 445 146 424 103 400 96 396 91 394 88 394 84 394 81 396 79 401 77 405 70 423 58 453 46 483 41 500 41 504 41 508 44 511 51 513 71 517 85 524 94 535 103 545 119 579 141 637 163 695 183 755 199 819 237 805 269 791 295 779 321 767 337 759 343 756 348 752 351 748 351 744 351 739 345 735 335 731 325 727 315 720 305 708L241 632C207 592 172 549 135 502H256C273 542 290 587 308 637 356 611 397 585 431 560V696C431 729 430 759 429 785 489 764 531 749 555 740H796C812 768 823 785 828 792 832 798 838 802 846 802 854 802 873 791 904 770 934 749 954 735 963 727 971 719 976 713 976 707 976 696 963 687 939 679V4C939-38 928-66 907-81 886-96 854-104 810-104 800-104 794-102 790-99 786-95 783-88 783-78 782-56 774-39 758-27 742-15 717-5 684 1 671 3 665 6 665 10 665 13 672 15 687 15 738 15 770 16 784 18 798 20 807 24 811 29 815 33 817 40 817 50V571C809 569 803 566 799 562 795 557 790 546 785 530 768 476 750 427 731 384 757 348 776 316 790 288 804 260 811 236 811 217 811 198 804 181 792 165 779 149 764 142 747 142 730 142 718 148 711 160 703 172 699 190 698 214 696 238 691 265 682 294 645 238 598 184 540 133V-66C540-72 538-77 535-80 532-83 517-89 491-97 464-105 445-109 433-109 429-109 427-106 427-101L429-54C430-21 431 8 431 34V129C362 101 298 72 240 43 181 14 141-7 120-23 116-26 112-28 109-28 105-28 102-25 100-21 97-16 90-1 80 24 69 49 59 76 50 106 166 111 293 125 431 148V285C270 232 167 194 123 171 117 168 113 167 109 167 105 167 103 169 102 173 101 177 94 195 80 229 66 263 59 282 59 287 59 292 63 295 73 296 95 297 112 300 124 304 135 308 144 313 152 321 160 329 172 346 188 372 204 398 220 428 237 462ZM664 463C676 522 682 581 683 639 718 628 763 613 817 594V707H556C552 703 547 699 540 697V581C588 539 629 499 664 463ZM540 165C582 220 617 294 645 387 618 439 583 494 540 553V165ZM431 307V534C418 533 402 523 383 504 363 485 302 414 200 292 273 292 350 297 431 307Z"/>
</g>
<g clip-path="url(#clip_26)">
<path transform="matrix(0,-.01,-.01,-0,20.59625,96.632549)" d="M551 591 657 704H170C156 704 144 700 134 693L108 740C124 738 140 737 158 737H669C693 764 707 780 713 784 718 788 723 791 728 791 733 791 743 785 758 775 772 765 791 749 815 727 839 705 854 689 860 681 866 672 869 664 869 658 869 644 860 637 844 637 840 637 834 637 825 639 815 641 802 642 786 642 721 642 651 621 577 581 581 578 583 575 583 573 583 566 572 558 552 548V355C602 429 634 495 648 553 682 536 711 519 733 503 755 487 766 475 766 467 766 461 760 456 748 454 736 451 724 445 712 437L569 337C641 320 689 297 712 269 735 241 747 217 747 198 747 178 739 161 725 145 711 129 695 121 678 121 668 121 657 123 646 129 634 135 628 149 626 172 618 252 593 303 552 325V136C552 95 540 67 518 52 496 37 465 30 426 30 409 30 400 36 399 49 398 69 393 84 383 95 373 106 360 116 343 124 325 132 317 136 317 137 317 138 319 139 323 139L362 138C395 138 417 141 427 148 437 155 443 167 443 185V339C368 261 317 202 289 162 285 156 281 154 279 154 277 154 269 163 256 182 243 200 229 225 213 257V0H772V445C772 478 771 508 770 534 797 532 829 527 866 521 903 515 922 507 922 498 922 489 912 480 894 471V29C894-3 894-25 895-38L896-74C896-85 883-94 858-101 833-107 813-111 799-111 785-111 777-110 775-109 773-107 772-103 772-96V-32H211L179-73C174-79 169-82 164-82 159-82 151-78 139-71 127-64 113-55 97-44 80-32 69-24 65-20 60-15 58-11 58-8 58-4 59-2 62-1 86 11 98 30 98 56V434C98 474 96 507 93 533 122 531 151 528 180 524 209 519 226 515 232 512 237 509 240 505 240 501 240 492 231 485 213 479V273C268 291 345 321 443 361V519C443 552 442 582 441 608 487 604 523 599 551 591ZM264 550C272 550 291 544 322 534 353 524 377 510 393 493 409 475 418 457 418 437 418 417 411 400 399 386 386 372 371 365 355 365 345 365 337 366 331 370 324 374 319 379 315 386 311 392 310 400 310 408V429C310 475 294 511 264 538 260 541 258 544 258 546 258 548 260 550 264 550Z"/>
</g>
<g clip-path="url(#clip_27)">
<path transform="matrix(0,-.01,-.01,-0,20.59625,86.63256)" d="M364 633C388 667 413 715 439 777 465 767 490 754 516 739 541 723 554 712 554 705 554 698 547 694 533 693 519 691 504 686 487 677 470 668 429 642 364 598V584H435C459 626 475 647 483 647 489 647 504 635 529 612 553 589 566 573 566 564 566 555 557 551 540 551H364V527C412 518 448 505 474 487 499 469 512 451 512 433 512 414 506 398 494 385 482 372 470 366 457 366 444 366 434 369 427 376 420 382 415 394 411 412 403 448 388 479 364 504V477C364 455 364 431 366 407L367 373C367 367 365 363 362 361 359 359 349 353 331 345 348 337 358 331 360 328 362 325 363 323 363 321 363 314 358 310 348 308 340 306 328 293 314 270H372C384 292 392 306 397 313 402 319 407 323 412 323 416 323 439 311 479 288 559 416 602 594 609 822 650 816 685 810 714 803 742 796 759 791 765 788 771 784 774 780 774 776 774 770 770 765 762 761 754 757 748 751 744 741 739 731 731 710 721 680 711 649 697 612 679 570H810C839 626 858 655 867 655 876 655 892 645 915 626 937 607 954 592 966 581 977 570 983 561 983 553 983 542 976 537 964 537H854C890 529 908 520 908 510 908 504 904 499 896 495 888 491 882 484 878 472 874 460 867 435 859 397 851 358 837 313 817 261 797 209 778 169 758 139 807 93 880 54 976 22 984 19 988 16 988 13 988 9 982 7 971 5 959 3 941-7 917-27 893-47 874-66 862-85 858-91 853-94 849-94 844-94 839-92 835-90 831-87 817-75 795-55 772-35 752-15 734 3 716 22 701 41 688 60 632 6 571-36 505-68 439-99 400-115 389-115 385-115 384-113 384-111 384-108 388-104 396-100 516-33 601 39 651 119 613 190 593 284 590 401 563 359 531 317 495 277 519 264 531 253 531 245 531 236 525 230 515 226 505 222 498 219 494 215 490 211 483 198 472 175 461 152 447 128 429 103 440 99 454 92 471 82 487 72 498 60 504 47 509 34 512 22 512 10 512-2 505-13 493-25 481-37 467-43 453-43 439-43 423-34 405-16 387 1 371 15 357 27 309-10 249-40 176-64 102-88 60-100 48-100 43-100 41-98 41-96 41-94 44-91 52-89 153-49 233 3 291 70 253 89 197 107 123 125 146 165 166 202 184 237H118C104 237 92 233 82 226L55 273C71 271 87 270 105 270H200C210 290 225 324 246 374L257 371V472C223 423 182 381 132 346 82 310 53 293 45 293 43 293 43 293 43 295 43 297 47 303 56 312 118 370 167 450 203 551H118C100 551 86 549 75 546L58 589C72 585 88 584 108 584H257V734C257 767 256 797 255 823 291 819 319 816 340 812 361 808 374 804 378 801 382 798 384 794 384 789 384 784 377 779 364 774V633ZM758 537H664C652 510 636 479 616 444 628 351 654 274 696 212 730 297 751 405 758 537ZM295 237 242 145C273 142 304 137 335 131 354 165 368 200 377 237H295ZM88 751C128 751 163 742 193 726 223 709 239 691 239 671 239 651 234 634 224 622 214 610 202 604 188 604 173 604 162 607 156 613 149 619 145 630 144 646 140 686 121 717 87 741 82 744 80 746 80 748 80 750 82 751 88 751Z"/>
</g>
<g clip-path="url(#clip_28)">
<path transform="matrix(0,-.01,-.01,-0,20.59625,76.632579)" d="M494 523H533V633H383C369 633 357 629 347 622L321 669C337 667 353 666 371 666H534V731C534 761 533 792 532 824 595 818 636 812 656 808 676 803 686 797 686 791 686 785 677 779 660 774L656 666H762C780 704 793 728 801 740 809 751 815 757 820 757 825 757 840 748 865 730 890 712 911 696 928 681 944 666 953 654 953 646 953 637 945 633 930 633H654L650 523H697C715 564 730 585 740 585 744 585 760 576 790 560 820 543 842 529 857 519 871 508 879 500 879 494 879 484 866 476 842 468V2C854 24 863 37 867 42 871 47 875 50 881 50 887 50 899 42 917 27 935 12 952-2 968-16 984-30 992-41 992-50 992-58 985-63 971-63H344C330-63 318-66 308-74L282-27C298-29 314-30 332-30H384V471C384 504 383 534 382 560 432 546 469 534 494 523ZM495 393H718V490H513C508 483 502 479 495 477V393ZM718 360H495V262H718V360ZM718 127V229H495V127H718ZM718-30V94H495V-30H718ZM230 530C273 526 295 519 295 509 295 502 286 496 269 492V-73C269-78 268-82 266-85 264-87 257-91 246-96 235-100 219-104 197-108 175-112 158-114 148-114 143-114 141-110 141-104L144-10C144 18 145 46 145 72V383C134 366 115 343 88 313 60 283 44 269 38 269 36 269 35 270 35 274 35 277 37 282 41 290 83 364 114 442 135 523 155 603 172 701 186 815 232 803 268 793 296 784 324 774 341 768 347 764 353 760 357 755 357 751 357 746 352 743 344 742 335 741 327 735 320 725 313 714 300 686 280 642 260 597 244 560 230 530Z"/>
</g>
<g clip-path="url(#clip_29)">
<path transform="matrix(1,0,0,-1,0,216)" stroke-width="1.5" stroke-linecap="square" stroke-linejoin="round" fill="none" stroke="#1f77b4" d="M63.772844 69.29259H233.63585L234.31665 167.76374H404.17967"/>
</g>
<g clip-path="url(#clip_30)">
<path transform="matrix(1,0,0,-1,0,216)" stroke-width="1.5" stroke-linecap="butt" stroke-dasharray="5.55,2.4" stroke-linejoin="round" fill="none" stroke="#ff7f0e" d="M63.772844 69.29259H133.21584L133.55625 55.59033 139.00275 55.930055 145.47048 56.589815 152.27861 57.58437 158.74634 58.81526 165.21407 60.32187 172.0222 62.207593 178.48995 64.28041 184.95767 66.633869 191.76581 69.41026 197.89313 72.1709 204.02045 75.180179 210.14777 78.43859 216.2751 81.94564 222.40242 85.701328 228.52974 89.70566 234.65706 93.958629 241.12479 98.71823 247.59253 103.75454 254.06026 109.06853 260.52799 114.658939 267.33613 120.843318 269.37858 122.75887 269.71897 118.44771 273.80384 124.99279 278.22914 132.51796 282.65443 140.49462 287.0797 148.92374 291.8454 158.50646 296.6111 168.61551 301.0364 178.46755 306.1425 190.40225 309.20616 197.8516 309.54658 167.76374H404.17967"/>
</g>
<g clip-path="url(#clip_31)">
<path transform="matrix(1,0,0,-1,0,216)" stroke-width="1.5" stroke-linecap="butt" stroke-dasharray="9.6,2.4,1.5,2.4" stroke-linejoin="round" fill="none" stroke="#2ca02c" d="M63.772844 69.29259H168.95854L169.29895 79.543437 172.0222 75.51399 174.40506 72.331409 174.74547 50.883409 179.51116 53.551977 184.27686 56.501188 188.70215 59.499635 193.46784 63.000284 198.23354 66.7865 204.02045 71.77013 208.78615 76.18852 213.89225 81.23862 218.99835 86.61711 224.10445 92.32056 229.21056 98.3529 234.31665 104.712169 239.76317 111.85625 245.20967 119.37211 250.65619 127.261569 256.1027 135.5233 261.88963 144.70967 267.6765 154.31603 273.46345 164.34334 275.5059 167.98036 275.84629 162.83083 278.22914 157.34894 280.61198 151.27327 281.9736 147.5353 282.31404 167.76374H404.17967"/>
</g>
<g clip-path="url(#clip_32)">
<path transform="matrix(1,0,0,-1,0,216)" stroke-width="1.5" stroke-linecap="butt" stroke-dasharray="1.5,2.475" stroke-linejoin="round" fill="none" stroke="#d62728" d="M63.772844 69.29259H162.1504L162.49082 88.82779 165.89488 85.32074 169.29895 82.1096 172.70302 79.19435 176.10709 76.57453 179.51116 74.25061 182.57482 72.41166 185.63849 70.81249 188.70215 69.45261 191.76581 68.3325 194.82947 67.45118 197.89313 66.81112 200.61638 66.44185 203.33963 66.2646 206.4033 66.284297 209.46697 66.55017 212.53063 67.05237 215.9347 67.8943 218.65795 68.78054 221.7216 70.00011 224.78527 71.46142 227.84893 73.162509 230.91259 75.10288 231.9338 75.80301 232.27422 113.331348 234.31665 125.902179 236.3591 137.01612 238.06113 145.16658 239.76317 152.30623 241.4652 158.4326 242.82683 162.60582 244.18846 166.13256 245.55008 169.0094 246.5713 170.7474 247.59253 172.11617 248.61374 173.12056 249.63497 173.76555 250.65619 174.04128 251.337 174.02158 252.0178 173.84433 253.03903 173.2732 254.06026 172.3328 255.08147 171.03298 256.1027 169.36389 257.1239 167.3344 258.48554 164.06023 258.82597 163.14052 259.16636 167.76374H318.73756M319.75877 167.76374H404.17967"/>
</g>
<path transform="matrix(1,0,0,-1,0,216)" stroke-width=".8" stroke-linecap="square" stroke-miterlimit="10" stroke-linejoin="miter" fill="none" stroke="#000000" d="M46.7525 43.535V205.2"/>
<path transform="matrix(1,0,0,-1,0,216)" stroke-width=".8" stroke-linecap="square" stroke-miterlimit="10" stroke-linejoin="miter" fill="none" stroke="#000000" d="M421.2 43.535V205.2"/>
<path transform="matrix(1,0,0,-1,0,216)" stroke-width=".8" stroke-linecap="square" stroke-miterlimit="10" stroke-linejoin="miter" fill="none" stroke="#000000" d="M46.7525 43.535H421.2"/>
<path transform="matrix(1,0,0,-1,0,216)" stroke-width=".8" stroke-linecap="square" stroke-miterlimit="10" stroke-linejoin="miter" fill="none" stroke="#000000" d="M46.7525 205.2H421.2"/>
<g>
<path transform="matrix(1,0,0,-1,0,216)" d="M53.7525 140.7H127.7525C129.08583 140.7 129.7525 141.36667 129.7525 142.7V198.2C129.7525 199.53334 129.08583 200.2 127.7525 200.2H53.7525C52.419168 200.2 51.7525 199.53334 51.7525 198.2V142.7C51.7525 141.36667 52.419168 140.7 53.7525 140.7Z" fill="#ffffff" fill-opacity=".8"/>
<path transform="matrix(1,0,0,-1,0,216)" stroke-width="1" stroke-linecap="butt" stroke-miterlimit="10" stroke-linejoin="miter" fill="none" stroke="#d5d6d5" stroke-opacity=".8" d="M53.7525 140.7H127.7525C129.08583 140.7 129.7525 141.36667 129.7525 142.7V198.2C129.7525 199.53334 129.08583 200.2 127.7525 200.2H53.7525C52.419168 200.2 51.7525 199.53334 51.7525 198.2V142.7C51.7525 141.36667 52.419168 140.7 53.7525 140.7Z"/>
</g>
<path transform="matrix(1,0,0,-1,0,216)" stroke-width="1.5" stroke-linecap="square" stroke-linejoin="round" fill="none" stroke="#1f77b4" d="M55.7525 191.59062H75.7525"/>
<g clip-path="url(#clip_33)">
<path transform="matrix(.01,0,0,-.01,83.7525,27.909379)" d="M720 688H796C809 712 819 730 826 740 832 750 838 755 844 755 853 755 873 742 905 718 936 694 952 676 952 665 952 658 946 655 934 655H720V579H769C786 610 797 628 801 634 805 639 810 642 814 642 821 642 840 629 871 605 901 580 917 564 917 557 917 549 910 546 897 546H720V460H822C834 483 844 500 852 512 860 524 866 530 871 530 879 530 899 516 931 490 963 464 979 446 979 436 979 430 972 427 960 427H500C486 427 474 423 464 416L448 437C444 434 437 433 428 433H297V374C341 363 374 346 398 324 422 301 434 276 434 250 434 236 427 222 415 208 402 194 389 187 375 187 361 187 351 190 344 198 336 206 333 216 333 229L335 252C335 286 322 318 297 348V-71C297-78 295-83 293-86 290-89 279-93 261-98 242-102 223-105 203-105 195-105 192-101 192-94L194-53C194-20 195 9 195 37V263C170 225 147 192 125 166 97 134 67 105 35 79 25 71 19 67 17 67V68C17 70 20 75 26 84 94 182 140 298 164 433H90C72 433 58 431 47 428L24 471C38 467 54 466 74 466H195V696C195 740 194 778 192 810 258 804 296 800 306 798 316 796 321 791 321 785 321 779 313 772 297 764V525C319 577 339 645 357 730 386 717 414 703 440 688H604V725C604 758 603 788 602 814 640 812 669 810 691 807 713 803 726 800 732 798 738 796 741 792 741 786 741 780 734 773 720 767V688ZM604 655H481C483 647 477 642 463 641 449 640 434 633 418 620 402 606 361 567 297 503V466H328C340 489 349 504 354 512 359 519 364 523 370 523 375 523 388 514 408 497 428 480 440 468 444 461 454 460 466 460 480 460H604V546H491C477 546 465 542 455 535L426 582C442 580 458 579 476 579H604V655ZM35 702C40 702 57 694 85 678 113 662 135 644 152 623 169 602 178 582 178 562 178 542 171 525 158 511 145 497 131 490 115 490 84 490 71 507 75 541 76 554 77 567 77 579 77 621 65 657 41 688 35 694 33 698 33 700 33 701 33 702 35 702ZM575 118V-68C575-74 573-79 569-83 565-86 553-90 532-95 511-100 491-103 471-103 465-103 462-100 462-95L464-48C465-16 466 13 466 40V314C466 347 465 377 464 403 514 390 554 377 583 363H754C758 372 764 382 772 392 779 402 784 408 786 410 788 411 790 412 793 412 800 412 817 403 844 387 870 371 889 359 900 352 911 344 917 337 917 331 917 324 909 318 894 313V18C894-12 892-35 890-50 888-64 882-76 873-84 863-92 846-99 821-105 795-111 777-114 765-114 753-114 746-108 744-96 737-68 728-48 716-38 704-28 685-19 658-11 648-7 644-5 644-3 644-1 655 0 679 0 702 0 721 0 736 2 750 4 760 7 764 13 768 19 771 29 771 43V118H575ZM575 259H771V330H595C591 319 585 312 575 309V259ZM771 226H575V151H771V226Z"/>
</g>
<g clip-path="url(#clip_34)">
<path transform="matrix(.01,0,0,-.01,93.75249,27.909379)" d="M196 682H107C93 682 81 678 71 671L45 718C61 716 77 715 95 715H341C367 757 383 780 387 786 391 792 396 795 400 795 404 795 412 790 424 780 436 770 450 759 465 746 480 732 490 722 496 716 502 709 505 703 505 697 505 687 497 682 483 682H345C340 674 334 669 326 667 302 593 277 530 252 478H306C324 510 336 526 342 526 348 526 368 515 403 495 482 587 533 700 557 834 620 823 662 814 683 807 703 799 714 792 714 785 714 777 708 773 696 771 691 770 685 765 678 757 671 749 664 739 656 728 648 717 642 709 638 704H739C761 743 777 763 787 763 794 763 809 754 831 738 853 721 874 705 894 691 914 676 925 664 925 655 925 651 923 647 919 644 915 640 908 639 898 639H887C863 639 838 631 812 615 785 599 755 575 722 544H820C838 582 851 601 861 601 868 601 890 588 926 562 962 536 980 519 980 513 980 507 969 500 949 492V23C949-17 943-44 932-58 921-72 904-83 880-90 856-97 839-101 829-101 810-101 801-93 801-78 801-40 784-16 752-5 724-20 697-28 669-28 655-28 649-20 649-5L650 34C650 48 651 74 651 114V197H575C564 135 542 83 508 40 474-2 430-37 374-65 318-93 284-107 272-107 268-107 267-105 267-103 267-101 270-98 276-95 338-59 384-21 414 18 444 57 462 104 470 159 478 214 481 340 480 536 461 520 440 503 416 486 442 468 455 457 455 451 455 445 445 438 426 431V193C426 162 426 141 427 129L428 95C428 90 426 86 424 82 421 78 411 73 394 67 377 60 360 57 344 57 327 57 319 64 319 80V117H253V31C253 22 250 15 246 9 241 3 231-1 215-6 199-10 181-13 163-13 151-13 145-8 145 0L147 41C147 69 148 97 148 123V333C136 321 116 304 86 280 56 256 40 244 36 244 35 244 35 244 35 245 35 247 38 254 46 264 95 332 131 399 153 464 175 529 190 602 196 682ZM612 671C578 631 546 596 515 567 555 558 580 550 592 544H694C716 593 733 635 746 671H612ZM586 387H651V511H592C588 504 587 486 587 458L586 387ZM759 387H833V511H776C776 505 770 499 759 492V387ZM319 150V445H261C260 441 257 438 253 435V150H319ZM651 354H585C584 299 582 258 579 230H651V354ZM833 354H759V230H833V354ZM762 7C790 8 809 11 819 16 828 21 833 29 833 40V197H759V114C759 63 760 27 762 7Z"/>
</g>
<g clip-path="url(#clip_35)">
<path transform="matrix(.01,0,0,-.01,103.75247,27.909379)" d="M494 523H533V633H383C369 633 357 629 347 622L321 669C337 667 353 666 371 666H534V731C534 761 533 792 532 824 595 818 636 812 656 808 676 803 686 797 686 791 686 785 677 779 660 774L656 666H762C780 704 793 728 801 740 809 751 815 757 820 757 825 757 840 748 865 730 890 712 911 696 928 681 944 666 953 654 953 646 953 637 945 633 930 633H654L650 523H697C715 564 730 585 740 585 744 585 760 576 790 560 820 543 842 529 857 519 871 508 879 500 879 494 879 484 866 476 842 468V2C854 24 863 37 867 42 871 47 875 50 881 50 887 50 899 42 917 27 935 12 952-2 968-16 984-30 992-41 992-50 992-58 985-63 971-63H344C330-63 318-66 308-74L282-27C298-29 314-30 332-30H384V471C384 504 383 534 382 560 432 546 469 534 494 523ZM495 393H718V490H513C508 483 502 479 495 477V393ZM718 360H495V262H718V360ZM718 127V229H495V127H718ZM718-30V94H495V-30H718ZM230 530C273 526 295 519 295 509 295 502 286 496 269 492V-73C269-78 268-82 266-85 264-87 257-91 246-96 235-100 219-104 197-108 175-112 158-114 148-114 143-114 141-110 141-104L144-10C144 18 145 46 145 72V383C134 366 115 343 88 313 60 283 44 269 38 269 36 269 35 270 35 274 35 277 37 282 41 290 83 364 114 442 135 523 155 603 172 701 186 815 232 803 268 793 296 784 324 774 341 768 347 764 353 760 357 755 357 751 357 746 352 743 344 742 335 741 327 735 320 725 313 714 300 686 280 642 260 597 244 560 230 530Z"/>
</g>
<path transform="matrix(1,0,0,-1,0,216)" stroke-width="1.5" stroke-linecap="butt" stroke-dasharray="5.55,2.4" stroke-linejoin="round" fill="none" stroke="#ff7f0e" d="M55.7525 177.59062H75.7525"/>
<use data-text="h" xlink:href="#font_10_104" transform="matrix(10,0,0,-10,83.7525,41.503129)"/>
<use data-text="1" xlink:href="#font_36_49" transform="matrix(10,0,0,-10,102.36578,41.503129)"/>
<use data-text="/" xlink:href="#font_36_47" transform="matrix(10,0,0,-10,108.72809,41.503129)"/>
<use data-text="8" xlink:href="#font_36_56" transform="matrix(10,0,0,-10,111.59723,41.503129)"/>
<g clip-path="url(#clip_37)">
<path transform="matrix(.01,0,0,-.01,92.038639,41.503129)" d="M732 304V217C698 191 666 173 637 162 607 150 577 145 546 145 510 145 468 154 421 174 417 175 415 176 413 177 411 177 407 179 402 181 352 201 311 211 281 211 252 211 224 204 196 192 168 180 138 160 106 133V220C140 245 171 263 201 275 230 286 260 292 292 292 328 292 369 282 417 263 421 261 423 260 425 260 427 259 430 258 436 256 486 236 526 226 557 226 585 226 612 232 640 244 668 256 698 276 732 304ZM732 494V407C698 381 666 363 637 352 607 340 577 335 546 335 510 335 468 344 421 364 417 365 415 366 413 367 411 367 407 369 402 371 352 391 311 401 281 401 252 401 224 394 196 382 168 370 138 350 106 323V410C140 435 171 453 201 465 230 476 260 482 292 482 328 482 369 472 417 453 420 451 423 450 425 450 427 449 430 448 436 446 486 426 526 416 557 416 585 416 612 422 640 434 668 446 698 466 732 494Z"/>
</g>
<path transform="matrix(1,0,0,-1,0,216)" stroke-width="1.5" stroke-linecap="butt" stroke-dasharray="9.6,2.4,1.5,2.4" stroke-linejoin="round" fill="none" stroke="#2ca02c" d="M55.7525 163.59062H75.7525"/>
<use data-text="h" xlink:href="#font_10_104" transform="matrix(10,0,0,-10,83.7525,55.503129)"/>
<use data-text="1" xlink:href="#font_36_49" transform="matrix(10,0,0,-10,102.36578,55.503129)"/>
<use data-text="/" xlink:href="#font_36_47" transform="matrix(10,0,0,-10,108.72809,55.503129)"/>
<use data-text="1" xlink:href="#font_36_49" transform="matrix(10,0,0,-10,112.09723,55.503129)"/>
<use data-text="6" xlink:href="#font_36_54" transform="matrix(10,0,0,-10,118.45953,55.503129)"/>
<g clip-path="url(#clip_38)">
<path transform="matrix(.01,0,0,-.01,92.038639,55.503129)" d="M732 304V217C698 191 666 173 637 162 607 150 577 145 546 145 510 145 468 154 421 174 417 175 415 176 413 177 411 177 407 179 402 181 352 201 311 211 281 211 252 211 224 204 196 192 168 180 138 160 106 133V220C140 245 171 263 201 275 230 286 260 292 292 292 328 292 369 282 417 263 421 261 423 260 425 260 427 259 430 258 436 256 486 236 526 226 557 226 585 226 612 232 640 244 668 256 698 276 732 304ZM732 494V407C698 381 666 363 637 352 607 340 577 335 546 335 510 335 468 344 421 364 417 365 415 366 413 367 411 367 407 369 402 371 352 391 311 401 281 401 252 401 224 394 196 382 168 370 138 350 106 323V410C140 435 171 453 201 465 230 476 260 482 292 482 328 482 369 472 417 453 420 451 423 450 425 450 427 449 430 448 436 446 486 426 526 416 557 416 585 416 612 422 640 434 668 446 698 466 732 494Z"/>
</g>
<path transform="matrix(1,0,0,-1,0,216)" stroke-width="1.5" stroke-linecap="butt" stroke-dasharray="1.5,2.475" stroke-linejoin="round" fill="none" stroke="#d62728" d="M55.7525 149.59062H75.7525"/>
<use data-text="h" xlink:href="#font_10_104" transform="matrix(10,0,0,-10,83.7525,69.50313)"/>
<use data-text="1" xlink:href="#font_36_49" transform="matrix(10,0,0,-10,102.36578,69.50313)"/>
<use data-text="/" xlink:href="#font_36_47" transform="matrix(10,0,0,-10,108.72809,69.50313)"/>
<use data-text="3" xlink:href="#font_36_51" transform="matrix(10,0,0,-10,112.09723,69.50313)"/>
<use data-text="2" xlink:href="#font_36_50" transform="matrix(10,0,0,-10,118.45953,69.50313)"/>
<g clip-path="url(#clip_39)">
<path transform="matrix(.01,0,0,-.01,92.038639,69.50313)" d="M732 304V217C698 191 666 173 637 162 607 150 577 145 546 145 510 145 468 154 421 174 417 175 415 176 413 177 411 177 407 179 402 181 352 201 311 211 281 211 252 211 224 204 196 192 168 180 138 160 106 133V220C140 245 171 263 201 275 230 286 260 292 292 292 328 292 369 282 417 263 421 261 423 260 425 260 427 259 430 258 436 256 486 236 526 226 557 226 585 226 612 232 640 244 668 256 698 276 732 304ZM732 494V407C698 381 666 363 637 352 607 340 577 335 546 335 510 335 468 344 421 364 417 365 415 366 413 367 411 367 407 369 402 371 352 391 311 401 281 401 252 401 224 394 196 382 168 370 138 350 106 323V410C140 435 171 453 201 465 230 476 260 482 292 482 328 482 369 472 417 453 420 451 423 450 425 450 427 449 430 448 436 446 486 426 526 416 557 416 585 416 612 422 640 434 668 446 698 466 732 494Z"/>
</g>
</g>
</svg>
