<svg xmlns="http://www.w3.org/2000/svg" xmlns:xlink="http://www.w3.org/1999/xlink" version="1.1" width="432pt" height="216pt" viewBox="0 0 432 216">
<defs>
<clipPath id="clip_0">
<path transform="matrix(1,0,0,-1,0,216)" d="M46.6625 43.535H421.2V205.2H46.6625Z"/>
</clipPath>
<g id="font_1_48">
<path transform="matrix(.001,0,0,.001,0,0)" d="M237 695C265 695 293 686 319 669 345 652 368 629 388 600 408 570 423 536 435 496 447 456 453 414 453 369 453 324 447 282 436 243 424 203 409 169 389 139 369 109 347 86 321 69 295 52 267 44 238 44 209 44 181 52 155 69 129 85 106 108 86 137 66 166 50 200 38 240 26 280 21 322 21 368 21 414 26 457 38 497 50 537 65 571 85 601 105 630 128 653 154 670 180 686 207 695 237 695ZM237 81C273 81 298 104 312 151 325 197 332 270 332 369 332 467 325 540 311 587 297 634 273 658 237 658 201 658 176 634 162 588 148 541 142 468 142 369 142 177 173 81 237 81Z"/>
</g>
<g id="font_1_46">
<path transform="matrix(.001,0,0,.001,0,0)" d="M110 46C92 46 78 52 66 64 54 76 48 90 48 108 48 125 54 140 66 152 78 164 92 170 110 170 127 170 142 164 154 152 166 140 172 125 172 108 172 90 166 76 154 64 142 52 127 46 110 46Z"/>
</g>
<clipPath id="clip_2">
<path transform="matrix(1,0,0,-1,0,216)" d="M46.6625 43.535H421.2V205.2H46.6625Z"/>
</clipPath>
<g id="font_1_53">
<path transform="matrix(.001,0,0,.001,0,0)" d="M389 588H240C214 588 191 587 171 587 151 587 139 586 137 585L128 450C142 457 159 462 179 466 198 469 215 471 231 471 265 471 294 465 320 454 346 443 367 428 385 410 402 392 415 371 424 347 432 323 437 298 437 272 437 238 430 207 416 179 402 151 383 127 361 107 338 87 312 71 284 60 255 49 226 44 196 44 180 44 164 45 146 48 128 51 111 55 95 61 79 67 66 74 56 82 46 90 41 100 41 112 41 120 43 127 49 133 54 139 60 144 68 148 75 152 83 154 91 154 99 154 105 151 111 147 127 133 140 122 150 113 160 103 170 96 178 90 186 84 193 79 201 77 208 74 217 73 227 73 245 73 262 77 276 86 290 94 301 106 311 121 321 136 328 154 333 174 338 194 341 215 341 238 341 259 337 278 331 296 324 314 315 329 303 342 291 355 276 365 260 373 244 380 226 384 206 384 183 384 164 381 149 376 134 371 122 364 113 355H96L115 685H241C267 685 288 685 305 685 321 685 334 685 344 687 354 689 361 691 365 695 369 699 371 704 373 712H398L389 588Z"/>
</g>
<clipPath id="clip_3">
<path transform="matrix(1,0,0,-1,0,216)" d="M46.6625 43.535H421.2V205.2H46.6625Z"/>
</clipPath>
<g id="font_1_49">
<path transform="matrix(.001,0,0,.001,0,0)" d="M385 57C367 57 345 58 319 59 293 59 266 60 238 60 210 60 182 59 156 59 130 58 108 57 91 57V86L153 95C176 100 188 113 188 134V600L69 523 52 554C63 561 77 570 95 581 112 591 130 603 150 616 169 628 188 641 208 655 227 668 245 681 261 695H294V134C294 110 305 97 329 94L385 86V57Z"/>
</g>
<clipPath id="clip_4">
<path transform="matrix(1,0,0,-1,0,216)" d="M46.6625 43.535H421.2V205.2H46.6625Z"/>
</clipPath>
<clipPath id="clip_5">
<path transform="matrix(1,0,0,-1,0,216)" d="M46.6625 43.535H421.2V205.2H46.6625Z"/>
</clipPath>
<g id="font_1_50">
<path transform="matrix(.001,0,0,.001,0,0)" d="M426 57C402 57 376 58 348 59 320 59 284 60 241 60 197 60 157 59 121 59 85 59 56 58 33 57 35 73 37 88 41 103 44 117 50 133 59 149 67 165 79 183 94 203 109 222 129 245 155 271L192 309C218 335 238 357 254 377 269 396 281 413 289 429 297 445 302 460 304 474 306 488 307 503 307 519 307 550 297 575 278 594 258 612 232 622 200 622 166 622 138 611 116 589 94 567 80 535 72 494L41 506C50 567 72 614 108 646 144 678 188 695 242 695 266 695 288 691 310 685 331 678 350 668 366 655 382 642 394 626 404 607 414 588 419 566 419 542 419 516 414 492 405 470 395 448 383 427 367 407 351 387 332 369 311 351 290 333 268 315 246 298L216 274C198 260 180 243 161 223 141 203 123 179 107 153H324C340 153 353 154 362 158 370 161 377 166 382 174 387 182 391 191 395 203 399 215 404 229 410 245H441L426 57Z"/>
</g>
<clipPath id="clip_6">
<path transform="matrix(1,0,0,-1,0,216)" d="M46.6625 43.535H421.2V205.2H46.6625Z"/>
</clipPath>
<clipPath id="clip_7">
<path transform="matrix(1,0,0,-1,0,216)" d="M46.6625 43.535H421.2V205.2H46.6625Z"/>
</clipPath>
<g id="font_1_51">
<path transform="matrix(.001,0,0,.001,0,0)" d="M90 536 74 551C82 572 91 591 101 609 111 627 123 642 137 655 151 667 167 677 186 684 205 691 227 695 253 695 269 695 286 693 303 689 319 685 334 678 347 670 360 661 371 650 379 638 387 625 391 610 391 592 391 566 379 540 356 514 333 488 302 463 263 441 289 443 314 440 336 433 358 425 377 414 393 400 409 385 421 367 430 346 438 324 443 301 443 275 443 242 436 211 423 183 409 155 391 130 368 110 344 89 317 73 286 61 255 49 222 44 188 44 142 44 106 50 81 63 55 75 43 92 43 112 43 119 45 126 50 133 55 140 62 145 71 148 80 151 90 151 102 148 113 145 125 137 139 125 149 115 157 106 164 100 171 93 177 88 183 84 189 80 194 78 199 76 204 74 210 74 217 74 237 74 254 79 269 89 284 99 297 112 307 129 317 145 324 164 329 185 333 205 336 226 336 248 336 290 325 322 305 343 285 364 261 375 234 375 216 375 201 372 188 366 175 360 162 352 149 341L132 364C138 370 145 376 153 382 160 388 168 394 176 400 212 427 241 451 262 473 282 495 293 516 293 537 293 563 285 583 270 597 255 611 233 619 204 619 182 619 161 612 141 600 120 588 103 566 90 536Z"/>
</g>
<clipPath id="clip_8">
<path transform="matrix(1,0,0,-1,0,216)" d="M46.6625 43.535H421.2V205.2H46.6625Z"/>
</clipPath>
<clipPath id="clip_9">
<path transform="matrix(1,0,0,-1,0,216)" d="M46.6625 43.535H421.2V205.2H46.6625Z"/>
</clipPath>
<g id="font_1_52">
<path transform="matrix(.001,0,0,.001,0,0)" d="M326 695H373V288H456V224H373V44H261V224H19V275L151 455C181 495 210 535 239 575 267 615 296 655 326 695ZM261 288V542C238 510 218 483 201 460 184 436 169 415 155 396 141 377 127 359 115 342 103 324 90 306 77 288H261Z"/>
</g>
<g id="font_1_32">
</g>
<g id="font_10_88">
<path transform="matrix(.001,0,0,.001,0,0)" d="M137 729H237L362 466 588 729H703L403 381 584 0H485L338 307 72 0H-42L298 392 137 729Z"/>
</g>
<clipPath id="clip_11">
<path transform="matrix(.01,0,0,-.01,203.93125,200.4025)" d="M-99-150H1032V860H-99Z"/>
</clipPath>
<clipPath id="clip_12">
<path transform="matrix(.01,0,0,-.01,213.93123,200.4025)" d="M-99-150H1032V860H-99Z"/>
</clipPath>
<clipPath id="clip_13">
<path transform="matrix(.01,0,0,-.01,223.93122,200.4025)" d="M-99-150H1032V860H-99Z"/>
</clipPath>
<clipPath id="clip_14">
<path transform="matrix(.01,0,0,-.01,233.9312,200.4025)" d="M-99-150H1032V860H-99Z"/>
</clipPath>
<clipPath id="clip_15">
<path transform="matrix(.01,0,0,-.01,243.93119,200.4025)" d="M-99-150H1032V860H-99Z"/>
</clipPath>
<clipPath id="clip_16">
<path transform="matrix(1,0,0,-1,0,216)" d="M46.6625 43.535H421.2V205.2H46.6625Z"/>
</clipPath>
<g id="font_1_45">
<path transform="matrix(.001,0,0,.001,0,0)" d="M38 277H275V234H38V277Z"/>
</g>
<clipPath id="clip_17">
<path transform="matrix(1,0,0,-1,0,216)" d="M46.6625 43.535H421.2V205.2H46.6625Z"/>
</clipPath>
<clipPath id="clip_18">
<path transform="matrix(1,0,0,-1,0,216)" d="M46.6625 43.535H421.2V205.2H46.6625Z"/>
</clipPath>
<clipPath id="clip_19">
<path transform="matrix(1,0,0,-1,0,216)" d="M46.6625 43.535H421.2V205.2H46.6625Z"/>
</clipPath>
<clipPath id="clip_20">
<path transform="matrix(1,0,0,-1,0,216)" d="M46.6625 43.535H421.2V205.2H46.6625Z"/>
</clipPath>
<g id="font_10_85">
<path transform="matrix(.001,0,0,.001,0,0)" d="M155 729H254L168 286C164 266 162 249 160 237 158 224 158 213 158 203 158 158 170 124 195 101 220 77 257 66 306 66 368 66 417 83 452 117 487 151 512 208 528 286L614 729H713L625 274C605 175 569 102 515 56 461 10 388-13 295-13 222-13 164 5 122 41 79 77 58 127 58 190 58 201 58 214 60 228 62 242 64 258 68 274L155 729Z"/>
</g>
<clipPath id="clip_21">
<path transform="matrix(0,-.01,-.01,-0,20.50625,126.6325)" d="M-99-150H1032V860H-99Z"/>
</clipPath>
<clipPath id="clip_22">
<path transform="matrix(0,-.01,-.01,-0,20.50625,116.632518)" d="M-99-150H1032V860H-99Z"/>
</clipPath>
<clipPath id="clip_23">
<path transform="matrix(0,-.01,-.01,-0,20.50625,106.63253)" d="M-99-150H1032V860H-99Z"/>
</clipPath>
<clipPath id="clip_24">
<path transform="matrix(0,-.01,-.01,-0,20.50625,96.632549)" d="M-99-150H1032V860H-99Z"/>
</clipPath>
<clipPath id="clip_25">
<path transform="matrix(0,-.01,-.01,-0,20.50625,86.63256)" d="M-99-150H1032V860H-99Z"/>
</clipPath>
<clipPath id="clip_26">
<path transform="matrix(0,-.01,-.01,-0,20.50625,76.632579)" d="M-99-150H1032V860H-99Z"/>
</clipPath>
<clipPath id="clip_27">
<path transform="matrix(1,0,0,-1,0,216)" d="M46.6625 43.535H421.2V205.2H46.6625Z"/>
</clipPath>
<clipPath id="clip_28">
<path transform="matrix(1,0,0,-1,0,216)" d="M46.6625 43.535H421.2V205.2H46.6625Z"/>
</clipPath>
<clipPath id="clip_29">
<path transform="matrix(1,0,0,-1,0,216)" d="M46.6625 43.535H421.2V205.2H46.6625Z"/>
</clipPath>
<clipPath id="clip_30">
<path transform="matrix(1,0,0,-1,0,216)" d="M46.6625 43.535H421.2V205.2H46.6625Z"/>
</clipPath>
<clipPath id="clip_31">
<path transform="matrix(.01,0,0,-.01,83.6625,27.862504)" d="M-99-150H1032V860H-99Z"/>
</clipPath>
<clipPath id="clip_32">
<path transform="matrix(.01,0,0,-.01,93.66248,27.862504)" d="M-99-150H1032V860H-99Z"/>
</clipPath>
<clipPath id="clip_33">
<path transform="matrix(.01,0,0,-.01,103.66247,27.862504)" d="M-99-150H1032V860H-99Z"/>
</clipPath>
<g id="font_10_112">
<path transform="matrix(.001,0,0,.001,0,0)" d="M496 337C496 385 485 421 465 447 444 472 414 485 375 485 348 485 322 478 298 464 274 450 252 431 234 405 215 379 200 347 189 311 178 275 173 239 173 203 173 157 183 122 204 98 224 73 254 61 293 61 321 61 347 67 371 81 395 94 416 113 434 139 452 165 467 197 479 233 490 269 496 304 496 337ZM218 464C242 495 270 519 303 535 335 551 372 560 412 560 468 560 511 541 542 505 573 468 589 417 589 351 589 297 579 245 560 196 540 147 513 103 477 65 453 39 425 19 395 6 365-6 333-13 300-13 261-13 228-5 202 10 176 26 156 50 143 82L87-207H-2L144 547H234L218 464Z"/>
</g>
<g id="font_34_61">
<path transform="matrix(.001,0,0,.001,0,0)" d="M106 454H732V372H106V454ZM106 255H732V172H106V255Z"/>
</g>
<g id="font_34_51">
<path transform="matrix(.001,0,0,.001,0,0)" d="M406 393C453 383 490 362 516 330 542 298 556 258 556 212 556 140 531 84 482 45 432 6 362-13 271-13 240-13 208-10 176-4 144 1 110 10 76 22V117C103 101 133 89 166 81 198 73 232 69 268 69 330 69 377 81 409 105 441 129 458 165 458 212 458 254 443 288 413 312 383 336 341 349 287 349H202V430H291C339 430 376 439 402 459 428 478 441 506 441 543 441 580 427 609 401 629 374 649 336 659 287 659 260 659 231 656 200 650 169 644 135 635 98 623V711C135 721 170 729 203 734 235 739 266 742 296 742 370 742 429 725 473 691 517 657 539 611 539 553 539 513 527 479 504 451 481 423 448 403 406 393Z"/>
</g>
<g id="font_34_44">
<path transform="matrix(.001,0,0,.001,0,0)" d="M117 124H220V40L140-115H77L117 40V124Z"/>
</g>
<g id="font_10_104">
<path transform="matrix(.001,0,0,.001,0,0)" d="M557 330 493 0H403L467 327C469 342 471 355 473 367 475 379 476 388 476 395 476 422 467 443 450 459 432 474 408 482 378 482 330 482 288 465 253 433 217 400 194 357 184 303L125 0H35L183 760H273L215 461C237 491 266 515 302 533 337 551 374 560 414 560 462 560 499 547 526 521 552 495 566 458 566 411 566 399 565 387 564 374 562 360 560 346 557 330Z"/>
</g>
<g id="font_34_50">
<path transform="matrix(.001,0,0,.001,0,0)" d="M192 83H536V0H73V83C110 121 161 173 226 239 290 304 331 346 348 365 380 400 402 430 414 455 426 479 433 504 433 528 433 566 419 598 392 622 365 646 330 659 286 659 255 659 222 653 188 643 154 632 117 616 78 594V694C118 710 155 722 189 730 223 738 255 742 284 742 359 742 419 723 464 685 509 647 532 597 532 534 532 504 526 475 515 449 504 422 484 390 454 354 446 344 420 317 376 272 332 227 271 164 192 83Z"/>
</g>
<g id="font_34_52">
<path transform="matrix(.001,0,0,.001,0,0)" d="M378 643 129 254H378V643ZM352 729H476V254H580V172H476V0H378V172H49V267L352 729Z"/>
</g>
<clipPath id="clip_35">
<path transform="matrix(.01,0,0,-.01,131.80216,43.189065)" d="M-1021-463H1794V1233H-1021Z"/>
</clipPath>
<clipPath id="clip_36">
<path transform="matrix(.007,0,0,-.007,148.58731,39.36094)" d="M-1021-463H1794V1233H-1021Z"/>
</clipPath>
<clipPath id="clip_37">
<path transform="matrix(.01,0,0,-.01,131.80216,60.276567)" d="M-1021-463H1794V1233H-1021Z"/>
</clipPath>
<clipPath id="clip_38">
<path transform="matrix(.007,0,0,-.007,148.58731,56.44844)" d="M-1021-463H1794V1233H-1021Z"/>
</clipPath>
<clipPath id="clip_39">
<path transform="matrix(.01,0,0,-.01,131.80216,78.276569)" d="M-1021-463H1794V1233H-1021Z"/>
</clipPath>
<clipPath id="clip_40">
<path transform="matrix(.007,0,0,-.007,148.58731,74.44844)" d="M-1021-463H1794V1233H-1021Z"/>
</clipPath>
</defs>
<g>
<path transform="matrix(1,0,0,-1,0,216)" d="M0 0H432V216H0Z" fill="#ffffff"/>
<path transform="matrix(1,0,0,-1,0,216)" d="M46.6625 43.535H421.2V205.2H46.6625Z" fill="#ffffff"/>
<g clip-path="url(#clip_0)">
<path transform="matrix(1,0,0,-1,0,216)" stroke-width=".8" stroke-linecap="square" stroke-linejoin="round" fill="none" stroke="#bebebe" d="M63.68693 43.535V205.2"/>
</g>
<path transform="matrix(1,0,0,-1,0,216)" d="M63.68693 43.535V40.035"/>
<path transform="matrix(1,0,0,-1,0,216)" stroke-width=".8" stroke-linecap="butt" stroke-linejoin="round" fill="none" stroke="#000000" d="M63.68693 43.535V40.035"/>
<use data-text="0" xlink:href="#font_1_48" transform="matrix(10,0,0,-10,57.90568,186.66812)"/>
<use data-text="." xlink:href="#font_1_46" transform="matrix(10,0,0,-10,62.59568,186.66812)"/>
<use data-text="0" xlink:href="#font_1_48" transform="matrix(10,0,0,-10,64.78568,186.66812)"/>
<g clip-path="url(#clip_2)">
<path transform="matrix(1,0,0,-1,0,216)" stroke-width=".8" stroke-linecap="square" stroke-linejoin="round" fill="none" stroke="#bebebe" d="M106.24801 43.535V205.2"/>
</g>
<path transform="matrix(1,0,0,-1,0,216)" d="M106.24801 43.535V40.035"/>
<path transform="matrix(1,0,0,-1,0,216)" stroke-width=".8" stroke-linecap="butt" stroke-linejoin="round" fill="none" stroke="#000000" d="M106.24801 43.535V40.035"/>
<use data-text="0" xlink:href="#font_1_48" transform="matrix(10,0,0,-10,100.46676,186.66812)"/>
<use data-text="." xlink:href="#font_1_46" transform="matrix(10,0,0,-10,105.15676,186.66812)"/>
<use data-text="5" xlink:href="#font_1_53" transform="matrix(10,0,0,-10,107.346759,186.66812)"/>
<g clip-path="url(#clip_3)">
<path transform="matrix(1,0,0,-1,0,216)" stroke-width=".8" stroke-linecap="square" stroke-linejoin="round" fill="none" stroke="#bebebe" d="M148.8091 43.535V205.2"/>
</g>
<path transform="matrix(1,0,0,-1,0,216)" d="M148.8091 43.535V40.035"/>
<path transform="matrix(1,0,0,-1,0,216)" stroke-width=".8" stroke-linecap="butt" stroke-linejoin="round" fill="none" stroke="#000000" d="M148.8091 43.535V40.035"/>
<use data-text="1" xlink:href="#font_1_49" transform="matrix(10,0,0,-10,143.02785,186.66812)"/>
<use data-text="." xlink:href="#font_1_46" transform="matrix(10,0,0,-10,147.71785,186.66812)"/>
<use data-text="0" xlink:href="#font_1_48" transform="matrix(10,0,0,-10,149.90785,186.66812)"/>
<g clip-path="url(#clip_4)">
<path transform="matrix(1,0,0,-1,0,216)" stroke-width=".8" stroke-linecap="square" stroke-linejoin="round" fill="none" stroke="#bebebe" d="M191.37017 43.535V205.2"/>
</g>
<path transform="matrix(1,0,0,-1,0,216)" d="M191.37017 43.535V40.035"/>
<path transform="matrix(1,0,0,-1,0,216)" stroke-width=".8" stroke-linecap="butt" stroke-linejoin="round" fill="none" stroke="#000000" d="M191.37017 43.535V40.035"/>
<use data-text="1" xlink:href="#font_1_49" transform="matrix(10,0,0,-10,185.58892,186.66812)"/>
<use data-text="." xlink:href="#font_1_46" transform="matrix(10,0,0,-10,190.27892,186.66812)"/>
<use data-text="5" xlink:href="#font_1_53" transform="matrix(10,0,0,-10,192.46892,186.66812)"/>
<g clip-path="url(#clip_5)">
<path transform="matrix(1,0,0,-1,0,216)" stroke-width=".8" stroke-linecap="square" stroke-linejoin="round" fill="none" stroke="#bebebe" d="M233.93125 43.535V205.2"/>
</g>
<path transform="matrix(1,0,0,-1,0,216)" d="M233.93125 43.535V40.035"/>
<path transform="matrix(1,0,0,-1,0,216)" stroke-width=".8" stroke-linecap="butt" stroke-linejoin="round" fill="none" stroke="#000000" d="M233.93125 43.535V40.035"/>
<use data-text="2" xlink:href="#font_1_50" transform="matrix(10,0,0,-10,228.15,186.66812)"/>
<use data-text="." xlink:href="#font_1_46" transform="matrix(10,0,0,-10,232.84,186.66812)"/>
<use data-text="0" xlink:href="#font_1_48" transform="matrix(10,0,0,-10,235.03,186.66812)"/>
<g clip-path="url(#clip_6)">
<path transform="matrix(1,0,0,-1,0,216)" stroke-width=".8" stroke-linecap="square" stroke-linejoin="round" fill="none" stroke="#bebebe" d="M276.49235 43.535V205.2"/>
</g>
<path transform="matrix(1,0,0,-1,0,216)" d="M276.49235 43.535V40.035"/>
<path transform="matrix(1,0,0,-1,0,216)" stroke-width=".8" stroke-linecap="butt" stroke-linejoin="round" fill="none" stroke="#000000" d="M276.49235 43.535V40.035"/>
<use data-text="2" xlink:href="#font_1_50" transform="matrix(10,0,0,-10,270.7111,186.66812)"/>
<use data-text="." xlink:href="#font_1_46" transform="matrix(10,0,0,-10,275.4011,186.66812)"/>
<use data-text="5" xlink:href="#font_1_53" transform="matrix(10,0,0,-10,277.5911,186.66812)"/>
<g clip-path="url(#clip_7)">
<path transform="matrix(1,0,0,-1,0,216)" stroke-width=".8" stroke-linecap="square" stroke-linejoin="round" fill="none" stroke="#bebebe" d="M319.0534 43.535V205.2"/>
</g>
<path transform="matrix(1,0,0,-1,0,216)" d="M319.0534 43.535V40.035"/>
<path transform="matrix(1,0,0,-1,0,216)" stroke-width=".8" stroke-linecap="butt" stroke-linejoin="round" fill="none" stroke="#000000" d="M319.0534 43.535V40.035"/>
<use data-text="3" xlink:href="#font_1_51" transform="matrix(10,0,0,-10,313.27217,186.66812)"/>
<use data-text="." xlink:href="#font_1_46" transform="matrix(10,0,0,-10,317.96217,186.66812)"/>
<use data-text="0" xlink:href="#font_1_48" transform="matrix(10,0,0,-10,320.15217,186.66812)"/>
<g clip-path="url(#clip_8)">
<path transform="matrix(1,0,0,-1,0,216)" stroke-width=".8" stroke-linecap="square" stroke-linejoin="round" fill="none" stroke="#bebebe" d="M361.6145 43.535V205.2"/>
</g>
<path transform="matrix(1,0,0,-1,0,216)" d="M361.6145 43.535V40.035"/>
<path transform="matrix(1,0,0,-1,0,216)" stroke-width=".8" stroke-linecap="butt" stroke-linejoin="round" fill="none" stroke="#000000" d="M361.6145 43.535V40.035"/>
<use data-text="3" xlink:href="#font_1_51" transform="matrix(10,0,0,-10,355.83326,186.66812)"/>
<use data-text="." xlink:href="#font_1_46" transform="matrix(10,0,0,-10,360.52326,186.66812)"/>
<use data-text="5" xlink:href="#font_1_53" transform="matrix(10,0,0,-10,362.71327,186.66812)"/>
<g clip-path="url(#clip_9)">
<path transform="matrix(1,0,0,-1,0,216)" stroke-width=".8" stroke-linecap="square" stroke-linejoin="round" fill="none" stroke="#bebebe" d="M404.17558 43.535V205.2"/>
</g>
<path transform="matrix(1,0,0,-1,0,216)" d="M404.17558 43.535V40.035"/>
<path transform="matrix(1,0,0,-1,0,216)" stroke-width=".8" stroke-linecap="butt" stroke-linejoin="round" fill="none" stroke="#000000" d="M404.17558 43.535V40.035"/>
<use data-text="4" xlink:href="#font_1_52" transform="matrix(10,0,0,-10,398.39433,186.66812)"/>
<use data-text="." xlink:href="#font_1_46" transform="matrix(10,0,0,-10,403.08433,186.66812)"/>
<use data-text="0" xlink:href="#font_1_48" transform="matrix(10,0,0,-10,405.27433,186.66812)"/>
<use data-text=" " xlink:href="#font_1_32" transform="matrix(10,0,0,-10,253.93117,200.4025)"/>
<use data-text="X" xlink:href="#font_10_88" transform="matrix(10,0,0,-10,256.43116,200.4025)"/>
<g clip-path="url(#clip_11)">
<path transform="matrix(.01,0,0,-.01,203.93125,200.4025)" d="M394 674H179C165 674 153 670 143 663L117 710C133 708 149 707 167 707H699C709 726 720 744 731 762 742 779 749 790 753 794 757 798 761 800 765 800 773 800 796 784 833 753 869 721 888 700 888 690 888 679 879 674 861 674H551C543 659 539 643 539 625 529 531 522 468 517 436H743C751 451 761 469 774 489 786 509 795 521 799 525 803 529 808 531 813 531 823 531 846 514 883 482 920 450 939 428 939 418 939 408 930 403 912 403H647C645 399 641 395 634 389V79C634 63 639 52 650 44 661 36 688 32 732 32 776 32 806 36 822 44 838 52 850 67 860 90 870 112 883 157 901 223 903 231 906 236 908 236 910 236 912 232 912 225L910 171C910 142 913 117 919 97 925 77 942 58 968 41 980 33 986 25 986 17 986 9 979-4 967-23 954-42 931-56 898-65 864-74 815-79 749-79 653-79 588-70 552-53 516-36 498-3 498 46V338C472 230 434 147 382 90 330 33 262-12 177-48 91-84 43-102 33-102 31-102 30-101 30-101 30-98 35-93 46-87 122-41 181 0 224 40 266 80 300 128 324 184 348 240 365 313 376 403H124C110 403 98 399 88 392L62 439C78 437 94 436 112 436H380C386 494 390 574 394 674Z"/>
</g>
<g clip-path="url(#clip_12)">
<path transform="matrix(.01,0,0,-.01,213.93123,200.4025)" d="M310 781H678C689 799 698 812 706 821 714 830 720 835 726 835 734 835 756 822 792 798 827 773 845 756 845 748 845 739 832 729 808 719V651L810 559C810 549 807 541 801 535 795 529 784 523 767 517 750 511 730 509 707 509 694 509 687 516 687 531H308C308 525 299 519 281 512 263 504 239 501 208 501 198 501 194 504 194 512L196 557C197 577 198 595 198 612V732C198 761 197 790 195 819 239 807 278 794 310 781ZM687 677V748H328C325 740 319 734 309 730V677H687ZM687 564V644H309V564H687ZM740 454H99C85 454 73 450 63 443L37 490C53 488 69 487 87 487H797C806 504 815 520 825 536 835 551 841 561 845 565 848 569 852 571 858 571 863 571 876 562 897 545L954 499C970 485 978 474 978 466 978 458 968 454 949 454H778C838 415 869 390 869 380 869 369 858 360 837 353V253C837 233 837 216 838 202 839 187 840 178 840 175 840 171 838 168 835 164 831 160 819 154 798 146 854 100 883 71 883 59 883 52 875 49 861 49H555V-28H796C812 0 825 17 833 26 841 35 847 40 852 40 856 40 870 32 892 18 914 4 932-9 947-21 961-33 969-43 969-50 969-57 961-61 945-61H134C120-61 108-64 98-72L72-25C88-27 104-28 122-28H443V49H209C195 49 183 45 173 38L147 85C163 83 179 82 197 82H443V150H280C280 142 278 136 274 132 270 128 260 123 243 119 225 115 205 113 182 113 172 113 167 119 168 132 169 145 170 172 170 213V358C170 386 169 414 167 443 203 434 239 423 273 411H714C723 429 732 443 740 454ZM443 378H303C299 366 292 358 280 354V296H443V378ZM718 296V378H574C570 368 564 361 555 357V296H718ZM443 263H280V183H443V263ZM718 183V263H555V183H718ZM770 139C756 137 744 137 734 137 724 137 719 141 718 150H555V82H735C743 98 755 117 770 139Z"/>
</g>
<g clip-path="url(#clip_13)">
<path transform="matrix(.01,0,0,-.01,223.93122,200.4025)" d="M237 462C191 445 146 424 103 400 96 396 91 394 88 394 84 394 81 396 79 401 77 405 70 423 58 453 46 483 41 500 41 504 41 508 44 511 51 513 71 517 85 524 94 535 103 545 119 579 141 637 163 695 183 755 199 819 237 805 269 791 295 779 321 767 337 759 343 756 348 752 351 748 351 744 351 739 345 735 335 731 325 727 315 720 305 708L241 632C207 592 172 549 135 502H256C273 542 290 587 308 637 356 611 397 585 431 560V696C431 729 430 759 429 785 489 764 531 749 555 740H796C812 768 823 785 828 792 832 798 838 802 846 802 854 802 873 791 904 770 934 749 954 735 963 727 971 719 976 713 976 707 976 696 963 687 939 679V4C939-38 928-66 907-81 886-96 854-104 810-104 800-104 794-102 790-99 786-95 783-88 783-78 782-56 774-39 758-27 742-15 717-5 684 1 671 3 665 6 665 10 665 13 672 15 687 15 738 15 770 16 784 18 798 20 807 24 811 29 815 33 817 40 817 50V571C809 569 803 566 799 562 795 557 790 546 785 530 768 476 750 427 731 384 757 348 776 316 790 288 804 260 811 236 811 217 811 198 804 181 792 165 779 149 764 142 747 142 730 142 718 148 711 160 703 172 699 190 698 214 696 238 691 265 682 294 645 238 598 184 540 133V-66C540-72 538-77 535-80 532-83 517-89 491-97 464-105 445-109 433-109 429-109 427-106 427-101L429-54C430-21 431 8 431 34V129C362 101 298 72 240 43 181 14 141-7 120-23 116-26 112-28 109-28 105-28 102-25 100-21 97-16 90-1 80 24 69 49 59 76 50 106 166 111 293 125 431 148V285C270 232 167 194 123 171 117 168 113 167 109 167 105 167 103 169 102 173 101 177 94 195 80 229 66 263 59 282 59 287 59 292 63 295 73 296 95 297 112 300 124 304 135 308 144 313 152 321 160 329 172 346 188 372 204 398 220 428 237 462ZM664 463C676 522 682 581 683 639 718 628 763 613 817 594V707H556C552 703 547 699 540 697V581C588 539 629 499 664 463ZM540 165C582 220 617 294 645 387 618 439 583 494 540 553V165ZM431 307V534C418 533 402 523 383 504 363 485 302 414 200 292 273 292 350 297 431 307Z"/>
</g>
<g clip-path="url(#clip_14)">
<path transform="matrix(.01,0,0,-.01,233.9312,200.4025)" d="M563 241H694C719 282 733 304 736 308 739 311 742 313 746 313 753 313 775 299 813 271 850 243 869 225 869 218 869 211 863 208 851 208H563V5H787C818 55 836 83 840 88 844 93 849 96 855 96 861 96 874 86 896 66 918 46 936 29 952 15 968 0 976-10 976-17 976-23 971-27 961-27H117C103-27 91-30 81-38L55 8C71 6 87 5 105 5H443V208H228C214 208 202 204 192 197L166 244C182 242 198 241 216 241H443V726C443 759 442 789 441 815 472 812 502 809 530 805 558 801 575 797 580 794 584 791 587 788 587 784 587 775 579 767 563 761V319C625 427 667 568 690 743 725 733 757 721 787 709 816 696 833 688 837 685 841 681 843 678 843 675 843 668 838 664 829 663 819 661 810 652 801 636L733 525C795 505 843 483 877 458 911 433 929 408 929 383 929 357 921 337 906 321 890 305 869 298 843 298 812 298 797 317 797 357 797 377 789 401 775 428 761 455 741 479 717 500 654 400 603 331 563 293V241ZM257 472C214 414 171 364 128 321 85 277 60 256 52 256 50 256 49 257 49 260 49 262 52 268 59 277 101 333 139 403 174 489 209 574 232 659 244 743L333 706C363 693 381 685 385 681 389 677 392 672 392 668 392 663 388 660 380 659 376 657 371 653 365 645 359 637 348 618 332 589 316 559 299 532 281 506 329 486 363 467 383 449 403 431 414 410 414 387 414 364 405 345 389 330 373 315 355 308 336 308 326 308 317 311 310 317 302 323 298 329 296 335 294 341 293 351 293 365 293 401 281 436 257 472Z"/>
</g>
<g clip-path="url(#clip_15)">
<path transform="matrix(.01,0,0,-.01,243.93119,200.4025)" d="M314 579H363L405 647C409 654 414 658 420 658 425 658 443 642 474 612 505 582 521 563 521 556 521 549 514 546 502 546H314V475C358 463 392 446 416 424 439 402 451 376 451 348 451 332 444 317 431 305 418 293 405 287 392 287 379 287 369 289 362 294 354 299 349 305 347 313 344 321 343 334 343 352 343 409 333 444 314 458V-62C314-76 302-87 279-93 255-99 232-102 210-102 202-102 198-97 198-88L200-47C200-19 201 11 201 45V321C183 285 153 242 110 192 66 142 42 117 36 117 30 117 27 120 27 127 27 133 28 139 32 145 74 211 105 275 125 339 145 403 160 472 169 546H95C81 546 69 542 59 535L33 582C49 580 65 579 83 579H201V695C201 739 200 777 198 809 256 803 294 799 312 795 330 791 339 786 339 780 339 774 330 767 314 759V579ZM745 722C749 730 757 743 770 763 783 782 792 794 796 798 800 802 806 805 812 805 818 805 830 795 849 777 867 758 884 742 899 728 914 714 922 704 922 698 922 692 915 689 902 689H545C531 689 519 685 509 678L483 725C499 723 515 722 533 722H745ZM627 466H478C464 466 452 462 442 455L416 502C432 500 448 499 466 499H811C818 511 827 527 839 545 850 563 857 573 860 576 863 578 866 580 870 580 878 580 892 570 914 551L966 503C979 491 986 481 986 475 986 469 979 466 966 466H771C767 457 758 451 746 449V383C828 351 887 317 923 279 959 241 977 199 977 154 977 126 969 104 953 87 937 70 919 62 898 62 884 62 871 69 858 83 844 97 838 121 838 155 838 241 807 310 746 360V41C746 8 741-16 731-33 721-49 704-62 680-70 656-78 632-82 609-82 589-82 579-74 579-59 579-34 570-15 554-3 538 9 512 19 476 25 468 26 464 28 464 32 464 36 473 37 491 35 509 33 529 33 553 33 576 33 594 36 607 43 620 50 627 65 627 87V348C625 346 620 345 612 344 604 343 596 339 590 332 584 324 575 311 565 291 532 231 488 171 434 111 380 51 348 22 338 22 336 22 336 23 336 26 336 28 339 34 345 43 384 98 413 154 433 211 453 267 468 335 479 413 512 405 544 395 575 383 606 371 623 364 627 361V466Z"/>
</g>
<g clip-path="url(#clip_16)">
<path transform="matrix(1,0,0,-1,0,216)" stroke-width=".8" stroke-linecap="square" stroke-linejoin="round" fill="none" stroke="#bebebe" d="M46.6625 50.883409H421.2"/>
</g>
<path transform="matrix(1,0,0,-1,0,216)" d="M46.6625 50.883409H43.1625"/>
<path transform="matrix(1,0,0,-1,0,216)" stroke-width=".8" stroke-linecap="butt" stroke-linejoin="round" fill="none" stroke="#000000" d="M46.6625 50.883409H43.1625"/>
<use data-text="-" xlink:href="#font_1_45" transform="matrix(10,0,0,-10,27.1625,168.71816)"/>
<use data-text="1" xlink:href="#font_1_49" transform="matrix(10,0,0,-10,30.2925,168.71816)"/>
<use data-text="0" xlink:href="#font_1_48" transform="matrix(10,0,0,-10,34.982503,168.71816)"/>
<g clip-path="url(#clip_17)">
<path transform="matrix(1,0,0,-1,0,216)" stroke-width=".8" stroke-linecap="square" stroke-linejoin="round" fill="none" stroke="#bebebe" d="M46.6625 87.62546H421.2"/>
</g>
<path transform="matrix(1,0,0,-1,0,216)" d="M46.6625 87.62546H43.1625"/>
<path transform="matrix(1,0,0,-1,0,216)" stroke-width=".8" stroke-linecap="butt" stroke-linejoin="round" fill="none" stroke="#000000" d="M46.6625 87.62546H43.1625"/>
<use data-text="-" xlink:href="#font_1_45" transform="matrix(10,0,0,-10,31.85,131.9761)"/>
<use data-text="5" xlink:href="#font_1_53" transform="matrix(10,0,0,-10,34.98,131.9761)"/>
<g clip-path="url(#clip_18)">
<path transform="matrix(1,0,0,-1,0,216)" stroke-width=".8" stroke-linecap="square" stroke-linejoin="round" fill="none" stroke="#bebebe" d="M46.6625 124.3675H421.2"/>
</g>
<path transform="matrix(1,0,0,-1,0,216)" d="M46.6625 124.3675H43.1625"/>
<path transform="matrix(1,0,0,-1,0,216)" stroke-width=".8" stroke-linecap="butt" stroke-linejoin="round" fill="none" stroke="#000000" d="M46.6625 124.3675H43.1625"/>
<use data-text="0" xlink:href="#font_1_48" transform="matrix(10,0,0,-10,34.975,95.23406)"/>
<g clip-path="url(#clip_19)">
<path transform="matrix(1,0,0,-1,0,216)" stroke-width=".8" stroke-linecap="square" stroke-linejoin="round" fill="none" stroke="#bebebe" d="M46.6625 161.10955H421.2"/>
</g>
<path transform="matrix(1,0,0,-1,0,216)" d="M46.6625 161.10955H43.1625"/>
<path transform="matrix(1,0,0,-1,0,216)" stroke-width=".8" stroke-linecap="butt" stroke-linejoin="round" fill="none" stroke="#000000" d="M46.6625 161.10955H43.1625"/>
<use data-text="5" xlink:href="#font_1_53" transform="matrix(10,0,0,-10,34.975,58.49202)"/>
<g clip-path="url(#clip_20)">
<path transform="matrix(1,0,0,-1,0,216)" stroke-width=".8" stroke-linecap="square" stroke-linejoin="round" fill="none" stroke="#bebebe" d="M46.6625 197.8516H421.2"/>
</g>
<path transform="matrix(1,0,0,-1,0,216)" d="M46.6625 197.8516H43.1625"/>
<path transform="matrix(1,0,0,-1,0,216)" stroke-width=".8" stroke-linecap="butt" stroke-linejoin="round" fill="none" stroke="#000000" d="M46.6625 197.8516H43.1625"/>
<use data-text="1" xlink:href="#font_1_49" transform="matrix(10,0,0,-10,30.2875,21.74997)"/>
<use data-text="0" xlink:href="#font_1_48" transform="matrix(10,0,0,-10,34.9775,21.74997)"/>
<use data-text=" " xlink:href="#font_1_32" transform="matrix(0,-10,-10,-0,20.50625,66.63259)"/>
<use data-text="U" xlink:href="#font_10_85" transform="matrix(0,-10,-10,-0,20.50625,64.13261)"/>
<g clip-path="url(#clip_21)">
<path transform="matrix(0,-.01,-.01,-0,20.50625,126.6325)" d="M394 674H179C165 674 153 670 143 663L117 710C133 708 149 707 167 707H699C709 726 720 744 731 762 742 779 749 790 753 794 757 798 761 800 765 800 773 800 796 784 833 753 869 721 888 700 888 690 888 679 879 674 861 674H551C543 659 539 643 539 625 529 531 522 468 517 436H743C751 451 761 469 774 489 786 509 795 521 799 525 803 529 808 531 813 531 823 531 846 514 883 482 920 450 939 428 939 418 939 408 930 403 912 403H647C645 399 641 395 634 389V79C634 63 639 52 650 44 661 36 688 32 732 32 776 32 806 36 822 44 838 52 850 67 860 90 870 112 883 157 901 223 903 231 906 236 908 236 910 236 912 232 912 225L910 171C910 142 913 117 919 97 925 77 942 58 968 41 980 33 986 25 986 17 986 9 979-4 967-23 954-42 931-56 898-65 864-74 815-79 749-79 653-79 588-70 552-53 516-36 498-3 498 46V338C472 230 434 147 382 90 330 33 262-12 177-48 91-84 43-102 33-102 31-102 30-101 30-101 30-98 35-93 46-87 122-41 181 0 224 40 266 80 300 128 324 184 348 240 365 313 376 403H124C110 403 98 399 88 392L62 439C78 437 94 436 112 436H380C386 494 390 574 394 674Z"/>
</g>
<g clip-path="url(#clip_22)">
<path transform="matrix(0,-.01,-.01,-0,20.50625,116.632518)" d="M310 781H678C689 799 698 812 706 821 714 830 720 835 726 835 734 835 756 822 792 798 827 773 845 756 845 748 845 739 832 729 808 719V651L810 559C810 549 807 541 801 535 795 529 784 523 767 517 750 511 730 509 707 509 694 509 687 516 687 531H308C308 525 299 519 281 512 263 504 239 501 208 501 198 501 194 504 194 512L196 557C197 577 198 595 198 612V732C198 761 197 790 195 819 239 807 278 794 310 781ZM687 677V748H328C325 740 319 734 309 730V677H687ZM687 564V644H309V564H687ZM740 454H99C85 454 73 450 63 443L37 490C53 488 69 487 87 487H797C806 504 815 520 825 536 835 551 841 561 845 565 848 569 852 571 858 571 863 571 876 562 897 545L954 499C970 485 978 474 978 466 978 458 968 454 949 454H778C838 415 869 390 869 380 869 369 858 360 837 353V253C837 233 837 216 838 202 839 187 840 178 840 175 840 171 838 168 835 164 831 160 819 154 798 146 854 100 883 71 883 59 883 52 875 49 861 49H555V-28H796C812 0 825 17 833 26 841 35 847 40 852 40 856 40 870 32 892 18 914 4 932-9 947-21 961-33 969-43 969-50 969-57 961-61 945-61H134C120-61 108-64 98-72L72-25C88-27 104-28 122-28H443V49H209C195 49 183 45 173 38L147 85C163 83 179 82 197 82H443V150H280C280 142 278 136 274 132 270 128 260 123 243 119 225 115 205 113 182 113 172 113 167 119 168 132 169 145 170 172 170 213V358C170 386 169 414 167 443 203 434 239 423 273 411H714C723 429 732 443 740 454ZM443 378H303C299 366 292 358 280 354V296H443V378ZM718 296V378H574C570 368 564 361 555 357V296H718ZM443 263H280V183H443V263ZM718 183V263H555V183H718ZM770 139C756 137 744 137 734 137 724 137 719 141 718 150H555V82H735C743 98 755 117 770 139Z"/>
</g>
<g clip-path="url(#clip_23)">
<path transform="matrix(0,-.01,-.01,-0,20.50625,106.63253)" d="M237 462C191 445 146 424 103 400 96 396 91 394 88 394 84 394 81 396 79 401 77 405 70 423 58 453 46 483 41 500 41 504 41 508 44 511 51 513 71 517 85 524 94 535 103 545 119 579 141 637 163 695 183 755 199 819 237 805 269 791 295 779 321 767 337 759 343 756 348 752 351 748 351 744 351 739 345 735 335 731 325 727 315 720 305 708L241 632C207 592 172 549 135 502H256C273 542 290 587 308 637 356 611 397 585 431 560V696C431 729 430 759 429 785 489 764 531 749 555 740H796C812 768 823 785 828 792 832 798 838 802 846 802 854 802 873 791 904 770 934 749 954 735 963 727 971 719 976 713 976 707 976 696 963 687 939 679V4C939-38 928-66 907-81 886-96 854-104 810-104 800-104 794-102 790-99 786-95 783-88 783-78 782-56 774-39 758-27 742-15 717-5 684 1 671 3 665 6 665 10 665 13 672 15 687 15 738 15 770 16 784 18 798 20 807 24 811 29 815 33 817 40 817 50V571C809 569 803 566 799 562 795 557 790 546 785 530 768 476 750 427 731 384 757 348 776 316 790 288 804 260 811 236 811 217 811 198 804 181 792 165 779 149 764 142 747 142 730 142 718 148 711 160 703 172 699 190 698 214 696 238 691 265 682 294 645 238 598 184 540 133V-66C540-72 538-77 535-80 532-83 517-89 491-97 464-105 445-109 433-109 429-109 427-106 427-101L429-54C430-21 431 8 431 34V129C362 101 298 72 240 43 181 14 141-7 120-23 116-26 112-28 109-28 105-28 102-25 100-21 97-16 90-1 80 24 69 49 59 76 50 106 166 111 293 125 431 148V285C270 232 167 194 123 171 117 168 113 167 109 167 105 167 103 169 102 173 101 177 94 195 80 229 66 263 59 282 59 287 59 292 63 295 73 296 95 297 112 300 124 304 135 308 144 313 152 321 160 329 172 346 188 372 204 398 220 428 237 462ZM664 463C676 522 682 581 683 639 718 628 763 613 817 594V707H556C552 703 547 699 540 697V581C588 539 629 499 664 463ZM540 165C582 220 617 294 645 387 618 439 583 494 540 553V165ZM431 307V534C418 533 402 523 383 504 363 485 302 414 200 292 273 292 350 297 431 307Z"/>
</g>
<g clip-path="url(#clip_24)">
<path transform="matrix(0,-.01,-.01,-0,20.50625,96.632549)" d="M551 591 657 704H170C156 704 144 700 134 693L108 740C124 738 140 737 158 737H669C693 764 707 780 713 784 718 788 723 791 728 791 733 791 743 785 758 775 772 765 791 749 815 727 839 705 854 689 860 681 866 672 869 664 869 658 869 644 860 637 844 637 840 637 834 637 825 639 815 641 802 642 786 642 721 642 651 621 577 581 581 578 583 575 583 573 583 566 572 558 552 548V355C602 429 634 495 648 553 682 536 711 519 733 503 755 487 766 475 766 467 766 461 760 456 748 454 736 451 724 445 712 437L569 337C641 320 689 297 712 269 735 241 747 217 747 198 747 178 739 161 725 145 711 129 695 121 678 121 668 121 657 123 646 129 634 135 628 149 626 172 618 252 593 303 552 325V136C552 95 540 67 518 52 496 37 465 30 426 30 409 30 400 36 399 49 398 69 393 84 383 95 373 106 360 116 343 124 325 132 317 136 317 137 317 138 319 139 323 139L362 138C395 138 417 141 427 148 437 155 443 167 443 185V339C368 261 317 202 289 162 285 156 281 154 279 154 277 154 269 163 256 182 243 200 229 225 213 257V0H772V445C772 478 771 508 770 534 797 532 829 527 866 521 903 515 922 507 922 498 922 489 912 480 894 471V29C894-3 894-25 895-38L896-74C896-85 883-94 858-101 833-107 813-111 799-111 785-111 777-110 775-109 773-107 772-103 772-96V-32H211L179-73C174-79 169-82 164-82 159-82 151-78 139-71 127-64 113-55 97-44 80-32 69-24 65-20 60-15 58-11 58-8 58-4 59-2 62-1 86 11 98 30 98 56V434C98 474 96 507 93 533 122 531 151 528 180 524 209 519 226 515 232 512 237 509 240 505 240 501 240 492 231 485 213 479V273C268 291 345 321 443 361V519C443 552 442 582 441 608 487 604 523 599 551 591ZM264 550C272 550 291 544 322 534 353 524 377 510 393 493 409 475 418 457 418 437 418 417 411 400 399 386 386 372 371 365 355 365 345 365 337 366 331 370 324 374 319 379 315 386 311 392 310 400 310 408V429C310 475 294 511 264 538 260 541 258 544 258 546 258 548 260 550 264 550Z"/>
</g>
<g clip-path="url(#clip_25)">
<path transform="matrix(0,-.01,-.01,-0,20.50625,86.63256)" d="M364 633C388 667 413 715 439 777 465 767 490 754 516 739 541 723 554 712 554 705 554 698 547 694 533 693 519 691 504 686 487 677 470 668 429 642 364 598V584H435C459 626 475 647 483 647 489 647 504 635 529 612 553 589 566 573 566 564 566 555 557 551 540 551H364V527C412 518 448 505 474 487 499 469 512 451 512 433 512 414 506 398 494 385 482 372 470 366 457 366 444 366 434 369 427 376 420 382 415 394 411 412 403 448 388 479 364 504V477C364 455 364 431 366 407L367 373C367 367 365 363 362 361 359 359 349 353 331 345 348 337 358 331 360 328 362 325 363 323 363 321 363 314 358 310 348 308 340 306 328 293 314 270H372C384 292 392 306 397 313 402 319 407 323 412 323 416 323 439 311 479 288 559 416 602 594 609 822 650 816 685 810 714 803 742 796 759 791 765 788 771 784 774 780 774 776 774 770 770 765 762 761 754 757 748 751 744 741 739 731 731 710 721 680 711 649 697 612 679 570H810C839 626 858 655 867 655 876 655 892 645 915 626 937 607 954 592 966 581 977 570 983 561 983 553 983 542 976 537 964 537H854C890 529 908 520 908 510 908 504 904 499 896 495 888 491 882 484 878 472 874 460 867 435 859 397 851 358 837 313 817 261 797 209 778 169 758 139 807 93 880 54 976 22 984 19 988 16 988 13 988 9 982 7 971 5 959 3 941-7 917-27 893-47 874-66 862-85 858-91 853-94 849-94 844-94 839-92 835-90 831-87 817-75 795-55 772-35 752-15 734 3 716 22 701 41 688 60 632 6 571-36 505-68 439-99 400-115 389-115 385-115 384-113 384-111 384-108 388-104 396-100 516-33 601 39 651 119 613 190 593 284 590 401 563 359 531 317 495 277 519 264 531 253 531 245 531 236 525 230 515 226 505 222 498 219 494 215 490 211 483 198 472 175 461 152 447 128 429 103 440 99 454 92 471 82 487 72 498 60 504 47 509 34 512 22 512 10 512-2 505-13 493-25 481-37 467-43 453-43 439-43 423-34 405-16 387 1 371 15 357 27 309-10 249-40 176-64 102-88 60-100 48-100 43-100 41-98 41-96 41-94 44-91 52-89 153-49 233 3 291 70 253 89 197 107 123 125 146 165 166 202 184 237H118C104 237 92 233 82 226L55 273C71 271 87 270 105 270H200C210 290 225 324 246 374L257 371V472C223 423 182 381 132 346 82 310 53 293 45 293 43 293 43 293 43 295 43 297 47 303 56 312 118 370 167 450 203 551H118C100 551 86 549 75 546L58 589C72 585 88 584 108 584H257V734C257 767 256 797 255 823 291 819 319 816 340 812 361 808 374 804 378 801 382 798 384 794 384 789 384 784 377 779 364 774V633ZM758 537H664C652 510 636 479 616 444 628 351 654 274 696 212 730 297 751 405 758 537ZM295 237 242 145C273 142 304 137 335 131 354 165 368 200 377 237H295ZM88 751C128 751 163 742 193 726 223 709 239 691 239 671 239 651 234 634 224 622 214 610 202 604 188 604 173 604 162 607 156 613 149 619 145 630 144 646 140 686 121 717 87 741 82 744 80 746 80 748 80 750 82 751 88 751Z"/>
</g>
<g clip-path="url(#clip_26)">
<path transform="matrix(0,-.01,-.01,-0,20.50625,76.632579)" d="M494 523H533V633H383C369 633 357 629 347 622L321 669C337 667 353 666 371 666H534V731C534 761 533 792 532 824 595 818 636 812 656 808 676 803 686 797 686 791 686 785 677 779 660 774L656 666H762C780 704 793 728 801 740 809 751 815 757 820 757 825 757 840 748 865 730 890 712 911 696 928 681 944 666 953 654 953 646 953 637 945 633 930 633H654L650 523H697C715 564 730 585 740 585 744 585 760 576 790 560 820 543 842 529 857 519 871 508 879 500 879 494 879 484 866 476 842 468V2C854 24 863 37 867 42 871 47 875 50 881 50 887 50 899 42 917 27 935 12 952-2 968-16 984-30 992-41 992-50 992-58 985-63 971-63H344C330-63 318-66 308-74L282-27C298-29 314-30 332-30H384V471C384 504 383 534 382 560 432 546 469 534 494 523ZM495 393H718V490H513C508 483 502 479 495 477V393ZM718 360H495V262H718V360ZM718 127V229H495V127H718ZM718-30V94H495V-30H718ZM230 530C273 526 295 519 295 509 295 502 286 496 269 492V-73C269-78 268-82 266-85 264-87 257-91 246-96 235-100 219-104 197-108 175-112 158-114 148-114 143-114 141-110 141-104L144-10C144 18 145 46 145 72V383C134 366 115 343 88 313 60 283 44 269 38 269 36 269 35 270 35 274 35 277 37 282 41 290 83 364 114 442 135 523 155 603 172 701 186 815 232 803 268 793 296 784 324 774 341 768 347 764 353 760 357 755 357 751 357 746 352 743 344 742 335 741 327 735 320 725 313 714 300 686 280 642 260 597 244 560 230 530Z"/>
</g>
<g clip-path="url(#clip_27)">
<path transform="matrix(1,0,0,-1,0,216)" stroke-width="1.5" stroke-linecap="square" stroke-linejoin="round" fill="none" stroke="#1f77b4" d="M63.68693 50.883409H233.59076L234.27175 197.8516H404.17558"/>
</g>
<g clip-path="url(#clip_28)">
<path transform="matrix(1,0,0,-1,0,216)" stroke-width="1.5" stroke-linecap="butt" stroke-dasharray="5.55,2.4" stroke-linejoin="round" fill="none" stroke="#ff7f0e" d="M63.68693 50.883409H65.04889M65.729869 50.883409 215.20438 50.987024 218.60927 51.23907 220.3117 51.564607 221.67366 52.094427 223.03562 52.839559 224.39757 53.910955 225.07855 54.57966 226.1 55.983205 227.12148 57.86881 227.80246 59.477376 228.82392 62.683485 229.5049 65.99027 230.52637 72.278308 231.88832 89.85349 233.59076 117.31163 235.2932 148.77304 235.97418 162.47856 236.65517 167.98839 237.67662 177.99692 238.69809 184.12403 239.37908 187.2978 240.06005 189.80728 240.74103 191.64954 241.422 192.82308 241.76248 193.15964 242.44347 194.19503 243.46494 195.13195 245.50786 196.3481 247.21031 196.97199 248.23177 197.21743M248.91275 197.35044 251.29618 197.62012 255.04155 197.78179 265.2562 197.85013H265.59669M266.61817 197.85086 346.97349 197.8516M347.65446 197.8516H398.72776M401.11119 197.8516H402.13264M402.81364 197.8516H404.17558"/>
</g>
<g clip-path="url(#clip_29)">
<path transform="matrix(1,0,0,-1,0,216)" stroke-width="1.5" stroke-linecap="butt" stroke-dasharray="9.6,2.4,1.5,2.4" stroke-linejoin="round" fill="none" stroke="#2ca02c" d="M63.68693 50.883409H171.62183M172.30281 50.883409 199.20142 50.98776 204.30875 51.221437 208.73509 51.649114 212.13999 52.177465 213.84243 52.69773 214.52339 53.01151M215.54486 53.581747 216.90682 54.526018 218.60927 56.004518 220.3117 57.812227 220.65219 58.213449 221.33318 59.222387 222.69513 61.20572 224.05709 63.63437 225.41904 66.5098 226.4405 69.16184 227.46196 72.840457 228.48343 77.60516 228.82392 79.43492 230.18589 89.82116 231.88832 103.76771 233.93125 122.65576 236.31467 147.23134 237.67662 162.8908 238.01712 163.05173 239.37908 172.62744 239.71956 174.74158 240.06005 175.41837 241.422 181.15969 242.44347 184.71117 243.46494 187.61525 244.4864 189.87195 245.50786 191.482 246.18885 192.19553 247.21031 193.0663 248.57227 194.22368 249.59372 194.82773 252.99861 196.2489 255.04155 196.74639 258.78694 197.29164 262.1918 197.54737 271.385 197.79795 290.11189 197.85086 404.17558 197.8516"/>
</g>
<g clip-path="url(#clip_30)">
<path transform="matrix(1,0,0,-1,0,216)" stroke-width="1.5" stroke-linecap="butt" stroke-dasharray="1.5,2.475" stroke-linejoin="round" fill="none" stroke="#d62728" d="M63.68693 50.883409 137.23249 50.884145M139.95639 50.884145 147.78763 50.88708M152.21398 50.890024 189.32724 50.97894M194.09409 51.92027 197.83946 52.46699 201.58483 53.220205 204.98972 54.08364 206.01119 55.10801 207.71363 55.260858 209.41606 55.68339 211.11852 56.37414 212.82096 57.334577 214.52339 58.563234 216.22585 60.061574 217.92829 61.82813 219.97122 64.30381 222.01415 67.166019 222.35463 67.15279 223.03562 68.44317 223.3761 71.06728 230.52637 106.6402 238.01712 145.054 244.82689 180.99507 245.16738 177.9036 247.21031 181.2846 249.25324 184.22103 250.95569 186.32929 252.65813 188.12818 254.36057 189.61917 256.06303 190.80226 256.744 191.18878M259.4679 192.67096 262.1918 193.62332 264.9157 194.34273 265.59669 194.48676 265.9372 194.8292 270.02305 195.79918 273.76844 196.4701 277.5138 196.92716 281.94017 197.26813 290.79286 197.61717 300.66703 197.76561 339.14225 197.84938M341.18519 197.84938 393.62043 197.8516H404.17558"/>
</g>
<path transform="matrix(1,0,0,-1,0,216)" stroke-width=".8" stroke-linecap="square" stroke-miterlimit="10" stroke-linejoin="miter" fill="none" stroke="#000000" d="M46.6625 43.535V205.2"/>
<path transform="matrix(1,0,0,-1,0,216)" stroke-width=".8" stroke-linecap="square" stroke-miterlimit="10" stroke-linejoin="miter" fill="none" stroke="#000000" d="M421.2 43.535V205.2"/>
<path transform="matrix(1,0,0,-1,0,216)" stroke-width=".8" stroke-linecap="square" stroke-miterlimit="10" stroke-linejoin="miter" fill="none" stroke="#000000" d="M46.6625 43.535H421.2"/>
<path transform="matrix(1,0,0,-1,0,216)" stroke-width=".8" stroke-linecap="square" stroke-miterlimit="10" stroke-linejoin="miter" fill="none" stroke="#000000" d="M46.6625 205.2H421.2"/>
<g>
<path transform="matrix(1,0,0,-1,0,216)" d="M53.6625 129.74687H161.6625C162.99584 129.74687 163.6625 130.41355 163.6625 131.74687V198.2C163.6625 199.53334 162.99584 200.2 161.6625 200.2H53.6625C52.329168 200.2 51.6625 199.53334 51.6625 198.2V131.74687C51.6625 130.41355 52.329168 129.74687 53.6625 129.74687Z" fill="#ffffff" fill-opacity=".8"/>
<path transform="matrix(1,0,0,-1,0,216)" stroke-width="1" stroke-linecap="butt" stroke-miterlimit="10" stroke-linejoin="miter" fill="none" stroke="#d5d6d5" stroke-opacity=".8" d="M53.6625 129.74687H161.6625C162.99584 129.74687 163.6625 130.41355 163.6625 131.74687V198.2C163.6625 199.53334 162.99584 200.2 161.6625 200.2H53.6625C52.329168 200.2 51.6625 199.53334 51.6625 198.2V131.74687C51.6625 130.41355 52.329168 129.74687 53.6625 129.74687Z"/>
</g>
<path transform="matrix(1,0,0,-1,0,216)" stroke-width="1.5" stroke-linecap="square" stroke-linejoin="round" fill="none" stroke="#1f77b4" d="M55.6625 191.6375H75.6625"/>
<g clip-path="url(#clip_31)">
<path transform="matrix(.01,0,0,-.01,83.6625,27.862504)" d="M115 544C64 500 37 476 34 474 31 472 29 471 28 471 26 471 26 472 26 474 26 476 28 480 33 486 74 541 105 594 126 646 147 697 164 760 178 834 216 828 249 821 278 813 307 805 324 799 329 796 334 792 337 789 337 785 337 778 330 774 318 772 309 770 301 764 294 754 287 744 274 725 254 698H348C371 740 387 762 396 762 400 762 409 757 425 747 440 737 457 725 477 710 496 694 507 684 511 679 515 674 517 669 517 665 517 660 515 656 511 652 507 648 500 646 492 647L480 648C466 648 449 641 431 629 412 616 376 586 323 540H400C418 572 430 588 438 588 441 588 449 583 462 575 475 567 490 556 508 544 525 531 535 523 539 519 542 515 544 511 544 508 544 499 534 492 514 487V446C583 496 619 586 623 718H571C557 718 545 714 535 707L509 754C525 752 541 751 559 751H804C816 769 827 784 835 794 843 804 849 809 853 809 859 809 882 797 920 773 958 749 978 733 978 723 978 713 966 705 942 700 929 597 918 534 910 512 901 490 872 472 822 459 833 453 839 447 839 440 839 433 829 427 810 421V330H827C850 373 866 395 874 395 880 395 895 384 921 363 946 341 959 325 959 315 959 303 951 297 935 297H810V186H839C844 196 853 209 865 226 877 242 884 252 886 255 888 257 891 259 895 259 902 259 919 245 946 219 972 193 986 175 986 166 986 157 976 153 956 153H810V28C810 6 810-16 811-41L813-75C813-85 801-94 777-100 753-106 735-110 723-110 711-110 703-109 700-107 696-105 695-101 695-93L697-51C697-22 698 4 698 28V153H514V33C514 4 513-16 511-30 509-44 504-54 497-62 490-69 477-75 458-81 439-86 425-89 415-89 405-89 400-82 398-70 392-40 380-18 361-6 350-20 325-28 285-28 278-28 272-25 268-21 264-16 262-10 262-3L263 30C263 42 264 67 264 105V194H207C200 138 186 90 165 50 144 9 117-27 85-60 53-93 34-110 29-110 28-110 28-109 28-108 28-106 30-101 35-95 69-49 91 5 102 69 113 133 119 205 119 287 119 368 117 454 115 544ZM686 568C722 564 749 562 767 562 785 562 797 566 802 574 807 582 812 600 816 626 820 652 825 683 829 718H746C748 713 745 708 735 703 722 644 706 599 686 568ZM228 665C204 635 174 602 138 566 176 555 201 546 214 540H300C316 575 332 617 349 665H228ZM763 472C763 478 764 483 764 488 764 506 757 520 743 530 729 539 709 549 681 559 655 522 614 488 559 456 627 440 665 431 671 429 677 426 681 422 681 418 681 414 677 410 671 406 664 402 657 394 651 380 645 366 635 349 623 330H698C698 412 697 461 696 476 727 474 749 473 763 472ZM217 384H264V507H226C219 499 216 483 216 461L217 384ZM360 384H412V507H377C377 503 371 497 360 489V384ZM555 454C529 440 516 432 514 432V248C537 315 551 384 555 454ZM264 351H216C215 309 213 267 211 227H264V351ZM412 351H360V227H412V351ZM698 297H599C584 277 556 248 514 208V186H698V297ZM362 13C383 13 397 16 403 20 409 24 412 34 412 50V194H360V105C360 82 360 51 362 13Z"/>
</g>
<g clip-path="url(#clip_32)">
<path transform="matrix(.01,0,0,-.01,93.66248,27.862504)" d="M599 713C677 733 757 769 839 819 911 746 947 703 947 690 947 685 944 683 940 683 935 683 929 684 921 686 913 688 901 689 885 689 869 689 835 688 781 686 727 684 674 683 622 683 615 678 611 672 609 666 607 660 607 653 607 646L606 600 603 473H802C809 489 818 506 828 523 838 539 845 549 849 553 852 556 855 558 859 558 868 558 892 542 931 510 970 478 990 457 990 449 990 443 982 440 966 440H831C830 433 825 427 817 422V-3L819-68C819-75 817-80 814-83 811-85 800-90 780-97 760-103 735-107 707-107 699-107 695-103 695-95V440H602C597 349 590 280 582 232 573 184 552 134 519 83 486 32 443-12 389-51 335-90 304-110 295-110 294-110 294-109 294-109 294-107 297-102 303-96 357-38 396 12 420 58 444 104 460 163 470 236 480 308 483 416 481 560 479 557 474 556 467 556H312V475C358 464 392 448 416 426 440 404 452 379 452 351 452 330 445 313 433 301 420 288 404 282 384 282 374 282 366 284 359 289 352 293 347 300 344 308 340 316 339 324 339 333L340 359C340 400 330 429 312 446V-47C312-53 310-57 307-60 303-63 292-68 273-74 253-80 232-84 209-84 203-84 200-80 200-73L201-32C202-4 203 26 203 60V331C181 277 148 229 104 187 59 145 34 124 28 124 26 124 26 124 26 126 26 128 28 134 34 142 75 205 106 269 128 334 150 399 166 473 178 556H98C84 556 72 552 62 545L36 592C52 590 68 589 86 589H203V703C203 747 202 785 200 817 227 816 253 814 278 811 302 808 318 805 325 803 332 800 336 796 336 791 336 786 328 780 312 773V589H328C356 644 374 672 384 672 387 672 391 670 395 667 399 663 413 650 437 627 460 603 475 586 481 576 481 635 479 696 475 760 536 738 577 723 599 713Z"/>
</g>
<g clip-path="url(#clip_33)">
<path transform="matrix(.01,0,0,-.01,103.66247,27.862504)" d="M115 544C64 500 37 476 34 474 31 472 29 471 28 471 26 471 26 472 26 474 26 476 28 480 33 486 74 541 105 594 126 646 147 697 164 760 178 834 216 828 249 821 278 813 307 805 324 799 329 796 334 792 337 789 337 785 337 778 330 774 318 772 309 770 301 764 294 754 287 744 274 725 254 698H348C371 740 387 762 396 762 400 762 409 757 425 747 440 737 457 725 477 710 496 694 507 684 511 679 515 674 517 669 517 665 517 660 515 656 511 652 507 648 500 646 492 647L480 648C466 648 449 641 431 629 412 616 376 586 323 540H400C418 572 430 588 438 588 441 588 449 583 462 575 475 567 490 556 508 544 525 531 535 523 539 519 542 515 544 511 544 508 544 499 534 492 514 487V446C583 496 619 586 623 718H571C557 718 545 714 535 707L509 754C525 752 541 751 559 751H804C816 769 827 784 835 794 843 804 849 809 853 809 859 809 882 797 920 773 958 749 978 733 978 723 978 713 966 705 942 700 929 597 918 534 910 512 901 490 872 472 822 459 833 453 839 447 839 440 839 433 829 427 810 421V330H827C850 373 866 395 874 395 880 395 895 384 921 363 946 341 959 325 959 315 959 303 951 297 935 297H810V186H839C844 196 853 209 865 226 877 242 884 252 886 255 888 257 891 259 895 259 902 259 919 245 946 219 972 193 986 175 986 166 986 157 976 153 956 153H810V28C810 6 810-16 811-41L813-75C813-85 801-94 777-100 753-106 735-110 723-110 711-110 703-109 700-107 696-105 695-101 695-93L697-51C697-22 698 4 698 28V153H514V33C514 4 513-16 511-30 509-44 504-54 497-62 490-69 477-75 458-81 439-86 425-89 415-89 405-89 400-82 398-70 392-40 380-18 361-6 350-20 325-28 285-28 278-28 272-25 268-21 264-16 262-10 262-3L263 30C263 42 264 67 264 105V194H207C200 138 186 90 165 50 144 9 117-27 85-60 53-93 34-110 29-110 28-110 28-109 28-108 28-106 30-101 35-95 69-49 91 5 102 69 113 133 119 205 119 287 119 368 117 454 115 544ZM686 568C722 564 749 562 767 562 785 562 797 566 802 574 807 582 812 600 816 626 820 652 825 683 829 718H746C748 713 745 708 735 703 722 644 706 599 686 568ZM228 665C204 635 174 602 138 566 176 555 201 546 214 540H300C316 575 332 617 349 665H228ZM763 472C763 478 764 483 764 488 764 506 757 520 743 530 729 539 709 549 681 559 655 522 614 488 559 456 627 440 665 431 671 429 677 426 681 422 681 418 681 414 677 410 671 406 664 402 657 394 651 380 645 366 635 349 623 330H698C698 412 697 461 696 476 727 474 749 473 763 472ZM217 384H264V507H226C219 499 216 483 216 461L217 384ZM360 384H412V507H377C377 503 371 497 360 489V384ZM555 454C529 440 516 432 514 432V248C537 315 551 384 555 454ZM264 351H216C215 309 213 267 211 227H264V351ZM412 351H360V227H412V351ZM698 297H599C584 277 556 248 514 208V186H698V297ZM362 13C383 13 397 16 403 20 409 24 412 34 412 50V194H360V105C360 82 360 51 362 13Z"/>
</g>
<path transform="matrix(1,0,0,-1,0,216)" stroke-width="1.5" stroke-linecap="butt" stroke-dasharray="5.55,2.4" stroke-linejoin="round" fill="none" stroke="#ff7f0e" d="M55.6625 176.24687H75.6625"/>
<use data-text="p" xlink:href="#font_10_112" transform="matrix(10,0,0,-10,83.6625,43.189065)"/>
<use data-text="=" xlink:href="#font_34_61" transform="matrix(10,0,0,-10,91.9584,43.189065)"/>
<use data-text="3" xlink:href="#font_34_51" transform="matrix(10,0,0,-10,102.285549,43.189065)"/>
<use data-text="," xlink:href="#font_34_44" transform="matrix(10,0,0,-10,108.64785,43.189065)"/>
<use data-text="h" xlink:href="#font_10_104" transform="matrix(10,0,0,-10,123.516017,43.189065)"/>
<use data-text="2" xlink:href="#font_34_50" transform="matrix(10,0,0,-10,142.1293,43.189065)"/>
<use data-text="4" xlink:href="#font_34_52" transform="matrix(7,0,0,-7,154.45255,39.36094)"/>
<g clip-path="url(#clip_35)">
<path transform="matrix(.01,0,0,-.01,131.80216,43.189065)" d="M732 304V217C698 191 666 173 637 162 607 150 577 145 546 145 510 145 468 154 421 174 417 175 415 176 413 177 411 177 407 179 402 181 352 201 311 211 281 211 252 211 224 204 196 192 168 180 138 160 106 133V220C140 245 171 263 201 275 230 286 260 292 292 292 328 292 369 282 417 263 421 261 423 260 425 260 427 259 430 258 436 256 486 236 526 226 557 226 585 226 612 232 640 244 668 256 698 276 732 304ZM732 494V407C698 381 666 363 637 352 607 340 577 335 546 335 510 335 468 344 421 364 417 365 415 366 413 367 411 367 407 369 402 371 352 391 311 401 281 401 252 401 224 394 196 382 168 370 138 350 106 323V410C140 435 171 453 201 465 230 476 260 482 292 482 328 482 369 472 417 453 420 451 423 450 425 450 427 449 430 448 436 446 486 426 526 416 557 416 585 416 612 422 640 434 668 446 698 466 732 494Z"/>
</g>
<g clip-path="url(#clip_36)">
<path transform="matrix(.007,0,0,-.007,148.58731,39.36094)" d="M106 355H732V272H106V355Z"/>
</g>
<path transform="matrix(1,0,0,-1,0,216)" stroke-width="1.5" stroke-linecap="butt" stroke-dasharray="9.6,2.4,1.5,2.4" stroke-linejoin="round" fill="none" stroke="#2ca02c" d="M55.6625 158.24687H75.6625"/>
<use data-text="p" xlink:href="#font_10_112" transform="matrix(10,0,0,-10,83.6625,60.276567)"/>
<use data-text="=" xlink:href="#font_34_61" transform="matrix(10,0,0,-10,91.9584,60.276567)"/>
<use data-text="3" xlink:href="#font_34_51" transform="matrix(10,0,0,-10,102.285549,60.276567)"/>
<use data-text="," xlink:href="#font_34_44" transform="matrix(10,0,0,-10,108.64785,60.276567)"/>
<use data-text="h" xlink:href="#font_10_104" transform="matrix(10,0,0,-10,123.516017,60.276567)"/>
<use data-text="2" xlink:href="#font_34_50" transform="matrix(10,0,0,-10,142.1293,60.276567)"/>
<use data-text="3" xlink:href="#font_34_51" transform="matrix(7,0,0,-7,154.45255,56.44844)"/>
<g clip-path="url(#clip_37)">
<path transform="matrix(.01,0,0,-.01,131.80216,60.276567)" d="M732 304V217C698 191 666 173 637 162 607 150 577 145 546 145 510 145 468 154 421 174 417 175 415 176 413 177 411 177 407 179 402 181 352 201 311 211 281 211 252 211 224 204 196 192 168 180 138 160 106 133V220C140 245 171 263 201 275 230 286 260 292 292 292 328 292 369 282 417 263 421 261 423 260 425 260 427 259 430 258 436 256 486 236 526 226 557 226 585 226 612 232 640 244 668 256 698 276 732 304ZM732 494V407C698 381 666 363 637 352 607 340 577 335 546 335 510 335 468 344 421 364 417 365 415 366 413 367 411 367 407 369 402 371 352 391 311 401 281 401 252 401 224 394 196 382 168 370 138 350 106 323V410C140 435 171 453 201 465 230 476 260 482 292 482 328 482 369 472 417 453 420 451 423 450 425 450 427 449 430 448 436 446 486 426 526 416 557 416 585 416 612 422 640 434 668 446 698 466 732 494Z"/>
</g>
<g clip-path="url(#clip_38)">
<path transform="matrix(.007,0,0,-.007,148.58731,56.44844)" d="M106 355H732V272H106V355Z"/>
</g>
<path transform="matrix(1,0,0,-1,0,216)" stroke-width="1.5" stroke-linecap="butt" stroke-dasharray="1.5,2.475" stroke-linejoin="round" fill="none" stroke="#d62728" d="M55.6625 140.24687H75.6625"/>
<use data-text="p" xlink:href="#font_10_112" transform="matrix(10,0,0,-10,83.6625,78.276569)"/>
<use data-text="=" xlink:href="#font_34_61" transform="matrix(10,0,0,-10,91.9584,78.276569)"/>
<use data-text="3" xlink:href="#font_34_51" transform="matrix(10,0,0,-10,102.285549,78.276569)"/>
<use data-text="," xlink:href="#font_34_44" transform="matrix(10,0,0,-10,108.64785,78.276569)"/>
<use data-text="h" xlink:href="#font_10_104" transform="matrix(10,0,0,-10,123.516017,78.276569)"/>
<use data-text="2" xlink:href="#font_34_50" transform="matrix(10,0,0,-10,142.1293,78.276569)"/>
<use data-text="2" xlink:href="#font_34_50" transform="matrix(7,0,0,-7,154.45255,74.44844)"/>
<g clip-path="url(#clip_39)">
<path transform="matrix(.01,0,0,-.01,131.80216,78.276569)" d="M732 304V217C698 191 666 173 637 162 607 150 577 145 546 145 510 145 468 154 421 174 417 175 415 176 413 177 411 177 407 179 402 181 352 201 311 211 281 211 252 211 224 204 196 192 168 180 138 160 106 133V220C140 245 171 263 201 275 230 286 260 292 292 292 328 292 369 282 417 263 421 261 423 260 425 260 427 259 430 258 436 256 486 236 526 226 557 226 585 226 612 232 640 244 668 256 698 276 732 304ZM732 494V407C698 381 666 363 637 352 607 340 577 335 546 335 510 335 468 344 421 364 417 365 415 366 413 367 411 367 407 369 402 371 352 391 311 401 281 401 252 401 224 394 196 382 168 370 138 350 106 323V410C140 435 171 453 201 465 230 476 260 482 292 482 328 482 369 472 417 453 420 451 423 450 425 450 427 449 430 448 436 446 486 426 526 416 557 416 585 416 612 422 640 434 668 446 698 466 732 494Z"/>
</g>
<g clip-path="url(#clip_40)">
<path transform="matrix(.007,0,0,-.007,148.58731,74.44844)" d="M106 355H732V272H106V355Z"/>
</g>
</g>
</svg>
