<svg xmlns="http://www.w3.org/2000/svg" xmlns:xlink="http://www.w3.org/1999/xlink" version="1.1" width="432pt" height="216pt" viewBox="0 0 432 216">
<defs>
<clipPath id="clip_0">
<path transform="matrix(1,0,0,-1,0,216)" d="M47.09 43.535H421.19999V205.2H47.09Z"/>
</clipPath>
<g id="font_1_48">
<path transform="matrix(.001,0,0,.001,0,0)" d="M237 695C265 695 293 686 319 669 345 652 368 629 388 600 408 570 423 536 435 496 447 456 453 414 453 369 453 324 447 282 436 243 424 203 409 169 389 139 369 109 347 86 321 69 295 52 267 44 238 44 209 44 181 52 155 69 129 85 106 108 86 137 66 166 50 200 38 240 26 280 21 322 21 368 21 414 26 457 38 497 50 537 65 571 85 601 105 630 128 653 154 670 180 686 207 695 237 695ZM237 81C273 81 298 104 312 151 325 197 332 270 332 369 332 467 325 540 311 587 297 634 273 658 237 658 201 658 176 634 162 588 148 541 142 468 142 369 142 177 173 81 237 81Z"/>
</g>
<clipPath id="clip_2">
<path transform="matrix(1,0,0,-1,0,216)" d="M47.09 43.535H421.19999V205.2H47.09Z"/>
</clipPath>
<g id="font_1_49">
<path transform="matrix(.001,0,0,.001,0,0)" d="M385 57C367 57 345 58 319 59 293 59 266 60 238 60 210 60 182 59 156 59 130 58 108 57 91 57V86L153 95C176 100 188 113 188 134V600L69 523 52 554C63 561 77 570 95 581 112 591 130 603 150 616 169 628 188 641 208 655 227 668 245 681 261 695H294V134C294 110 305 97 329 94L385 86V57Z"/>
</g>
<clipPath id="clip_3">
<path transform="matrix(1,0,0,-1,0,216)" d="M47.09 43.535H421.19999V205.2H47.09Z"/>
</clipPath>
<g id="font_1_50">
<path transform="matrix(.001,0,0,.001,0,0)" d="M426 57C402 57 376 58 348 59 320 59 284 60 241 60 197 60 157 59 121 59 85 59 56 58 33 57 35 73 37 88 41 103 44 117 50 133 59 149 67 165 79 183 94 203 109 222 129 245 155 271L192 309C218 335 238 357 254 377 269 396 281 413 289 429 297 445 302 460 304 474 306 488 307 503 307 519 307 550 297 575 278 594 258 612 232 622 200 622 166 622 138 611 116 589 94 567 80 535 72 494L41 506C50 567 72 614 108 646 144 678 188 695 242 695 266 695 288 691 310 685 331 678 350 668 366 655 382 642 394 626 404 607 414 588 419 566 419 542 419 516 414 492 405 470 395 448 383 427 367 407 351 387 332 369 311 351 290 333 268 315 246 298L216 274C198 260 180 243 161 223 141 203 123 179 107 153H324C340 153 353 154 362 158 370 161 377 166 382 174 387 182 391 191 395 203 399 215 404 229 410 245H441L426 57Z"/>
</g>
<clipPath id="clip_4">
<path transform="matrix(1,0,0,-1,0,216)" d="M47.09 43.535H421.19999V205.2H47.09Z"/>
</clipPath>
<g id="font_1_51">
<path transform="matrix(.001,0,0,.001,0,0)" d="M90 536 74 551C82 572 91 591 101 609 111 627 123 642 137 655 151 667 167 677 186 684 205 691 227 695 253 695 269 695 286 693 303 689 319 685 334 678 347 670 360 661 371 650 379 638 387 625 391 610 391 592 391 566 379 540 356 514 333 488 302 463 263 441 289 443 314 440 336 433 358 425 377 414 393 400 409 385 421 367 430 346 438 324 443 301 443 275 443 242 436 211 423 183 409 155 391 130 368 110 344 89 317 73 286 61 255 49 222 44 188 44 142 44 106 50 81 63 55 75 43 92 43 112 43 119 45 126 50 133 55 140 62 145 71 148 80 151 90 151 102 148 113 145 125 137 139 125 149 115 157 106 164 100 171 93 177 88 183 84 189 80 194 78 199 76 204 74 210 74 217 74 237 74 254 79 269 89 284 99 297 112 307 129 317 145 324 164 329 185 333 205 336 226 336 248 336 290 325 322 305 343 285 364 261 375 234 375 216 375 201 372 188 366 175 360 162 352 149 341L132 364C138 370 145 376 153 382 160 388 168 394 176 400 212 427 241 451 262 473 282 495 293 516 293 537 293 563 285 583 270 597 255 611 233 619 204 619 182 619 161 612 141 600 120 588 103 566 90 536Z"/>
</g>
<clipPath id="clip_5">
<path transform="matrix(1,0,0,-1,0,216)" d="M47.09 43.535H421.19999V205.2H47.09Z"/>
</clipPath>
<g id="font_1_52">
<path transform="matrix(.001,0,0,.001,0,0)" d="M326 695H373V288H456V224H373V44H261V224H19V275L151 455C181 495 210 535 239 575 267 615 296 655 326 695ZM261 288V542C238 510 218 483 201 460 184 436 169 415 155 396 141 377 127 359 115 342 103 324 90 306 77 288H261Z"/>
</g>
<clipPath id="clip_6">
<path transform="matrix(1,0,0,-1,0,216)" d="M47.09 43.535H421.19999V205.2H47.09Z"/>
</clipPath>
<g id="font_1_53">
<path transform="matrix(.001,0,0,.001,0,0)" d="M389 588H240C214 588 191 587 171 587 151 587 139 586 137 585L128 450C142 457 159 462 179 466 198 469 215 471 231 471 265 471 294 465 320 454 346 443 367 428 385 410 402 392 415 371 424 347 432 323 437 298 437 272 437 238 430 207 416 179 402 151 383 127 361 107 338 87 312 71 284 60 255 49 226 44 196 44 180 44 164 45 146 48 128 51 111 55 95 61 79 67 66 74 56 82 46 90 41 100 41 112 41 120 43 127 49 133 54 139 60 144 68 148 75 152 83 154 91 154 99 154 105 151 111 147 127 133 140 122 150 113 160 103 170 96 178 90 186 84 193 79 201 77 208 74 217 73 227 73 245 73 262 77 276 86 290 94 301 106 311 121 321 136 328 154 333 174 338 194 341 215 341 238 341 259 337 278 331 296 324 314 315 329 303 342 291 355 276 365 260 373 244 380 226 384 206 384 183 384 164 381 149 376 134 371 122 364 113 355H96L115 685H241C267 685 288 685 305 685 321 685 334 685 344 687 354 689 361 691 365 695 369 699 371 704 373 712H398L389 588Z"/>
</g>
<g id="font_1_32">
</g>
<g id="font_7_88">
<path transform="matrix(.001,0,0,.001,0,0)" d="M137 729H237L362 466 588 729H703L403 381 584 0H485L338 307 72 0H-42L298 392 137 729Z"/>
</g>
<clipPath id="clip_8">
<path transform="matrix(.01,0,0,-.01,204.145,200.4025)" d="M-99-150H1032V860H-99Z"/>
</clipPath>
<clipPath id="clip_9">
<path transform="matrix(.01,0,0,-.01,214.14499,200.4025)" d="M-99-150H1032V860H-99Z"/>
</clipPath>
<clipPath id="clip_10">
<path transform="matrix(.01,0,0,-.01,224.14498,200.4025)" d="M-99-150H1032V860H-99Z"/>
</clipPath>
<clipPath id="clip_11">
<path transform="matrix(.01,0,0,-.01,234.14496,200.4025)" d="M-99-150H1032V860H-99Z"/>
</clipPath>
<clipPath id="clip_12">
<path transform="matrix(.01,0,0,-.01,244.14495,200.4025)" d="M-99-150H1032V860H-99Z"/>
</clipPath>
<clipPath id="clip_13">
<path transform="matrix(1,0,0,-1,0,216)" d="M47.09 43.535H421.19999V205.2H47.09Z"/>
</clipPath>
<g id="font_1_46">
<path transform="matrix(.001,0,0,.001,0,0)" d="M110 46C92 46 78 52 66 64 54 76 48 90 48 108 48 125 54 140 66 152 78 164 92 170 110 170 127 170 142 164 154 152 166 140 172 125 172 108 172 90 166 76 154 64 142 52 127 46 110 46Z"/>
</g>
<clipPath id="clip_14">
<path transform="matrix(1,0,0,-1,0,216)" d="M47.09 43.535H421.19999V205.2H47.09Z"/>
</clipPath>
<g id="font_1_54">
<path transform="matrix(.001,0,0,.001,0,0)" d="M384 698 392 679C353 657 318 635 288 613 258 591 232 565 212 536 191 506 175 471 165 431 154 391 149 342 149 285 149 266 150 245 152 221 154 197 158 174 164 152 170 130 180 112 193 98 205 83 222 76 244 76 271 76 293 89 310 115 327 141 336 184 336 244 336 294 328 331 312 356 296 381 273 394 243 394 230 394 218 391 206 386L198 412C208 416 219 420 231 422 243 424 257 426 273 426 328 426 370 410 400 379 429 347 444 306 444 254 444 222 438 193 427 167 416 141 401 119 383 101 364 83 342 69 318 59 293 49 267 44 239 44 203 44 173 50 147 63 121 75 100 93 83 115 66 137 54 164 46 194 38 224 34 256 34 291 34 349 43 401 61 447 79 493 104 532 136 566 168 599 205 626 248 648 290 670 336 686 384 698Z"/>
</g>
<clipPath id="clip_15">
<path transform="matrix(1,0,0,-1,0,216)" d="M47.09 43.535H421.19999V205.2H47.09Z"/>
</clipPath>
<g id="font_1_56">
<path transform="matrix(.001,0,0,.001,0,0)" d="M167 370C85 410 44 465 44 535 44 555 48 575 57 594 66 613 79 630 96 645 113 660 133 672 157 681 180 690 206 695 236 695 262 695 285 691 307 684 329 676 347 666 363 654 379 641 391 626 400 609 408 592 413 574 413 555 413 535 410 519 404 505 398 491 391 478 381 467 371 456 358 446 344 436 329 426 313 416 295 406 327 390 353 374 372 359 390 343 404 328 413 313 422 298 428 283 430 268 432 253 433 238 433 224 433 198 427 175 416 153 405 131 390 112 372 96 354 80 332 67 308 58 283 48 257 44 229 44 199 44 172 48 148 56 124 64 103 76 86 90 68 104 55 120 46 139 36 158 32 178 32 200 32 216 34 231 38 247 42 263 50 278 61 293 71 307 85 321 103 334 120 346 141 358 167 370ZM263 423C287 438 305 456 316 476 326 496 332 521 332 551 332 582 323 608 307 628 291 648 265 658 230 658 197 658 173 648 158 630 142 612 135 589 135 562 135 534 144 510 163 488 182 466 215 445 263 423ZM196 354C180 344 168 334 158 324 148 314 140 303 134 291 128 279 124 267 122 253 120 239 119 224 119 208 119 167 130 135 152 111 174 87 203 75 237 75 304 75 338 114 338 193 338 211 335 228 329 243 323 257 315 271 303 284 291 296 277 308 259 320 241 331 220 342 196 354Z"/>
</g>
<clipPath id="clip_16">
<path transform="matrix(1,0,0,-1,0,216)" d="M47.09 43.535H421.19999V205.2H47.09Z"/>
</clipPath>
<clipPath id="clip_17">
<path transform="matrix(1,0,0,-1,0,216)" d="M47.09 43.535H421.19999V205.2H47.09Z"/>
</clipPath>
<clipPath id="clip_18">
<path transform="matrix(0,-.01,-.01,-0,20.87125,121.1325)" d="M-99-150H1032V860H-99Z"/>
</clipPath>
<clipPath id="clip_19">
<path transform="matrix(0,-.01,-.01,-0,20.87125,111.132518)" d="M-99-150H1032V860H-99Z"/>
</clipPath>
<clipPath id="clip_20">
<path transform="matrix(0,-.01,-.01,-0,20.87125,101.13253)" d="M-99-150H1032V860H-99Z"/>
</clipPath>
<clipPath id="clip_21">
<path transform="matrix(0,-.01,-.01,-0,20.87125,91.132549)" d="M-99-150H1032V860H-99Z"/>
</clipPath>
<clipPath id="clip_22">
<path transform="matrix(0,-.01,-.01,-0,20.87125,81.13256)" d="M-99-150H1032V860H-99Z"/>
</clipPath>
<clipPath id="clip_23">
<path transform="matrix(0,-.01,-.01,-0,20.87125,68.63259)" d="M-1016-351H1660V1068H-1016Z"/>
</clipPath>
<clipPath id="clip_24">
<path transform="matrix(1,0,0,-1,0,216)" d="M47.09 43.535H421.19999V205.2H47.09Z"/>
</clipPath>
<clipPath id="clip_25">
<path transform="matrix(1,0,0,-1,0,216)" d="M47.09 43.535H421.19999V205.2H47.09Z"/>
</clipPath>
<clipPath id="clip_26">
<path transform="matrix(1,0,0,-1,0,216)" d="M47.09 43.535H421.19999V205.2H47.09Z"/>
</clipPath>
<clipPath id="clip_27">
<path transform="matrix(1,0,0,-1,0,216)" d="M47.09 43.535H421.19999V205.2H47.09Z"/>
</clipPath>
<clipPath id="clip_28">
<path transform="matrix(.01,0,0,-.01,382.2,27.909379)" d="M-99-150H1032V860H-99Z"/>
</clipPath>
<clipPath id="clip_29">
<path transform="matrix(.01,0,0,-.01,392.2,27.909379)" d="M-99-150H1032V860H-99Z"/>
</clipPath>
<clipPath id="clip_30">
<path transform="matrix(.01,0,0,-.01,402.19999,27.909379)" d="M-99-150H1032V860H-99Z"/>
</clipPath>
<g id="font_7_112">
<path transform="matrix(.001,0,0,.001,0,0)" d="M496 337C496 385 485 421 465 447 444 472 414 485 375 485 348 485 322 478 298 464 274 450 252 431 234 405 215 379 200 347 189 311 178 275 173 239 173 203 173 157 183 122 204 98 224 73 254 61 293 61 321 61 347 67 371 81 395 94 416 113 434 139 452 165 467 197 479 233 490 269 496 304 496 337ZM218 464C242 495 270 519 303 535 335 551 372 560 412 560 468 560 511 541 542 505 573 468 589 417 589 351 589 297 579 245 560 196 540 147 513 103 477 65 453 39 425 19 395 6 365-6 333-13 300-13 261-13 228-5 202 10 176 26 156 50 143 82L87-207H-2L144 547H234L218 464Z"/>
</g>
<g id="font_31_61">
<path transform="matrix(.001,0,0,.001,0,0)" d="M106 454H732V372H106V454ZM106 255H732V172H106V255Z"/>
</g>
<g id="font_31_49">
<path transform="matrix(.001,0,0,.001,0,0)" d="M124 83H285V639L110 604V694L284 729H383V83H544V0H124V83Z"/>
</g>
<g id="font_31_50">
<path transform="matrix(.001,0,0,.001,0,0)" d="M192 83H536V0H73V83C110 121 161 173 226 239 290 304 331 346 348 365 380 400 402 430 414 455 426 479 433 504 433 528 433 566 419 598 392 622 365 646 330 659 286 659 255 659 222 653 188 643 154 632 117 616 78 594V694C118 710 155 722 189 730 223 738 255 742 284 742 359 742 419 723 464 685 509 647 532 597 532 534 532 504 526 475 515 449 504 422 484 390 454 354 446 344 420 317 376 272 332 227 271 164 192 83Z"/>
</g>
<g id="font_31_51">
<path transform="matrix(.001,0,0,.001,0,0)" d="M406 393C453 383 490 362 516 330 542 298 556 258 556 212 556 140 531 84 482 45 432 6 362-13 271-13 240-13 208-10 176-4 144 1 110 10 76 22V117C103 101 133 89 166 81 198 73 232 69 268 69 330 69 377 81 409 105 441 129 458 165 458 212 458 254 443 288 413 312 383 336 341 349 287 349H202V430H291C339 430 376 439 402 459 428 478 441 506 441 543 441 580 427 609 401 629 374 649 336 659 287 659 260 659 231 656 200 650 169 644 135 635 98 623V711C135 721 170 729 203 734 235 739 266 742 296 742 370 742 429 725 473 691 517 657 539 611 539 553 539 513 527 479 504 451 481 423 448 403 406 393Z"/>
</g>
</defs>
<g>
<path transform="matrix(1,0,0,-1,0,216)" d="M0 0H432V216H0Z" fill="#ffffff"/>
<path transform="matrix(1,0,0,-1,0,216)" d="M47.09 43.535H421.2V205.2H47.09Z" fill="#ffffff"/>
<g clip-path="url(#clip_0)">
<path transform="matrix(1,0,0,-1,0,216)" stroke-width=".8" stroke-linecap="square" stroke-linejoin="round" fill="none" stroke="#bebebe" d="M64.095 43.535V205.2"/>
</g>
<path transform="matrix(1,0,0,-1,0,216)" d="M64.095 43.535V40.035"/>
<path transform="matrix(1,0,0,-1,0,216)" stroke-width=".8" stroke-linecap="butt" stroke-linejoin="round" fill="none" stroke="#000000" d="M64.095 43.535V40.035"/>
<use data-text="0" xlink:href="#font_1_48" transform="matrix(10,0,0,-10,61.75125,186.66812)"/>
<g clip-path="url(#clip_2)">
<path transform="matrix(1,0,0,-1,0,216)" stroke-width=".8" stroke-linecap="square" stroke-linejoin="round" fill="none" stroke="#bebebe" d="M132.115 43.535V205.2"/>
</g>
<path transform="matrix(1,0,0,-1,0,216)" d="M132.115 43.535V40.035"/>
<path transform="matrix(1,0,0,-1,0,216)" stroke-width=".8" stroke-linecap="butt" stroke-linejoin="round" fill="none" stroke="#000000" d="M132.115 43.535V40.035"/>
<use data-text="1" xlink:href="#font_1_49" transform="matrix(10,0,0,-10,129.77126,186.66812)"/>
<g clip-path="url(#clip_3)">
<path transform="matrix(1,0,0,-1,0,216)" stroke-width=".8" stroke-linecap="square" stroke-linejoin="round" fill="none" stroke="#bebebe" d="M200.135 43.535V205.2"/>
</g>
<path transform="matrix(1,0,0,-1,0,216)" d="M200.135 43.535V40.035"/>
<path transform="matrix(1,0,0,-1,0,216)" stroke-width=".8" stroke-linecap="butt" stroke-linejoin="round" fill="none" stroke="#000000" d="M200.135 43.535V40.035"/>
<use data-text="2" xlink:href="#font_1_50" transform="matrix(10,0,0,-10,197.79125,186.66812)"/>
<g clip-path="url(#clip_4)">
<path transform="matrix(1,0,0,-1,0,216)" stroke-width=".8" stroke-linecap="square" stroke-linejoin="round" fill="none" stroke="#bebebe" d="M268.155 43.535V205.2"/>
</g>
<path transform="matrix(1,0,0,-1,0,216)" d="M268.155 43.535V40.035"/>
<path transform="matrix(1,0,0,-1,0,216)" stroke-width=".8" stroke-linecap="butt" stroke-linejoin="round" fill="none" stroke="#000000" d="M268.155 43.535V40.035"/>
<use data-text="3" xlink:href="#font_1_51" transform="matrix(10,0,0,-10,265.81126,186.66812)"/>
<g clip-path="url(#clip_5)">
<path transform="matrix(1,0,0,-1,0,216)" stroke-width=".8" stroke-linecap="square" stroke-linejoin="round" fill="none" stroke="#bebebe" d="M336.175 43.535V205.2"/>
</g>
<path transform="matrix(1,0,0,-1,0,216)" d="M336.175 43.535V40.035"/>
<path transform="matrix(1,0,0,-1,0,216)" stroke-width=".8" stroke-linecap="butt" stroke-linejoin="round" fill="none" stroke="#000000" d="M336.175 43.535V40.035"/>
<use data-text="4" xlink:href="#font_1_52" transform="matrix(10,0,0,-10,333.83125,186.66812)"/>
<g clip-path="url(#clip_6)">
<path transform="matrix(1,0,0,-1,0,216)" stroke-width=".8" stroke-linecap="square" stroke-linejoin="round" fill="none" stroke="#bebebe" d="M404.195 43.535V205.2"/>
</g>
<path transform="matrix(1,0,0,-1,0,216)" d="M404.195 43.535V40.035"/>
<path transform="matrix(1,0,0,-1,0,216)" stroke-width=".8" stroke-linecap="butt" stroke-linejoin="round" fill="none" stroke="#000000" d="M404.195 43.535V40.035"/>
<use data-text="5" xlink:href="#font_1_53" transform="matrix(10,0,0,-10,401.85127,186.66812)"/>
<use data-text=" " xlink:href="#font_1_32" transform="matrix(10,0,0,-10,254.14493,200.4025)"/>
<use data-text="X" xlink:href="#font_7_88" transform="matrix(10,0,0,-10,256.6449,200.4025)"/>
<g clip-path="url(#clip_8)">
<path transform="matrix(.01,0,0,-.01,204.145,200.4025)" d="M394 674H179C165 674 153 670 143 663L117 710C133 708 149 707 167 707H699C709 726 720 744 731 762 742 779 749 790 753 794 757 798 761 800 765 800 773 800 796 784 833 753 869 721 888 700 888 690 888 679 879 674 861 674H551C543 659 539 643 539 625 529 531 522 468 517 436H743C751 451 761 469 774 489 786 509 795 521 799 525 803 529 808 531 813 531 823 531 846 514 883 482 920 450 939 428 939 418 939 408 930 403 912 403H647C645 399 641 395 634 389V79C634 63 639 52 650 44 661 36 688 32 732 32 776 32 806 36 822 44 838 52 850 67 860 90 870 112 883 157 901 223 903 231 906 236 908 236 910 236 912 232 912 225L910 171C910 142 913 117 919 97 925 77 942 58 968 41 980 33 986 25 986 17 986 9 979-4 967-23 954-42 931-56 898-65 864-74 815-79 749-79 653-79 588-70 552-53 516-36 498-3 498 46V338C472 230 434 147 382 90 330 33 262-12 177-48 91-84 43-102 33-102 31-102 30-101 30-101 30-98 35-93 46-87 122-41 181 0 224 40 266 80 300 128 324 184 348 240 365 313 376 403H124C110 403 98 399 88 392L62 439C78 437 94 436 112 436H380C386 494 390 574 394 674Z"/>
</g>
<g clip-path="url(#clip_9)">
<path transform="matrix(.01,0,0,-.01,214.14499,200.4025)" d="M310 781H678C689 799 698 812 706 821 714 830 720 835 726 835 734 835 756 822 792 798 827 773 845 756 845 748 845 739 832 729 808 719V651L810 559C810 549 807 541 801 535 795 529 784 523 767 517 750 511 730 509 707 509 694 509 687 516 687 531H308C308 525 299 519 281 512 263 504 239 501 208 501 198 501 194 504 194 512L196 557C197 577 198 595 198 612V732C198 761 197 790 195 819 239 807 278 794 310 781ZM687 677V748H328C325 740 319 734 309 730V677H687ZM687 564V644H309V564H687ZM740 454H99C85 454 73 450 63 443L37 490C53 488 69 487 87 487H797C806 504 815 520 825 536 835 551 841 561 845 565 848 569 852 571 858 571 863 571 876 562 897 545L954 499C970 485 978 474 978 466 978 458 968 454 949 454H778C838 415 869 390 869 380 869 369 858 360 837 353V253C837 233 837 216 838 202 839 187 840 178 840 175 840 171 838 168 835 164 831 160 819 154 798 146 854 100 883 71 883 59 883 52 875 49 861 49H555V-28H796C812 0 825 17 833 26 841 35 847 40 852 40 856 40 870 32 892 18 914 4 932-9 947-21 961-33 969-43 969-50 969-57 961-61 945-61H134C120-61 108-64 98-72L72-25C88-27 104-28 122-28H443V49H209C195 49 183 45 173 38L147 85C163 83 179 82 197 82H443V150H280C280 142 278 136 274 132 270 128 260 123 243 119 225 115 205 113 182 113 172 113 167 119 168 132 169 145 170 172 170 213V358C170 386 169 414 167 443 203 434 239 423 273 411H714C723 429 732 443 740 454ZM443 378H303C299 366 292 358 280 354V296H443V378ZM718 296V378H574C570 368 564 361 555 357V296H718ZM443 263H280V183H443V263ZM718 183V263H555V183H718ZM770 139C756 137 744 137 734 137 724 137 719 141 718 150H555V82H735C743 98 755 117 770 139Z"/>
</g>
<g clip-path="url(#clip_10)">
<path transform="matrix(.01,0,0,-.01,224.14498,200.4025)" d="M237 462C191 445 146 424 103 400 96 396 91 394 88 394 84 394 81 396 79 401 77 405 70 423 58 453 46 483 41 500 41 504 41 508 44 511 51 513 71 517 85 524 94 535 103 545 119 579 141 637 163 695 183 755 199 819 237 805 269 791 295 779 321 767 337 759 343 756 348 752 351 748 351 744 351 739 345 735 335 731 325 727 315 720 305 708L241 632C207 592 172 549 135 502H256C273 542 290 587 308 637 356 611 397 585 431 560V696C431 729 430 759 429 785 489 764 531 749 555 740H796C812 768 823 785 828 792 832 798 838 802 846 802 854 802 873 791 904 770 934 749 954 735 963 727 971 719 976 713 976 707 976 696 963 687 939 679V4C939-38 928-66 907-81 886-96 854-104 810-104 800-104 794-102 790-99 786-95 783-88 783-78 782-56 774-39 758-27 742-15 717-5 684 1 671 3 665 6 665 10 665 13 672 15 687 15 738 15 770 16 784 18 798 20 807 24 811 29 815 33 817 40 817 50V571C809 569 803 566 799 562 795 557 790 546 785 530 768 476 750 427 731 384 757 348 776 316 790 288 804 260 811 236 811 217 811 198 804 181 792 165 779 149 764 142 747 142 730 142 718 148 711 160 703 172 699 190 698 214 696 238 691 265 682 294 645 238 598 184 540 133V-66C540-72 538-77 535-80 532-83 517-89 491-97 464-105 445-109 433-109 429-109 427-106 427-101L429-54C430-21 431 8 431 34V129C362 101 298 72 240 43 181 14 141-7 120-23 116-26 112-28 109-28 105-28 102-25 100-21 97-16 90-1 80 24 69 49 59 76 50 106 166 111 293 125 431 148V285C270 232 167 194 123 171 117 168 113 167 109 167 105 167 103 169 102 173 101 177 94 195 80 229 66 263 59 282 59 287 59 292 63 295 73 296 95 297 112 300 124 304 135 308 144 313 152 321 160 329 172 346 188 372 204 398 220 428 237 462ZM664 463C676 522 682 581 683 639 718 628 763 613 817 594V707H556C552 703 547 699 540 697V581C588 539 629 499 664 463ZM540 165C582 220 617 294 645 387 618 439 583 494 540 553V165ZM431 307V534C418 533 402 523 383 504 363 485 302 414 200 292 273 292 350 297 431 307Z"/>
</g>
<g clip-path="url(#clip_11)">
<path transform="matrix(.01,0,0,-.01,234.14496,200.4025)" d="M563 241H694C719 282 733 304 736 308 739 311 742 313 746 313 753 313 775 299 813 271 850 243 869 225 869 218 869 211 863 208 851 208H563V5H787C818 55 836 83 840 88 844 93 849 96 855 96 861 96 874 86 896 66 918 46 936 29 952 15 968 0 976-10 976-17 976-23 971-27 961-27H117C103-27 91-30 81-38L55 8C71 6 87 5 105 5H443V208H228C214 208 202 204 192 197L166 244C182 242 198 241 216 241H443V726C443 759 442 789 441 815 472 812 502 809 530 805 558 801 575 797 580 794 584 791 587 788 587 784 587 775 579 767 563 761V319C625 427 667 568 690 743 725 733 757 721 787 709 816 696 833 688 837 685 841 681 843 678 843 675 843 668 838 664 829 663 819 661 810 652 801 636L733 525C795 505 843 483 877 458 911 433 929 408 929 383 929 357 921 337 906 321 890 305 869 298 843 298 812 298 797 317 797 357 797 377 789 401 775 428 761 455 741 479 717 500 654 400 603 331 563 293V241ZM257 472C214 414 171 364 128 321 85 277 60 256 52 256 50 256 49 257 49 260 49 262 52 268 59 277 101 333 139 403 174 489 209 574 232 659 244 743L333 706C363 693 381 685 385 681 389 677 392 672 392 668 392 663 388 660 380 659 376 657 371 653 365 645 359 637 348 618 332 589 316 559 299 532 281 506 329 486 363 467 383 449 403 431 414 410 414 387 414 364 405 345 389 330 373 315 355 308 336 308 326 308 317 311 310 317 302 323 298 329 296 335 294 341 293 351 293 365 293 401 281 436 257 472Z"/>
</g>
<g clip-path="url(#clip_12)">
<path transform="matrix(.01,0,0,-.01,244.14495,200.4025)" d="M314 579H363L405 647C409 654 414 658 420 658 425 658 443 642 474 612 505 582 521 563 521 556 521 549 514 546 502 546H314V475C358 463 392 446 416 424 439 402 451 376 451 348 451 332 444 317 431 305 418 293 405 287 392 287 379 287 369 289 362 294 354 299 349 305 347 313 344 321 343 334 343 352 343 409 333 444 314 458V-62C314-76 302-87 279-93 255-99 232-102 210-102 202-102 198-97 198-88L200-47C200-19 201 11 201 45V321C183 285 153 242 110 192 66 142 42 117 36 117 30 117 27 120 27 127 27 133 28 139 32 145 74 211 105 275 125 339 145 403 160 472 169 546H95C81 546 69 542 59 535L33 582C49 580 65 579 83 579H201V695C201 739 200 777 198 809 256 803 294 799 312 795 330 791 339 786 339 780 339 774 330 767 314 759V579ZM745 722C749 730 757 743 770 763 783 782 792 794 796 798 800 802 806 805 812 805 818 805 830 795 849 777 867 758 884 742 899 728 914 714 922 704 922 698 922 692 915 689 902 689H545C531 689 519 685 509 678L483 725C499 723 515 722 533 722H745ZM627 466H478C464 466 452 462 442 455L416 502C432 500 448 499 466 499H811C818 511 827 527 839 545 850 563 857 573 860 576 863 578 866 580 870 580 878 580 892 570 914 551L966 503C979 491 986 481 986 475 986 469 979 466 966 466H771C767 457 758 451 746 449V383C828 351 887 317 923 279 959 241 977 199 977 154 977 126 969 104 953 87 937 70 919 62 898 62 884 62 871 69 858 83 844 97 838 121 838 155 838 241 807 310 746 360V41C746 8 741-16 731-33 721-49 704-62 680-70 656-78 632-82 609-82 589-82 579-74 579-59 579-34 570-15 554-3 538 9 512 19 476 25 468 26 464 28 464 32 464 36 473 37 491 35 509 33 529 33 553 33 576 33 594 36 607 43 620 50 627 65 627 87V348C625 346 620 345 612 344 604 343 596 339 590 332 584 324 575 311 565 291 532 231 488 171 434 111 380 51 348 22 338 22 336 22 336 23 336 26 336 28 339 34 345 43 384 98 413 154 433 211 453 267 468 335 479 413 512 405 544 395 575 383 606 371 623 364 627 361V466Z"/>
</g>
<g clip-path="url(#clip_13)">
<path transform="matrix(1,0,0,-1,0,216)" stroke-width=".8" stroke-linecap="square" stroke-linejoin="round" fill="none" stroke="#bebebe" d="M47.09 59.867609H421.2"/>
</g>
<path transform="matrix(1,0,0,-1,0,216)" d="M47.09 59.867609H43.59"/>
<path transform="matrix(1,0,0,-1,0,216)" stroke-width=".8" stroke-linecap="butt" stroke-linejoin="round" fill="none" stroke="#000000" d="M47.09 59.867609H43.59"/>
<use data-text="0" xlink:href="#font_1_48" transform="matrix(10,0,0,-10,28.5275,159.73395)"/>
<use data-text="." xlink:href="#font_1_46" transform="matrix(10,0,0,-10,33.2175,159.73395)"/>
<use data-text="4" xlink:href="#font_1_52" transform="matrix(10,0,0,-10,35.4075,159.73395)"/>
<g clip-path="url(#clip_14)">
<path transform="matrix(1,0,0,-1,0,216)" stroke-width=".8" stroke-linecap="square" stroke-linejoin="round" fill="none" stroke="#bebebe" d="M47.09 89.90003H421.2"/>
</g>
<path transform="matrix(1,0,0,-1,0,216)" d="M47.09 89.90003H43.59"/>
<path transform="matrix(1,0,0,-1,0,216)" stroke-width=".8" stroke-linecap="butt" stroke-linejoin="round" fill="none" stroke="#000000" d="M47.09 89.90003H43.59"/>
<use data-text="0" xlink:href="#font_1_48" transform="matrix(10,0,0,-10,28.5275,129.70154)"/>
<use data-text="." xlink:href="#font_1_46" transform="matrix(10,0,0,-10,33.2175,129.70154)"/>
<use data-text="6" xlink:href="#font_1_54" transform="matrix(10,0,0,-10,35.4075,129.70154)"/>
<g clip-path="url(#clip_15)">
<path transform="matrix(1,0,0,-1,0,216)" stroke-width=".8" stroke-linecap="square" stroke-linejoin="round" fill="none" stroke="#bebebe" d="M47.09 119.932468H421.2"/>
</g>
<path transform="matrix(1,0,0,-1,0,216)" d="M47.09 119.932468H43.59"/>
<path transform="matrix(1,0,0,-1,0,216)" stroke-width=".8" stroke-linecap="butt" stroke-linejoin="round" fill="none" stroke="#000000" d="M47.09 119.932468H43.59"/>
<use data-text="0" xlink:href="#font_1_48" transform="matrix(10,0,0,-10,28.5275,99.669109)"/>
<use data-text="." xlink:href="#font_1_46" transform="matrix(10,0,0,-10,33.2175,99.669109)"/>
<use data-text="8" xlink:href="#font_1_56" transform="matrix(10,0,0,-10,35.4075,99.669109)"/>
<g clip-path="url(#clip_16)">
<path transform="matrix(1,0,0,-1,0,216)" stroke-width=".8" stroke-linecap="square" stroke-linejoin="round" fill="none" stroke="#bebebe" d="M47.09 149.96489H421.2"/>
</g>
<path transform="matrix(1,0,0,-1,0,216)" d="M47.09 149.96489H43.59"/>
<path transform="matrix(1,0,0,-1,0,216)" stroke-width=".8" stroke-linecap="butt" stroke-linejoin="round" fill="none" stroke="#000000" d="M47.09 149.96489H43.59"/>
<use data-text="1" xlink:href="#font_1_49" transform="matrix(10,0,0,-10,28.5275,69.63667)"/>
<use data-text="." xlink:href="#font_1_46" transform="matrix(10,0,0,-10,33.2175,69.63667)"/>
<use data-text="0" xlink:href="#font_1_48" transform="matrix(10,0,0,-10,35.4075,69.63667)"/>
<g clip-path="url(#clip_17)">
<path transform="matrix(1,0,0,-1,0,216)" stroke-width=".8" stroke-linecap="square" stroke-linejoin="round" fill="none" stroke="#bebebe" d="M47.09 179.99732H421.2"/>
</g>
<path transform="matrix(1,0,0,-1,0,216)" d="M47.09 179.99732H43.59"/>
<path transform="matrix(1,0,0,-1,0,216)" stroke-width=".8" stroke-linecap="butt" stroke-linejoin="round" fill="none" stroke="#000000" d="M47.09 179.99732H43.59"/>
<use data-text="1" xlink:href="#font_1_49" transform="matrix(10,0,0,-10,28.5275,39.604249)"/>
<use data-text="." xlink:href="#font_1_46" transform="matrix(10,0,0,-10,33.2175,39.604249)"/>
<use data-text="2" xlink:href="#font_1_50" transform="matrix(10,0,0,-10,35.4075,39.604249)"/>
<use data-text=" " xlink:href="#font_1_32" transform="matrix(0,-10,-10,-0,20.87125,71.132579)"/>
<g clip-path="url(#clip_18)">
<path transform="matrix(0,-.01,-.01,-0,20.87125,121.1325)" d="M394 674H179C165 674 153 670 143 663L117 710C133 708 149 707 167 707H699C709 726 720 744 731 762 742 779 749 790 753 794 757 798 761 800 765 800 773 800 796 784 833 753 869 721 888 700 888 690 888 679 879 674 861 674H551C543 659 539 643 539 625 529 531 522 468 517 436H743C751 451 761 469 774 489 786 509 795 521 799 525 803 529 808 531 813 531 823 531 846 514 883 482 920 450 939 428 939 418 939 408 930 403 912 403H647C645 399 641 395 634 389V79C634 63 639 52 650 44 661 36 688 32 732 32 776 32 806 36 822 44 838 52 850 67 860 90 870 112 883 157 901 223 903 231 906 236 908 236 910 236 912 232 912 225L910 171C910 142 913 117 919 97 925 77 942 58 968 41 980 33 986 25 986 17 986 9 979-4 967-23 954-42 931-56 898-65 864-74 815-79 749-79 653-79 588-70 552-53 516-36 498-3 498 46V338C472 230 434 147 382 90 330 33 262-12 177-48 91-84 43-102 33-102 31-102 30-101 30-101 30-98 35-93 46-87 122-41 181 0 224 40 266 80 300 128 324 184 348 240 365 313 376 403H124C110 403 98 399 88 392L62 439C78 437 94 436 112 436H380C386 494 390 574 394 674Z"/>
</g>
<g clip-path="url(#clip_19)">
<path transform="matrix(0,-.01,-.01,-0,20.87125,111.132518)" d="M310 781H678C689 799 698 812 706 821 714 830 720 835 726 835 734 835 756 822 792 798 827 773 845 756 845 748 845 739 832 729 808 719V651L810 559C810 549 807 541 801 535 795 529 784 523 767 517 750 511 730 509 707 509 694 509 687 516 687 531H308C308 525 299 519 281 512 263 504 239 501 208 501 198 501 194 504 194 512L196 557C197 577 198 595 198 612V732C198 761 197 790 195 819 239 807 278 794 310 781ZM687 677V748H328C325 740 319 734 309 730V677H687ZM687 564V644H309V564H687ZM740 454H99C85 454 73 450 63 443L37 490C53 488 69 487 87 487H797C806 504 815 520 825 536 835 551 841 561 845 565 848 569 852 571 858 571 863 571 876 562 897 545L954 499C970 485 978 474 978 466 978 458 968 454 949 454H778C838 415 869 390 869 380 869 369 858 360 837 353V253C837 233 837 216 838 202 839 187 840 178 840 175 840 171 838 168 835 164 831 160 819 154 798 146 854 100 883 71 883 59 883 52 875 49 861 49H555V-28H796C812 0 825 17 833 26 841 35 847 40 852 40 856 40 870 32 892 18 914 4 932-9 947-21 961-33 969-43 969-50 969-57 961-61 945-61H134C120-61 108-64 98-72L72-25C88-27 104-28 122-28H443V49H209C195 49 183 45 173 38L147 85C163 83 179 82 197 82H443V150H280C280 142 278 136 274 132 270 128 260 123 243 119 225 115 205 113 182 113 172 113 167 119 168 132 169 145 170 172 170 213V358C170 386 169 414 167 443 203 434 239 423 273 411H714C723 429 732 443 740 454ZM443 378H303C299 366 292 358 280 354V296H443V378ZM718 296V378H574C570 368 564 361 555 357V296H718ZM443 263H280V183H443V263ZM718 183V263H555V183H718ZM770 139C756 137 744 137 734 137 724 137 719 141 718 150H555V82H735C743 98 755 117 770 139Z"/>
</g>
<g clip-path="url(#clip_20)">
<path transform="matrix(0,-.01,-.01,-0,20.87125,101.13253)" d="M237 462C191 445 146 424 103 400 96 396 91 394 88 394 84 394 81 396 79 401 77 405 70 423 58 453 46 483 41 500 41 504 41 508 44 511 51 513 71 517 85 524 94 535 103 545 119 579 141 637 163 695 183 755 199 819 237 805 269 791 295 779 321 767 337 759 343 756 348 752 351 748 351 744 351 739 345 735 335 731 325 727 315 720 305 708L241 632C207 592 172 549 135 502H256C273 542 290 587 308 637 356 611 397 585 431 560V696C431 729 430 759 429 785 489 764 531 749 555 740H796C812 768 823 785 828 792 832 798 838 802 846 802 854 802 873 791 904 770 934 749 954 735 963 727 971 719 976 713 976 707 976 696 963 687 939 679V4C939-38 928-66 907-81 886-96 854-104 810-104 800-104 794-102 790-99 786-95 783-88 783-78 782-56 774-39 758-27 742-15 717-5 684 1 671 3 665 6 665 10 665 13 672 15 687 15 738 15 770 16 784 18 798 20 807 24 811 29 815 33 817 40 817 50V571C809 569 803 566 799 562 795 557 790 546 785 530 768 476 750 427 731 384 757 348 776 316 790 288 804 260 811 236 811 217 811 198 804 181 792 165 779 149 764 142 747 142 730 142 718 148 711 160 703 172 699 190 698 214 696 238 691 265 682 294 645 238 598 184 540 133V-66C540-72 538-77 535-80 532-83 517-89 491-97 464-105 445-109 433-109 429-109 427-106 427-101L429-54C430-21 431 8 431 34V129C362 101 298 72 240 43 181 14 141-7 120-23 116-26 112-28 109-28 105-28 102-25 100-21 97-16 90-1 80 24 69 49 59 76 50 106 166 111 293 125 431 148V285C270 232 167 194 123 171 117 168 113 167 109 167 105 167 103 169 102 173 101 177 94 195 80 229 66 263 59 282 59 287 59 292 63 295 73 296 95 297 112 300 124 304 135 308 144 313 152 321 160 329 172 346 188 372 204 398 220 428 237 462ZM664 463C676 522 682 581 683 639 718 628 763 613 817 594V707H556C552 703 547 699 540 697V581C588 539 629 499 664 463ZM540 165C582 220 617 294 645 387 618 439 583 494 540 553V165ZM431 307V534C418 533 402 523 383 504 363 485 302 414 200 292 273 292 350 297 431 307Z"/>
</g>
<g clip-path="url(#clip_21)">
<path transform="matrix(0,-.01,-.01,-0,20.87125,91.132549)" d="M485 692C469 705 462 718 462 732 462 776 442 804 404 816 396 818 392 821 392 824 392 828 411 830 450 830 549 830 599 802 599 748 599 724 587 705 564 692H782C799 719 809 736 813 742 817 748 821 751 826 751 834 751 861 734 906 702 951 669 974 646 974 632 974 626 971 621 966 618 960 615 951 614 937 615 923 616 909 617 893 617 877 617 861 614 845 610 829 605 814 598 799 588 784 578 775 574 773 574 771 574 770 575 770 578 770 581 772 589 776 601 780 613 786 633 792 659H228C230 647 232 636 232 625 232 595 223 569 206 547 188 525 170 515 150 515 130 515 115 521 103 533 91 545 85 560 85 576 85 592 93 607 110 619 151 650 172 684 172 720 172 727 171 733 170 739 168 745 168 749 168 752 168 755 168 757 170 757 174 757 181 749 192 734 202 719 211 705 217 692H485ZM370 270C304 243 239 223 175 211 111 198 73 192 59 192 53 192 51 193 51 195 51 197 56 199 66 203 156 229 244 264 329 307 319 324 315 348 315 379V496C315 523 314 550 312 578 340 575 365 571 388 567 411 563 425 559 430 556 434 552 437 548 437 543 437 538 431 534 420 530V395C420 379 421 368 425 362 469 393 509 434 547 486 585 537 613 591 633 647 663 631 692 616 718 601 744 586 758 577 762 573 766 569 768 565 768 562 768 556 763 552 753 550 743 548 735 545 731 541 726 537 719 530 709 519 635 434 567 374 507 339 517 338 540 338 576 338 611 338 636 340 652 346 667 352 678 363 686 380 693 396 701 426 711 469 713 478 715 483 717 483 719 483 720 478 721 469 721 435 725 410 732 394 739 377 756 361 782 347 793 341 799 332 799 321 799 310 790 298 774 284 757 270 735 260 707 256 679 252 632 250 565 250 497 250 451 251 427 255 403 258 384 263 370 270ZM432 647C474 647 507 640 530 628 553 615 565 599 565 579 565 559 559 543 547 529 535 515 521 509 505 509 479 509 464 522 459 550 455 570 446 587 434 602 421 617 408 627 396 631 383 635 377 638 377 640 377 644 395 647 432 647ZM219 540C223 540 231 526 241 498 251 470 257 442 257 414 257 385 248 357 231 330 214 303 191 290 162 290 139 290 122 296 111 308 100 320 95 334 95 351 95 367 105 381 125 391 157 408 180 426 194 446 207 465 214 491 215 524 215 534 216 540 219 540ZM755 518C774 518 804 510 846 496 888 482 920 463 942 440 964 417 976 395 976 373 976 351 969 333 956 318 943 303 929 296 913 296 897 296 884 301 876 312 867 323 859 342 853 369 847 396 835 422 818 447 801 471 781 490 758 504 750 508 747 512 747 514 747 516 749 518 755 518ZM445-14V147C445 180 444 210 443 236 503 230 543 225 562 222 581 218 591 213 591 206 591 199 582 193 564 188V-14H703V154C703 168 702 186 701 207 774 199 818 193 833 189 848 184 856 178 856 170 856 162 846 155 827 149V-22C827-36 827-46 828-52L829-70C829-79 815-87 789-94 762-100 742-104 729-104 715-104 708-103 706-101 704-99 703-97 703-93V-47H302L282-72C275-80 269-84 264-84 259-84 240-76 208-62 175-47 159-36 159-30 159-26 163-20 172-13 181-6 187 0 190 6 192 12 194 22 194 38V131C194 162 193 187 191 207 240 201 275 195 295 189 315 183 326 177 326 171 326 165 319 159 305 154V-14H445Z"/>
</g>
<g clip-path="url(#clip_22)">
<path transform="matrix(0,-.01,-.01,-0,20.87125,81.13256)" d="M510 682C503 686 498 692 494 698 490 704 489 710 489 718L490 742C490 759 487 772 483 780 478 788 469 796 457 804 444 811 438 815 438 817 438 819 451 821 477 821 521 821 557 813 585 799 613 784 627 765 627 743 627 717 615 697 593 682H784C792 697 801 713 812 729 823 745 830 755 834 759 838 763 841 765 845 765 851 765 873 750 913 721 953 692 973 673 973 663 973 653 963 649 943 649H675C749 641 787 633 787 623 787 617 779 611 763 603V525H800C807 540 815 555 825 569 835 583 841 592 844 596 847 599 850 601 854 601 862 601 885 586 921 558 957 529 975 510 975 501 975 495 967 492 953 492H763V385C763 371 763 361 764 355L765 337C765 325 743 317 699 313 703 313 724 304 764 288 803 271 826 260 833 255 840 250 844 245 844 241 844 234 838 230 828 228 818 226 809 222 803 216 797 210 778 189 748 153 718 117 689 88 662 66 744 42 847 31 971 31 979 31 983 29 983 26 983 22 978 18 968 14 947 4 929-10 914-32 898-53 888-75 882-99 879-107 873-111 863-111 853-111 813-99 741-77 669-54 610-28 563 0 493-37 416-62 333-75 249-88 186-95 142-95 130-95 124-92 124-88 124-84 132-80 148-77 280-51 395-8 492 54 444 100 406 158 379 230H358C344 230 332 226 322 219L296 266C312 264 328 263 346 263H658C678 296 689 312 692 312 669 310 655 311 651 314 646 316 644 324 644 336V354H495V345C495 330 485 320 465 314 445 308 427 306 413 306 398 306 389 307 385 309 381 311 379 316 379 322L380 355C380 368 381 398 381 444V492H324C310 492 298 488 288 481L268 517C264 341 251 220 228 154 204 88 170 28 124-26 78-80 52-107 46-107 44-107 44-105 44-103 44-100 46-95 50-89 85-32 111 32 127 105 143 178 152 267 152 372 152 477 150 595 148 726 199 714 245 700 287 682H510ZM378 649H276C271 641 269 634 269 626 269 580 268 547 268 527 281 525 296 525 312 525H381V581C381 602 380 625 378 649ZM642 649H427C457 645 479 642 495 639 511 635 519 630 519 624 519 618 511 611 495 603V525H644V599C644 613 643 629 642 649ZM644 492H495V387H644V492ZM560 104C604 143 637 185 659 230H404C440 178 492 136 560 104Z"/>
</g>
<g clip-path="url(#clip_23)">
<path transform="matrix(0,-.01,-.01,-0,20.87125,68.63259)" d="M188 449C214 482 254 513 310 543 331 554 371 560 431 560 497 560 545 533 577 481 608 428 615 359 599 273 582 187 548 117 496 65 444 13 385-13 319-13 279-13 246-5 220 10 194 25 175 49 163 82L106-207H16L109 268C123 343 150 403 188 449ZM506 273C518 339 515 391 495 429 475 466 441 485 394 485 346 485 305 466 271 429 236 391 212 339 200 273 187 207 190 155 210 117 230 79 263 61 311 61 359 61 400 79 434 117 468 155 492 207 506 273Z"/>
</g>
<g clip-path="url(#clip_24)">
<path transform="matrix(1,0,0,-1,0,216)" stroke-width="1.5" stroke-linecap="square" stroke-linejoin="round" fill="none" stroke="#008000" d="M64.095 66.62491 144.6987 66.56534 153.8814 62.17588 163.4042 57.870859 172.927 53.806894 178.3686 51.588895 179.3889 51.54389H285.8402L286.1803 195.62686H318.1497L318.4898 74.88382H404.195"/>
</g>
<g clip-path="url(#clip_25)">
<path transform="matrix(1,0,0,-1,0,216)" stroke-width="1.5" stroke-linecap="butt" stroke-dasharray="1.5,2.475" stroke-linejoin="round" fill="none" stroke="#0000ff" d="M64.095 66.62491 112.3892 66.5228 113.7496 66.42369 118.8511 66.38014 119.1912 66.23899 124.6328 66.16841 126.3333 65.63534H131.0947L131.4348 65.47166 131.7749 65.141307H133.4754L133.8155 64.84248H136.1962L136.5363 64.632259H138.917L139.2571 63.876939 139.5972 63.626169H141.9779L142.318 63.31383H144.6987L145.0388 62.7297 145.719 62.798776H147.0794L147.4195 62.56302H148.0997L148.4398 62.019433H149.8002L150.1403 61.487859H152.1809L152.521 61.23108H153.8814L154.2215 60.60941 156.6022 60.540338 156.9423 60.300077 158.6428 60.227998 158.9829 59.73847 159.323 59.04322H159.6631L160.0032 58.8405H162.0438L162.3839 58.435064H165.1047L165.4448 57.69927H166.8052L167.1453 57.157186H167.4854L167.8255 56.823823H171.9067L172.2468 56.287744H172.5869L172.927 55.76368H173.2671L173.6072 55.424314H175.3077L175.6478 55.09696H178.0285L178.3686 54.518835H180.0691L180.4092 54.027807H181.0894L181.4295 53.813074H185.5107L185.8508 53.614858 186.1909 53.613359 186.531 52.77545 188.9117 52.733407 189.2518 52.599763H191.2924L191.6325 52.243879 193.6731 52.167295 194.6934 52.128255H195.3736L195.7137 51.961576H196.734L197.0741 51.740835 200.4751 51.67176 201.1553 51.53061 206.2568 51.48406 206.937 51.41498 258.9723 51.443517 260.3327 51.788888 260.6728 52.29343H266.4545L266.7946 53.182394 267.1347 54.623949H269.8555L270.1956 56.97098H272.5763L272.9164 59.989244H273.2565L273.5966 65.17284H273.9367L274.2768 70.65526H275.9773L276.3174 75.39738H279.0382L279.3783 86.33819H281.4189L281.759 97.29852H282.0991L282.4392 102.965648H284.4798L284.8199 115.41559H286.1803L286.5204 127.92409H287.8808L288.2209 140.66985H289.2412L289.5813 149.77719H291.962L292.3021 158.88452H294.3427L294.6828 167.83419H297.4036L297.7437 175.07199H299.7843L300.1244 180.92832 300.4645 184.23189 300.8046 191.0042H306.5863L306.9264 194.21767 307.2665 188.84186H310.3274L310.6675 191.33455H313.0482L313.3883 192.59592 313.7284 173.94579 314.0685 173.93077 314.4086 171.69335 316.4492 171.70836 316.7893 167.42874H319.17L319.5101 133.01158H321.5507L321.8908 105.052898H322.571L322.9111 98.363178H324.9517L325.2918 89.79793H326.3121L326.6522 78.77152H328.0126L328.3527 75.67217H329.373L329.7131 75.163127H332.4339L332.774 74.948398 404.195 74.88382"/>
</g>
<g clip-path="url(#clip_26)">
<path transform="matrix(1,0,0,-1,0,216)" stroke-width="1.5" stroke-linecap="butt" stroke-dasharray="9.6,2.4,1.5,2.4" stroke-linejoin="round" fill="none" stroke="#000000" d="M64.095 66.62491 129.0541 66.72701 134.1556 66.808109 138.917 66.45822 139.5972 66.28104 145.0388 64.89204 150.4804 63.057054 160.3433 59.327028 172.2468 54.868715 176.328 53.50374 180.0691 52.373018 185.8508 51.156705 186.531 51.128175 191.2924 50.883409 192.6528 50.953985 199.4548 51.240797 207.2771 51.511087 223.6019 51.686777 228.0232 51.72582 243.3277 51.41498 248.4292 51.32939 260.3327 51.428499 264.754 51.49607 268.8352 51.661249 271.556 52.071195 272.5763 52.288927 272.9164 52.53369 273.2565 52.6343 273.9367 53.25447 274.2768 52.580244 275.9773 55.250127 276.3174 55.11648 279.0382 61.870775 279.3783 62.30474 281.4189 72.745517 281.759 73.62396 283.7996 94.69922 285.8402 117.97435 286.1803 121.976169 286.8605 131.30574 287.8808 143.28118 288.2209 149.95888 289.2412 158.43404 289.5813 164.11016 292.6422 182.74529 294.3427 187.2952 294.6828 189.08213 297.7437 194.42789 300.1244 197.64136 300.4645 194.27773 300.8046 193.81223 306.5863 196.71036 306.9264 196.45508 307.2665 191.1994 310.3274 193.93236 310.6675 195.13365 313.0482 197.8516 313.3883 197.62635 313.7284 187.31021 314.0685 186.42426 314.4086 195.46402 316.4492 181.51395 319.17 150.43039 319.5101 121.56923 321.5507 102.2824 321.8908 87.070987 322.571 85.18645 322.9111 79.61092 324.9517 77.4606 325.2918 75.99352 326.6522 74.56848 328.0126 74.63756 328.6928 74.79222 332.774 74.89433 346.378 74.88382H404.195"/>
</g>
<g clip-path="url(#clip_27)">
<path transform="matrix(1,0,0,-1,0,216)" stroke-width="1.5" stroke-linecap="butt" stroke-dasharray="5.55,2.4" stroke-linejoin="round" fill="none" stroke="#ff0000" d="M64.095 66.62491 136.5363 66.516788 139.9373 66.25551 142.6581 65.81253 145.3789 65.12328 148.7799 63.994066 154.2215 61.88879 172.5869 54.62545 180.0691 52.026144 182.1097 51.7093 184.4904 51.56965 190.2721 51.39246 196.0538 50.987024 198.7746 51.12367 205.9167 51.701795 206.937 51.656744 220.8811 51.326387 224.6222 51.67777 228.7034 52.101224 231.0841 52.06969 233.4648 51.796396 238.2262 51.261819 241.2871 51.12367 244.0079 51.30987 247.4089 51.610197 252.1703 51.312875 254.551 51.167219 256.5916 51.28885 259.3124 51.769369 260.6728 51.96758 263.0535 51.955568 265.7743 51.70029 267.1347 51.593679 268.8352 51.70029 270.5357 52.038156 271.8961 52.598264 273.2565 53.400129 273.9367 53.92119 275.6372 55.714128 276.6575 57.14517 277.6778 59.130315 278.6981 61.620004 279.7184 64.66979 280.7387 69.55157 281.759 75.74876 282.4392 82.15167 283.4595 92.87475 284.4798 106.665637 285.16 118.53295 288.2209 168.6751 288.9011 174.24611 289.5813 178.46566 290.6016 182.53505 291.6219 185.41817 293.3224 188.76679 294.0026 189.36743 294.3427 189.4425 294.6828 189.72782 295.363 189.78789 296.0432 190.19333 296.7234 190.92913 297.4036 192.01029 298.0838 193.46686 299.7843 196.90557H300.1244L300.4645 194.74324 302.165 191.77002 303.1853 190.6288 303.8655 190.16329 304.5457 189.93805H305.2259L305.9061 190.1783 306.5863 190.65883 306.9264 191.77002 307.2665 195.2688 307.9467 195.47904H308.6269L309.3071 195.2688 309.9873 194.86336 310.6675 194.18764 312.7081 192.07035 313.0482 191.69495 313.3883 190.80899 313.7284 191.13935 314.0685 192.25055 314.4086 192.14543 314.7487 193.10646 315.0888 193.52692 315.4289 193.4068 315.769 192.74608 316.1091 191.54479 316.4492 189.8029 316.7893 185.43318 317.8096 161.13695 318.8299 130.70659 319.5101 110.46324 320.1903 96.609279 320.8705 86.87878 321.5507 81.27172 321.8908 83.7599 322.9111 79.35565 323.5913 77.721889 324.2715 76.688777 324.6116 76.39745 324.9517 76.257808 325.2918 75.80282 325.972 75.38987 327.3324 75.0505 329.0329 74.92737 333.1141 74.88532 358.2815 74.88382H404.195"/>
</g>
<path transform="matrix(1,0,0,-1,0,216)" stroke-width=".8" stroke-linecap="square" stroke-miterlimit="10" stroke-linejoin="miter" fill="none" stroke="#000000" d="M47.09 43.535V205.2"/>
<path transform="matrix(1,0,0,-1,0,216)" stroke-width=".8" stroke-linecap="square" stroke-miterlimit="10" stroke-linejoin="miter" fill="none" stroke="#000000" d="M421.2 43.535V205.2"/>
<path transform="matrix(1,0,0,-1,0,216)" stroke-width=".8" stroke-linecap="square" stroke-miterlimit="10" stroke-linejoin="miter" fill="none" stroke="#000000" d="M47.09 43.535H421.2"/>
<path transform="matrix(1,0,0,-1,0,216)" stroke-width=".8" stroke-linecap="square" stroke-miterlimit="10" stroke-linejoin="miter" fill="none" stroke="#000000" d="M47.09 205.2H421.2"/>
<g>
<path transform="matrix(1,0,0,-1,0,216)" d="M352.2 134.7H414.2C415.53334 134.7 416.2 135.36667 416.2 136.7V198.2C416.2 199.53334 415.53334 200.2 414.2 200.2H352.2C350.86668 200.2 350.2 199.53334 350.2 198.2V136.7C350.2 135.36667 350.86668 134.7 352.2 134.7Z" fill="#ffffff" fill-opacity=".8"/>
<path transform="matrix(1,0,0,-1,0,216)" stroke-width="1" stroke-linecap="butt" stroke-miterlimit="10" stroke-linejoin="miter" fill="none" stroke="#d5d6d5" stroke-opacity=".8" d="M352.2 134.7H414.2C415.53334 134.7 416.2 135.36667 416.2 136.7V198.2C416.2 199.53334 415.53334 200.2 414.2 200.2H352.2C350.86668 200.2 350.2 199.53334 350.2 198.2V136.7C350.2 135.36667 350.86668 134.7 352.2 134.7Z"/>
</g>
<path transform="matrix(1,0,0,-1,0,216)" stroke-width="1.5" stroke-linecap="square" stroke-linejoin="round" fill="none" stroke="#008000" d="M354.2 191.59062H374.2"/>
<g clip-path="url(#clip_28)">
<path transform="matrix(.01,0,0,-.01,382.2,27.909379)" d="M720 688H796C809 712 819 730 826 740 832 750 838 755 844 755 853 755 873 742 905 718 936 694 952 676 952 665 952 658 946 655 934 655H720V579H769C786 610 797 628 801 634 805 639 810 642 814 642 821 642 840 629 871 605 901 580 917 564 917 557 917 549 910 546 897 546H720V460H822C834 483 844 500 852 512 860 524 866 530 871 530 879 530 899 516 931 490 963 464 979 446 979 436 979 430 972 427 960 427H500C486 427 474 423 464 416L448 437C444 434 437 433 428 433H297V374C341 363 374 346 398 324 422 301 434 276 434 250 434 236 427 222 415 208 402 194 389 187 375 187 361 187 351 190 344 198 336 206 333 216 333 229L335 252C335 286 322 318 297 348V-71C297-78 295-83 293-86 290-89 279-93 261-98 242-102 223-105 203-105 195-105 192-101 192-94L194-53C194-20 195 9 195 37V263C170 225 147 192 125 166 97 134 67 105 35 79 25 71 19 67 17 67V68C17 70 20 75 26 84 94 182 140 298 164 433H90C72 433 58 431 47 428L24 471C38 467 54 466 74 466H195V696C195 740 194 778 192 810 258 804 296 800 306 798 316 796 321 791 321 785 321 779 313 772 297 764V525C319 577 339 645 357 730 386 717 414 703 440 688H604V725C604 758 603 788 602 814 640 812 669 810 691 807 713 803 726 800 732 798 738 796 741 792 741 786 741 780 734 773 720 767V688ZM604 655H481C483 647 477 642 463 641 449 640 434 633 418 620 402 606 361 567 297 503V466H328C340 489 349 504 354 512 359 519 364 523 370 523 375 523 388 514 408 497 428 480 440 468 444 461 454 460 466 460 480 460H604V546H491C477 546 465 542 455 535L426 582C442 580 458 579 476 579H604V655ZM35 702C40 702 57 694 85 678 113 662 135 644 152 623 169 602 178 582 178 562 178 542 171 525 158 511 145 497 131 490 115 490 84 490 71 507 75 541 76 554 77 567 77 579 77 621 65 657 41 688 35 694 33 698 33 700 33 701 33 702 35 702ZM575 118V-68C575-74 573-79 569-83 565-86 553-90 532-95 511-100 491-103 471-103 465-103 462-100 462-95L464-48C465-16 466 13 466 40V314C466 347 465 377 464 403 514 390 554 377 583 363H754C758 372 764 382 772 392 779 402 784 408 786 410 788 411 790 412 793 412 800 412 817 403 844 387 870 371 889 359 900 352 911 344 917 337 917 331 917 324 909 318 894 313V18C894-12 892-35 890-50 888-64 882-76 873-84 863-92 846-99 821-105 795-111 777-114 765-114 753-114 746-108 744-96 737-68 728-48 716-38 704-28 685-19 658-11 648-7 644-5 644-3 644-1 655 0 679 0 702 0 721 0 736 2 750 4 760 7 764 13 768 19 771 29 771 43V118H575ZM575 259H771V330H595C591 319 585 312 575 309V259ZM771 226H575V151H771V226Z"/>
</g>
<g clip-path="url(#clip_29)">
<path transform="matrix(.01,0,0,-.01,392.2,27.909379)" d="M196 682H107C93 682 81 678 71 671L45 718C61 716 77 715 95 715H341C367 757 383 780 387 786 391 792 396 795 400 795 404 795 412 790 424 780 436 770 450 759 465 746 480 732 490 722 496 716 502 709 505 703 505 697 505 687 497 682 483 682H345C340 674 334 669 326 667 302 593 277 530 252 478H306C324 510 336 526 342 526 348 526 368 515 403 495 482 587 533 700 557 834 620 823 662 814 683 807 703 799 714 792 714 785 714 777 708 773 696 771 691 770 685 765 678 757 671 749 664 739 656 728 648 717 642 709 638 704H739C761 743 777 763 787 763 794 763 809 754 831 738 853 721 874 705 894 691 914 676 925 664 925 655 925 651 923 647 919 644 915 640 908 639 898 639H887C863 639 838 631 812 615 785 599 755 575 722 544H820C838 582 851 601 861 601 868 601 890 588 926 562 962 536 980 519 980 513 980 507 969 500 949 492V23C949-17 943-44 932-58 921-72 904-83 880-90 856-97 839-101 829-101 810-101 801-93 801-78 801-40 784-16 752-5 724-20 697-28 669-28 655-28 649-20 649-5L650 34C650 48 651 74 651 114V197H575C564 135 542 83 508 40 474-2 430-37 374-65 318-93 284-107 272-107 268-107 267-105 267-103 267-101 270-98 276-95 338-59 384-21 414 18 444 57 462 104 470 159 478 214 481 340 480 536 461 520 440 503 416 486 442 468 455 457 455 451 455 445 445 438 426 431V193C426 162 426 141 427 129L428 95C428 90 426 86 424 82 421 78 411 73 394 67 377 60 360 57 344 57 327 57 319 64 319 80V117H253V31C253 22 250 15 246 9 241 3 231-1 215-6 199-10 181-13 163-13 151-13 145-8 145 0L147 41C147 69 148 97 148 123V333C136 321 116 304 86 280 56 256 40 244 36 244 35 244 35 244 35 245 35 247 38 254 46 264 95 332 131 399 153 464 175 529 190 602 196 682ZM612 671C578 631 546 596 515 567 555 558 580 550 592 544H694C716 593 733 635 746 671H612ZM586 387H651V511H592C588 504 587 486 587 458L586 387ZM759 387H833V511H776C776 505 770 499 759 492V387ZM319 150V445H261C260 441 257 438 253 435V150H319ZM651 354H585C584 299 582 258 579 230H651V354ZM833 354H759V230H833V354ZM762 7C790 8 809 11 819 16 828 21 833 29 833 40V197H759V114C759 63 760 27 762 7Z"/>
</g>
<g clip-path="url(#clip_30)">
<path transform="matrix(.01,0,0,-.01,402.19999,27.909379)" d="M115 544C64 500 37 476 34 474 31 472 29 471 28 471 26 471 26 472 26 474 26 476 28 480 33 486 74 541 105 594 126 646 147 697 164 760 178 834 216 828 249 821 278 813 307 805 324 799 329 796 334 792 337 789 337 785 337 778 330 774 318 772 309 770 301 764 294 754 287 744 274 725 254 698H348C371 740 387 762 396 762 400 762 409 757 425 747 440 737 457 725 477 710 496 694 507 684 511 679 515 674 517 669 517 665 517 660 515 656 511 652 507 648 500 646 492 647L480 648C466 648 449 641 431 629 412 616 376 586 323 540H400C418 572 430 588 438 588 441 588 449 583 462 575 475 567 490 556 508 544 525 531 535 523 539 519 542 515 544 511 544 508 544 499 534 492 514 487V446C583 496 619 586 623 718H571C557 718 545 714 535 707L509 754C525 752 541 751 559 751H804C816 769 827 784 835 794 843 804 849 809 853 809 859 809 882 797 920 773 958 749 978 733 978 723 978 713 966 705 942 700 929 597 918 534 910 512 901 490 872 472 822 459 833 453 839 447 839 440 839 433 829 427 810 421V330H827C850 373 866 395 874 395 880 395 895 384 921 363 946 341 959 325 959 315 959 303 951 297 935 297H810V186H839C844 196 853 209 865 226 877 242 884 252 886 255 888 257 891 259 895 259 902 259 919 245 946 219 972 193 986 175 986 166 986 157 976 153 956 153H810V28C810 6 810-16 811-41L813-75C813-85 801-94 777-100 753-106 735-110 723-110 711-110 703-109 700-107 696-105 695-101 695-93L697-51C697-22 698 4 698 28V153H514V33C514 4 513-16 511-30 509-44 504-54 497-62 490-69 477-75 458-81 439-86 425-89 415-89 405-89 400-82 398-70 392-40 380-18 361-6 350-20 325-28 285-28 278-28 272-25 268-21 264-16 262-10 262-3L263 30C263 42 264 67 264 105V194H207C200 138 186 90 165 50 144 9 117-27 85-60 53-93 34-110 29-110 28-110 28-109 28-108 28-106 30-101 35-95 69-49 91 5 102 69 113 133 119 205 119 287 119 368 117 454 115 544ZM686 568C722 564 749 562 767 562 785 562 797 566 802 574 807 582 812 600 816 626 820 652 825 683 829 718H746C748 713 745 708 735 703 722 644 706 599 686 568ZM228 665C204 635 174 602 138 566 176 555 201 546 214 540H300C316 575 332 617 349 665H228ZM763 472C763 478 764 483 764 488 764 506 757 520 743 530 729 539 709 549 681 559 655 522 614 488 559 456 627 440 665 431 671 429 677 426 681 422 681 418 681 414 677 410 671 406 664 402 657 394 651 380 645 366 635 349 623 330H698C698 412 697 461 696 476 727 474 749 473 763 472ZM217 384H264V507H226C219 499 216 483 216 461L217 384ZM360 384H412V507H377C377 503 371 497 360 489V384ZM555 454C529 440 516 432 514 432V248C537 315 551 384 555 454ZM264 351H216C215 309 213 267 211 227H264V351ZM412 351H360V227H412V351ZM698 297H599C584 277 556 248 514 208V186H698V297ZM362 13C383 13 397 16 403 20 409 24 412 34 412 50V194H360V105C360 82 360 51 362 13Z"/>
</g>
<path transform="matrix(1,0,0,-1,0,216)" stroke-width="1.5" stroke-linecap="butt" stroke-dasharray="1.5,2.475" stroke-linejoin="round" fill="none" stroke="#0000ff" d="M354.2 177.2H374.2"/>
<use data-text="p" xlink:href="#font_7_112" transform="matrix(10,0,0,-10,382.2,41.596879)"/>
<use data-text="=" xlink:href="#font_31_61" transform="matrix(10,0,0,-10,390.4959,41.596879)"/>
<use data-text="1" xlink:href="#font_31_49" transform="matrix(10,0,0,-10,400.82307,41.596879)"/>
<path transform="matrix(1,0,0,-1,0,216)" stroke-width="1.5" stroke-linecap="butt" stroke-dasharray="9.6,2.4,1.5,2.4" stroke-linejoin="round" fill="none" stroke="#000000" d="M354.2 161.2H374.2"/>
<use data-text="p" xlink:href="#font_7_112" transform="matrix(10,0,0,-10,382.2,57.721879)"/>
<use data-text="=" xlink:href="#font_31_61" transform="matrix(10,0,0,-10,390.4959,57.721879)"/>
<use data-text="2" xlink:href="#font_31_50" transform="matrix(10,0,0,-10,400.82307,57.721879)"/>
<path transform="matrix(1,0,0,-1,0,216)" stroke-width="1.5" stroke-linecap="butt" stroke-dasharray="5.55,2.4" stroke-linejoin="round" fill="none" stroke="#ff0000" d="M354.2 145.2H374.2"/>
<use data-text="p" xlink:href="#font_7_112" transform="matrix(10,0,0,-10,382.2,73.72188)"/>
<use data-text="=" xlink:href="#font_31_61" transform="matrix(10,0,0,-10,390.4959,73.72188)"/>
<use data-text="3" xlink:href="#font_31_51" transform="matrix(10,0,0,-10,400.82307,73.72188)"/>
</g>
</svg>
