<svg xmlns="http://www.w3.org/2000/svg" xmlns:xlink="http://www.w3.org/1999/xlink" version="1.1" width="432pt" height="216pt" viewBox="0 0 432 216">
<defs>
<clipPath id="clip_0">
<path transform="matrix(1,0,0,-1,0,216)" d="M50.69 41.27375H421.2V201.23999H50.69Z"/>
</clipPath>
<clipPath id="clip_1">
<path transform="matrix(1,0,0,-1,0,216)" d="M50.69 41.27375H421.2V201.23999H50.69Z"/>
</clipPath>
<clipPath id="clip_2">
<path transform="matrix(1,0,0,-1,0,216)" d="M50.69 41.27375H421.2V201.23999H50.69Z"/>
</clipPath>
<clipPath id="clip_3">
<path transform="matrix(1,0,0,-1,0,216)" d="M50.69 41.27375H421.2V201.23999H50.69Z"/>
</clipPath>
<clipPath id="clip_4">
<path transform="matrix(1,0,0,-1,0,216)" d="M50.69 41.27375H421.2V201.23999H50.69Z"/>
</clipPath>
<clipPath id="clip_5">
<path transform="matrix(1,0,0,-1,0,216)" d="M50.69 41.27375H421.2V201.23999H50.69Z"/>
</clipPath>
<clipPath id="clip_6">
<path transform="matrix(1,0,0,-1,0,216)" d="M50.69 41.27375H421.2V201.23999H50.69Z"/>
</clipPath>
<clipPath id="clip_7">
<path transform="matrix(1,0,0,-1,0,216)" d="M50.69 41.27375H421.2V201.23999H50.69Z"/>
</clipPath>
<clipPath id="clip_8">
<path transform="matrix(1,0,0,-1,0,216)" d="M50.69 41.27375H421.2V201.23999H50.69Z"/>
</clipPath>
<clipPath id="clip_9">
<path transform="matrix(1,0,0,-1,0,216)" d="M50.69 41.27375H421.2V201.23999H50.69Z"/>
</clipPath>
<clipPath id="clip_10">
<path transform="matrix(1,0,0,-1,0,216)" d="M50.69 41.27375H421.2V201.23999H50.69Z"/>
</clipPath>
<clipPath id="clip_11">
<path transform="matrix(1,0,0,-1,0,216)" d="M50.69 41.27375H421.2V201.23999H50.69Z"/>
</clipPath>
<clipPath id="clip_12">
<path transform="matrix(1,0,0,-1,0,216)" d="M50.69 41.27375H421.2V201.23999H50.69Z"/>
</clipPath>
<clipPath id="clip_13">
<path transform="matrix(1,0,0,-1,0,216)" d="M50.69 41.27375H421.2V201.23999H50.69Z"/>
</clipPath>
<clipPath id="clip_14">
<path transform="matrix(1,0,0,-1,0,216)" d="M50.69 41.27375H421.2V201.23999H50.69Z"/>
</clipPath>
<clipPath id="clip_15">
<path transform="matrix(1,0,0,-1,0,216)" d="M50.69 41.27375H421.2V201.23999H50.69Z"/>
</clipPath>
<clipPath id="clip_16">
<path transform="matrix(1,0,0,-1,0,216)" d="M50.69 41.27375H421.2V201.23999H50.69Z"/>
</clipPath>
<clipPath id="clip_17">
<path transform="matrix(1,0,0,-1,0,216)" d="M50.69 41.27375H421.2V201.23999H50.69Z"/>
</clipPath>
<clipPath id="clip_18">
<path transform="matrix(1,0,0,-1,0,216)" d="M50.69 41.27375H421.2V201.23999H50.69Z"/>
</clipPath>
<clipPath id="clip_19">
<path transform="matrix(1,0,0,-1,0,216)" d="M50.69 41.27375H421.2V201.23999H50.69Z"/>
</clipPath>
<clipPath id="clip_20">
<path transform="matrix(1,0,0,-1,0,216)" d="M50.69 41.27375H421.2V201.23999H50.69Z"/>
</clipPath>
<clipPath id="clip_21">
<path transform="matrix(1,0,0,-1,0,216)" d="M50.69 41.27375H421.2V201.23999H50.69Z"/>
</clipPath>
<clipPath id="clip_22">
<path transform="matrix(1,0,0,-1,0,216)" d="M50.69 41.27375H421.2V201.23999H50.69Z"/>
</clipPath>
<clipPath id="clip_23">
<path transform="matrix(1,0,0,-1,0,216)" d="M50.69 41.27375H421.2V201.23999H50.69Z"/>
</clipPath>
<clipPath id="clip_24">
<path transform="matrix(1,0,0,-1,0,216)" d="M50.69 41.27375H421.2V201.23999H50.69Z"/>
</clipPath>
<clipPath id="clip_25">
<path transform="matrix(1,0,0,-1,0,216)" d="M50.69 41.27375H421.2V201.23999H50.69Z"/>
</clipPath>
<clipPath id="clip_26">
<path transform="matrix(1,0,0,-1,0,216)" d="M50.69 41.27375H421.2V201.23999H50.69Z"/>
</clipPath>
<clipPath id="clip_27">
<path transform="matrix(1,0,0,-1,0,216)" d="M50.69 41.27375H421.2V201.23999H50.69Z"/>
</clipPath>
<clipPath id="clip_28">
<path transform="matrix(1,0,0,-1,0,216)" d="M50.69 41.27375H421.2V201.23999H50.69Z"/>
</clipPath>
<clipPath id="clip_29">
<path transform="matrix(1,0,0,-1,0,216)" d="M50.69 41.27375H421.2V201.23999H50.69Z"/>
</clipPath>
<clipPath id="clip_30">
<path transform="matrix(1,0,0,-1,0,216)" d="M50.69 41.27375H421.2V201.23999H50.69Z"/>
</clipPath>
<clipPath id="clip_31">
<path transform="matrix(1,0,0,-1,0,216)" d="M50.69 41.27375H421.2V201.23999H50.69Z"/>
</clipPath>
<clipPath id="clip_32">
<path transform="matrix(1,0,0,-1,0,216)" d="M50.69 41.27375H421.2V201.23999H50.69Z"/>
</clipPath>
<clipPath id="clip_33">
<path transform="matrix(1,0,0,-1,0,216)" d="M50.69 41.27375H421.2V201.23999H50.69Z"/>
</clipPath>
<clipPath id="clip_34">
<path transform="matrix(1,0,0,-1,0,216)" d="M50.69 41.27375H421.2V201.23999H50.69Z"/>
</clipPath>
<clipPath id="clip_35">
<path transform="matrix(1,0,0,-1,0,216)" d="M50.69 41.27375H421.2V201.23999H50.69Z"/>
</clipPath>
<clipPath id="clip_36">
<path transform="matrix(1,0,0,-1,0,216)" d="M50.69 41.27375H421.2V201.23999H50.69Z"/>
</clipPath>
<clipPath id="clip_37">
<path transform="matrix(1,0,0,-1,0,216)" d="M50.69 41.27375H421.2V201.23999H50.69Z"/>
</clipPath>
<clipPath id="clip_38">
<path transform="matrix(1,0,0,-1,0,216)" d="M50.69 41.27375H421.2V201.23999H50.69Z"/>
</clipPath>
<clipPath id="clip_39">
<path transform="matrix(1,0,0,-1,0,216)" d="M50.69 41.27375H421.2V201.23999H50.69Z"/>
</clipPath>
<clipPath id="clip_40">
<path transform="matrix(1,0,0,-1,0,216)" d="M50.69 41.27375H421.2V201.23999H50.69Z"/>
</clipPath>
<clipPath id="clip_41">
<path transform="matrix(1,0,0,-1,0,216)" d="M50.69 41.27375H421.2V201.23999H50.69Z"/>
</clipPath>
<clipPath id="clip_42">
<path transform="matrix(1,0,0,-1,0,216)" d="M50.69 41.27375H421.2V201.23999H50.69Z"/>
</clipPath>
<clipPath id="clip_43">
<path transform="matrix(1,0,0,-1,0,216)" d="M50.69 41.27375H421.2V201.23999H50.69Z"/>
</clipPath>
<clipPath id="clip_44">
<path transform="matrix(1,0,0,-1,0,216)" d="M50.69 41.27375H421.2V201.23999H50.69Z"/>
</clipPath>
<clipPath id="clip_45">
<path transform="matrix(1,0,0,-1,0,216)" d="M50.69 41.27375H421.2V201.23999H50.69Z"/>
</clipPath>
<clipPath id="clip_46">
<path transform="matrix(1,0,0,-1,0,216)" d="M50.69 41.27375H421.2V201.23999H50.69Z"/>
</clipPath>
<clipPath id="clip_47">
<path transform="matrix(1,0,0,-1,0,216)" d="M50.69 41.27375H421.2V201.23999H50.69Z"/>
</clipPath>
<clipPath id="clip_48">
<path transform="matrix(1,0,0,-1,0,216)" d="M50.69 41.27375H421.2V201.23999H50.69Z"/>
</clipPath>
<clipPath id="clip_49">
<path transform="matrix(1,0,0,-1,0,216)" d="M50.69 41.27375H421.2V201.23999H50.69Z"/>
</clipPath>
<clipPath id="clip_50">
<path transform="matrix(1,0,0,-1,0,216)" d="M50.69 41.27375H421.2V201.23999H50.69Z"/>
</clipPath>
<clipPath id="clip_51">
<path transform="matrix(1,0,0,-1,0,216)" d="M50.69 41.27375H421.2V201.23999H50.69Z"/>
</clipPath>
<clipPath id="clip_52">
<path transform="matrix(1,0,0,-1,0,216)" d="M50.69 41.27375H421.2V201.23999H50.69Z"/>
</clipPath>
<clipPath id="clip_53">
<path transform="matrix(1,0,0,-1,0,216)" d="M50.69 41.27375H421.2V201.23999H50.69Z"/>
</clipPath>
<clipPath id="clip_54">
<path transform="matrix(1,0,0,-1,0,216)" d="M50.69 41.27375H421.2V201.23999H50.69Z"/>
</clipPath>
<clipPath id="clip_55">
<path transform="matrix(1,0,0,-1,0,216)" d="M50.69 41.27375H421.2V201.23999H50.69Z"/>
</clipPath>
<clipPath id="clip_56">
<path transform="matrix(1,0,0,-1,0,216)" d="M50.69 41.27375H421.2V201.23999H50.69Z"/>
</clipPath>
<clipPath id="clip_57">
<path transform="matrix(1,0,0,-1,0,216)" d="M50.69 41.27375H421.2V201.23999H50.69Z"/>
</clipPath>
<clipPath id="clip_58">
<path transform="matrix(1,0,0,-1,0,216)" d="M50.69 41.27375H421.2V201.23999H50.69Z"/>
</clipPath>
<clipPath id="clip_59">
<path transform="matrix(1,0,0,-1,0,216)" d="M50.69 41.27375H421.2V201.23999H50.69Z"/>
</clipPath>
<clipPath id="clip_60">
<path transform="matrix(1,0,0,-1,0,216)" d="M50.69 41.27375H421.2V201.23999H50.69Z"/>
</clipPath>
<clipPath id="clip_61">
<path transform="matrix(1,0,0,-1,0,216)" d="M50.69 41.27375H421.2V201.23999H50.69Z"/>
</clipPath>
<clipPath id="clip_62">
<path transform="matrix(1,0,0,-1,0,216)" d="M50.69 41.27375H421.2V201.23999H50.69Z"/>
</clipPath>
<clipPath id="clip_63">
<path transform="matrix(1,0,0,-1,0,216)" d="M50.69 41.27375H421.2V201.23999H50.69Z"/>
</clipPath>
<clipPath id="clip_64">
<path transform="matrix(1,0,0,-1,0,216)" d="M50.69 41.27375H421.2V201.23999H50.69Z"/>
</clipPath>
<clipPath id="clip_65">
<path transform="matrix(1,0,0,-1,0,216)" d="M50.69 41.27375H421.2V201.23999H50.69Z"/>
</clipPath>
<clipPath id="clip_66">
<path transform="matrix(1,0,0,-1,0,216)" d="M50.69 41.27375H421.2V201.23999H50.69Z"/>
</clipPath>
<clipPath id="clip_67">
<path transform="matrix(1,0,0,-1,0,216)" d="M50.69 41.27375H421.2V201.23999H50.69Z"/>
</clipPath>
<clipPath id="clip_68">
<path transform="matrix(1,0,0,-1,0,216)" d="M50.69 41.27375H421.2V201.23999H50.69Z"/>
</clipPath>
<clipPath id="clip_69">
<path transform="matrix(1,0,0,-1,0,216)" d="M50.69 41.27375H421.2V201.23999H50.69Z"/>
</clipPath>
<clipPath id="clip_70">
<path transform="matrix(1,0,0,-1,0,216)" d="M50.69 41.27375H421.2V201.23999H50.69Z"/>
</clipPath>
<clipPath id="clip_71">
<path transform="matrix(1,0,0,-1,0,216)" d="M50.69 41.27375H421.2V201.23999H50.69Z"/>
</clipPath>
<clipPath id="clip_72">
<path transform="matrix(1,0,0,-1,0,216)" d="M50.69 41.27375H421.2V201.23999H50.69Z"/>
</clipPath>
<clipPath id="clip_73">
<path transform="matrix(1,0,0,-1,0,216)" d="M50.69 41.27375H421.2V201.23999H50.69Z"/>
</clipPath>
<clipPath id="clip_74">
<path transform="matrix(1,0,0,-1,0,216)" d="M50.69 41.27375H421.2V201.23999H50.69Z"/>
</clipPath>
<clipPath id="clip_75">
<path transform="matrix(1,0,0,-1,0,216)" d="M50.69 41.27375H421.2V201.23999H50.69Z"/>
</clipPath>
<clipPath id="clip_76">
<path transform="matrix(1,0,0,-1,0,216)" d="M50.69 41.27375H421.2V201.23999H50.69Z"/>
</clipPath>
<clipPath id="clip_77">
<path transform="matrix(1,0,0,-1,0,216)" d="M50.69 41.27375H421.2V201.23999H50.69Z"/>
</clipPath>
<clipPath id="clip_78">
<path transform="matrix(1,0,0,-1,0,216)" d="M50.69 41.27375H421.2V201.23999H50.69Z"/>
</clipPath>
<clipPath id="clip_79">
<path transform="matrix(1,0,0,-1,0,216)" d="M50.69 41.27375H421.2V201.23999H50.69Z"/>
</clipPath>
<clipPath id="clip_80">
<path transform="matrix(1,0,0,-1,0,216)" d="M50.69 41.27375H421.2V201.23999H50.69Z"/>
</clipPath>
<clipPath id="clip_81">
<path transform="matrix(1,0,0,-1,0,216)" d="M50.69 41.27375H421.2V201.23999H50.69Z"/>
</clipPath>
<clipPath id="clip_82">
<path transform="matrix(1,0,0,-1,0,216)" d="M50.69 41.27375H421.2V201.23999H50.69Z"/>
</clipPath>
<clipPath id="clip_83">
<path transform="matrix(1,0,0,-1,0,216)" d="M50.69 41.27375H421.2V201.23999H50.69Z"/>
</clipPath>
<clipPath id="clip_84">
<path transform="matrix(1,0,0,-1,0,216)" d="M50.69 41.27375H421.2V201.23999H50.69Z"/>
</clipPath>
<clipPath id="clip_85">
<path transform="matrix(1,0,0,-1,0,216)" d="M50.69 41.27375H421.2V201.23999H50.69Z"/>
</clipPath>
<clipPath id="clip_86">
<path transform="matrix(1,0,0,-1,0,216)" d="M50.69 41.27375H421.2V201.23999H50.69Z"/>
</clipPath>
<clipPath id="clip_87">
<path transform="matrix(1,0,0,-1,0,216)" d="M50.69 41.27375H421.2V201.23999H50.69Z"/>
</clipPath>
<clipPath id="clip_88">
<path transform="matrix(1,0,0,-1,0,216)" d="M50.69 41.27375H421.2V201.23999H50.69Z"/>
</clipPath>
<clipPath id="clip_89">
<path transform="matrix(1,0,0,-1,0,216)" d="M50.69 41.27375H421.2V201.23999H50.69Z"/>
</clipPath>
<clipPath id="clip_90">
<path transform="matrix(1,0,0,-1,0,216)" d="M50.69 41.27375H421.2V201.23999H50.69Z"/>
</clipPath>
<clipPath id="clip_91">
<path transform="matrix(1,0,0,-1,0,216)" d="M50.69 41.27375H421.2V201.23999H50.69Z"/>
</clipPath>
<clipPath id="clip_92">
<path transform="matrix(1,0,0,-1,0,216)" d="M50.69 41.27375H421.2V201.23999H50.69Z"/>
</clipPath>
<clipPath id="clip_93">
<path transform="matrix(1,0,0,-1,0,216)" d="M50.69 41.27375H421.2V201.23999H50.69Z"/>
</clipPath>
<clipPath id="clip_94">
<path transform="matrix(1,0,0,-1,0,216)" d="M50.69 41.27375H421.2V201.23999H50.69Z"/>
</clipPath>
<clipPath id="clip_95">
<path transform="matrix(1,0,0,-1,0,216)" d="M50.69 41.27375H421.2V201.23999H50.69Z"/>
</clipPath>
<clipPath id="clip_96">
<path transform="matrix(1,0,0,-1,0,216)" d="M50.69 41.27375H421.2V201.23999H50.69Z"/>
</clipPath>
<clipPath id="clip_97">
<path transform="matrix(1,0,0,-1,0,216)" d="M50.69 41.27375H421.2V201.23999H50.69Z"/>
</clipPath>
<clipPath id="clip_98">
<path transform="matrix(1,0,0,-1,0,216)" d="M50.69 41.27375H421.2V201.23999H50.69Z"/>
</clipPath>
<clipPath id="clip_99">
<path transform="matrix(1,0,0,-1,0,216)" d="M50.69 41.27375H421.2V201.23999H50.69Z"/>
</clipPath>
<g id="font_100_48">
<path transform="matrix(.001,0,0,.001,0,0)" d="M237 695C265 695 293 686 319 669 345 652 368 629 388 600 408 570 423 536 435 496 447 456 453 414 453 369 453 324 447 282 436 243 424 203 409 169 389 139 369 109 347 86 321 69 295 52 267 44 238 44 209 44 181 52 155 69 129 85 106 108 86 137 66 166 50 200 38 240 26 280 21 322 21 368 21 414 26 457 38 497 50 537 65 571 85 601 105 630 128 653 154 670 180 686 207 695 237 695ZM237 81C273 81 298 104 312 151 325 197 332 270 332 369 332 467 325 540 311 587 297 634 273 658 237 658 201 658 176 634 162 588 148 541 142 468 142 369 142 177 173 81 237 81Z"/>
</g>
<g id="font_100_50">
<path transform="matrix(.001,0,0,.001,0,0)" d="M426 57C402 57 376 58 348 59 320 59 284 60 241 60 197 60 157 59 121 59 85 59 56 58 33 57 35 73 37 88 41 103 44 117 50 133 59 149 67 165 79 183 94 203 109 222 129 245 155 271L192 309C218 335 238 357 254 377 269 396 281 413 289 429 297 445 302 460 304 474 306 488 307 503 307 519 307 550 297 575 278 594 258 612 232 622 200 622 166 622 138 611 116 589 94 567 80 535 72 494L41 506C50 567 72 614 108 646 144 678 188 695 242 695 266 695 288 691 310 685 331 678 350 668 366 655 382 642 394 626 404 607 414 588 419 566 419 542 419 516 414 492 405 470 395 448 383 427 367 407 351 387 332 369 311 351 290 333 268 315 246 298L216 274C198 260 180 243 161 223 141 203 123 179 107 153H324C340 153 353 154 362 158 370 161 377 166 382 174 387 182 391 191 395 203 399 215 404 229 410 245H441L426 57Z"/>
</g>
<g id="font_100_52">
<path transform="matrix(.001,0,0,.001,0,0)" d="M326 695H373V288H456V224H373V44H261V224H19V275L151 455C181 495 210 535 239 575 267 615 296 655 326 695ZM261 288V542C238 510 218 483 201 460 184 436 169 415 155 396 141 377 127 359 115 342 103 324 90 306 77 288H261Z"/>
</g>
<g id="font_100_54">
<path transform="matrix(.001,0,0,.001,0,0)" d="M384 698 392 679C353 657 318 635 288 613 258 591 232 565 212 536 191 506 175 471 165 431 154 391 149 342 149 285 149 266 150 245 152 221 154 197 158 174 164 152 170 130 180 112 193 98 205 83 222 76 244 76 271 76 293 89 310 115 327 141 336 184 336 244 336 294 328 331 312 356 296 381 273 394 243 394 230 394 218 391 206 386L198 412C208 416 219 420 231 422 243 424 257 426 273 426 328 426 370 410 400 379 429 347 444 306 444 254 444 222 438 193 427 167 416 141 401 119 383 101 364 83 342 69 318 59 293 49 267 44 239 44 203 44 173 50 147 63 121 75 100 93 83 115 66 137 54 164 46 194 38 224 34 256 34 291 34 349 43 401 61 447 79 493 104 532 136 566 168 599 205 626 248 648 290 670 336 686 384 698Z"/>
</g>
<g id="font_100_56">
<path transform="matrix(.001,0,0,.001,0,0)" d="M167 370C85 410 44 465 44 535 44 555 48 575 57 594 66 613 79 630 96 645 113 660 133 672 157 681 180 690 206 695 236 695 262 695 285 691 307 684 329 676 347 666 363 654 379 641 391 626 400 609 408 592 413 574 413 555 413 535 410 519 404 505 398 491 391 478 381 467 371 456 358 446 344 436 329 426 313 416 295 406 327 390 353 374 372 359 390 343 404 328 413 313 422 298 428 283 430 268 432 253 433 238 433 224 433 198 427 175 416 153 405 131 390 112 372 96 354 80 332 67 308 58 283 48 257 44 229 44 199 44 172 48 148 56 124 64 103 76 86 90 68 104 55 120 46 139 36 158 32 178 32 200 32 216 34 231 38 247 42 263 50 278 61 293 71 307 85 321 103 334 120 346 141 358 167 370ZM263 423C287 438 305 456 316 476 326 496 332 521 332 551 332 582 323 608 307 628 291 648 265 658 230 658 197 658 173 648 158 630 142 612 135 589 135 562 135 534 144 510 163 488 182 466 215 445 263 423ZM196 354C180 344 168 334 158 324 148 314 140 303 134 291 128 279 124 267 122 253 120 239 119 224 119 208 119 167 130 135 152 111 174 87 203 75 237 75 304 75 338 114 338 193 338 211 335 228 329 243 323 257 315 271 303 284 291 296 277 308 259 320 241 331 220 342 196 354Z"/>
</g>
<g id="font_100_49">
<path transform="matrix(.001,0,0,.001,0,0)" d="M385 57C367 57 345 58 319 59 293 59 266 60 238 60 210 60 182 59 156 59 130 58 108 57 91 57V86L153 95C176 100 188 113 188 134V600L69 523 52 554C63 561 77 570 95 581 112 591 130 603 150 616 169 628 188 641 208 655 227 668 245 681 261 695H294V134C294 110 305 97 329 94L385 86V57Z"/>
</g>
<g id="font_100_47">
<path transform="matrix(.001,0,0,.001,0,0)" d="M380 756H463L119-74H37L380 756Z"/>
</g>
<clipPath id="clip_101">
<path transform="matrix(.01,0,0,-.01,190.945,202.33563)" d="M-99-150H1032V860H-99Z"/>
</clipPath>
<clipPath id="clip_102">
<path transform="matrix(.01,0,0,-.01,200.94499,202.33563)" d="M-99-150H1032V860H-99Z"/>
</clipPath>
<clipPath id="clip_103">
<path transform="matrix(.01,0,0,-.01,215.94496,202.33563)" d="M-99-150H1032V860H-99Z"/>
</clipPath>
<clipPath id="clip_104">
<path transform="matrix(.01,0,0,-.01,225.94495,202.33563)" d="M-99-150H1032V860H-99Z"/>
</clipPath>
<clipPath id="clip_105">
<path transform="matrix(.01,0,0,-.01,240.94492,202.33563)" d="M-99-150H1032V860H-99Z"/>
</clipPath>
<clipPath id="clip_106">
<path transform="matrix(.01,0,0,-.01,250.9449,202.33563)" d="M-99-150H1032V860H-99Z"/>
</clipPath>
<clipPath id="clip_107">
<path transform="matrix(.01,0,0,-.01,260.9449,202.33563)" d="M-99-150H1032V860H-99Z"/>
</clipPath>
<clipPath id="clip_108">
<path transform="matrix(.01,0,0,-.01,270.9449,202.33563)" d="M-99-150H1032V860H-99Z"/>
</clipPath>
<clipPath id="clip_109">
<path transform="matrix(0,-.01,-.01,-0,19.549376,119.743129)" d="M-99-150H1032V860H-99Z"/>
</clipPath>
<clipPath id="clip_110">
<path transform="matrix(0,-.01,-.01,-0,19.549376,109.74314)" d="M-99-150H1032V860H-99Z"/>
</clipPath>
<clipPath id="clip_111">
<path transform="matrix(0,-.01,-.01,-0,19.549376,99.74316)" d="M-99-150H1032V860H-99Z"/>
</clipPath>
<clipPath id="clip_112">
<path transform="matrix(0,-.01,-.01,-0,19.549376,89.74317)" d="M-99-150H1032V860H-99Z"/>
</clipPath>
<clipPath id="clip_113">
<path transform="matrix(0,-.01,-.01,-0,19.549376,79.74319)" d="M-99-150H1032V860H-99Z"/>
</clipPath>
<clipPath id="clip_114">
<path transform="matrix(1,0,0,-1,0,216)" d="M50.69 41.27375H421.2V201.23999H50.69Z"/>
</clipPath>
<clipPath id="clip_115">
<path transform="matrix(.01,0,0,-.01,382.2,31.822495)" d="M-99-150H1032V860H-99Z"/>
</clipPath>
<clipPath id="clip_116">
<path transform="matrix(.01,0,0,-.01,392.2,31.822495)" d="M-99-150H1032V860H-99Z"/>
</clipPath>
<clipPath id="clip_117">
<path transform="matrix(.01,0,0,-.01,402.19999,31.822495)" d="M-99-150H1032V860H-99Z"/>
</clipPath>
<clipPath id="clip_118">
<path transform="matrix(.01,0,0,-.01,382.2,46.36937)" d="M-99-150H1032V860H-99Z"/>
</clipPath>
<clipPath id="clip_119">
<path transform="matrix(.01,0,0,-.01,392.2,46.36937)" d="M-99-150H1032V860H-99Z"/>
</clipPath>
<clipPath id="clip_120">
<path transform="matrix(.01,0,0,-.01,402.19999,46.36937)" d="M-99-150H1032V860H-99Z"/>
</clipPath>
</defs>
<g>
<path transform="matrix(1,0,0,-1,0,216)" d="M0 0H432V216H0Z" fill="#ffffff"/>
<path transform="matrix(1,0,0,-1,0,216)" d="M50.69 41.27375H421.2V201.24H50.69Z" fill="#ffffff"/>
<g clip-path="url(#clip_0)">
<path transform="matrix(1,0,0,-1,0,216)" d="M67.531368-3495.7579H70.21525V105.26025H67.531368Z" fill="#1f77b4"/>
</g>
<g clip-path="url(#clip_1)">
<path transform="matrix(1,0,0,-1,0,216)" d="M70.886219-3495.7579H73.5701V105.26025H70.886219Z" fill="#1f77b4"/>
</g>
<g clip-path="url(#clip_2)">
<path transform="matrix(1,0,0,-1,0,216)" d="M74.24107-3495.7579H76.92495V112.36986H74.24107Z" fill="#1f77b4"/>
</g>
<g clip-path="url(#clip_3)">
<path transform="matrix(1,0,0,-1,0,216)" d="M77.595928-3495.7579H80.27981V112.36986H77.595928Z" fill="#1f77b4"/>
</g>
<g clip-path="url(#clip_4)">
<path transform="matrix(1,0,0,-1,0,216)" d="M80.950778-3495.7579H83.63466V144.36312H80.950778Z" fill="#1f77b4"/>
</g>
<g clip-path="url(#clip_5)">
<path transform="matrix(1,0,0,-1,0,216)" d="M84.30563-3495.7579H86.98951V124.81168H84.30563Z" fill="#1f77b4"/>
</g>
<g clip-path="url(#clip_6)">
<path transform="matrix(1,0,0,-1,0,216)" d="M87.660488-3495.7579H90.34437V155.02753H87.660488Z" fill="#1f77b4"/>
</g>
<g clip-path="url(#clip_7)">
<path transform="matrix(1,0,0,-1,0,216)" d="M91.015338-3495.7579H93.69922V169.24675H91.015338Z" fill="#1f77b4"/>
</g>
<g clip-path="url(#clip_8)">
<path transform="matrix(1,0,0,-1,0,216)" d="M94.37019-3495.7579H97.05407V147.91793H94.37019Z" fill="#1f77b4"/>
</g>
<g clip-path="url(#clip_9)">
<path transform="matrix(1,0,0,-1,0,216)" d="M97.725048-3495.7579H100.40893V158.58234H97.725048Z" fill="#1f77b4"/>
</g>
<g clip-path="url(#clip_10)">
<path transform="matrix(1,0,0,-1,0,216)" d="M101.079898-3495.7579H103.76378V121.256877H101.079898Z" fill="#1f77b4"/>
</g>
<g clip-path="url(#clip_11)">
<path transform="matrix(1,0,0,-1,0,216)" d="M104.43475-3495.7579H107.11863V156.80493H104.43475Z" fill="#1f77b4"/>
</g>
<g clip-path="url(#clip_12)">
<path transform="matrix(1,0,0,-1,0,216)" d="M107.789608-3495.7579H110.47349V115.92467H107.789608Z" fill="#1f77b4"/>
</g>
<g clip-path="url(#clip_13)">
<path transform="matrix(1,0,0,-1,0,216)" d="M111.144458-3495.7579H113.82834V156.80493H111.144458Z" fill="#1f77b4"/>
</g>
<g clip-path="url(#clip_14)">
<path transform="matrix(1,0,0,-1,0,216)" d="M114.49931-3495.7579H117.18319V171.02416H114.49931Z" fill="#1f77b4"/>
</g>
<g clip-path="url(#clip_15)">
<path transform="matrix(1,0,0,-1,0,216)" d="M117.854167-3495.7579H120.53805V178.13376H117.854167Z" fill="#1f77b4"/>
</g>
<g clip-path="url(#clip_16)">
<path transform="matrix(1,0,0,-1,0,216)" d="M121.209018-3495.7579H123.8929V181.68857H121.209018Z" fill="#1f77b4"/>
</g>
<g clip-path="url(#clip_17)">
<path transform="matrix(1,0,0,-1,0,216)" d="M124.56387-3495.7579H127.24775V123.03428H124.56387Z" fill="#1f77b4"/>
</g>
<g clip-path="url(#clip_18)">
<path transform="matrix(1,0,0,-1,0,216)" d="M127.918727-3495.7579H130.6026V172.80156H127.918727Z" fill="#1f77b4"/>
</g>
<g clip-path="url(#clip_19)">
<path transform="matrix(1,0,0,-1,0,216)" d="M131.27358-3495.7579H133.95746V167.46935H131.27358Z" fill="#1f77b4"/>
</g>
<g clip-path="url(#clip_20)">
<path transform="matrix(1,0,0,-1,0,216)" d="M134.62844-3495.7579H137.31232V165.69194H134.62844Z" fill="#1f77b4"/>
</g>
<g clip-path="url(#clip_21)">
<path transform="matrix(1,0,0,-1,0,216)" d="M137.98328-3495.7579H140.66716V162.13715H137.98328Z" fill="#1f77b4"/>
</g>
<g clip-path="url(#clip_22)">
<path transform="matrix(1,0,0,-1,0,216)" d="M141.33814-3495.7579H144.02202V169.24675H141.33814Z" fill="#1f77b4"/>
</g>
<g clip-path="url(#clip_23)">
<path transform="matrix(1,0,0,-1,0,216)" d="M144.693-3495.7579H147.37688V135.47609H144.693Z" fill="#1f77b4"/>
</g>
<g clip-path="url(#clip_24)">
<path transform="matrix(1,0,0,-1,0,216)" d="M148.04784-3495.7579H150.73172V165.69194H148.04784Z" fill="#1f77b4"/>
</g>
<g clip-path="url(#clip_25)">
<path transform="matrix(1,0,0,-1,0,216)" d="M151.4027-3495.7579H154.08658V139.0309H151.4027Z" fill="#1f77b4"/>
</g>
<g clip-path="url(#clip_26)">
<path transform="matrix(1,0,0,-1,0,216)" d="M154.75756-3495.7579H157.44144V133.6987H154.75756Z" fill="#1f77b4"/>
</g>
<g clip-path="url(#clip_27)">
<path transform="matrix(1,0,0,-1,0,216)" d="M158.1124-3495.7579H160.79628V140.8083H158.1124Z" fill="#1f77b4"/>
</g>
<g clip-path="url(#clip_28)">
<path transform="matrix(1,0,0,-1,0,216)" d="M161.46726-3495.7579H164.15114V155.02753H161.46726Z" fill="#1f77b4"/>
</g>
<g clip-path="url(#clip_29)">
<path transform="matrix(1,0,0,-1,0,216)" d="M164.82212-3495.7579H167.506V119.47947H164.82212Z" fill="#1f77b4"/>
</g>
<g clip-path="url(#clip_30)">
<path transform="matrix(1,0,0,-1,0,216)" d="M168.17696-3495.7579H170.86084V115.92467H168.17696Z" fill="#1f77b4"/>
</g>
<g clip-path="url(#clip_31)">
<path transform="matrix(1,0,0,-1,0,216)" d="M171.53182-3495.7579H174.2157V108.815059H171.53182Z" fill="#1f77b4"/>
</g>
<g clip-path="url(#clip_32)">
<path transform="matrix(1,0,0,-1,0,216)" d="M174.88668-3495.7579H177.57056V80.37661H174.88668Z" fill="#1f77b4"/>
</g>
<g clip-path="url(#clip_33)">
<path transform="matrix(1,0,0,-1,0,216)" d="M178.24152-3495.7579H180.9254V64.37999H178.24152Z" fill="#1f77b4"/>
</g>
<g clip-path="url(#clip_34)">
<path transform="matrix(1,0,0,-1,0,216)" d="M181.59638-3495.7579H184.28026V144.36312H181.59638Z" fill="#1f77b4"/>
</g>
<g clip-path="url(#clip_35)">
<path transform="matrix(1,0,0,-1,0,216)" d="M184.95124-3495.7579H187.63512V144.36312H184.95124Z" fill="#1f77b4"/>
</g>
<g clip-path="url(#clip_36)">
<path transform="matrix(1,0,0,-1,0,216)" d="M188.30608-3495.7579H190.98996V167.46935H188.30608Z" fill="#1f77b4"/>
</g>
<g clip-path="url(#clip_37)">
<path transform="matrix(1,0,0,-1,0,216)" d="M191.66094-3495.7579H194.34482V94.59583H191.66094Z" fill="#1f77b4"/>
</g>
<g clip-path="url(#clip_38)">
<path transform="matrix(1,0,0,-1,0,216)" d="M195.0158-3495.7579H197.69968V142.58571H195.0158Z" fill="#1f77b4"/>
</g>
<g clip-path="url(#clip_39)">
<path transform="matrix(1,0,0,-1,0,216)" d="M198.37064-3495.7579H201.05452V142.58571H198.37064Z" fill="#1f77b4"/>
</g>
<g clip-path="url(#clip_40)">
<path transform="matrix(1,0,0,-1,0,216)" d="M201.7255-3495.7579H204.40938V149.69532H201.7255Z" fill="#1f77b4"/>
</g>
<g clip-path="url(#clip_41)">
<path transform="matrix(1,0,0,-1,0,216)" d="M205.08036-3495.7579H207.76424V142.58571H205.08036Z" fill="#1f77b4"/>
</g>
<g clip-path="url(#clip_42)">
<path transform="matrix(1,0,0,-1,0,216)" d="M208.4352-3495.7579H211.11908V144.36312H208.4352Z" fill="#1f77b4"/>
</g>
<g clip-path="url(#clip_43)">
<path transform="matrix(1,0,0,-1,0,216)" d="M211.79006-3495.7579H214.47394V144.36312H211.79006Z" fill="#1f77b4"/>
</g>
<g clip-path="url(#clip_44)">
<path transform="matrix(1,0,0,-1,0,216)" d="M215.14492-3495.7579H217.8288V149.69532H215.14492Z" fill="#1f77b4"/>
</g>
<g clip-path="url(#clip_45)">
<path transform="matrix(1,0,0,-1,0,216)" d="M218.49976-3495.7579H221.18364V142.58571H218.49976Z" fill="#1f77b4"/>
</g>
<g clip-path="url(#clip_46)">
<path transform="matrix(1,0,0,-1,0,216)" d="M221.85462-3495.7579H224.5385V147.91793H221.85462Z" fill="#1f77b4"/>
</g>
<g clip-path="url(#clip_47)">
<path transform="matrix(1,0,0,-1,0,216)" d="M225.20948-3495.7579H227.89336V156.80493H225.20948Z" fill="#1f77b4"/>
</g>
<g clip-path="url(#clip_48)">
<path transform="matrix(1,0,0,-1,0,216)" d="M228.56432-3495.7579H231.2482V156.80493H228.56432Z" fill="#1f77b4"/>
</g>
<g clip-path="url(#clip_49)">
<path transform="matrix(1,0,0,-1,0,216)" d="M231.91918-3495.7579H234.60306V155.02753H231.91918Z" fill="#1f77b4"/>
</g>
<g clip-path="url(#clip_50)">
<path transform="matrix(1,0,0,-1,0,216)" d="M235.27404-3495.7579H237.95792V92.81843H235.27404Z" fill="#1f77b4"/>
</g>
<g clip-path="url(#clip_51)">
<path transform="matrix(1,0,0,-1,0,216)" d="M238.62888-3495.7579H241.31276V169.24675H238.62888Z" fill="#1f77b4"/>
</g>
<g clip-path="url(#clip_52)">
<path transform="matrix(1,0,0,-1,0,216)" d="M241.98374-3495.7579H244.66762V115.92467H241.98374Z" fill="#1f77b4"/>
</g>
<g clip-path="url(#clip_53)">
<path transform="matrix(1,0,0,-1,0,216)" d="M245.3386-3495.7579H248.02248V128.36649H245.3386Z" fill="#1f77b4"/>
</g>
<g clip-path="url(#clip_54)">
<path transform="matrix(1,0,0,-1,0,216)" d="M248.69344-3495.7579H251.37732V140.8083H248.69344Z" fill="#1f77b4"/>
</g>
<g clip-path="url(#clip_55)">
<path transform="matrix(1,0,0,-1,0,216)" d="M252.0483-3495.7579H254.73218V155.02753H252.0483Z" fill="#1f77b4"/>
</g>
<g clip-path="url(#clip_56)">
<path transform="matrix(1,0,0,-1,0,216)" d="M255.40316-3495.7579H258.08705V91.04103H255.40316Z" fill="#1f77b4"/>
</g>
<g clip-path="url(#clip_57)">
<path transform="matrix(1,0,0,-1,0,216)" d="M258.758-3495.7579H261.4419V165.69194H258.758Z" fill="#1f77b4"/>
</g>
<g clip-path="url(#clip_58)">
<path transform="matrix(1,0,0,-1,0,216)" d="M262.11286-3495.7579H264.79676V169.24675H262.11286Z" fill="#1f77b4"/>
</g>
<g clip-path="url(#clip_59)">
<path transform="matrix(1,0,0,-1,0,216)" d="M265.4677-3495.7579H268.15159V131.9213H265.4677Z" fill="#1f77b4"/>
</g>
<g clip-path="url(#clip_60)">
<path transform="matrix(1,0,0,-1,0,216)" d="M268.82258-3495.7579H271.50645V149.69532H268.82258Z" fill="#1f77b4"/>
</g>
<g clip-path="url(#clip_61)">
<path transform="matrix(1,0,0,-1,0,216)" d="M272.17744-3495.7579H274.8613V155.02753H272.17744Z" fill="#1f77b4"/>
</g>
<g clip-path="url(#clip_62)">
<path transform="matrix(1,0,0,-1,0,216)" d="M275.53227-3495.7579H278.21617V128.36649H275.53227Z" fill="#1f77b4"/>
</g>
<g clip-path="url(#clip_63)">
<path transform="matrix(1,0,0,-1,0,216)" d="M278.88713-3495.7579H281.571V124.81168H278.88713Z" fill="#1f77b4"/>
</g>
<g clip-path="url(#clip_64)">
<path transform="matrix(1,0,0,-1,0,216)" d="M282.24198-3495.7579H284.92588V151.47272H282.24198Z" fill="#1f77b4"/>
</g>
<g clip-path="url(#clip_65)">
<path transform="matrix(1,0,0,-1,0,216)" d="M285.59684-3495.7579H288.2807V147.91793H285.59684Z" fill="#1f77b4"/>
</g>
<g clip-path="url(#clip_66)">
<path transform="matrix(1,0,0,-1,0,216)" d="M288.9517-3495.7579H291.63557V155.02753H288.9517Z" fill="#1f77b4"/>
</g>
<g clip-path="url(#clip_67)">
<path transform="matrix(1,0,0,-1,0,216)" d="M292.30656-3495.7579H294.99043V124.81168H292.30656Z" fill="#1f77b4"/>
</g>
<g clip-path="url(#clip_68)">
<path transform="matrix(1,0,0,-1,0,216)" d="M295.66139-3495.7579H298.34529V135.47609H295.66139Z" fill="#1f77b4"/>
</g>
<g clip-path="url(#clip_69)">
<path transform="matrix(1,0,0,-1,0,216)" d="M299.01625-3495.7579H301.70014V169.24675H299.01625Z" fill="#1f77b4"/>
</g>
<g clip-path="url(#clip_70)">
<path transform="matrix(1,0,0,-1,0,216)" d="M302.3711-3495.7579H305.055V101.705448H302.3711Z" fill="#1f77b4"/>
</g>
<g clip-path="url(#clip_71)">
<path transform="matrix(1,0,0,-1,0,216)" d="M305.72596-3495.7579H308.40983V119.47947H305.72596Z" fill="#1f77b4"/>
</g>
<g clip-path="url(#clip_72)">
<path transform="matrix(1,0,0,-1,0,216)" d="M309.0808-3495.7579H311.76469V139.0309H309.0808Z" fill="#1f77b4"/>
</g>
<g clip-path="url(#clip_73)">
<path transform="matrix(1,0,0,-1,0,216)" d="M312.43568-3495.7579H315.11955V114.14726H312.43568Z" fill="#1f77b4"/>
</g>
<g clip-path="url(#clip_74)">
<path transform="matrix(1,0,0,-1,0,216)" d="M315.7905-3495.7579H318.4744V146.14052H315.7905Z" fill="#1f77b4"/>
</g>
<g clip-path="url(#clip_75)">
<path transform="matrix(1,0,0,-1,0,216)" d="M319.14537-3495.7579H321.82926V147.91793H319.14537Z" fill="#1f77b4"/>
</g>
<g clip-path="url(#clip_76)">
<path transform="matrix(1,0,0,-1,0,216)" d="M322.5002-3495.7579H325.1841V147.91793H322.5002Z" fill="#1f77b4"/>
</g>
<g clip-path="url(#clip_77)">
<path transform="matrix(1,0,0,-1,0,216)" d="M325.85508-3495.7579H328.53895V117.70207H325.85508Z" fill="#1f77b4"/>
</g>
<g clip-path="url(#clip_78)">
<path transform="matrix(1,0,0,-1,0,216)" d="M329.20994-3495.7579H331.8938V126.58908H329.20994Z" fill="#1f77b4"/>
</g>
<g clip-path="url(#clip_79)">
<path transform="matrix(1,0,0,-1,0,216)" d="M332.5648-3495.7579H335.24867V108.815059H332.5648Z" fill="#1f77b4"/>
</g>
<g clip-path="url(#clip_80)">
<path transform="matrix(1,0,0,-1,0,216)" d="M335.91963-3495.7579H338.60353V87.48622H335.91963Z" fill="#1f77b4"/>
</g>
<g clip-path="url(#clip_81)">
<path transform="matrix(1,0,0,-1,0,216)" d="M339.27449-3495.7579H341.95838V91.04103H339.27449Z" fill="#1f77b4"/>
</g>
<g clip-path="url(#clip_82)">
<path transform="matrix(1,0,0,-1,0,216)" d="M342.62934-3495.7579H345.31324V83.93142H342.62934Z" fill="#1f77b4"/>
</g>
<g clip-path="url(#clip_83)">
<path transform="matrix(1,0,0,-1,0,216)" d="M345.9842-3495.7579H348.66807V139.0309H345.9842Z" fill="#1f77b4"/>
</g>
<g clip-path="url(#clip_84)">
<path transform="matrix(1,0,0,-1,0,216)" d="M349.33906-3495.7579H352.02293V147.91793H349.33906Z" fill="#1f77b4"/>
</g>
<g clip-path="url(#clip_85)">
<path transform="matrix(1,0,0,-1,0,216)" d="M352.6939-3495.7579H355.37779V105.26025H352.6939Z" fill="#1f77b4"/>
</g>
<g clip-path="url(#clip_86)">
<path transform="matrix(1,0,0,-1,0,216)" d="M356.04875-3495.7579H358.73265V142.58571H356.04875Z" fill="#1f77b4"/>
</g>
<g clip-path="url(#clip_87)">
<path transform="matrix(1,0,0,-1,0,216)" d="M359.4036-3495.7579H362.0875V139.0309H359.4036Z" fill="#1f77b4"/>
</g>
<g clip-path="url(#clip_88)">
<path transform="matrix(1,0,0,-1,0,216)" d="M362.75846-3495.7579H365.44236V142.58571H362.75846Z" fill="#1f77b4"/>
</g>
<g clip-path="url(#clip_89)">
<path transform="matrix(1,0,0,-1,0,216)" d="M366.1133-3495.7579H368.79719V108.815059H366.1133Z" fill="#1f77b4"/>
</g>
<g clip-path="url(#clip_90)">
<path transform="matrix(1,0,0,-1,0,216)" d="M369.46818-3495.7579H372.15205V110.59246H369.46818Z" fill="#1f77b4"/>
</g>
<g clip-path="url(#clip_91)">
<path transform="matrix(1,0,0,-1,0,216)" d="M372.82304-3495.7579H375.5069V85.70882H372.82304Z" fill="#1f77b4"/>
</g>
<g clip-path="url(#clip_92)">
<path transform="matrix(1,0,0,-1,0,216)" d="M376.17787-3495.7579H378.86177V156.80493H376.17787Z" fill="#1f77b4"/>
</g>
<g clip-path="url(#clip_93)">
<path transform="matrix(1,0,0,-1,0,216)" d="M379.5327-3495.7579H382.2166V147.91793H379.5327Z" fill="#1f77b4"/>
</g>
<g clip-path="url(#clip_94)">
<path transform="matrix(1,0,0,-1,0,216)" d="M382.88758-3495.7579H385.57148V149.69532H382.88758Z" fill="#1f77b4"/>
</g>
<g clip-path="url(#clip_95)">
<path transform="matrix(1,0,0,-1,0,216)" d="M386.24244-3495.7579H388.9263V144.36312H386.24244Z" fill="#1f77b4"/>
</g>
<g clip-path="url(#clip_96)">
<path transform="matrix(1,0,0,-1,0,216)" d="M389.5973-3495.7579H392.28117V142.58571H389.5973Z" fill="#1f77b4"/>
</g>
<g clip-path="url(#clip_97)">
<path transform="matrix(1,0,0,-1,0,216)" d="M392.95216-3495.7579H395.63603V149.69532H392.95216Z" fill="#1f77b4"/>
</g>
<g clip-path="url(#clip_98)">
<path transform="matrix(1,0,0,-1,0,216)" d="M396.30699-3495.7579H398.99089V147.91793H396.30699Z" fill="#1f77b4"/>
</g>
<g clip-path="url(#clip_99)">
<path transform="matrix(1,0,0,-1,0,216)" d="M399.66184-3495.7579H402.34574V155.02753H399.66184Z" fill="#1f77b4"/>
</g>
<path transform="matrix(1,0,0,-1,0,216)" d="M68.87331 41.27375V37.77375"/>
<path transform="matrix(1,0,0,-1,0,216)" stroke-width=".8" stroke-linecap="butt" stroke-linejoin="round" fill="none" stroke="#000000" d="M68.87331 41.27375V37.77375"/>
<use data-text="0" xlink:href="#font_100_48" transform="matrix(10,0,0,-10,66.52956,188.92938)"/>
<path transform="matrix(1,0,0,-1,0,216)" d="M135.97037 41.27375V37.77375"/>
<path transform="matrix(1,0,0,-1,0,216)" stroke-width=".8" stroke-linecap="butt" stroke-linejoin="round" fill="none" stroke="#000000" d="M135.97037 41.27375V37.77375"/>
<use data-text="2" xlink:href="#font_100_50" transform="matrix(10,0,0,-10,131.28287,188.92938)"/>
<use data-text="0" xlink:href="#font_100_48" transform="matrix(10,0,0,-10,135.97287,188.92938)"/>
<path transform="matrix(1,0,0,-1,0,216)" d="M203.06745 41.27375V37.77375"/>
<path transform="matrix(1,0,0,-1,0,216)" stroke-width=".8" stroke-linecap="butt" stroke-linejoin="round" fill="none" stroke="#000000" d="M203.06745 41.27375V37.77375"/>
<use data-text="4" xlink:href="#font_100_52" transform="matrix(10,0,0,-10,198.37995,188.92938)"/>
<use data-text="0" xlink:href="#font_100_48" transform="matrix(10,0,0,-10,203.06995,188.92938)"/>
<path transform="matrix(1,0,0,-1,0,216)" d="M270.1645 41.27375V37.77375"/>
<path transform="matrix(1,0,0,-1,0,216)" stroke-width=".8" stroke-linecap="butt" stroke-linejoin="round" fill="none" stroke="#000000" d="M270.1645 41.27375V37.77375"/>
<use data-text="6" xlink:href="#font_100_54" transform="matrix(10,0,0,-10,265.477,188.92938)"/>
<use data-text="0" xlink:href="#font_100_48" transform="matrix(10,0,0,-10,270.167,188.92938)"/>
<path transform="matrix(1,0,0,-1,0,216)" d="M337.26158 41.27375V37.77375"/>
<path transform="matrix(1,0,0,-1,0,216)" stroke-width=".8" stroke-linecap="butt" stroke-linejoin="round" fill="none" stroke="#000000" d="M337.26158 41.27375V37.77375"/>
<use data-text="8" xlink:href="#font_100_56" transform="matrix(10,0,0,-10,332.57408,188.92938)"/>
<use data-text="0" xlink:href="#font_100_48" transform="matrix(10,0,0,-10,337.26408,188.92938)"/>
<path transform="matrix(1,0,0,-1,0,216)" d="M404.35865 41.27375V37.77375"/>
<path transform="matrix(1,0,0,-1,0,216)" stroke-width=".8" stroke-linecap="butt" stroke-linejoin="round" fill="none" stroke="#000000" d="M404.35865 41.27375V37.77375"/>
<use data-text="1" xlink:href="#font_100_49" transform="matrix(10,0,0,-10,397.3274,188.92938)"/>
<use data-text="0" xlink:href="#font_100_48" transform="matrix(10,0,0,-10,402.0174,188.92938)"/>
<use data-text="0" xlink:href="#font_100_48" transform="matrix(10,0,0,-10,406.7074,188.92938)"/>
<use data-text="/" xlink:href="#font_100_47" transform="matrix(10,0,0,-10,210.94498,202.33563)"/>
<use data-text="/" xlink:href="#font_100_47" transform="matrix(10,0,0,-10,235.94493,202.33563)"/>
<g clip-path="url(#clip_101)">
<path transform="matrix(.01,0,0,-.01,190.945,202.33563)" d="M993 439C993 435 985 430 969 423 953 416 939 406 927 394 915 382 902 361 888 332 884 323 879 319 871 319 863 319 853 322 841 330 829 337 804 355 768 385 731 414 697 450 667 493 636 536 611 582 593 631 574 680 561 722 555 756 548 790 545 810 545 817 545 824 548 828 554 828 563 828 581 824 608 816 634 808 648 801 648 793 648 788 644 784 636 780 614 768 604 759 604 751 604 735 614 709 635 671 655 633 684 599 720 568 756 537 795 511 839 491 883 471 928 456 974 447 986 444 993 441 993 439ZM190 395C166 376 138 358 108 340 77 322 58 313 51 313 47 313 46 314 46 318 46 321 50 326 60 334 118 380 172 445 221 528 270 610 306 698 328 790 367 777 401 764 429 750 457 736 475 726 481 721 487 716 490 711 490 707 490 702 483 699 471 698 459 696 449 693 443 687 436 681 428 670 420 656 367 561 295 477 203 404H601C621 440 636 459 646 459 650 459 664 450 688 433 712 416 732 400 750 385 768 369 777 359 777 354 777 346 765 339 743 333 743 263 737 191 726 118 714 45 702-2 690-25 678-47 658-66 632-80 606-94 575-101 541-101 528-101 519-98 514-94 509-90 506-82 506-72 504-29 473-2 415 9 403 11 398 14 398 18 398 22 408 23 430 21 451 19 474 19 498 19 522 19 540 21 553 27 566 33 576 43 583 59 589 75 596 118 603 188 610 258 613 319 612 371H462C454 363 448 348 445 328 431 240 414 174 393 131 371 87 342 52 306 24 269-4 220-30 158-54 96-78 59-91 49-91 46-91 45-90 45-89 45-85 51-80 65-73 130-37 180-2 216 33 252 69 278 113 294 165 310 217 319 286 321 371H245C231 371 219 367 209 360L190 395Z"/>
</g>
<g clip-path="url(#clip_102)">
<path transform="matrix(.01,0,0,-.01,200.94499,202.33563)" d="M511 544H460C446 544 434 540 424 533L398 580C414 578 430 577 448 577H511C511 650 510 731 508 820 528 818 555 814 591 808 626 802 647 796 655 792 662 788 666 783 666 778 666 772 662 768 656 765 649 762 645 758 643 752 641 746 639 726 638 694L632 577H697C711 603 722 620 728 628 734 636 738 641 742 641 748 641 767 631 799 612 831 593 852 580 862 572 872 564 877 557 877 552 877 543 863 536 837 531V310C855 340 866 358 871 364 875 370 879 374 883 374 890 374 907 360 934 333 960 306 974 289 974 283 974 276 967 273 955 273H666C724 134 822 46 962 10 969 8 973 5 973 3 973 1 970-1 965-3 937-14 917-25 903-35 889-45 873-63 854-90 848-97 842-101 838-101 824-101 788-69 731-7 674 55 644 148 640 273H612C604 218 588 169 566 127 543 85 511 48 470 16 429-16 374-44 304-69 234-94 187-107 161-107 156-107 154-105 154-102 154-99 158-96 168-92 279-48 360 1 410 57 460 112 489 184 499 273H390C376 273 364 269 354 262L328 309C344 307 360 306 378 306H502C507 368 510 447 511 544ZM714 306V544H630C624 409 620 330 616 306H714ZM155 473H93C79 473 67 469 57 462L31 509C47 507 63 506 81 506H155V723C155 756 154 786 153 812 187 808 219 803 248 798 276 793 293 789 297 786 301 782 304 779 304 775 304 766 293 758 272 750V506H310C332 547 347 568 355 568 362 568 374 561 390 548 406 534 421 523 434 513 447 503 454 495 454 487 454 477 446 473 431 473H272V203L445 228C451 228 454 226 454 224 454 221 447 217 435 211 355 173 279 137 207 101 135 65 96 44 88 39 80 33 75 31 73 31 70 31 67 32 65 36 63 40 56 58 46 91 35 124 27 154 23 180 76 183 120 186 155 190V473Z"/>
</g>
<g clip-path="url(#clip_103)">
<path transform="matrix(.01,0,0,-.01,215.94496,202.33563)" d="M446 564H391C377 564 365 560 355 553L326 600C342 598 359 597 379 597H446C446 655 446 728 444 818 518 808 561 802 573 798 585 794 591 788 591 782 591 775 588 769 582 765 576 761 572 755 570 748 568 740 568 726 568 705 568 684 567 648 566 597H668V770C668 784 667 802 666 823 705 821 737 818 763 814 788 810 803 807 808 803 813 799 816 795 816 791 816 782 809 774 796 768V597H802C816 622 826 640 833 650 839 660 845 665 850 665 855 665 866 658 883 645 899 631 915 617 930 602 945 587 953 577 953 573 953 567 947 564 935 564H796V372H814C820 382 829 395 841 410 853 425 860 434 862 436 864 438 868 439 872 439 876 439 887 431 907 417 927 402 944 388 959 375 973 361 981 352 981 347 981 341 974 339 962 339H796V123C796 109 796 99 797 93L798 76C798 68 789 61 771 53 753 45 733 41 709 41 685 41 673 41 671 43 669 45 668 48 668 52V339H553C546 270 526 212 494 166 462 120 413 80 347 47 380 28 439 19 524 19 608 19 678 19 732 21 786 22 835 24 877 28L971 34C977 34 981 32 981 30 981 27 977 23 969 19 933 0 908-35 896-85 894-92 891-96 885-97 879-98 831-99 741-99 651-99 580-97 530-93 479-89 441-83 417-76 392-69 369-58 348-42 327-26 298 0 262 39 248 53 239 61 233 61H227C216 61 182 16 124-72 120-78 116-82 113-82 106-82 78-45 30 27 86 65 129 93 159 109V407H96C78 407 64 404 54 400L33 445C47 441 63 440 83 440H147C148 444 153 453 162 467 171 481 177 490 180 492 183 494 186 496 190 496 198 496 221 485 257 463 293 441 311 426 311 418 311 410 301 403 281 396V95C292 85 306 73 323 61 363 97 392 134 408 174 424 214 435 269 440 339H368C354 339 342 335 332 328L303 375C319 373 336 372 356 372H442C444 444 446 508 446 564ZM668 564H565L556 372H668V564ZM82 782C111 782 143 776 179 766 214 756 242 741 262 721 282 701 292 679 292 653 292 627 284 607 268 594 252 581 232 575 208 575 192 575 180 580 170 592 160 603 155 621 155 646 154 670 148 693 138 713 128 733 114 748 97 759 80 770 72 777 72 779 72 781 75 782 82 782Z"/>
</g>
<g clip-path="url(#clip_104)">
<path transform="matrix(.01,0,0,-.01,225.94495,202.33563)" d="M176 685C102 680 57 678 41 678 24 678 16 679 16 682 16 684 25 688 44 694 174 731 274 771 345 815 417 753 454 716 454 706 454 699 448 696 436 698 424 700 408 701 390 701 371 701 342 699 304 696 300 691 294 686 284 682V533H327C346 566 358 585 362 590 366 595 370 598 374 598 378 598 382 596 386 594 390 591 401 582 419 568 436 554 449 542 459 533V726C459 754 458 782 456 811 510 797 553 782 587 768H730C746 798 755 816 759 820 762 824 766 826 771 826 779 826 805 812 847 784 889 756 911 737 911 725 911 713 898 703 873 697V543C873 531 873 521 874 513L876 491C876 486 873 482 869 480 865 477 854 473 837 467 820 461 803 458 785 458 767 458 757 458 754 459 750 459 749 464 749 473V490H576V475C576 470 575 466 573 464 571 462 565 458 553 454 541 450 527 447 513 445 498 443 481 442 463 442 459 442 457 444 457 448L459 500H284V446C350 428 393 406 415 380H793C798 390 806 403 816 419 826 435 833 444 836 447 839 449 842 451 846 451 852 451 873 437 907 410 941 383 958 366 958 358 958 350 951 347 937 347H734C731 339 725 333 715 329V194H778C784 206 791 218 801 232 811 246 817 254 819 256 821 258 824 259 828 259 836 259 855 246 885 221 915 195 930 179 930 172 930 164 923 161 909 161H715V-14H794C796-8 805 5 820 27 834 49 843 61 846 63 849 65 852 66 855 66 864 66 887 51 923 21 959-9 977-27 977-35 977-43 970-47 956-47H415C401-47 389-50 379-58L353-11C369-13 385-14 403-14H592V161H506C492 161 480 157 470 150L444 197C460 195 476 194 494 194H592V347H432C434 339 435 331 435 323 435 303 428 286 416 272 403 258 389 252 373 252 357 252 345 256 337 266 329 275 326 288 326 306 326 365 312 407 284 433V-69C284-73 283-77 281-79 279-81 274-85 264-91 254-96 242-100 230-103 217-105 202-107 185-107 177-107 173-103 173-95L175-54C175-26 176 3 176 35V270C152 229 121 190 84 154 46 118 25 100 19 100 17 100 16 101 16 105 16 109 18 114 22 121 97 239 143 366 161 500H70C56 500 44 496 34 489L8 536C24 534 40 533 58 533H176V685ZM749 523V735H599C593 728 585 723 576 719V523H749Z"/>
</g>
<g clip-path="url(#clip_105)">
<path transform="matrix(.01,0,0,-.01,240.94492,202.33563)" d="M397 635H788C817 689 838 716 852 716 860 716 874 707 894 691 914 675 932 660 947 647 961 633 969 622 969 614 969 605 963 601 951 601H667C702 588 720 577 720 568 720 561 713 557 700 555 686 553 670 547 650 535 630 523 606 504 578 479L494 405 667 408C695 449 716 491 732 534 770 514 802 494 828 476 854 457 867 445 867 440 867 434 860 430 848 428 836 426 824 420 813 410 802 400 788 385 772 364 735 317 688 274 631 235 574 195 512 162 446 135 380 107 342 94 333 94 329 94 328 95 328 97 328 99 330 101 334 104 466 187 569 277 642 373 569 348 512 322 471 296 468 294 465 293 461 293 457 293 452 296 448 303 444 310 434 336 419 382 413 370 405 360 395 354 385 347 374 344 363 344 333 344 319 362 319 400 319 444 309 476 291 496V-74C291-80 287-86 281-90 274-94 261-99 243-104 225-108 207-111 191-111 185-111 182-107 182-100L184-59C184-31 185 0 185 33V330C166 284 137 237 97 187 57 137 34 113 29 113 27 113 27 114 27 116 27 118 29 122 33 129 71 199 100 267 120 335 140 402 156 478 167 564H95C81 564 69 560 59 553L33 600C49 598 65 597 83 597H185V713C185 757 184 795 182 827 226 825 260 822 284 818 308 814 320 808 320 802 320 795 310 787 291 778V597H301C312 619 322 636 330 648 338 660 346 667 352 667 360 667 375 656 397 635ZM554 601H432C442 591 448 583 448 575 448 567 441 564 427 564H291V517C335 506 368 493 389 479 409 464 421 445 423 421 438 425 450 431 459 440 467 448 482 469 502 503 522 536 539 569 554 601ZM546 814C613 814 660 805 688 788 715 770 729 745 729 712 729 693 722 677 709 664 696 650 680 644 660 644 640 644 625 649 614 660 602 671 597 688 597 710 597 732 593 751 585 766 577 781 563 794 544 804 538 807 535 809 535 811 535 813 538 814 546 814ZM742 94C670 38 586-3 491-33 395-63 340-78 324-78 320-78 319-76 319-74 319-72 321-70 327-68 449-13 546 45 616 109 686 172 743 247 787 334 807 323 830 309 858 293 886 276 902 265 907 260 912 254 915 250 915 246 915 238 908 233 894 232 888 231 880 227 872 220 864 213 848 197 825 172 802 147 785 130 775 121 874 102 924 61 924-1 924-23 917-41 904-53 890-65 876-71 862-71 847-71 834-65 822-55 810-45 802-32 799-16 789 34 770 71 742 94Z"/>
</g>
<g clip-path="url(#clip_106)">
<path transform="matrix(.01,0,0,-.01,250.9449,202.33563)" d="M398 766C416 766 448 756 496 738 543 720 579 696 603 667 627 637 640 605 640 571 640 549 631 528 614 507 596 486 578 476 558 476 522 476 504 495 502 534 498 594 490 640 478 670 466 700 440 727 402 753 395 757 392 760 392 762 392 764 394 766 398 766ZM428 495V125C428 101 434 86 446 79 458 71 491 68 545 68 569 68 592 69 612 71 632 73 646 76 654 80 662 84 669 91 677 103 684 114 691 131 698 154 705 177 712 202 718 228 724 254 727 267 729 267 730 267 731 263 731 256L730 200C730 163 734 137 744 122 753 107 772 93 801 80 810 75 815 64 815 48 815 19 798-4 765-23 732-42 662-52 554-52 486-52 441-49 417-44 393-39 373-31 356-21 338-10 325 5 316 27 307 49 303 79 303 119V470C303 497 302 524 300 552 335 548 366 544 394 539 422 534 439 530 445 527 451 523 454 519 454 515 454 507 445 500 428 495ZM733 529C738 529 760 516 798 492 836 467 868 441 892 415 916 388 932 362 942 336 952 310 957 286 957 264 957 241 948 220 932 200 915 180 896 171 876 171 856 171 839 177 827 189 814 201 808 216 808 236L809 286C809 338 804 380 794 412 784 444 765 477 738 511 732 517 730 522 730 525 730 527 731 529 733 529ZM165 499C169 499 182 476 203 431 223 385 234 341 234 298 234 254 224 220 204 194 184 168 161 156 135 156 116 156 100 162 87 174 73 186 67 201 67 219 67 237 74 254 89 270 117 300 137 327 148 351 159 375 165 403 165 437L162 491C162 496 163 499 165 499Z"/>
</g>
<g clip-path="url(#clip_107)">
<path transform="matrix(.01,0,0,-.01,260.9449,202.33563)" d="M628 680C608 684 597 699 597 723 595 762 573 791 533 811 526 813 523 816 523 818 523 822 539 824 573 824 673 824 723 798 723 748 723 736 718 723 709 709 699 695 688 685 674 680H758C768 701 776 716 782 724 787 732 792 736 797 736 804 736 826 725 864 705 902 684 921 669 921 660 921 650 913 643 897 638V533L898 478C898 472 896 468 893 466 889 463 876 459 854 455 832 450 810 448 788 448 780 448 776 453 776 465V489H509C507 443 505 412 504 397 518 392 530 387 541 382H796C806 402 814 416 818 423 822 429 828 433 834 433 840 433 856 426 883 413L943 382C956 375 963 367 963 357 963 344 953 334 934 326V3C934-23 931-42 925-56 919-69 905-80 884-89 863-97 843-102 823-102 808-102 800-94 799-80 796-50 785-30 766-21 744-28 725-32 707-32 697-32 693-27 693-18V173H659V1C659-5 657-9 653-13 649-17 641-20 628-24 615-27 597-29 574-29 568-29 566-25 566-19L568 17C568 34 569 60 569 95V173H537V-63C537-71 534-77 529-81 524-85 511-89 490-95 469-100 451-103 437-103 433-103 431-100 431-95L433-50C434-30 435-10 435 11V138C400 70 354 14 296-28 238-71 205-93 195-93 192-93 191-91 191-89 191-87 193-84 198-81 258-31 306 35 343 117 224 51 143 3 99-25 94-28 90-30 87-30 84-30 82-28 80-24 78-20 72-7 62 15 52 37 43 63 33 92 157 110 264 128 355 147 387 220 403 348 403 531 395 528 386 521 374 509L169 283C287 293 353 298 365 298 373 298 377 296 377 293 377 290 369 285 354 279L309 259C239 229 193 208 171 196 149 184 130 174 116 164 111 161 107 160 105 160 102 160 100 161 98 163 96 165 91 184 81 218 71 252 66 271 66 276 66 281 69 284 76 285 94 287 108 292 116 300 124 307 140 330 163 368 186 406 207 443 225 481 211 475 165 452 85 412 81 410 77 409 75 409 72 409 69 412 66 419 63 425 58 441 52 467 45 492 42 507 42 513 42 518 46 521 55 523 69 525 81 531 91 541 101 551 114 583 130 637 146 690 158 748 168 810 194 801 225 789 261 775 296 760 316 751 320 748 324 745 326 742 326 739 326 733 321 729 312 726 303 723 296 719 291 715 286 710 269 687 241 647 212 606 178 562 139 516H241C255 546 270 584 286 629 339 601 378 580 403 564L398 715C426 707 464 696 510 680H628ZM776 522V647H518C516 645 514 630 513 602L510 522H776ZM783 206H818V349H801C798 343 792 339 783 335V206ZM659 206H693V349H672C671 347 667 343 659 339V206ZM537 206H569V349H551C549 345 544 341 537 339V206ZM818 173H783V42C783 22 783 7 785-1 799 0 808 2 812 8 816 14 818 25 818 43V173Z"/>
</g>
<g clip-path="url(#clip_108)">
<path transform="matrix(.01,0,0,-.01,270.9449,202.33563)" d="M341 734H623C643 768 656 787 660 791 664 795 669 798 677 798 684 798 708 786 748 763 788 739 808 723 808 714 808 704 794 694 768 683V575L770 483C770 475 768 469 765 467 762 465 751 461 732 456 712 450 690 448 666 448 656 448 650 449 648 452 646 454 645 461 645 471V487H327V475C327 469 323 463 317 459 310 455 299 451 283 447 267 443 252 442 238 442 224 442 215 442 212 443 209 444 208 446 208 450L210 494C211 514 212 532 212 549V702C212 731 211 760 209 789 261 772 305 754 341 734ZM645 520V701H341C338 693 333 687 327 683V520H645ZM286 356H94C80 356 68 352 58 345L32 392C48 390 64 389 82 389H776C807 445 828 473 839 473 848 473 870 457 906 425 942 393 960 373 960 365 960 359 953 356 940 356H438C424 345 414 339 408 338L347 243H645C664 275 675 293 678 297 681 300 685 302 691 302 700 302 724 289 764 264 804 239 824 223 824 215 824 207 811 200 787 193 762 71 734-7 703-43 672-79 626-98 565-98 539-98 523-96 517-92 510-88 506-78 504-62 502-46 492-31 474-19 456-6 430 3 398 11 392 12 390 14 390 17 390 19 392 20 397 20 435 16 470 15 502 15 533 15 559 19 579 28 599 36 614 57 626 89 637 121 647 161 656 210H338L314 180C310 175 306 173 302 173 298 173 289 176 277 182 264 188 248 196 229 208 210 219 199 226 196 229 193 232 192 235 192 238 192 240 194 242 198 244 216 252 231 264 242 282L286 356Z"/>
</g>
<path transform="matrix(1,0,0,-1,0,216)" d="M50.69 59.04778H47.19"/>
<path transform="matrix(1,0,0,-1,0,216)" stroke-width=".8" stroke-linecap="butt" stroke-linejoin="round" fill="none" stroke="#000000" d="M50.69 59.04778H47.19"/>
<use data-text="2" xlink:href="#font_100_50" transform="matrix(10,0,0,-10,24.94,160.55379)"/>
<use data-text="0" xlink:href="#font_100_48" transform="matrix(10,0,0,-10,29.630002,160.55379)"/>
<use data-text="0" xlink:href="#font_100_48" transform="matrix(10,0,0,-10,34.32,160.55379)"/>
<use data-text="0" xlink:href="#font_100_48" transform="matrix(10,0,0,-10,39.010004,160.55379)"/>
<path transform="matrix(1,0,0,-1,0,216)" d="M50.69 94.59583H47.19"/>
<path transform="matrix(1,0,0,-1,0,216)" stroke-width=".8" stroke-linecap="butt" stroke-linejoin="round" fill="none" stroke="#000000" d="M50.69 94.59583H47.19"/>
<use data-text="2" xlink:href="#font_100_50" transform="matrix(10,0,0,-10,24.94,125.00573)"/>
<use data-text="0" xlink:href="#font_100_48" transform="matrix(10,0,0,-10,29.630002,125.00573)"/>
<use data-text="2" xlink:href="#font_100_50" transform="matrix(10,0,0,-10,34.32,125.00573)"/>
<use data-text="0" xlink:href="#font_100_48" transform="matrix(10,0,0,-10,39.010004,125.00573)"/>
<path transform="matrix(1,0,0,-1,0,216)" d="M50.69 130.14389H47.19"/>
<path transform="matrix(1,0,0,-1,0,216)" stroke-width=".8" stroke-linecap="butt" stroke-linejoin="round" fill="none" stroke="#000000" d="M50.69 130.14389H47.19"/>
<use data-text="2" xlink:href="#font_100_50" transform="matrix(10,0,0,-10,24.94,89.45767)"/>
<use data-text="0" xlink:href="#font_100_48" transform="matrix(10,0,0,-10,29.630002,89.45767)"/>
<use data-text="4" xlink:href="#font_100_52" transform="matrix(10,0,0,-10,34.32,89.45767)"/>
<use data-text="0" xlink:href="#font_100_48" transform="matrix(10,0,0,-10,39.010004,89.45767)"/>
<path transform="matrix(1,0,0,-1,0,216)" d="M50.69 165.69194H47.19"/>
<path transform="matrix(1,0,0,-1,0,216)" stroke-width=".8" stroke-linecap="butt" stroke-linejoin="round" fill="none" stroke="#000000" d="M50.69 165.69194H47.19"/>
<use data-text="2" xlink:href="#font_100_50" transform="matrix(10,0,0,-10,24.94,53.909624)"/>
<use data-text="0" xlink:href="#font_100_48" transform="matrix(10,0,0,-10,29.630002,53.909624)"/>
<use data-text="6" xlink:href="#font_100_54" transform="matrix(10,0,0,-10,34.32,53.909624)"/>
<use data-text="0" xlink:href="#font_100_48" transform="matrix(10,0,0,-10,39.010004,53.909624)"/>
<path transform="matrix(1,0,0,-1,0,216)" d="M50.69 201.24H47.19"/>
<path transform="matrix(1,0,0,-1,0,216)" stroke-width=".8" stroke-linecap="butt" stroke-linejoin="round" fill="none" stroke="#000000" d="M50.69 201.24H47.19"/>
<use data-text="2" xlink:href="#font_100_50" transform="matrix(10,0,0,-10,24.94,18.361557)"/>
<use data-text="0" xlink:href="#font_100_48" transform="matrix(10,0,0,-10,29.630002,18.361557)"/>
<use data-text="8" xlink:href="#font_100_56" transform="matrix(10,0,0,-10,34.32,18.361557)"/>
<use data-text="0" xlink:href="#font_100_48" transform="matrix(10,0,0,-10,39.010004,18.361557)"/>
<g clip-path="url(#clip_109)">
<path transform="matrix(0,-.01,-.01,-0,19.549376,119.743129)" d="M489 554H350C336 554 324 550 314 543L288 590C304 588 320 587 338 587H539V712C539 756 538 794 536 826 566 823 596 819 626 814 655 809 673 805 679 802 685 799 689 795 689 791 689 782 678 774 657 766V587H774C794 623 808 647 816 659 824 670 830 676 836 676 842 676 856 667 879 650 901 633 922 616 940 599 958 581 968 569 968 563 968 557 960 554 946 554H693C705 476 736 406 785 342 834 278 898 225 976 182 984 177 988 173 988 171 988 169 981 164 967 157 953 150 939 141 927 129 915 117 902 101 889 80 884 72 879 69 875 69 864 69 840 94 802 144 764 194 732 254 707 322 682 390 667 467 662 554H657V135H677L705 179C712 189 719 195 725 195 731 195 747 182 773 158 799 134 813 118 813 112 813 105 806 102 792 102H657V-64C657-72 654-79 650-83 646-87 633-91 612-97 591-103 569-106 545-106 539-106 536-102 536-95L538-54C538-26 539 4 539 38V102H436C422 102 410 98 400 91L374 138C390 136 406 135 424 135H539V372C474 259 391 170 289 106V-61C289-66 288-70 286-73 284-76 276-80 262-85 248-89 231-93 211-97 191-100 177-102 169-102 164-102 162-98 162-92L165 1C165 30 166 58 166 84V411C142 379 115 349 86 319 57 289 40 275 34 275 32 275 32 276 32 279 32 281 34 287 39 295 89 384 125 470 149 554 172 637 190 729 202 831 225 825 258 814 302 800 345 786 369 777 374 773 379 769 382 765 382 761 382 753 377 749 367 747 357 745 349 737 341 723 333 709 319 683 301 643 283 603 265 569 248 539 290 527 311 516 311 505 311 497 303 490 289 484V136C386 245 453 384 489 554Z"/>
</g>
<g clip-path="url(#clip_110)">
<path transform="matrix(0,-.01,-.01,-0,19.549376,109.74314)" d="M565 626C585 686 601 754 612 832 640 825 671 816 705 805 739 793 759 786 765 782 770 778 773 773 773 769 773 761 767 757 755 756 743 755 727 746 708 728 689 710 658 676 614 626H696C716 658 729 676 733 681 737 685 741 688 747 688 752 688 765 680 787 665 808 650 827 637 844 627 860 616 869 607 869 600 869 592 857 585 833 577V374L835 282C835 274 832 268 826 264 820 260 810 256 794 252 778 248 761 246 744 246 726 246 717 247 715 250 713 253 712 260 712 271V300H547V176H786C814 225 830 252 834 257 838 261 842 264 846 264 850 264 856 261 864 256 871 250 888 237 914 215 940 193 956 179 963 171 970 163 974 156 974 151 974 145 967 143 954 143H547V37C547 7 547-16 548-36 549-56 550-67 550-69 550-81 538-90 516-96 493-102 474-105 459-105 444-105 435-104 432-102 429-100 428-94 428-86L429-47C430-20 431 9 431 42V143H94C80 143 68 139 58 132L32 179C48 177 64 176 82 176H431V300H269V263C269 257 267 252 263 249 259 246 248 242 229 238 209 234 189 232 168 232 159 232 155 237 155 247L157 291C158 310 159 328 159 345V584C159 613 158 642 156 671 206 655 247 640 278 626H565ZM431 593H290C285 587 278 583 269 583V480H431V593ZM712 480V593H569C565 585 557 578 547 574V480H712ZM431 447H269V333H431V447ZM712 333V447H547V333H712ZM241 804C255 804 282 800 320 792 358 784 386 772 405 756 423 740 433 722 433 700 433 678 425 660 411 648 396 635 381 629 365 629 349 629 336 633 326 642 316 651 310 663 310 677 308 708 302 731 294 746 286 760 269 775 244 791 236 795 233 799 233 801 233 803 235 804 241 804Z"/>
</g>
<g clip-path="url(#clip_111)">
<path transform="matrix(0,-.01,-.01,-0,19.549376,99.74316)" d="M613 705C617 713 628 729 644 753 660 777 670 790 673 794 675 797 678 799 682 799 689 799 715 781 760 746 804 711 827 689 827 680 827 674 821 672 810 672H220C206 672 194 668 184 661L158 708C174 706 190 705 208 705H613ZM506 443H457C460 433 452 426 434 421 428 335 419 267 409 218 399 169 382 127 359 91 336 55 304 24 264-3 223-30 177-54 127-74 77-94 47-105 39-105 35-105 33-103 33-100 33-97 37-93 46-89 120-51 182-3 232 55 281 113 306 222 306 380 306 400 305 421 305 443H102C88 443 76 439 66 432L40 479C56 477 72 476 90 476H758C765 490 775 506 789 526 802 545 811 557 815 561 819 565 823 567 827 567 831 567 840 561 854 551 868 541 887 526 911 507 935 488 950 475 957 467 963 459 967 453 967 449 967 445 961 443 949 443H657C655 431 646 423 630 420V81C630 58 636 42 648 34 660 26 681 22 712 22 743 22 771 24 797 30 822 35 842 52 858 80 873 108 888 148 902 200 903 206 905 209 908 209 911 209 912 205 912 199 908 171 907 146 907 124 907 102 909 81 915 63 921 45 934 29 956 16 968 8 974 0 974-9 974-18 968-30 957-45 945-59 918-71 876-79 834-87 781-91 718-91 654-91 614-89 596-85 578-81 562-76 548-69 534-62 524-51 517-36 509-20 506 4 506 40V443Z"/>
</g>
<g clip-path="url(#clip_112)">
<path transform="matrix(0,-.01,-.01,-0,19.549376,89.74317)" d="M364 633C388 667 413 715 439 777 465 767 490 754 516 739 541 723 554 712 554 705 554 698 547 694 533 693 519 691 504 686 487 677 470 668 429 642 364 598V584H435C459 626 475 647 483 647 489 647 504 635 529 612 553 589 566 573 566 564 566 555 557 551 540 551H364V527C412 518 448 505 474 487 499 469 512 451 512 433 512 414 506 398 494 385 482 372 470 366 457 366 444 366 434 369 427 376 420 382 415 394 411 412 403 448 388 479 364 504V477C364 455 364 431 366 407L367 373C367 367 365 363 362 361 359 359 349 353 331 345 348 337 358 331 360 328 362 325 363 323 363 321 363 314 358 310 348 308 340 306 328 293 314 270H372C384 292 392 306 397 313 402 319 407 323 412 323 416 323 439 311 479 288 559 416 602 594 609 822 650 816 685 810 714 803 742 796 759 791 765 788 771 784 774 780 774 776 774 770 770 765 762 761 754 757 748 751 744 741 739 731 731 710 721 680 711 649 697 612 679 570H810C839 626 858 655 867 655 876 655 892 645 915 626 937 607 954 592 966 581 977 570 983 561 983 553 983 542 976 537 964 537H854C890 529 908 520 908 510 908 504 904 499 896 495 888 491 882 484 878 472 874 460 867 435 859 397 851 358 837 313 817 261 797 209 778 169 758 139 807 93 880 54 976 22 984 19 988 16 988 13 988 9 982 7 971 5 959 3 941-7 917-27 893-47 874-66 862-85 858-91 853-94 849-94 844-94 839-92 835-90 831-87 817-75 795-55 772-35 752-15 734 3 716 22 701 41 688 60 632 6 571-36 505-68 439-99 400-115 389-115 385-115 384-113 384-111 384-108 388-104 396-100 516-33 601 39 651 119 613 190 593 284 590 401 563 359 531 317 495 277 519 264 531 253 531 245 531 236 525 230 515 226 505 222 498 219 494 215 490 211 483 198 472 175 461 152 447 128 429 103 440 99 454 92 471 82 487 72 498 60 504 47 509 34 512 22 512 10 512-2 505-13 493-25 481-37 467-43 453-43 439-43 423-34 405-16 387 1 371 15 357 27 309-10 249-40 176-64 102-88 60-100 48-100 43-100 41-98 41-96 41-94 44-91 52-89 153-49 233 3 291 70 253 89 197 107 123 125 146 165 166 202 184 237H118C104 237 92 233 82 226L55 273C71 271 87 270 105 270H200C210 290 225 324 246 374L257 371V472C223 423 182 381 132 346 82 310 53 293 45 293 43 293 43 293 43 295 43 297 47 303 56 312 118 370 167 450 203 551H118C100 551 86 549 75 546L58 589C72 585 88 584 108 584H257V734C257 767 256 797 255 823 291 819 319 816 340 812 361 808 374 804 378 801 382 798 384 794 384 789 384 784 377 779 364 774V633ZM758 537H664C652 510 636 479 616 444 628 351 654 274 696 212 730 297 751 405 758 537ZM295 237 242 145C273 142 304 137 335 131 354 165 368 200 377 237H295ZM88 751C128 751 163 742 193 726 223 709 239 691 239 671 239 651 234 634 224 622 214 610 202 604 188 604 173 604 162 607 156 613 149 619 145 630 144 646 140 686 121 717 87 741 82 744 80 746 80 748 80 750 82 751 88 751Z"/>
</g>
<g clip-path="url(#clip_113)">
<path transform="matrix(0,-.01,-.01,-0,19.549376,79.74319)" d="M310 781H678C689 799 698 812 706 821 714 830 720 835 726 835 734 835 756 822 792 798 827 773 845 756 845 748 845 739 832 729 808 719V651L810 559C810 549 807 541 801 535 795 529 784 523 767 517 750 511 730 509 707 509 694 509 687 516 687 531H308C308 525 299 519 281 512 263 504 239 501 208 501 198 501 194 504 194 512L196 557C197 577 198 595 198 612V732C198 761 197 790 195 819 239 807 278 794 310 781ZM687 677V748H328C325 740 319 734 309 730V677H687ZM687 564V644H309V564H687ZM740 454H99C85 454 73 450 63 443L37 490C53 488 69 487 87 487H797C806 504 815 520 825 536 835 551 841 561 845 565 848 569 852 571 858 571 863 571 876 562 897 545L954 499C970 485 978 474 978 466 978 458 968 454 949 454H778C838 415 869 390 869 380 869 369 858 360 837 353V253C837 233 837 216 838 202 839 187 840 178 840 175 840 171 838 168 835 164 831 160 819 154 798 146 854 100 883 71 883 59 883 52 875 49 861 49H555V-28H796C812 0 825 17 833 26 841 35 847 40 852 40 856 40 870 32 892 18 914 4 932-9 947-21 961-33 969-43 969-50 969-57 961-61 945-61H134C120-61 108-64 98-72L72-25C88-27 104-28 122-28H443V49H209C195 49 183 45 173 38L147 85C163 83 179 82 197 82H443V150H280C280 142 278 136 274 132 270 128 260 123 243 119 225 115 205 113 182 113 172 113 167 119 168 132 169 145 170 172 170 213V358C170 386 169 414 167 443 203 434 239 423 273 411H714C723 429 732 443 740 454ZM443 378H303C299 366 292 358 280 354V296H443V378ZM718 296V378H574C570 368 564 361 555 357V296H718ZM443 263H280V183H443V263ZM718 183V263H555V183H718ZM770 139C756 137 744 137 734 137 724 137 719 141 718 150H555V82H735C743 98 755 117 770 139Z"/>
</g>
<g clip-path="url(#clip_114)">
<path transform="matrix(1,0,0,-1,0,216)" stroke-width="1.5" stroke-linecap="butt" stroke-dasharray="5.55,2.4" stroke-linejoin="round" fill="none" stroke="#ff0000" d="M68.87331 137.11132H404.35865"/>
</g>
<path transform="matrix(1,0,0,-1,0,216)" stroke-width=".8" stroke-linecap="square" stroke-miterlimit="10" stroke-linejoin="miter" fill="none" stroke="#000000" d="M50.69 41.27375V201.24"/>
<path transform="matrix(1,0,0,-1,0,216)" stroke-width=".8" stroke-linecap="square" stroke-miterlimit="10" stroke-linejoin="miter" fill="none" stroke="#000000" d="M421.2 41.27375V201.24"/>
<path transform="matrix(1,0,0,-1,0,216)" stroke-width=".8" stroke-linecap="square" stroke-miterlimit="10" stroke-linejoin="miter" fill="none" stroke="#000000" d="M50.69 41.27375H421.2"/>
<path transform="matrix(1,0,0,-1,0,216)" stroke-width=".8" stroke-linecap="square" stroke-miterlimit="10" stroke-linejoin="miter" fill="none" stroke="#000000" d="M50.69 201.24H421.2"/>
<g>
<path transform="matrix(1,0,0,-1,0,216)" d="M352.2 164.24H414.2C415.53334 164.24 416.2 164.90666 416.2 166.24V194.24C416.2 195.57334 415.53334 196.24 414.2 196.24H352.2C350.86668 196.24 350.2 195.57334 350.2 194.24V166.24C350.2 164.90666 350.86668 164.24 352.2 164.24Z" fill="#ffffff" fill-opacity=".8"/>
<path transform="matrix(1,0,0,-1,0,216)" stroke-width="1" stroke-linecap="butt" stroke-miterlimit="10" stroke-linejoin="miter" fill="none" stroke="#d5d6d5" stroke-opacity=".8" d="M352.2 164.24H414.2C415.53334 164.24 416.2 164.90666 416.2 166.24V194.24C416.2 195.57334 415.53334 196.24 414.2 196.24H352.2C350.86668 196.24 350.2 195.57334 350.2 194.24V166.24C350.2 164.90666 350.86668 164.24 352.2 164.24Z"/>
</g>
<path transform="matrix(1,0,0,-1,0,216)" stroke-width="1.5" stroke-linecap="butt" stroke-dasharray="5.55,2.4" stroke-linejoin="round" fill="none" stroke="#ff0000" d="M354.2 187.6775H374.2"/>
<g clip-path="url(#clip_115)">
<path transform="matrix(.01,0,0,-.01,382.2,31.822495)" d="M439 700H129C115 700 103 696 93 689L67 736C83 734 99 733 117 733H748C766 766 779 787 786 795 792 803 798 808 802 808 808 808 824 800 850 784 876 768 897 755 911 744 925 733 932 723 932 715 932 705 925 700 911 700H581C579 694 574 691 567 689V319H571C644 406 699 520 736 662 762 652 792 639 828 623 864 607 885 596 891 591 897 586 900 581 900 575 900 569 894 565 883 563 872 561 863 557 855 551 847 545 833 532 814 512 748 443 674 379 590 319H774C786 341 799 362 811 382 823 402 831 414 834 416 836 418 839 420 843 420 847 420 858 413 876 400 894 387 913 373 932 357 951 341 964 329 971 321 978 313 982 306 982 300 982 290 975 286 962 286H567V31C567 9 567-13 569-38L570-72C570-76 569-80 567-82 565-84 557-87 545-92 532-96 514-101 491-105 468-109 452-112 443-112 438-112 436-107 436-97L437-58C438-31 439-1 439 31V286H93C79 286 67 282 57 275L31 322C47 320 63 319 81 319H439V700ZM125 631C137 631 164 623 206 609 248 594 282 572 308 544 334 515 347 480 347 440 347 416 339 396 325 380 310 364 292 356 270 356 257 356 244 361 231 372 218 382 212 404 212 437 212 525 185 585 131 619 123 623 120 626 120 628 120 630 121 631 125 631Z"/>
</g>
<g clip-path="url(#clip_116)">
<path transform="matrix(.01,0,0,-.01,392.2,31.822495)" d="M447 473H302V223L472 255C475 255 477 253 477 251 477 249 472 245 462 240 381 197 305 156 233 116 161 76 121 52 113 46 104 39 98 36 95 36 91 36 89 38 87 43L61 100C46 134 35 159 29 177L186 202V473H83C69 473 57 469 47 462L21 509C37 507 53 506 71 506H186V714C186 747 185 777 184 803 240 797 278 792 300 788 321 783 332 777 332 770 332 763 322 754 302 743V506H338C352 528 362 543 368 552 373 561 379 566 385 566 396 566 420 543 458 499 490 583 512 693 523 830 642 810 702 793 702 779 702 774 696 769 685 764 673 759 663 744 653 720 643 695 627 661 607 617H801C815 644 823 660 827 664 830 668 835 671 841 671 847 671 863 662 891 645 918 627 939 614 953 604 967 594 975 585 975 576 975 566 962 558 937 552 933 448 928 342 922 232 915 122 909 52 903 24 897-4 887-27 872-45 857-63 836-78 808-88 780-98 755-103 732-103 708-103 696-93 694-74 690-46 679-25 659-12 639 1 612 12 576 20 569 21 566 23 566 26 566 29 570 31 578 31L646 29C686 29 715 31 733 37 751 42 764 50 771 60 777 70 782 89 786 118 790 147 794 201 800 281 743 249 686 213 629 173 572 132 537 106 524 94 510 82 502 76 499 76 495 76 492 78 489 82 485 86 475 103 458 133 441 163 429 186 422 203 576 243 703 282 802 320 806 406 809 494 811 584H590C573 552 557 524 542 502 626 498 680 484 703 462 725 439 737 417 737 397 737 377 730 359 716 344 702 328 687 321 670 321 653 321 639 325 629 335 619 345 614 361 614 383 614 405 608 427 597 447 586 467 570 482 549 491 543 493 540 495 540 498 497 436 457 389 421 359 384 329 362 314 354 314 352 314 351 315 351 318 351 321 353 325 358 331 394 373 423 420 447 473Z"/>
</g>
<g clip-path="url(#clip_117)">
<path transform="matrix(.01,0,0,-.01,402.19999,31.822495)" d="M494 523H533V633H383C369 633 357 629 347 622L321 669C337 667 353 666 371 666H534V731C534 761 533 792 532 824 595 818 636 812 656 808 676 803 686 797 686 791 686 785 677 779 660 774L656 666H762C780 704 793 728 801 740 809 751 815 757 820 757 825 757 840 748 865 730 890 712 911 696 928 681 944 666 953 654 953 646 953 637 945 633 930 633H654L650 523H697C715 564 730 585 740 585 744 585 760 576 790 560 820 543 842 529 857 519 871 508 879 500 879 494 879 484 866 476 842 468V2C854 24 863 37 867 42 871 47 875 50 881 50 887 50 899 42 917 27 935 12 952-2 968-16 984-30 992-41 992-50 992-58 985-63 971-63H344C330-63 318-66 308-74L282-27C298-29 314-30 332-30H384V471C384 504 383 534 382 560 432 546 469 534 494 523ZM495 393H718V490H513C508 483 502 479 495 477V393ZM718 360H495V262H718V360ZM718 127V229H495V127H718ZM718-30V94H495V-30H718ZM230 530C273 526 295 519 295 509 295 502 286 496 269 492V-73C269-78 268-82 266-85 264-87 257-91 246-96 235-100 219-104 197-108 175-112 158-114 148-114 143-114 141-110 141-104L144-10C144 18 145 46 145 72V383C134 366 115 343 88 313 60 283 44 269 38 269 36 269 35 270 35 274 35 277 37 282 41 290 83 364 114 442 135 523 155 603 172 701 186 815 232 803 268 793 296 784 324 774 341 768 347 764 353 760 357 755 357 751 357 746 352 743 344 742 335 741 327 735 320 725 313 714 300 686 280 642 260 597 244 560 230 530Z"/>
</g>
<path transform="matrix(1,0,0,-1,0,216)" d="M354.2 169.63063H374.2V176.63063H354.2Z" fill="#1f77b4"/>
<g clip-path="url(#clip_118)">
<path transform="matrix(.01,0,0,-.01,382.2,46.36937)" d="M993 439C993 435 985 430 969 423 953 416 939 406 927 394 915 382 902 361 888 332 884 323 879 319 871 319 863 319 853 322 841 330 829 337 804 355 768 385 731 414 697 450 667 493 636 536 611 582 593 631 574 680 561 722 555 756 548 790 545 810 545 817 545 824 548 828 554 828 563 828 581 824 608 816 634 808 648 801 648 793 648 788 644 784 636 780 614 768 604 759 604 751 604 735 614 709 635 671 655 633 684 599 720 568 756 537 795 511 839 491 883 471 928 456 974 447 986 444 993 441 993 439ZM190 395C166 376 138 358 108 340 77 322 58 313 51 313 47 313 46 314 46 318 46 321 50 326 60 334 118 380 172 445 221 528 270 610 306 698 328 790 367 777 401 764 429 750 457 736 475 726 481 721 487 716 490 711 490 707 490 702 483 699 471 698 459 696 449 693 443 687 436 681 428 670 420 656 367 561 295 477 203 404H601C621 440 636 459 646 459 650 459 664 450 688 433 712 416 732 400 750 385 768 369 777 359 777 354 777 346 765 339 743 333 743 263 737 191 726 118 714 45 702-2 690-25 678-47 658-66 632-80 606-94 575-101 541-101 528-101 519-98 514-94 509-90 506-82 506-72 504-29 473-2 415 9 403 11 398 14 398 18 398 22 408 23 430 21 451 19 474 19 498 19 522 19 540 21 553 27 566 33 576 43 583 59 589 75 596 118 603 188 610 258 613 319 612 371H462C454 363 448 348 445 328 431 240 414 174 393 131 371 87 342 52 306 24 269-4 220-30 158-54 96-78 59-91 49-91 46-91 45-90 45-89 45-85 51-80 65-73 130-37 180-2 216 33 252 69 278 113 294 165 310 217 319 286 321 371H245C231 371 219 367 209 360L190 395Z"/>
</g>
<g clip-path="url(#clip_119)">
<path transform="matrix(.01,0,0,-.01,392.2,46.36937)" d="M345 642H95C81 642 69 638 59 631L33 678C49 676 65 675 83 675H357C374 725 385 779 391 835 412 833 443 828 485 820 526 812 549 806 554 802 559 798 562 793 562 789 562 781 555 775 542 771 529 767 520 757 514 739 508 721 499 700 487 675H780C805 721 820 748 825 756 829 763 834 767 840 767 845 767 856 761 873 750 889 738 909 724 933 706 957 688 971 675 977 669 983 662 986 657 986 653 986 645 978 642 963 642H472C434 566 388 500 334 446 339 444 343 443 346 442H475V445C475 514 474 564 473 595 549 587 592 581 604 578 616 575 622 570 622 564 622 558 614 551 598 544V442H696L728 493C736 507 744 515 754 515 763 515 782 506 812 489L877 451C892 441 900 431 900 420 900 408 889 399 867 392V110C867 84 859 63 844 48 828 32 808 21 782 15 756 8 737 5 724 5 711 5 704 11 702 25 698 50 690 68 678 79 665 90 638 102 598 114V7C598-15 598-33 599-49 600-65 601-74 601-77 601-80 600-83 598-85 596-87 587-91 573-98 558-104 539-109 516-113 493-117 480-119 476-119 472-119 471-117 471-113L473-68C474-50 475-28 475-3V409H354C350 405 346 402 340 400V48C340 40 338 35 336 33 334 31 327 27 317 22 307 16 288 11 261 7 234 2 219 0 215 0 211 0 209 2 209 8L211 53C212 72 213 93 213 115V345C187 327 158 309 128 292 97 274 73 262 56 254 39 246 29 243 27 243 24 243 23 244 23 246 23 248 25 250 29 254 101 304 162 360 213 421 213 446 212 466 210 480 228 476 242 472 252 470 290 523 321 580 345 642ZM598 409V120C641 119 672 119 690 121 708 122 720 125 726 130 731 135 734 144 734 157V409H598Z"/>
</g>
<g clip-path="url(#clip_120)">
<path transform="matrix(.01,0,0,-.01,402.19999,46.36937)" d="M494 523H533V633H383C369 633 357 629 347 622L321 669C337 667 353 666 371 666H534V731C534 761 533 792 532 824 595 818 636 812 656 808 676 803 686 797 686 791 686 785 677 779 660 774L656 666H762C780 704 793 728 801 740 809 751 815 757 820 757 825 757 840 748 865 730 890 712 911 696 928 681 944 666 953 654 953 646 953 637 945 633 930 633H654L650 523H697C715 564 730 585 740 585 744 585 760 576 790 560 820 543 842 529 857 519 871 508 879 500 879 494 879 484 866 476 842 468V2C854 24 863 37 867 42 871 47 875 50 881 50 887 50 899 42 917 27 935 12 952-2 968-16 984-30 992-41 992-50 992-58 985-63 971-63H344C330-63 318-66 308-74L282-27C298-29 314-30 332-30H384V471C384 504 383 534 382 560 432 546 469 534 494 523ZM495 393H718V490H513C508 483 502 479 495 477V393ZM718 360H495V262H718V360ZM718 127V229H495V127H718ZM718-30V94H495V-30H718ZM230 530C273 526 295 519 295 509 295 502 286 496 269 492V-73C269-78 268-82 266-85 264-87 257-91 246-96 235-100 219-104 197-108 175-112 158-114 148-114 143-114 141-110 141-104L144-10C144 18 145 46 145 72V383C134 366 115 343 88 313 60 283 44 269 38 269 36 269 35 270 35 274 35 277 37 282 41 290 83 364 114 442 135 523 155 603 172 701 186 815 232 803 268 793 296 784 324 774 341 768 347 764 353 760 357 755 357 751 357 746 352 743 344 742 335 741 327 735 320 725 313 714 300 686 280 642 260 597 244 560 230 530Z"/>
</g>
</g>
</svg>
