<svg xmlns="http://www.w3.org/2000/svg" xmlns:xlink="http://www.w3.org/1999/xlink" version="1.1" width="432pt" height="216pt" viewBox="0 0 432 216">
<defs>
<clipPath id="clip_0">
<path transform="matrix(1,0,0,-1,0,216)" d="M45.2225 41.27375H421.2V205.20001H45.2225Z"/>
</clipPath>
<g id="font_1_48">
<path transform="matrix(.001,0,0,.001,0,0)" d="M237 695C265 695 293 686 319 669 345 652 368 629 388 600 408 570 423 536 435 496 447 456 453 414 453 369 453 324 447 282 436 243 424 203 409 169 389 139 369 109 347 86 321 69 295 52 267 44 238 44 209 44 181 52 155 69 129 85 106 108 86 137 66 166 50 200 38 240 26 280 21 322 21 368 21 414 26 457 38 497 50 537 65 571 85 601 105 630 128 653 154 670 180 686 207 695 237 695ZM237 81C273 81 298 104 312 151 325 197 332 270 332 369 332 467 325 540 311 587 297 634 273 658 237 658 201 658 176 634 162 588 148 541 142 468 142 369 142 177 173 81 237 81Z"/>
</g>
<clipPath id="clip_2">
<path transform="matrix(1,0,0,-1,0,216)" d="M45.2225 41.27375H421.2V205.20001H45.2225Z"/>
</clipPath>
<g id="font_1_50">
<path transform="matrix(.001,0,0,.001,0,0)" d="M426 57C402 57 376 58 348 59 320 59 284 60 241 60 197 60 157 59 121 59 85 59 56 58 33 57 35 73 37 88 41 103 44 117 50 133 59 149 67 165 79 183 94 203 109 222 129 245 155 271L192 309C218 335 238 357 254 377 269 396 281 413 289 429 297 445 302 460 304 474 306 488 307 503 307 519 307 550 297 575 278 594 258 612 232 622 200 622 166 622 138 611 116 589 94 567 80 535 72 494L41 506C50 567 72 614 108 646 144 678 188 695 242 695 266 695 288 691 310 685 331 678 350 668 366 655 382 642 394 626 404 607 414 588 419 566 419 542 419 516 414 492 405 470 395 448 383 427 367 407 351 387 332 369 311 351 290 333 268 315 246 298L216 274C198 260 180 243 161 223 141 203 123 179 107 153H324C340 153 353 154 362 158 370 161 377 166 382 174 387 182 391 191 395 203 399 215 404 229 410 245H441L426 57Z"/>
</g>
<clipPath id="clip_3">
<path transform="matrix(1,0,0,-1,0,216)" d="M45.2225 41.27375H421.2V205.20001H45.2225Z"/>
</clipPath>
<g id="font_1_52">
<path transform="matrix(.001,0,0,.001,0,0)" d="M326 695H373V288H456V224H373V44H261V224H19V275L151 455C181 495 210 535 239 575 267 615 296 655 326 695ZM261 288V542C238 510 218 483 201 460 184 436 169 415 155 396 141 377 127 359 115 342 103 324 90 306 77 288H261Z"/>
</g>
<clipPath id="clip_4">
<path transform="matrix(1,0,0,-1,0,216)" d="M45.2225 41.27375H421.2V205.20001H45.2225Z"/>
</clipPath>
<g id="font_1_54">
<path transform="matrix(.001,0,0,.001,0,0)" d="M384 698 392 679C353 657 318 635 288 613 258 591 232 565 212 536 191 506 175 471 165 431 154 391 149 342 149 285 149 266 150 245 152 221 154 197 158 174 164 152 170 130 180 112 193 98 205 83 222 76 244 76 271 76 293 89 310 115 327 141 336 184 336 244 336 294 328 331 312 356 296 381 273 394 243 394 230 394 218 391 206 386L198 412C208 416 219 420 231 422 243 424 257 426 273 426 328 426 370 410 400 379 429 347 444 306 444 254 444 222 438 193 427 167 416 141 401 119 383 101 364 83 342 69 318 59 293 49 267 44 239 44 203 44 173 50 147 63 121 75 100 93 83 115 66 137 54 164 46 194 38 224 34 256 34 291 34 349 43 401 61 447 79 493 104 532 136 566 168 599 205 626 248 648 290 670 336 686 384 698Z"/>
</g>
<clipPath id="clip_5">
<path transform="matrix(1,0,0,-1,0,216)" d="M45.2225 41.27375H421.2V205.20001H45.2225Z"/>
</clipPath>
<g id="font_1_56">
<path transform="matrix(.001,0,0,.001,0,0)" d="M167 370C85 410 44 465 44 535 44 555 48 575 57 594 66 613 79 630 96 645 113 660 133 672 157 681 180 690 206 695 236 695 262 695 285 691 307 684 329 676 347 666 363 654 379 641 391 626 400 609 408 592 413 574 413 555 413 535 410 519 404 505 398 491 391 478 381 467 371 456 358 446 344 436 329 426 313 416 295 406 327 390 353 374 372 359 390 343 404 328 413 313 422 298 428 283 430 268 432 253 433 238 433 224 433 198 427 175 416 153 405 131 390 112 372 96 354 80 332 67 308 58 283 48 257 44 229 44 199 44 172 48 148 56 124 64 103 76 86 90 68 104 55 120 46 139 36 158 32 178 32 200 32 216 34 231 38 247 42 263 50 278 61 293 71 307 85 321 103 334 120 346 141 358 167 370ZM263 423C287 438 305 456 316 476 326 496 332 521 332 551 332 582 323 608 307 628 291 648 265 658 230 658 197 658 173 648 158 630 142 612 135 589 135 562 135 534 144 510 163 488 182 466 215 445 263 423ZM196 354C180 344 168 334 158 324 148 314 140 303 134 291 128 279 124 267 122 253 120 239 119 224 119 208 119 167 130 135 152 111 174 87 203 75 237 75 304 75 338 114 338 193 338 211 335 228 329 243 323 257 315 271 303 284 291 296 277 308 259 320 241 331 220 342 196 354Z"/>
</g>
<clipPath id="clip_6">
<path transform="matrix(1,0,0,-1,0,216)" d="M45.2225 41.27375H421.2V205.20001H45.2225Z"/>
</clipPath>
<g id="font_1_49">
<path transform="matrix(.001,0,0,.001,0,0)" d="M385 57C367 57 345 58 319 59 293 59 266 60 238 60 210 60 182 59 156 59 130 58 108 57 91 57V86L153 95C176 100 188 113 188 134V600L69 523 52 554C63 561 77 570 95 581 112 591 130 603 150 616 169 628 188 641 208 655 227 668 245 681 261 695H294V134C294 110 305 97 329 94L385 86V57Z"/>
</g>
<g id="font_1_47">
<path transform="matrix(.001,0,0,.001,0,0)" d="M380 756H463L119-74H37L380 756Z"/>
</g>
<clipPath id="clip_7">
<path transform="matrix(.01,0,0,-.01,188.21125,202.42938)" d="M-99-150H1032V860H-99Z"/>
</clipPath>
<clipPath id="clip_8">
<path transform="matrix(.01,0,0,-.01,198.21123,202.42938)" d="M-99-150H1032V860H-99Z"/>
</clipPath>
<clipPath id="clip_9">
<path transform="matrix(.01,0,0,-.01,213.2112,202.42938)" d="M-99-150H1032V860H-99Z"/>
</clipPath>
<clipPath id="clip_10">
<path transform="matrix(.01,0,0,-.01,223.21118,202.42938)" d="M-99-150H1032V860H-99Z"/>
</clipPath>
<clipPath id="clip_11">
<path transform="matrix(.01,0,0,-.01,238.21115,202.42938)" d="M-99-150H1032V860H-99Z"/>
</clipPath>
<clipPath id="clip_12">
<path transform="matrix(.01,0,0,-.01,248.21114,202.42938)" d="M-99-150H1032V860H-99Z"/>
</clipPath>
<clipPath id="clip_13">
<path transform="matrix(.01,0,0,-.01,258.21113,202.42938)" d="M-99-150H1032V860H-99Z"/>
</clipPath>
<clipPath id="clip_14">
<path transform="matrix(.01,0,0,-.01,268.21113,202.42938)" d="M-99-150H1032V860H-99Z"/>
</clipPath>
<clipPath id="clip_15">
<path transform="matrix(1,0,0,-1,0,216)" d="M45.2225 41.27375H421.2V205.20001H45.2225Z"/>
</clipPath>
<clipPath id="clip_16">
<path transform="matrix(1,0,0,-1,0,216)" d="M45.2225 41.27375H421.2V205.20001H45.2225Z"/>
</clipPath>
<clipPath id="clip_17">
<path transform="matrix(1,0,0,-1,0,216)" d="M45.2225 41.27375H421.2V205.20001H45.2225Z"/>
</clipPath>
<clipPath id="clip_18">
<path transform="matrix(1,0,0,-1,0,216)" d="M45.2225 41.27375H421.2V205.20001H45.2225Z"/>
</clipPath>
<clipPath id="clip_19">
<path transform="matrix(1,0,0,-1,0,216)" d="M45.2225 41.27375H421.2V205.20001H45.2225Z"/>
</clipPath>
<clipPath id="clip_20">
<path transform="matrix(1,0,0,-1,0,216)" d="M45.2225 41.27375H421.2V205.20001H45.2225Z"/>
</clipPath>
<clipPath id="clip_21">
<path transform="matrix(0,-.01,-.01,-0,18.769375,107.76312)" d="M-99-150H1032V860H-99Z"/>
</clipPath>
<clipPath id="clip_22">
<path transform="matrix(0,-.01,-.01,-0,18.769375,97.76314)" d="M-99-150H1032V860H-99Z"/>
</clipPath>
<clipPath id="clip_23">
<path transform="matrix(0,-.01,-.01,-0,18.769375,87.76315)" d="M-99-150H1032V860H-99Z"/>
</clipPath>
<clipPath id="clip_24">
<path transform="matrix(1,0,0,-1,0,216)" d="M45.2225 41.27375H421.2V205.20001H45.2225Z"/>
</clipPath>
<clipPath id="clip_25">
<path transform="matrix(1,0,0,-1,0,216)" d="M45.2225 41.27375H421.2V205.20001H45.2225Z"/>
</clipPath>
<clipPath id="clip_26">
<path transform="matrix(1,0,0,-1,62.312387,167.27506)" d="M-8-8H8V8H-8Z"/>
</clipPath>
<clipPath id="clip_27">
<path transform="matrix(1,0,0,-1,127.90993,140.83483)" d="M-8-8H8V8H-8Z"/>
</clipPath>
<clipPath id="clip_28">
<path transform="matrix(1,0,0,-1,196.95998,113.43339)" d="M-8-8H8V8H-8Z"/>
</clipPath>
<clipPath id="clip_29">
<path transform="matrix(1,0,0,-1,266.01,88.38686)" d="M-8-8H8V8H-8Z"/>
</clipPath>
<clipPath id="clip_30">
<path transform="matrix(1,0,0,-1,335.06007,59.304098)" d="M-8-8H8V8H-8Z"/>
</clipPath>
<clipPath id="clip_31">
<path transform="matrix(1,0,0,-1,404.1101,32.25641)" d="M-8-8H8V8H-8Z"/>
</clipPath>
<clipPath id="clip_32">
<path transform="matrix(1,0,0,-1,0,216)" d="M45.2225 41.27375H421.2V205.20001H45.2225Z"/>
</clipPath>
<clipPath id="clip_33">
<path transform="matrix(1,0,0,-1,62.312387,167.27506)" d="M-8-8H8V8H-8Z"/>
</clipPath>
<clipPath id="clip_34">
<path transform="matrix(1,0,0,-1,127.90993,140.9426)" d="M-8-8H8V8H-8Z"/>
</clipPath>
<clipPath id="clip_35">
<path transform="matrix(1,0,0,-1,196.95998,114.21104)" d="M-8-8H8V8H-8Z"/>
</clipPath>
<clipPath id="clip_36">
<path transform="matrix(1,0,0,-1,266.01,89.97329)" d="M-8-8H8V8H-8Z"/>
</clipPath>
<clipPath id="clip_37">
<path transform="matrix(1,0,0,-1,335.06007,62.644296)" d="M-8-8H8V8H-8Z"/>
</clipPath>
<clipPath id="clip_38">
<path transform="matrix(1,0,0,-1,404.1101,37.7996)" d="M-8-8H8V8H-8Z"/>
</clipPath>
<clipPath id="clip_39">
<path transform="matrix(.01,0,0,-.01,82.2225,27.800004)" d="M-99-150H1032V860H-99Z"/>
</clipPath>
<clipPath id="clip_40">
<path transform="matrix(.01,0,0,-.01,92.22249,27.800004)" d="M-99-150H1032V860H-99Z"/>
</clipPath>
<clipPath id="clip_41">
<path transform="matrix(.01,0,0,-.01,102.22247,27.800004)" d="M-99-150H1032V860H-99Z"/>
</clipPath>
<clipPath id="clip_42">
<path transform="matrix(.01,0,0,-.01,82.2225,42.175004)" d="M-99-150H1032V860H-99Z"/>
</clipPath>
<clipPath id="clip_43">
<path transform="matrix(.01,0,0,-.01,92.22249,42.175004)" d="M-99-150H1032V860H-99Z"/>
</clipPath>
<clipPath id="clip_44">
<path transform="matrix(.01,0,0,-.01,102.22247,42.175004)" d="M-99-150H1032V860H-99Z"/>
</clipPath>
<clipPath id="clip_45">
<path transform="matrix(.01,0,0,-.01,82.2225,56.675004)" d="M-99-150H1032V860H-99Z"/>
</clipPath>
<clipPath id="clip_46">
<path transform="matrix(.01,0,0,-.01,92.22249,56.675004)" d="M-99-150H1032V860H-99Z"/>
</clipPath>
<clipPath id="clip_47">
<path transform="matrix(.01,0,0,-.01,102.22247,56.675004)" d="M-99-150H1032V860H-99Z"/>
</clipPath>
</defs>
<g>
<path transform="matrix(1,0,0,-1,0,216)" d="M0 0H432V216H0Z" fill="#ffffff"/>
<path transform="matrix(1,0,0,-1,0,216)" d="M45.2225 41.27375H421.2V205.2H45.2225Z" fill="#ffffff"/>
<g clip-path="url(#clip_0)">
<path transform="matrix(1,0,0,-1,0,216)" stroke-width=".8" stroke-linecap="square" stroke-linejoin="round" fill="none" stroke="#bebebe" d="M58.859884 41.27375V205.2"/>
</g>
<path transform="matrix(1,0,0,-1,0,216)" d="M58.859884 41.27375V37.77375"/>
<path transform="matrix(1,0,0,-1,0,216)" stroke-width=".8" stroke-linecap="butt" stroke-linejoin="round" fill="none" stroke="#000000" d="M58.859884 41.27375V37.77375"/>
<use data-text="0" xlink:href="#font_1_48" transform="matrix(10,0,0,-10,56.516134,188.92938)"/>
<g clip-path="url(#clip_2)">
<path transform="matrix(1,0,0,-1,0,216)" stroke-width=".8" stroke-linecap="square" stroke-linejoin="round" fill="none" stroke="#bebebe" d="M127.90993 41.27375V205.2"/>
</g>
<path transform="matrix(1,0,0,-1,0,216)" d="M127.90993 41.27375V37.77375"/>
<path transform="matrix(1,0,0,-1,0,216)" stroke-width=".8" stroke-linecap="butt" stroke-linejoin="round" fill="none" stroke="#000000" d="M127.90993 41.27375V37.77375"/>
<use data-text="2" xlink:href="#font_1_50" transform="matrix(10,0,0,-10,123.22243,188.92938)"/>
<use data-text="0" xlink:href="#font_1_48" transform="matrix(10,0,0,-10,127.91243,188.92938)"/>
<g clip-path="url(#clip_3)">
<path transform="matrix(1,0,0,-1,0,216)" stroke-width=".8" stroke-linecap="square" stroke-linejoin="round" fill="none" stroke="#bebebe" d="M196.95998 41.27375V205.2"/>
</g>
<path transform="matrix(1,0,0,-1,0,216)" d="M196.95998 41.27375V37.77375"/>
<path transform="matrix(1,0,0,-1,0,216)" stroke-width=".8" stroke-linecap="butt" stroke-linejoin="round" fill="none" stroke="#000000" d="M196.95998 41.27375V37.77375"/>
<use data-text="4" xlink:href="#font_1_52" transform="matrix(10,0,0,-10,192.27248,188.92938)"/>
<use data-text="0" xlink:href="#font_1_48" transform="matrix(10,0,0,-10,196.96248,188.92938)"/>
<g clip-path="url(#clip_4)">
<path transform="matrix(1,0,0,-1,0,216)" stroke-width=".8" stroke-linecap="square" stroke-linejoin="round" fill="none" stroke="#bebebe" d="M266.01 41.27375V205.2"/>
</g>
<path transform="matrix(1,0,0,-1,0,216)" d="M266.01 41.27375V37.77375"/>
<path transform="matrix(1,0,0,-1,0,216)" stroke-width=".8" stroke-linecap="butt" stroke-linejoin="round" fill="none" stroke="#000000" d="M266.01 41.27375V37.77375"/>
<use data-text="6" xlink:href="#font_1_54" transform="matrix(10,0,0,-10,261.3225,188.92938)"/>
<use data-text="0" xlink:href="#font_1_48" transform="matrix(10,0,0,-10,266.0125,188.92938)"/>
<g clip-path="url(#clip_5)">
<path transform="matrix(1,0,0,-1,0,216)" stroke-width=".8" stroke-linecap="square" stroke-linejoin="round" fill="none" stroke="#bebebe" d="M335.06007 41.27375V205.2"/>
</g>
<path transform="matrix(1,0,0,-1,0,216)" d="M335.06007 41.27375V37.77375"/>
<path transform="matrix(1,0,0,-1,0,216)" stroke-width=".8" stroke-linecap="butt" stroke-linejoin="round" fill="none" stroke="#000000" d="M335.06007 41.27375V37.77375"/>
<use data-text="8" xlink:href="#font_1_56" transform="matrix(10,0,0,-10,330.37257,188.92938)"/>
<use data-text="0" xlink:href="#font_1_48" transform="matrix(10,0,0,-10,335.06257,188.92938)"/>
<g clip-path="url(#clip_6)">
<path transform="matrix(1,0,0,-1,0,216)" stroke-width=".8" stroke-linecap="square" stroke-linejoin="round" fill="none" stroke="#bebebe" d="M404.1101 41.27375V205.2"/>
</g>
<path transform="matrix(1,0,0,-1,0,216)" d="M404.1101 41.27375V37.77375"/>
<path transform="matrix(1,0,0,-1,0,216)" stroke-width=".8" stroke-linecap="butt" stroke-linejoin="round" fill="none" stroke="#000000" d="M404.1101 41.27375V37.77375"/>
<use data-text="1" xlink:href="#font_1_49" transform="matrix(10,0,0,-10,397.07887,188.92938)"/>
<use data-text="0" xlink:href="#font_1_48" transform="matrix(10,0,0,-10,401.76887,188.92938)"/>
<use data-text="0" xlink:href="#font_1_48" transform="matrix(10,0,0,-10,406.45887,188.92938)"/>
<use data-text="/" xlink:href="#font_1_47" transform="matrix(10,0,0,-10,208.21121,202.42938)"/>
<use data-text="/" xlink:href="#font_1_47" transform="matrix(10,0,0,-10,233.21117,202.42938)"/>
<g clip-path="url(#clip_7)">
<path transform="matrix(.01,0,0,-.01,188.21125,202.42938)" d="M993 439C993 435 985 430 969 423 953 416 939 406 927 394 915 382 902 361 888 332 884 323 879 319 871 319 863 319 853 322 841 330 829 337 804 355 768 385 731 414 697 450 667 493 636 536 611 582 593 631 574 680 561 722 555 756 548 790 545 810 545 817 545 824 548 828 554 828 563 828 581 824 608 816 634 808 648 801 648 793 648 788 644 784 636 780 614 768 604 759 604 751 604 735 614 709 635 671 655 633 684 599 720 568 756 537 795 511 839 491 883 471 928 456 974 447 986 444 993 441 993 439ZM190 395C166 376 138 358 108 340 77 322 58 313 51 313 47 313 46 314 46 318 46 321 50 326 60 334 118 380 172 445 221 528 270 610 306 698 328 790 367 777 401 764 429 750 457 736 475 726 481 721 487 716 490 711 490 707 490 702 483 699 471 698 459 696 449 693 443 687 436 681 428 670 420 656 367 561 295 477 203 404H601C621 440 636 459 646 459 650 459 664 450 688 433 712 416 732 400 750 385 768 369 777 359 777 354 777 346 765 339 743 333 743 263 737 191 726 118 714 45 702-2 690-25 678-47 658-66 632-80 606-94 575-101 541-101 528-101 519-98 514-94 509-90 506-82 506-72 504-29 473-2 415 9 403 11 398 14 398 18 398 22 408 23 430 21 451 19 474 19 498 19 522 19 540 21 553 27 566 33 576 43 583 59 589 75 596 118 603 188 610 258 613 319 612 371H462C454 363 448 348 445 328 431 240 414 174 393 131 371 87 342 52 306 24 269-4 220-30 158-54 96-78 59-91 49-91 46-91 45-90 45-89 45-85 51-80 65-73 130-37 180-2 216 33 252 69 278 113 294 165 310 217 319 286 321 371H245C231 371 219 367 209 360L190 395Z"/>
</g>
<g clip-path="url(#clip_8)">
<path transform="matrix(.01,0,0,-.01,198.21123,202.42938)" d="M511 544H460C446 544 434 540 424 533L398 580C414 578 430 577 448 577H511C511 650 510 731 508 820 528 818 555 814 591 808 626 802 647 796 655 792 662 788 666 783 666 778 666 772 662 768 656 765 649 762 645 758 643 752 641 746 639 726 638 694L632 577H697C711 603 722 620 728 628 734 636 738 641 742 641 748 641 767 631 799 612 831 593 852 580 862 572 872 564 877 557 877 552 877 543 863 536 837 531V310C855 340 866 358 871 364 875 370 879 374 883 374 890 374 907 360 934 333 960 306 974 289 974 283 974 276 967 273 955 273H666C724 134 822 46 962 10 969 8 973 5 973 3 973 1 970-1 965-3 937-14 917-25 903-35 889-45 873-63 854-90 848-97 842-101 838-101 824-101 788-69 731-7 674 55 644 148 640 273H612C604 218 588 169 566 127 543 85 511 48 470 16 429-16 374-44 304-69 234-94 187-107 161-107 156-107 154-105 154-102 154-99 158-96 168-92 279-48 360 1 410 57 460 112 489 184 499 273H390C376 273 364 269 354 262L328 309C344 307 360 306 378 306H502C507 368 510 447 511 544ZM714 306V544H630C624 409 620 330 616 306H714ZM155 473H93C79 473 67 469 57 462L31 509C47 507 63 506 81 506H155V723C155 756 154 786 153 812 187 808 219 803 248 798 276 793 293 789 297 786 301 782 304 779 304 775 304 766 293 758 272 750V506H310C332 547 347 568 355 568 362 568 374 561 390 548 406 534 421 523 434 513 447 503 454 495 454 487 454 477 446 473 431 473H272V203L445 228C451 228 454 226 454 224 454 221 447 217 435 211 355 173 279 137 207 101 135 65 96 44 88 39 80 33 75 31 73 31 70 31 67 32 65 36 63 40 56 58 46 91 35 124 27 154 23 180 76 183 120 186 155 190V473Z"/>
</g>
<g clip-path="url(#clip_9)">
<path transform="matrix(.01,0,0,-.01,213.2112,202.42938)" d="M446 564H391C377 564 365 560 355 553L326 600C342 598 359 597 379 597H446C446 655 446 728 444 818 518 808 561 802 573 798 585 794 591 788 591 782 591 775 588 769 582 765 576 761 572 755 570 748 568 740 568 726 568 705 568 684 567 648 566 597H668V770C668 784 667 802 666 823 705 821 737 818 763 814 788 810 803 807 808 803 813 799 816 795 816 791 816 782 809 774 796 768V597H802C816 622 826 640 833 650 839 660 845 665 850 665 855 665 866 658 883 645 899 631 915 617 930 602 945 587 953 577 953 573 953 567 947 564 935 564H796V372H814C820 382 829 395 841 410 853 425 860 434 862 436 864 438 868 439 872 439 876 439 887 431 907 417 927 402 944 388 959 375 973 361 981 352 981 347 981 341 974 339 962 339H796V123C796 109 796 99 797 93L798 76C798 68 789 61 771 53 753 45 733 41 709 41 685 41 673 41 671 43 669 45 668 48 668 52V339H553C546 270 526 212 494 166 462 120 413 80 347 47 380 28 439 19 524 19 608 19 678 19 732 21 786 22 835 24 877 28L971 34C977 34 981 32 981 30 981 27 977 23 969 19 933 0 908-35 896-85 894-92 891-96 885-97 879-98 831-99 741-99 651-99 580-97 530-93 479-89 441-83 417-76 392-69 369-58 348-42 327-26 298 0 262 39 248 53 239 61 233 61H227C216 61 182 16 124-72 120-78 116-82 113-82 106-82 78-45 30 27 86 65 129 93 159 109V407H96C78 407 64 404 54 400L33 445C47 441 63 440 83 440H147C148 444 153 453 162 467 171 481 177 490 180 492 183 494 186 496 190 496 198 496 221 485 257 463 293 441 311 426 311 418 311 410 301 403 281 396V95C292 85 306 73 323 61 363 97 392 134 408 174 424 214 435 269 440 339H368C354 339 342 335 332 328L303 375C319 373 336 372 356 372H442C444 444 446 508 446 564ZM668 564H565L556 372H668V564ZM82 782C111 782 143 776 179 766 214 756 242 741 262 721 282 701 292 679 292 653 292 627 284 607 268 594 252 581 232 575 208 575 192 575 180 580 170 592 160 603 155 621 155 646 154 670 148 693 138 713 128 733 114 748 97 759 80 770 72 777 72 779 72 781 75 782 82 782Z"/>
</g>
<g clip-path="url(#clip_10)">
<path transform="matrix(.01,0,0,-.01,223.21118,202.42938)" d="M176 685C102 680 57 678 41 678 24 678 16 679 16 682 16 684 25 688 44 694 174 731 274 771 345 815 417 753 454 716 454 706 454 699 448 696 436 698 424 700 408 701 390 701 371 701 342 699 304 696 300 691 294 686 284 682V533H327C346 566 358 585 362 590 366 595 370 598 374 598 378 598 382 596 386 594 390 591 401 582 419 568 436 554 449 542 459 533V726C459 754 458 782 456 811 510 797 553 782 587 768H730C746 798 755 816 759 820 762 824 766 826 771 826 779 826 805 812 847 784 889 756 911 737 911 725 911 713 898 703 873 697V543C873 531 873 521 874 513L876 491C876 486 873 482 869 480 865 477 854 473 837 467 820 461 803 458 785 458 767 458 757 458 754 459 750 459 749 464 749 473V490H576V475C576 470 575 466 573 464 571 462 565 458 553 454 541 450 527 447 513 445 498 443 481 442 463 442 459 442 457 444 457 448L459 500H284V446C350 428 393 406 415 380H793C798 390 806 403 816 419 826 435 833 444 836 447 839 449 842 451 846 451 852 451 873 437 907 410 941 383 958 366 958 358 958 350 951 347 937 347H734C731 339 725 333 715 329V194H778C784 206 791 218 801 232 811 246 817 254 819 256 821 258 824 259 828 259 836 259 855 246 885 221 915 195 930 179 930 172 930 164 923 161 909 161H715V-14H794C796-8 805 5 820 27 834 49 843 61 846 63 849 65 852 66 855 66 864 66 887 51 923 21 959-9 977-27 977-35 977-43 970-47 956-47H415C401-47 389-50 379-58L353-11C369-13 385-14 403-14H592V161H506C492 161 480 157 470 150L444 197C460 195 476 194 494 194H592V347H432C434 339 435 331 435 323 435 303 428 286 416 272 403 258 389 252 373 252 357 252 345 256 337 266 329 275 326 288 326 306 326 365 312 407 284 433V-69C284-73 283-77 281-79 279-81 274-85 264-91 254-96 242-100 230-103 217-105 202-107 185-107 177-107 173-103 173-95L175-54C175-26 176 3 176 35V270C152 229 121 190 84 154 46 118 25 100 19 100 17 100 16 101 16 105 16 109 18 114 22 121 97 239 143 366 161 500H70C56 500 44 496 34 489L8 536C24 534 40 533 58 533H176V685ZM749 523V735H599C593 728 585 723 576 719V523H749Z"/>
</g>
<g clip-path="url(#clip_11)">
<path transform="matrix(.01,0,0,-.01,238.21115,202.42938)" d="M397 635H788C817 689 838 716 852 716 860 716 874 707 894 691 914 675 932 660 947 647 961 633 969 622 969 614 969 605 963 601 951 601H667C702 588 720 577 720 568 720 561 713 557 700 555 686 553 670 547 650 535 630 523 606 504 578 479L494 405 667 408C695 449 716 491 732 534 770 514 802 494 828 476 854 457 867 445 867 440 867 434 860 430 848 428 836 426 824 420 813 410 802 400 788 385 772 364 735 317 688 274 631 235 574 195 512 162 446 135 380 107 342 94 333 94 329 94 328 95 328 97 328 99 330 101 334 104 466 187 569 277 642 373 569 348 512 322 471 296 468 294 465 293 461 293 457 293 452 296 448 303 444 310 434 336 419 382 413 370 405 360 395 354 385 347 374 344 363 344 333 344 319 362 319 400 319 444 309 476 291 496V-74C291-80 287-86 281-90 274-94 261-99 243-104 225-108 207-111 191-111 185-111 182-107 182-100L184-59C184-31 185 0 185 33V330C166 284 137 237 97 187 57 137 34 113 29 113 27 113 27 114 27 116 27 118 29 122 33 129 71 199 100 267 120 335 140 402 156 478 167 564H95C81 564 69 560 59 553L33 600C49 598 65 597 83 597H185V713C185 757 184 795 182 827 226 825 260 822 284 818 308 814 320 808 320 802 320 795 310 787 291 778V597H301C312 619 322 636 330 648 338 660 346 667 352 667 360 667 375 656 397 635ZM554 601H432C442 591 448 583 448 575 448 567 441 564 427 564H291V517C335 506 368 493 389 479 409 464 421 445 423 421 438 425 450 431 459 440 467 448 482 469 502 503 522 536 539 569 554 601ZM546 814C613 814 660 805 688 788 715 770 729 745 729 712 729 693 722 677 709 664 696 650 680 644 660 644 640 644 625 649 614 660 602 671 597 688 597 710 597 732 593 751 585 766 577 781 563 794 544 804 538 807 535 809 535 811 535 813 538 814 546 814ZM742 94C670 38 586-3 491-33 395-63 340-78 324-78 320-78 319-76 319-74 319-72 321-70 327-68 449-13 546 45 616 109 686 172 743 247 787 334 807 323 830 309 858 293 886 276 902 265 907 260 912 254 915 250 915 246 915 238 908 233 894 232 888 231 880 227 872 220 864 213 848 197 825 172 802 147 785 130 775 121 874 102 924 61 924-1 924-23 917-41 904-53 890-65 876-71 862-71 847-71 834-65 822-55 810-45 802-32 799-16 789 34 770 71 742 94Z"/>
</g>
<g clip-path="url(#clip_12)">
<path transform="matrix(.01,0,0,-.01,248.21114,202.42938)" d="M398 766C416 766 448 756 496 738 543 720 579 696 603 667 627 637 640 605 640 571 640 549 631 528 614 507 596 486 578 476 558 476 522 476 504 495 502 534 498 594 490 640 478 670 466 700 440 727 402 753 395 757 392 760 392 762 392 764 394 766 398 766ZM428 495V125C428 101 434 86 446 79 458 71 491 68 545 68 569 68 592 69 612 71 632 73 646 76 654 80 662 84 669 91 677 103 684 114 691 131 698 154 705 177 712 202 718 228 724 254 727 267 729 267 730 267 731 263 731 256L730 200C730 163 734 137 744 122 753 107 772 93 801 80 810 75 815 64 815 48 815 19 798-4 765-23 732-42 662-52 554-52 486-52 441-49 417-44 393-39 373-31 356-21 338-10 325 5 316 27 307 49 303 79 303 119V470C303 497 302 524 300 552 335 548 366 544 394 539 422 534 439 530 445 527 451 523 454 519 454 515 454 507 445 500 428 495ZM733 529C738 529 760 516 798 492 836 467 868 441 892 415 916 388 932 362 942 336 952 310 957 286 957 264 957 241 948 220 932 200 915 180 896 171 876 171 856 171 839 177 827 189 814 201 808 216 808 236L809 286C809 338 804 380 794 412 784 444 765 477 738 511 732 517 730 522 730 525 730 527 731 529 733 529ZM165 499C169 499 182 476 203 431 223 385 234 341 234 298 234 254 224 220 204 194 184 168 161 156 135 156 116 156 100 162 87 174 73 186 67 201 67 219 67 237 74 254 89 270 117 300 137 327 148 351 159 375 165 403 165 437L162 491C162 496 163 499 165 499Z"/>
</g>
<g clip-path="url(#clip_13)">
<path transform="matrix(.01,0,0,-.01,258.21113,202.42938)" d="M364 633C388 667 413 715 439 777 465 767 490 754 516 739 541 723 554 712 554 705 554 698 547 694 533 693 519 691 504 686 487 677 470 668 429 642 364 598V584H435C459 626 475 647 483 647 489 647 504 635 529 612 553 589 566 573 566 564 566 555 557 551 540 551H364V527C412 518 448 505 474 487 499 469 512 451 512 433 512 414 506 398 494 385 482 372 470 366 457 366 444 366 434 369 427 376 420 382 415 394 411 412 403 448 388 479 364 504V477C364 455 364 431 366 407L367 373C367 367 365 363 362 361 359 359 349 353 331 345 348 337 358 331 360 328 362 325 363 323 363 321 363 314 358 310 348 308 340 306 328 293 314 270H372C384 292 392 306 397 313 402 319 407 323 412 323 416 323 439 311 479 288 559 416 602 594 609 822 650 816 685 810 714 803 742 796 759 791 765 788 771 784 774 780 774 776 774 770 770 765 762 761 754 757 748 751 744 741 739 731 731 710 721 680 711 649 697 612 679 570H810C839 626 858 655 867 655 876 655 892 645 915 626 937 607 954 592 966 581 977 570 983 561 983 553 983 542 976 537 964 537H854C890 529 908 520 908 510 908 504 904 499 896 495 888 491 882 484 878 472 874 460 867 435 859 397 851 358 837 313 817 261 797 209 778 169 758 139 807 93 880 54 976 22 984 19 988 16 988 13 988 9 982 7 971 5 959 3 941-7 917-27 893-47 874-66 862-85 858-91 853-94 849-94 844-94 839-92 835-90 831-87 817-75 795-55 772-35 752-15 734 3 716 22 701 41 688 60 632 6 571-36 505-68 439-99 400-115 389-115 385-115 384-113 384-111 384-108 388-104 396-100 516-33 601 39 651 119 613 190 593 284 590 401 563 359 531 317 495 277 519 264 531 253 531 245 531 236 525 230 515 226 505 222 498 219 494 215 490 211 483 198 472 175 461 152 447 128 429 103 440 99 454 92 471 82 487 72 498 60 504 47 509 34 512 22 512 10 512-2 505-13 493-25 481-37 467-43 453-43 439-43 423-34 405-16 387 1 371 15 357 27 309-10 249-40 176-64 102-88 60-100 48-100 43-100 41-98 41-96 41-94 44-91 52-89 153-49 233 3 291 70 253 89 197 107 123 125 146 165 166 202 184 237H118C104 237 92 233 82 226L55 273C71 271 87 270 105 270H200C210 290 225 324 246 374L257 371V472C223 423 182 381 132 346 82 310 53 293 45 293 43 293 43 293 43 295 43 297 47 303 56 312 118 370 167 450 203 551H118C100 551 86 549 75 546L58 589C72 585 88 584 108 584H257V734C257 767 256 797 255 823 291 819 319 816 340 812 361 808 374 804 378 801 382 798 384 794 384 789 384 784 377 779 364 774V633ZM758 537H664C652 510 636 479 616 444 628 351 654 274 696 212 730 297 751 405 758 537ZM295 237 242 145C273 142 304 137 335 131 354 165 368 200 377 237H295ZM88 751C128 751 163 742 193 726 223 709 239 691 239 671 239 651 234 634 224 622 214 610 202 604 188 604 173 604 162 607 156 613 149 619 145 630 144 646 140 686 121 717 87 741 82 744 80 746 80 748 80 750 82 751 88 751Z"/>
</g>
<g clip-path="url(#clip_14)">
<path transform="matrix(.01,0,0,-.01,268.21113,202.42938)" d="M310 781H678C689 799 698 812 706 821 714 830 720 835 726 835 734 835 756 822 792 798 827 773 845 756 845 748 845 739 832 729 808 719V651L810 559C810 549 807 541 801 535 795 529 784 523 767 517 750 511 730 509 707 509 694 509 687 516 687 531H308C308 525 299 519 281 512 263 504 239 501 208 501 198 501 194 504 194 512L196 557C197 577 198 595 198 612V732C198 761 197 790 195 819 239 807 278 794 310 781ZM687 677V748H328C325 740 319 734 309 730V677H687ZM687 564V644H309V564H687ZM740 454H99C85 454 73 450 63 443L37 490C53 488 69 487 87 487H797C806 504 815 520 825 536 835 551 841 561 845 565 848 569 852 571 858 571 863 571 876 562 897 545L954 499C970 485 978 474 978 466 978 458 968 454 949 454H778C838 415 869 390 869 380 869 369 858 360 837 353V253C837 233 837 216 838 202 839 187 840 178 840 175 840 171 838 168 835 164 831 160 819 154 798 146 854 100 883 71 883 59 883 52 875 49 861 49H555V-28H796C812 0 825 17 833 26 841 35 847 40 852 40 856 40 870 32 892 18 914 4 932-9 947-21 961-33 969-43 969-50 969-57 961-61 945-61H134C120-61 108-64 98-72L72-25C88-27 104-28 122-28H443V49H209C195 49 183 45 173 38L147 85C163 83 179 82 197 82H443V150H280C280 142 278 136 274 132 270 128 260 123 243 119 225 115 205 113 182 113 172 113 167 119 168 132 169 145 170 172 170 213V358C170 386 169 414 167 443 203 434 239 423 273 411H714C723 429 732 443 740 454ZM443 378H303C299 366 292 358 280 354V296H443V378ZM718 296V378H574C570 368 564 361 555 357V296H718ZM443 263H280V183H443V263ZM718 183V263H555V183H718ZM770 139C756 137 744 137 734 137 724 137 719 141 718 150H555V82H735C743 98 755 117 770 139Z"/>
</g>
<g clip-path="url(#clip_15)">
<path transform="matrix(1,0,0,-1,0,216)" stroke-width=".8" stroke-linecap="square" stroke-linejoin="round" fill="none" stroke="#bebebe" d="M45.2225 47.21965H421.2"/>
</g>
<path transform="matrix(1,0,0,-1,0,216)" d="M45.2225 47.21965H41.7225"/>
<path transform="matrix(1,0,0,-1,0,216)" stroke-width=".8" stroke-linecap="butt" stroke-linejoin="round" fill="none" stroke="#000000" d="M45.2225 47.21965H41.7225"/>
<use data-text="0" xlink:href="#font_1_48" transform="matrix(10,0,0,-10,33.535,172.38191)"/>
<g clip-path="url(#clip_16)">
<path transform="matrix(1,0,0,-1,0,216)" stroke-width=".8" stroke-linecap="square" stroke-linejoin="round" fill="none" stroke="#bebebe" d="M45.2225 77.325489H421.2"/>
</g>
<path transform="matrix(1,0,0,-1,0,216)" d="M45.2225 77.325489H41.7225"/>
<path transform="matrix(1,0,0,-1,0,216)" stroke-width=".8" stroke-linecap="butt" stroke-linejoin="round" fill="none" stroke="#000000" d="M45.2225 77.325489H41.7225"/>
<use data-text="2" xlink:href="#font_1_50" transform="matrix(10,0,0,-10,28.8475,142.27608)"/>
<use data-text="0" xlink:href="#font_1_48" transform="matrix(10,0,0,-10,33.5375,142.27608)"/>
<g clip-path="url(#clip_17)">
<path transform="matrix(1,0,0,-1,0,216)" stroke-width=".8" stroke-linecap="square" stroke-linejoin="round" fill="none" stroke="#bebebe" d="M45.2225 107.43131H421.2"/>
</g>
<path transform="matrix(1,0,0,-1,0,216)" d="M45.2225 107.43131H41.7225"/>
<path transform="matrix(1,0,0,-1,0,216)" stroke-width=".8" stroke-linecap="butt" stroke-linejoin="round" fill="none" stroke="#000000" d="M45.2225 107.43131H41.7225"/>
<use data-text="4" xlink:href="#font_1_52" transform="matrix(10,0,0,-10,28.8475,112.17025)"/>
<use data-text="0" xlink:href="#font_1_48" transform="matrix(10,0,0,-10,33.5375,112.17025)"/>
<g clip-path="url(#clip_18)">
<path transform="matrix(1,0,0,-1,0,216)" stroke-width=".8" stroke-linecap="square" stroke-linejoin="round" fill="none" stroke="#bebebe" d="M45.2225 137.53714H421.2"/>
</g>
<path transform="matrix(1,0,0,-1,0,216)" d="M45.2225 137.53714H41.7225"/>
<path transform="matrix(1,0,0,-1,0,216)" stroke-width=".8" stroke-linecap="butt" stroke-linejoin="round" fill="none" stroke="#000000" d="M45.2225 137.53714H41.7225"/>
<use data-text="6" xlink:href="#font_1_54" transform="matrix(10,0,0,-10,28.8475,82.06442)"/>
<use data-text="0" xlink:href="#font_1_48" transform="matrix(10,0,0,-10,33.5375,82.06442)"/>
<g clip-path="url(#clip_19)">
<path transform="matrix(1,0,0,-1,0,216)" stroke-width=".8" stroke-linecap="square" stroke-linejoin="round" fill="none" stroke="#bebebe" d="M45.2225 167.64298H421.2"/>
</g>
<path transform="matrix(1,0,0,-1,0,216)" d="M45.2225 167.64298H41.7225"/>
<path transform="matrix(1,0,0,-1,0,216)" stroke-width=".8" stroke-linecap="butt" stroke-linejoin="round" fill="none" stroke="#000000" d="M45.2225 167.64298H41.7225"/>
<use data-text="8" xlink:href="#font_1_56" transform="matrix(10,0,0,-10,28.8475,51.958589)"/>
<use data-text="0" xlink:href="#font_1_48" transform="matrix(10,0,0,-10,33.5375,51.958589)"/>
<g clip-path="url(#clip_20)">
<path transform="matrix(1,0,0,-1,0,216)" stroke-width=".8" stroke-linecap="square" stroke-linejoin="round" fill="none" stroke="#bebebe" d="M45.2225 197.74881H421.2"/>
</g>
<path transform="matrix(1,0,0,-1,0,216)" d="M45.2225 197.74881H41.7225"/>
<path transform="matrix(1,0,0,-1,0,216)" stroke-width=".8" stroke-linecap="butt" stroke-linejoin="round" fill="none" stroke="#000000" d="M45.2225 197.74881H41.7225"/>
<use data-text="1" xlink:href="#font_1_49" transform="matrix(10,0,0,-10,24.16,21.852753)"/>
<use data-text="0" xlink:href="#font_1_48" transform="matrix(10,0,0,-10,28.85,21.852753)"/>
<use data-text="0" xlink:href="#font_1_48" transform="matrix(10,0,0,-10,33.54,21.852753)"/>
<g clip-path="url(#clip_21)">
<path transform="matrix(0,-.01,-.01,-0,18.769375,107.76312)" d="M312 556C307 433 299 341 289 279 278 217 256 160 223 108 189 56 135-2 61-68 41-86 30-95 28-95V-94C28-92 30-87 35-81 105 10 150 98 170 182 189 266 199 390 199 556H103C89 556 77 552 67 545L41 592C57 590 73 589 91 589H199C200 661 199 736 197 816 235 812 269 808 297 802 325 796 342 792 348 789 354 785 357 781 357 777 357 772 351 767 341 761 325 752 316 731 316 699 316 667 315 630 313 589H372C380 608 387 622 393 632 399 641 404 646 409 646 417 646 441 634 482 611 522 588 543 572 543 563 543 554 531 547 508 542 506 376 503 252 500 170 497 87 493 34 488 11 483-12 474-31 461-45 448-59 430-70 408-78 385-85 367-89 354-89 340-89 333-82 331-70 326-41 318-21 308-9 297 2 277 12 247 22 237 24 233 26 233 28 233 30 238 31 250 31 296 31 329 34 348 40 366 46 377 57 380 72 383 86 386 144 389 246 392 348 394 451 395 556H312ZM682 652H768C781 668 794 687 807 707 811 714 817 718 823 718 829 718 846 708 875 690 904 671 924 658 934 650 944 642 950 634 950 626 950 618 940 611 920 606V59C920 47 920 37 921 29L923 7C923 0 913-6 895-14 877-22 853-26 823-26 807-26 800-20 800-10V42H676V-6C676-14 674-20 670-24 666-28 654-33 636-39 618-45 599-48 580-48 570-48 565-43 566-35 567-19 568 4 568 38V615C568 643 567 671 565 700 607 684 646 668 682 652ZM800 75V619H693C689 615 684 612 676 609V75H800Z"/>
</g>
<g clip-path="url(#clip_22)">
<path transform="matrix(0,-.01,-.01,-0,18.769375,97.76314)" d="M537 643H355C341 643 329 639 319 632L293 679C309 677 325 676 343 676H537V724C537 757 536 787 535 813 556 812 580 809 608 805 636 800 654 795 663 791 671 787 676 782 676 776 676 770 668 764 653 758V676H770C777 690 786 707 798 725 810 743 817 753 819 755 821 756 823 757 826 757 834 757 849 748 873 730 896 712 914 697 928 685 942 673 949 663 949 655 949 647 938 643 918 643H653V544H734C740 561 746 574 753 584 759 593 765 598 771 598 779 598 802 585 842 561 881 537 901 521 901 513 901 505 891 498 872 492V390C872 378 872 368 873 360L875 339C875 330 864 322 842 314 820 306 792 303 757 303 751 303 748 304 746 306 744 308 744 312 744 318V348H653V299C732 285 793 264 837 238 881 212 903 183 903 152 903 134 895 116 880 100 865 83 848 75 829 75 795 75 773 94 764 134 756 164 743 192 724 218 704 244 681 264 653 278V162L655 58C655 53 654 49 652 47 650 45 643 41 631 37 619 32 603 28 583 24 563 20 549 18 541 18 536 18 534 23 534 33L536 72C536 98 537 128 537 162V234C502 184 416 128 279 68 301 48 330 34 367 26 403 17 464 13 549 13 634 13 709 14 774 18 838 22 886 26 916 30 946 34 965 37 971 37 977 37 980 35 980 33 980 30 973 25 960 19 946 13 934 1 922-17 910-35 901-58 896-84 894-93 888-98 880-100 871-101 818-102 722-102 626-102 550-99 496-95 442-91 397-79 362-60 327-40 298-19 274 4 250 28 232 40 221 40 213 40 202 33 190 19 178 5 155-32 121-94 117-100 114-103 111-103 108-103 104-101 100-97 95-93 84-79 67-56 50-33 36-10 25 12 88 44 129 64 149 73V387H92C74 387 60 384 50 380L29 425C43 421 59 420 79 420H130C138 435 148 449 158 461 168 473 175 479 179 479 185 479 207 466 244 442 280 418 299 401 299 392 299 383 288 375 267 368V80C378 157 454 246 495 348H452V334C452 325 443 317 425 311 407 304 380 301 346 301 341 301 339 304 340 311 341 326 342 351 342 385V496C342 524 341 552 339 581 385 569 424 557 457 544H537V643ZM537 511H480C476 507 466 503 452 497V381H537V511ZM744 381V511H653V381H744ZM70 759C99 759 132 753 168 742 204 731 232 714 250 692 268 669 277 646 277 624 277 601 269 582 253 568 237 554 218 547 197 547 182 547 169 553 157 566 145 579 140 599 140 625 140 651 135 674 125 694 115 714 96 733 69 749 64 751 62 754 62 756 62 758 64 759 70 759Z"/>
</g>
<g clip-path="url(#clip_23)">
<path transform="matrix(0,-.01,-.01,-0,18.769375,87.76315)" d="M624 404C665 443 720 520 789 634 820 614 850 591 880 565 910 539 925 523 925 517 925 510 919 507 907 507 895 507 886 505 878 503 870 501 857 495 840 487 823 479 794 463 754 441L624 368V83C624 66 630 55 644 49 658 43 686 40 729 40 759 40 781 43 795 50 809 57 823 72 835 96 847 119 861 159 879 215 881 223 884 228 888 228 891 228 892 223 891 214 885 176 882 146 882 124 882 102 885 83 892 69 898 55 910 42 926 31 942 20 950 10 950 0 950-12 942-25 928-40 913-55 893-66 867-72 841-78 803-82 753-82 703-82 658-79 617-74 576-68 548-62 534-54 520-46 511-34 507-18 503-2 501 23 501 61V692C501 737 500 774 498 804 558 798 599 792 621 788 642 784 653 778 653 772 653 765 643 759 624 753V404ZM243 452H334C357 488 370 509 374 513 378 517 383 519 389 519 395 519 407 511 425 496 443 481 458 468 470 457 482 446 489 437 489 430 489 422 484 419 474 419H243V99L380 145C443 166 477 177 483 177 485 177 486 176 486 174 486 172 484 169 480 167 333 69 227-10 161-70 153-77 148-81 145-81 142-81 138-75 132-63 126-51 115-29 99 5 83 39 76 58 76 61 76 65 79 69 85 72 113 85 127 102 127 123V681C127 715 126 746 124 775 220 769 268 759 268 745 268 737 259 730 243 724V452Z"/>
</g>
<g clip-path="url(#clip_24)">
<path transform="matrix(1,0,0,-1,0,216)" stroke-width="1.5" stroke-linecap="square" stroke-linejoin="round" fill="none" stroke="#ff0000" d="M62.312387 48.72494 127.90993 77.325489 196.95998 107.43131 266.01 137.53714 335.06007 167.64298 404.1101 197.74881"/>
</g>
<g clip-path="url(#clip_25)">
<path transform="matrix(1,0,0,-1,0,216)" stroke-width="1.5" stroke-linecap="square" stroke-linejoin="round" fill="none" stroke="#0000ff" d="M62.312387 48.72494 127.90993 75.165187 196.95998 102.56661 266.01 127.61314 335.06007 156.6959 404.1101 183.74359"/>
<g clip-path="url(#clip_26)">
<path transform="matrix(1,0,0,-1,62.312387,167.27506)" d="M0-3C.795609-3 1.55874-2.683901 2.12132-2.12132 2.683901-1.55874 3-.795609 3 0 3 .795609 2.683901 1.55874 2.12132 2.12132 1.55874 2.683901 .795609 3 0 3-.795609 3-1.55874 2.683901-2.12132 2.12132-2.683901 1.55874-3 .795609-3 0-3-.795609-2.683901-1.55874-2.12132-2.12132-1.55874-2.683901-.795609-3 0-3Z" fill="#0000ff"/>
<path transform="matrix(1,0,0,-1,62.312387,167.27506)" stroke-width="1" stroke-linecap="butt" stroke-linejoin="round" fill="none" stroke="#0000ff" d="M0-3C.795609-3 1.55874-2.683901 2.12132-2.12132 2.683901-1.55874 3-.795609 3 0 3 .795609 2.683901 1.55874 2.12132 2.12132 1.55874 2.683901 .795609 3 0 3-.795609 3-1.55874 2.683901-2.12132 2.12132-2.683901 1.55874-3 .795609-3 0-3-.795609-2.683901-1.55874-2.12132-2.12132-1.55874-2.683901-.795609-3 0-3Z"/>
</g>
<g clip-path="url(#clip_27)">
<path transform="matrix(1,0,0,-1,127.90993,140.83483)" d="M0-3C.795609-3 1.55874-2.683901 2.12132-2.12132 2.683901-1.55874 3-.795609 3 0 3 .795609 2.683901 1.55874 2.12132 2.12132 1.55874 2.683901 .795609 3 0 3-.795609 3-1.55874 2.683901-2.12132 2.12132-2.683901 1.55874-3 .795609-3 0-3-.795609-2.683901-1.55874-2.12132-2.12132-1.55874-2.683901-.795609-3 0-3Z" fill="#0000ff"/>
<path transform="matrix(1,0,0,-1,127.90993,140.83483)" stroke-width="1" stroke-linecap="butt" stroke-linejoin="round" fill="none" stroke="#0000ff" d="M0-3C.795609-3 1.55874-2.683901 2.12132-2.12132 2.683901-1.55874 3-.795609 3 0 3 .795609 2.683901 1.55874 2.12132 2.12132 1.55874 2.683901 .795609 3 0 3-.795609 3-1.55874 2.683901-2.12132 2.12132-2.683901 1.55874-3 .795609-3 0-3-.795609-2.683901-1.55874-2.12132-2.12132-1.55874-2.683901-.795609-3 0-3Z"/>
</g>
<g clip-path="url(#clip_28)">
<path transform="matrix(1,0,0,-1,196.95998,113.43339)" d="M0-3C.795609-3 1.55874-2.683901 2.12132-2.12132 2.683901-1.55874 3-.795609 3 0 3 .795609 2.683901 1.55874 2.12132 2.12132 1.55874 2.683901 .795609 3 0 3-.795609 3-1.55874 2.683901-2.12132 2.12132-2.683901 1.55874-3 .795609-3 0-3-.795609-2.683901-1.55874-2.12132-2.12132-1.55874-2.683901-.795609-3 0-3Z" fill="#0000ff"/>
<path transform="matrix(1,0,0,-1,196.95998,113.43339)" stroke-width="1" stroke-linecap="butt" stroke-linejoin="round" fill="none" stroke="#0000ff" d="M0-3C.795609-3 1.55874-2.683901 2.12132-2.12132 2.683901-1.55874 3-.795609 3 0 3 .795609 2.683901 1.55874 2.12132 2.12132 1.55874 2.683901 .795609 3 0 3-.795609 3-1.55874 2.683901-2.12132 2.12132-2.683901 1.55874-3 .795609-3 0-3-.795609-2.683901-1.55874-2.12132-2.12132-1.55874-2.683901-.795609-3 0-3Z"/>
</g>
<g clip-path="url(#clip_29)">
<path transform="matrix(1,0,0,-1,266.01,88.38686)" d="M0-3C.795609-3 1.55874-2.683901 2.12132-2.12132 2.683901-1.55874 3-.795609 3 0 3 .795609 2.683901 1.55874 2.12132 2.12132 1.55874 2.683901 .795609 3 0 3-.795609 3-1.55874 2.683901-2.12132 2.12132-2.683901 1.55874-3 .795609-3 0-3-.795609-2.683901-1.55874-2.12132-2.12132-1.55874-2.683901-.795609-3 0-3Z" fill="#0000ff"/>
<path transform="matrix(1,0,0,-1,266.01,88.38686)" stroke-width="1" stroke-linecap="butt" stroke-linejoin="round" fill="none" stroke="#0000ff" d="M0-3C.795609-3 1.55874-2.683901 2.12132-2.12132 2.683901-1.55874 3-.795609 3 0 3 .795609 2.683901 1.55874 2.12132 2.12132 1.55874 2.683901 .795609 3 0 3-.795609 3-1.55874 2.683901-2.12132 2.12132-2.683901 1.55874-3 .795609-3 0-3-.795609-2.683901-1.55874-2.12132-2.12132-1.55874-2.683901-.795609-3 0-3Z"/>
</g>
<g clip-path="url(#clip_30)">
<path transform="matrix(1,0,0,-1,335.06007,59.304098)" d="M0-3C.795609-3 1.55874-2.683901 2.12132-2.12132 2.683901-1.55874 3-.795609 3 0 3 .795609 2.683901 1.55874 2.12132 2.12132 1.55874 2.683901 .795609 3 0 3-.795609 3-1.55874 2.683901-2.12132 2.12132-2.683901 1.55874-3 .795609-3 0-3-.795609-2.683901-1.55874-2.12132-2.12132-1.55874-2.683901-.795609-3 0-3Z" fill="#0000ff"/>
<path transform="matrix(1,0,0,-1,335.06007,59.304098)" stroke-width="1" stroke-linecap="butt" stroke-linejoin="round" fill="none" stroke="#0000ff" d="M0-3C.795609-3 1.55874-2.683901 2.12132-2.12132 2.683901-1.55874 3-.795609 3 0 3 .795609 2.683901 1.55874 2.12132 2.12132 1.55874 2.683901 .795609 3 0 3-.795609 3-1.55874 2.683901-2.12132 2.12132-2.683901 1.55874-3 .795609-3 0-3-.795609-2.683901-1.55874-2.12132-2.12132-1.55874-2.683901-.795609-3 0-3Z"/>
</g>
<g clip-path="url(#clip_31)">
<path transform="matrix(1,0,0,-1,404.1101,32.25641)" d="M0-3C.795609-3 1.55874-2.683901 2.12132-2.12132 2.683901-1.55874 3-.795609 3 0 3 .795609 2.683901 1.55874 2.12132 2.12132 1.55874 2.683901 .795609 3 0 3-.795609 3-1.55874 2.683901-2.12132 2.12132-2.683901 1.55874-3 .795609-3 0-3-.795609-2.683901-1.55874-2.12132-2.12132-1.55874-2.683901-.795609-3 0-3Z" fill="#0000ff"/>
<path transform="matrix(1,0,0,-1,404.1101,32.25641)" stroke-width="1" stroke-linecap="butt" stroke-linejoin="round" fill="none" stroke="#0000ff" d="M0-3C.795609-3 1.55874-2.683901 2.12132-2.12132 2.683901-1.55874 3-.795609 3 0 3 .795609 2.683901 1.55874 2.12132 2.12132 1.55874 2.683901 .795609 3 0 3-.795609 3-1.55874 2.683901-2.12132 2.12132-2.683901 1.55874-3 .795609-3 0-3-.795609-2.683901-1.55874-2.12132-2.12132-1.55874-2.683901-.795609-3 0-3Z"/>
</g>
</g>
<g clip-path="url(#clip_32)">
<path transform="matrix(1,0,0,-1,0,216)" stroke-width="1.5" stroke-linecap="square" stroke-linejoin="round" fill="none" stroke="#008000" d="M62.312387 48.72494 127.90993 75.0574 196.95998 101.78896 266.01 126.02671 335.06007 153.35572 404.1101 178.20041"/>
<g clip-path="url(#clip_33)">
<path transform="matrix(1,0,0,-1,62.312387,167.27506)" d="M-3-3 3 3M-3 3 3-3" fill="#008000"/>
<path transform="matrix(1,0,0,-1,62.312387,167.27506)" stroke-width="1" stroke-linecap="butt" stroke-linejoin="round" fill="none" stroke="#008000" d="M-3-3 3 3M-3 3 3-3"/>
</g>
<g clip-path="url(#clip_34)">
<path transform="matrix(1,0,0,-1,127.90993,140.9426)" d="M-3-3 3 3M-3 3 3-3" fill="#008000"/>
<path transform="matrix(1,0,0,-1,127.90993,140.9426)" stroke-width="1" stroke-linecap="butt" stroke-linejoin="round" fill="none" stroke="#008000" d="M-3-3 3 3M-3 3 3-3"/>
</g>
<g clip-path="url(#clip_35)">
<path transform="matrix(1,0,0,-1,196.95998,114.21104)" d="M-3-3 3 3M-3 3 3-3" fill="#008000"/>
<path transform="matrix(1,0,0,-1,196.95998,114.21104)" stroke-width="1" stroke-linecap="butt" stroke-linejoin="round" fill="none" stroke="#008000" d="M-3-3 3 3M-3 3 3-3"/>
</g>
<g clip-path="url(#clip_36)">
<path transform="matrix(1,0,0,-1,266.01,89.97329)" d="M-3-3 3 3M-3 3 3-3" fill="#008000"/>
<path transform="matrix(1,0,0,-1,266.01,89.97329)" stroke-width="1" stroke-linecap="butt" stroke-linejoin="round" fill="none" stroke="#008000" d="M-3-3 3 3M-3 3 3-3"/>
</g>
<g clip-path="url(#clip_37)">
<path transform="matrix(1,0,0,-1,335.06007,62.644296)" d="M-3-3 3 3M-3 3 3-3" fill="#008000"/>
<path transform="matrix(1,0,0,-1,335.06007,62.644296)" stroke-width="1" stroke-linecap="butt" stroke-linejoin="round" fill="none" stroke="#008000" d="M-3-3 3 3M-3 3 3-3"/>
</g>
<g clip-path="url(#clip_38)">
<path transform="matrix(1,0,0,-1,404.1101,37.7996)" d="M-3-3 3 3M-3 3 3-3" fill="#008000"/>
<path transform="matrix(1,0,0,-1,404.1101,37.7996)" stroke-width="1" stroke-linecap="butt" stroke-linejoin="round" fill="none" stroke="#008000" d="M-3-3 3 3M-3 3 3-3"/>
</g>
</g>
<path transform="matrix(1,0,0,-1,0,216)" stroke-width=".8" stroke-linecap="square" stroke-miterlimit="10" stroke-linejoin="miter" fill="none" stroke="#000000" d="M45.2225 41.27375V205.2"/>
<path transform="matrix(1,0,0,-1,0,216)" stroke-width=".8" stroke-linecap="square" stroke-miterlimit="10" stroke-linejoin="miter" fill="none" stroke="#000000" d="M421.2 41.27375V205.2"/>
<path transform="matrix(1,0,0,-1,0,216)" stroke-width=".8" stroke-linecap="square" stroke-miterlimit="10" stroke-linejoin="miter" fill="none" stroke="#000000" d="M45.2225 41.27375H421.2"/>
<path transform="matrix(1,0,0,-1,0,216)" stroke-width=".8" stroke-linecap="square" stroke-miterlimit="10" stroke-linejoin="miter" fill="none" stroke="#000000" d="M45.2225 205.2H421.2"/>
<g>
<path transform="matrix(1,0,0,-1,0,216)" d="M52.2225 153.93437H114.2225C115.55583 153.93437 116.2225 154.60105 116.2225 155.93437V198.2C116.2225 199.53334 115.55583 200.2 114.2225 200.2H52.2225C50.889169 200.2 50.2225 199.53334 50.2225 198.2V155.93437C50.2225 154.60105 50.889169 153.93437 52.2225 153.93437Z" fill="#ffffff" fill-opacity=".8"/>
<path transform="matrix(1,0,0,-1,0,216)" stroke-width="1" stroke-linecap="butt" stroke-miterlimit="10" stroke-linejoin="miter" fill="none" stroke="#d5d6d5" stroke-opacity=".8" d="M52.2225 153.93437H114.2225C115.55583 153.93437 116.2225 154.60105 116.2225 155.93437V198.2C116.2225 199.53334 115.55583 200.2 114.2225 200.2H52.2225C50.889169 200.2 50.2225 199.53334 50.2225 198.2V155.93437C50.2225 154.60105 50.889169 153.93437 52.2225 153.93437Z"/>
</g>
<path transform="matrix(1,0,0,-1,0,216)" stroke-width="1.5" stroke-linecap="square" stroke-linejoin="round" fill="none" stroke="#ff0000" d="M54.2225 191.7H74.2225"/>
<g clip-path="url(#clip_39)">
<path transform="matrix(.01,0,0,-.01,82.2225,27.800004)" d="M419 699C419 727 418 756 416 787 463 772 505 756 541 740H782C797 773 809 790 819 790 828 790 852 777 891 753 929 728 949 711 949 703 949 694 937 685 915 677V394C915 374 915 357 916 343 917 328 918 320 918 319 918 307 907 297 885 291 863 285 838 282 810 282 802 282 797 283 795 286 793 289 792 294 792 302V333H710V182H782C790 196 798 211 807 225 815 239 821 247 824 250 827 253 830 255 834 255 842 255 863 241 898 215 933 189 951 171 951 162 951 153 942 149 926 149H710V-19H805C817 5 828 23 838 37 848 50 856 57 862 57 872 57 894 43 930 15 965-13 983-31 983-39 983-47 974-52 956-52H376C362-52 350-55 340-63L314-16C330-18 346-19 364-19H599V149H441C427 149 415 145 405 138L383 177C267 111 174 52 105 0 98-5 93-8 90-8 86-8 82-3 78 5L28 126C86 136 129 145 159 151V409H85C71 409 59 405 49 398L23 445C39 443 55 442 73 442H159V680H88C74 680 62 676 52 669L26 716C42 714 58 713 76 713H271C286 743 297 762 303 770 309 778 314 782 318 782 322 782 327 780 333 776 338 772 351 762 371 745 391 728 407 713 419 699ZM599 707H545C540 699 533 694 523 690V552H599V707ZM792 552V707H730C726 697 719 690 710 688V552H792ZM289 680C285 670 278 663 268 659V442H275C288 468 298 485 304 493 310 501 315 505 319 505 327 505 343 494 369 472 394 450 411 433 419 421V683C415 681 410 680 403 680H289ZM599 519H523V366H599V519ZM792 366V519H710V366H792ZM523 333V320C523 311 521 304 517 300 513 296 503 291 488 287 472 282 454 280 432 280 421 280 416 285 417 295 418 310 419 338 419 379V411C416 409 413 409 409 409H268V174C347 192 392 203 402 206 412 208 420 210 424 210 428 210 430 209 430 207 430 205 425 201 415 195 405 189 397 185 393 183 402 182 414 182 429 182H599V333H523Z"/>
</g>
<g clip-path="url(#clip_40)">
<path transform="matrix(.01,0,0,-.01,92.22249,27.800004)" d="M190 582H97C83 582 71 578 61 571L35 618C51 616 67 615 85 615H206V696C206 738 205 775 203 807 233 805 260 801 286 797 311 792 325 788 329 786 333 784 335 781 335 778 335 769 327 762 313 758V615H337C361 652 375 672 379 676 382 679 385 681 389 681 393 681 397 679 401 677 405 674 415 665 433 649 450 633 464 620 475 608V675C475 711 474 745 473 775 523 761 566 746 604 731L743 732C753 750 762 764 768 772 774 780 781 785 787 785 793 785 811 776 841 759L897 725C905 719 910 713 910 707 910 695 899 687 878 682V370C878 338 878 317 879 305L880 271C880 261 871 253 853 247 835 241 817 238 798 238 779 238 768 239 765 241 761 243 760 247 760 254V277H591C591 269 590 264 588 260 586 256 575 252 556 247 537 241 517 239 496 239 479 239 471 241 471 245L473 292C474 324 475 354 475 381V582H313V525C359 513 394 499 417 482 440 464 452 443 452 419 452 395 445 376 433 364 420 351 406 345 392 345 378 345 367 349 359 358 351 366 347 377 347 391 347 427 344 454 339 471 333 487 325 499 313 507V251C313 245 309 241 303 237 296 233 284 229 268 226 252 222 237 221 225 221 213 221 206 221 205 222 203 223 203 225 203 229L205 270C205 298 206 329 206 363V393C178 359 144 326 102 294 60 261 35 245 28 245 26 245 26 246 26 249 26 251 28 256 34 264 84 331 119 387 139 433 159 478 176 528 190 582ZM591 594H760V704H603C600 694 596 689 591 687V594ZM760 561H591V452H760V561ZM760 310V419H591V310H760ZM420 223C473 223 517 213 551 195 585 177 602 152 602 120 602 99 595 82 582 69 569 56 556 50 542 50 528 50 515 53 503 61 491 69 485 77 484 87 480 119 473 145 463 165 453 184 438 200 418 214 413 217 411 219 411 221 411 222 414 223 420 223ZM383 162 382 58C382 28 387 9 398 1 409-7 437-11 482-11 527-11 560-9 582-5 603-1 618 4 627 12 635 20 644 34 652 54 660 74 671 105 683 147 686 157 688 163 690 163 692 163 693 160 693 154L692 126C692 69 712 27 752 0 764-8 770-17 770-28 770-35 765-43 757-53 748-63 736-71 720-78 704-85 681-90 652-93 623-96 567-98 483-98 399-98 343-92 316-81 289-69 276-42 276 1V127C276 153 275 179 273 206 302 204 330 202 356 199 382 195 396 193 400 191 404 189 406 186 406 183 406 174 398 167 383 162ZM160 184C166 184 177 169 194 139 211 109 220 79 220 47 220 15 211-12 194-37 176-61 156-74 132-74 108-74 89-68 76-56 62-44 56-29 56-11 56 7 66 21 86 33 106 45 123 62 137 84 151 106 158 129 158 154L156 177C156 181 157 184 160 184ZM734 178C766 178 801 172 839 160 877 148 907 131 930 107 953 83 965 60 965 37 965 13 958-5 945-20 931-34 916-42 900-42 883-42 869-38 858-31 846-23 839-14 836-2 821 53 808 90 796 110 784 129 770 144 752 156 734 167 725 173 725 175 725 177 728 178 734 178Z"/>
</g>
<g clip-path="url(#clip_41)">
<path transform="matrix(.01,0,0,-.01,102.22247,27.800004)" d="M494 523H533V633H383C369 633 357 629 347 622L321 669C337 667 353 666 371 666H534V731C534 761 533 792 532 824 595 818 636 812 656 808 676 803 686 797 686 791 686 785 677 779 660 774L656 666H762C780 704 793 728 801 740 809 751 815 757 820 757 825 757 840 748 865 730 890 712 911 696 928 681 944 666 953 654 953 646 953 637 945 633 930 633H654L650 523H697C715 564 730 585 740 585 744 585 760 576 790 560 820 543 842 529 857 519 871 508 879 500 879 494 879 484 866 476 842 468V2C854 24 863 37 867 42 871 47 875 50 881 50 887 50 899 42 917 27 935 12 952-2 968-16 984-30 992-41 992-50 992-58 985-63 971-63H344C330-63 318-66 308-74L282-27C298-29 314-30 332-30H384V471C384 504 383 534 382 560 432 546 469 534 494 523ZM495 393H718V490H513C508 483 502 479 495 477V393ZM718 360H495V262H718V360ZM718 127V229H495V127H718ZM718-30V94H495V-30H718ZM230 530C273 526 295 519 295 509 295 502 286 496 269 492V-73C269-78 268-82 266-85 264-87 257-91 246-96 235-100 219-104 197-108 175-112 158-114 148-114 143-114 141-110 141-104L144-10C144 18 145 46 145 72V383C134 366 115 343 88 313 60 283 44 269 38 269 36 269 35 270 35 274 35 277 37 282 41 290 83 364 114 442 135 523 155 603 172 701 186 815 232 803 268 793 296 784 324 774 341 768 347 764 353 760 357 755 357 751 357 746 352 743 344 742 335 741 327 735 320 725 313 714 300 686 280 642 260 597 244 560 230 530Z"/>
</g>
<path transform="matrix(1,0,0,-1,0,216)" stroke-width="1.5" stroke-linecap="square" stroke-linejoin="round" fill="none" stroke="#0000ff" d="M54.2225 177.325H74.2225"/>
<path transform="matrix(1,0,0,-1,0,216)" d="M64.2225 174.325C65.01811 174.325 65.78124 174.6411 66.34382 175.20368 66.9064 175.76627 67.2225 176.52939 67.2225 177.325 67.2225 178.1206 66.9064 178.88375 66.34382 179.44632 65.78124 180.0089 65.01811 180.325 64.2225 180.325 63.42689 180.325 62.66376 180.0089 62.10118 179.44632 61.538599 178.88375 61.2225 178.1206 61.2225 177.325 61.2225 176.52939 61.538599 175.76627 62.10118 175.20368 62.66376 174.6411 63.42689 174.325 64.2225 174.325Z" fill="#0000ff"/>
<path transform="matrix(1,0,0,-1,0,216)" stroke-width="1" stroke-linecap="butt" stroke-linejoin="round" fill="none" stroke="#0000ff" d="M64.2225 174.325C65.01811 174.325 65.78124 174.6411 66.34382 175.20368 66.9064 175.76627 67.2225 176.52939 67.2225 177.325 67.2225 178.1206 66.9064 178.88375 66.34382 179.44632 65.78124 180.0089 65.01811 180.325 64.2225 180.325 63.42689 180.325 62.66376 180.0089 62.10118 179.44632 61.538599 178.88375 61.2225 178.1206 61.2225 177.325 61.2225 176.52939 61.538599 175.76627 62.10118 175.20368 62.66376 174.6411 63.42689 174.325 64.2225 174.325Z"/>
<g clip-path="url(#clip_42)">
<path transform="matrix(.01,0,0,-.01,82.2225,42.175004)" d="M394 674H179C165 674 153 670 143 663L117 710C133 708 149 707 167 707H699C709 726 720 744 731 762 742 779 749 790 753 794 757 798 761 800 765 800 773 800 796 784 833 753 869 721 888 700 888 690 888 679 879 674 861 674H551C543 659 539 643 539 625 529 531 522 468 517 436H743C751 451 761 469 774 489 786 509 795 521 799 525 803 529 808 531 813 531 823 531 846 514 883 482 920 450 939 428 939 418 939 408 930 403 912 403H647C645 399 641 395 634 389V79C634 63 639 52 650 44 661 36 688 32 732 32 776 32 806 36 822 44 838 52 850 67 860 90 870 112 883 157 901 223 903 231 906 236 908 236 910 236 912 232 912 225L910 171C910 142 913 117 919 97 925 77 942 58 968 41 980 33 986 25 986 17 986 9 979-4 967-23 954-42 931-56 898-65 864-74 815-79 749-79 653-79 588-70 552-53 516-36 498-3 498 46V338C472 230 434 147 382 90 330 33 262-12 177-48 91-84 43-102 33-102 31-102 30-101 30-101 30-98 35-93 46-87 122-41 181 0 224 40 266 80 300 128 324 184 348 240 365 313 376 403H124C110 403 98 399 88 392L62 439C78 437 94 436 112 436H380C386 494 390 574 394 674Z"/>
</g>
<g clip-path="url(#clip_43)">
<path transform="matrix(.01,0,0,-.01,92.22249,42.175004)" d="M552 656H422C408 656 396 652 386 645L360 692C376 690 392 689 410 689H552V736C552 769 551 799 550 825 650 819 701 809 701 793 701 786 691 779 673 771V689H741C753 716 764 736 774 749 784 761 791 768 795 768 799 768 811 760 832 745 853 730 871 716 887 702 903 688 911 677 911 671 911 661 903 656 888 656H673V551H787C806 589 821 609 833 609 841 609 867 594 909 566 951 538 972 518 972 506 972 494 961 487 941 487 901 485 874 481 860 473 846 465 831 452 816 433 801 414 792 405 790 405 788 405 787 407 787 411 787 415 788 423 790 435 792 447 796 474 801 518H370C356 518 344 514 334 507L308 554C324 552 340 551 358 551H552V656ZM118 761C186 761 234 753 262 737 290 721 304 697 304 667 304 645 295 627 278 612 261 596 245 589 229 589 213 589 199 593 188 602 177 611 171 623 170 638 165 672 158 697 149 711 139 725 122 738 96 748 86 752 82 755 82 757 82 759 94 761 118 761ZM270 99C300 112 334 129 372 151 378 154 383 156 386 156 388 156 390 154 390 152 390 149 386 144 380 136 355 108 324 70 286 24 248-22 222-55 208-75 202-82 197-86 192-86 187-86 182-81 178-72 174-62 162-41 142-7 122 26 113 46 113 54 113 62 116 67 123 70 146 79 158 92 158 109V450H89C75 450 63 446 53 439L27 486C43 484 59 483 77 483H146C164 520 179 539 189 539 199 539 222 527 257 505 291 483 309 467 309 458 309 448 296 439 270 431V99ZM587 168H362C348 168 336 164 326 157L300 204C316 202 332 201 350 201H597C612 284 618 383 615 498 650 496 681 493 709 489 736 485 752 481 757 478 762 474 765 470 765 465 765 460 759 455 749 450 745 448 743 443 741 437 739 430 737 415 735 391 727 313 717 249 704 201H785C797 223 807 242 817 256 827 270 833 279 837 282 840 284 843 286 847 286 856 286 880 271 920 241 959 211 979 192 979 182 979 172 970 168 954 168H693C687 151 681 136 675 124 769 114 833 95 868 67 903 38 921 9 921-21 921-41 913-60 898-76 883-92 865-101 843-101 811-101 791-81 784-42 776-2 763 28 743 51 723 73 698 93 667 110 650 81 628 55 602 32 576 8 543-12 504-31 464-50 417-66 361-79 305-92 264-99 238-99 230-99 227-97 227-95 227-93 233-90 246-86 348-55 426-20 478 18 530 57 567 107 587 168ZM441 496C494 496 532 488 556 472 580 456 592 436 592 412 592 395 586 381 575 369 564 357 551 351 535 351 519 351 507 355 498 363 488 371 483 384 482 400 481 416 477 432 469 448 461 464 453 474 443 480 433 486 429 490 429 492 429 494 433 496 441 496ZM370 375C384 375 409 370 444 362 479 354 503 342 517 326 530 310 537 294 537 278 537 262 530 246 516 231 502 216 486 209 470 209 454 209 441 213 433 222 424 230 419 245 419 267 418 288 415 306 409 320 403 334 394 346 382 355 369 364 363 370 363 372 363 374 365 375 370 375Z"/>
</g>
<g clip-path="url(#clip_44)">
<path transform="matrix(.01,0,0,-.01,102.22247,42.175004)" d="M239 701C240 691 241 682 241 674 241 638 230 613 208 597 186 581 164 574 142 574 120 574 105 581 96 596 86 610 82 625 82 639 82 653 92 668 112 682 132 696 148 710 158 724 168 738 173 754 173 772L169 810C169 814 170 816 172 816 176 816 185 807 199 789 212 771 222 752 230 734H775C788 756 798 770 804 776 810 782 815 786 820 786 831 786 859 771 904 741 948 711 971 687 971 669 971 661 967 654 960 650 952 645 942 643 930 645 917 646 901 647 882 647 863 647 843 641 823 631 802 621 782 605 762 584 769 581 789 567 822 543 854 519 871 503 871 495 871 487 864 484 851 484H392L371 331H740C759 359 771 375 775 379 779 383 783 385 789 385 795 385 804 381 818 373 832 365 849 353 871 339 893 325 907 314 915 306 923 298 927 292 927 287 927 276 911 268 880 263 875 189 868 122 860 64 851 5 842-32 834-48 826-64 812-77 794-87 776-97 753-103 727-107 700-110 681-112 669-112 657-112 649-109 644-104 639-99 635-87 633-68 630-49 620-34 602-23 584-12 557-3 520 3 512 4 508 7 508 11 508 15 512 17 521 17L609 14C649 14 678 17 694 24 710 30 721 40 725 53 729 66 734 96 740 143 745 190 749 242 752 298H362L344 268C337 260 331 256 326 256 320 256 302 262 270 276 238 290 222 298 220 300 218 302 217 304 217 308 217 312 218 315 222 317 240 328 250 343 253 362L292 659C320 654 349 648 378 641 407 633 424 628 428 625 432 621 434 618 434 615 434 605 425 598 407 592L397 517H705C721 548 735 571 747 586 760 620 771 658 780 701H239ZM529 157C533 166 542 181 554 201 566 221 573 233 576 235 579 237 582 239 585 239 595 239 617 223 651 193 685 162 703 142 703 132 703 126 696 124 684 124H130C116 124 104 120 94 113L64 160C80 158 96 157 114 157H529Z"/>
</g>
<path transform="matrix(1,0,0,-1,0,216)" stroke-width="1.5" stroke-linecap="square" stroke-linejoin="round" fill="none" stroke="#008000" d="M54.2225 162.825H74.2225"/>
<path transform="matrix(1,0,0,-1,0,216)" d="M61.2225 159.825 67.2225 165.825M61.2225 165.825 67.2225 159.825" fill="#008000"/>
<path transform="matrix(1,0,0,-1,0,216)" stroke-width="1" stroke-linecap="butt" stroke-linejoin="round" fill="none" stroke="#008000" d="M61.2225 159.825 67.2225 165.825M61.2225 165.825 67.2225 159.825"/>
<g clip-path="url(#clip_45)">
<path transform="matrix(.01,0,0,-.01,82.2225,56.675004)" d="M553 728C517 671 477 620 431 574 446 576 460 577 474 577 512 577 541 569 563 555 585 541 596 523 596 502 596 481 588 463 574 449 560 435 544 428 526 428 508 428 495 431 486 437 477 443 472 457 472 479 471 500 467 516 459 528 451 540 438 551 418 561 346 492 269 436 189 394 108 352 62 331 51 331 49 331 48 331 48 333 48 335 54 341 66 350 258 493 380 653 433 831 469 821 502 812 532 804 562 795 580 789 587 787 593 785 598 782 602 779 605 775 607 772 607 768 607 760 602 756 593 754 584 752 576 749 569 743 604 681 658 630 732 588 805 546 887 518 977 505 984 503 988 501 988 499 988 497 984 493 978 489 932 457 905 422 897 384 895 374 890 370 883 370 869 370 836 386 784 418 732 450 685 493 643 546 601 598 571 659 553 728ZM636 409C659 439 672 456 676 459 679 462 683 464 687 464 691 464 703 456 725 441 747 425 766 411 783 397 799 383 808 374 808 368 808 359 796 354 774 354 764 354 746 343 720 322 694 300 662 268 624 225 612 211 596 205 575 205 554 205 533 207 513 212 493 217 483 223 483 231 483 238 487 246 497 254L628 376H288C274 376 262 372 252 365L225 412C241 410 257 409 275 409H636ZM354 199H688C695 215 701 228 707 237 712 246 717 251 722 251 730 251 752 240 790 219 828 198 850 185 856 181 862 176 865 171 865 166 865 154 853 147 829 143V-18C829-29 829-39 830-48L832-70C832-74 830-78 827-80 823-82 816-85 806-89 795-93 783-96 770-98 756-100 743-101 730-101 717-101 709-100 706-99 703-97 702-93 702-86V-29H350V-84C350-89 347-93 341-97 335-101 321-105 300-110 278-114 258-117 240-117 235-117 233-113 234-107 235-91 236-67 236-33V158C236 186 235 214 233 243 274 232 314 217 354 199ZM702 3V166H374C368 158 360 152 350 148V3H702Z"/>
</g>
<g clip-path="url(#clip_46)">
<path transform="matrix(.01,0,0,-.01,92.22249,56.675004)" d="M552 656H422C408 656 396 652 386 645L360 692C376 690 392 689 410 689H552V736C552 769 551 799 550 825 650 819 701 809 701 793 701 786 691 779 673 771V689H741C753 716 764 736 774 749 784 761 791 768 795 768 799 768 811 760 832 745 853 730 871 716 887 702 903 688 911 677 911 671 911 661 903 656 888 656H673V551H787C806 589 821 609 833 609 841 609 867 594 909 566 951 538 972 518 972 506 972 494 961 487 941 487 901 485 874 481 860 473 846 465 831 452 816 433 801 414 792 405 790 405 788 405 787 407 787 411 787 415 788 423 790 435 792 447 796 474 801 518H370C356 518 344 514 334 507L308 554C324 552 340 551 358 551H552V656ZM118 761C186 761 234 753 262 737 290 721 304 697 304 667 304 645 295 627 278 612 261 596 245 589 229 589 213 589 199 593 188 602 177 611 171 623 170 638 165 672 158 697 149 711 139 725 122 738 96 748 86 752 82 755 82 757 82 759 94 761 118 761ZM270 99C300 112 334 129 372 151 378 154 383 156 386 156 388 156 390 154 390 152 390 149 386 144 380 136 355 108 324 70 286 24 248-22 222-55 208-75 202-82 197-86 192-86 187-86 182-81 178-72 174-62 162-41 142-7 122 26 113 46 113 54 113 62 116 67 123 70 146 79 158 92 158 109V450H89C75 450 63 446 53 439L27 486C43 484 59 483 77 483H146C164 520 179 539 189 539 199 539 222 527 257 505 291 483 309 467 309 458 309 448 296 439 270 431V99ZM587 168H362C348 168 336 164 326 157L300 204C316 202 332 201 350 201H597C612 284 618 383 615 498 650 496 681 493 709 489 736 485 752 481 757 478 762 474 765 470 765 465 765 460 759 455 749 450 745 448 743 443 741 437 739 430 737 415 735 391 727 313 717 249 704 201H785C797 223 807 242 817 256 827 270 833 279 837 282 840 284 843 286 847 286 856 286 880 271 920 241 959 211 979 192 979 182 979 172 970 168 954 168H693C687 151 681 136 675 124 769 114 833 95 868 67 903 38 921 9 921-21 921-41 913-60 898-76 883-92 865-101 843-101 811-101 791-81 784-42 776-2 763 28 743 51 723 73 698 93 667 110 650 81 628 55 602 32 576 8 543-12 504-31 464-50 417-66 361-79 305-92 264-99 238-99 230-99 227-97 227-95 227-93 233-90 246-86 348-55 426-20 478 18 530 57 567 107 587 168ZM441 496C494 496 532 488 556 472 580 456 592 436 592 412 592 395 586 381 575 369 564 357 551 351 535 351 519 351 507 355 498 363 488 371 483 384 482 400 481 416 477 432 469 448 461 464 453 474 443 480 433 486 429 490 429 492 429 494 433 496 441 496ZM370 375C384 375 409 370 444 362 479 354 503 342 517 326 530 310 537 294 537 278 537 262 530 246 516 231 502 216 486 209 470 209 454 209 441 213 433 222 424 230 419 245 419 267 418 288 415 306 409 320 403 334 394 346 382 355 369 364 363 370 363 372 363 374 365 375 370 375Z"/>
</g>
<g clip-path="url(#clip_47)">
<path transform="matrix(.01,0,0,-.01,102.22247,56.675004)" d="M239 701C240 691 241 682 241 674 241 638 230 613 208 597 186 581 164 574 142 574 120 574 105 581 96 596 86 610 82 625 82 639 82 653 92 668 112 682 132 696 148 710 158 724 168 738 173 754 173 772L169 810C169 814 170 816 172 816 176 816 185 807 199 789 212 771 222 752 230 734H775C788 756 798 770 804 776 810 782 815 786 820 786 831 786 859 771 904 741 948 711 971 687 971 669 971 661 967 654 960 650 952 645 942 643 930 645 917 646 901 647 882 647 863 647 843 641 823 631 802 621 782 605 762 584 769 581 789 567 822 543 854 519 871 503 871 495 871 487 864 484 851 484H392L371 331H740C759 359 771 375 775 379 779 383 783 385 789 385 795 385 804 381 818 373 832 365 849 353 871 339 893 325 907 314 915 306 923 298 927 292 927 287 927 276 911 268 880 263 875 189 868 122 860 64 851 5 842-32 834-48 826-64 812-77 794-87 776-97 753-103 727-107 700-110 681-112 669-112 657-112 649-109 644-104 639-99 635-87 633-68 630-49 620-34 602-23 584-12 557-3 520 3 512 4 508 7 508 11 508 15 512 17 521 17L609 14C649 14 678 17 694 24 710 30 721 40 725 53 729 66 734 96 740 143 745 190 749 242 752 298H362L344 268C337 260 331 256 326 256 320 256 302 262 270 276 238 290 222 298 220 300 218 302 217 304 217 308 217 312 218 315 222 317 240 328 250 343 253 362L292 659C320 654 349 648 378 641 407 633 424 628 428 625 432 621 434 618 434 615 434 605 425 598 407 592L397 517H705C721 548 735 571 747 586 760 620 771 658 780 701H239ZM529 157C533 166 542 181 554 201 566 221 573 233 576 235 579 237 582 239 585 239 595 239 617 223 651 193 685 162 703 142 703 132 703 126 696 124 684 124H130C116 124 104 120 94 113L64 160C80 158 96 157 114 157H529Z"/>
</g>
</g>
</svg>
